<?xml version="1.0" encoding="iso-8859-1"?>
<!-- Generator: Adobe Illustrator 18.1.1, SVG Export Plug-In . SVG Version: 6.00 Build 0)  -->
<svg version="1.1" id="Capa_1" xmlns="http://www.w3.org/2000/svg" xmlns:xlink="http://www.w3.org/1999/xlink" x="0px" y="0px"
	 viewBox="0 0 26.927 26.927" style="enable-background:new 0 0 26.927 26.927;" xml:space="preserve">
<g>
	<g id="c194_arrow">
		<path style="fill:#030104;" d="M13.464,0.002C6.027,0.002,0,6.027,0,13.464c0,7.435,6.027,13.462,13.464,13.462
			c7.432,0,13.463-6.027,13.463-13.462C26.928,6.027,20.896,0.002,13.464,0.002z M22.816,15.302l-6.355,6.354
			c-0.826,0.828-2.121,0.867-2.895,0.094c-0.772-0.773-0.732-2.068,0.094-2.893l3.04-3.042H5.447c-1.097,0-1.982-0.888-1.984-1.981
			c0-1.094,0.887-1.98,1.984-1.98h11.311L13.702,8.8c-0.812-0.814-0.847-2.103-0.07-2.875c0.773-0.772,2.058-0.741,2.871,0.073
			l6.271,6.268c0.027,0.027,0.047,0.062,0.07,0.088c0.023,0.02,0.047,0.033,0.066,0.054C23.684,13.177,23.643,14.474,22.816,15.302z
			"/>
	</g>
</g>
<g>
</g>
<g>
</g>
<g>
</g>
<g>
</g>
<g>
</g>
<g>
</g>
<g>
</g>
<g>
</g>
<g>
</g>
<g>
</g>
<g>
</g>
<g>
</g>
<g>
</g>
<g>
</g>
<g>
</g>
</svg>
