<svg width="1052" height="547" viewBox="0 0 1052 547" fill="none" xmlns="http://www.w3.org/2000/svg">
<g opacity="0.5">
<rect x="739.82" y="390.097" width="82.6109" height="30.8432" rx="15.4216" transform="rotate(-65.0996 739.82 390.097)" stroke="#F25656" stroke-width="3"/>
<rect x="739.82" y="390.097" width="82.6109" height="30.8432" rx="15.4216" transform="rotate(-65.0996 739.82 390.097)" stroke="url(#paint0_linear_60313_68)" stroke-opacity="0.25" stroke-width="3"/>
</g>
<g opacity="0.5">
<rect x="1.93237" y="-0.705487" width="81.5063" height="28.7661" rx="14.3831" transform="matrix(0.394498 -0.918897 0.893747 0.448572 141.312 79.039)" stroke="#F25656" stroke-width="3"/>
<rect x="1.93237" y="-0.705487" width="81.5063" height="28.7661" rx="14.3831" transform="matrix(0.394498 -0.918897 0.893747 0.448572 141.312 79.039)" stroke="url(#paint1_linear_60313_68)" stroke-opacity="0.25" stroke-width="3"/>
</g>
<g opacity="0.5">
<rect x="1.93237" y="-0.705487" width="41.6958" height="13.8013" rx="6.90063" transform="matrix(0.394498 -0.918897 0.893747 0.448572 338.308 47.4569)" stroke="#FCC304" stroke-width="3"/>
<rect x="1.93237" y="-0.705487" width="41.6958" height="13.8013" rx="6.90063" transform="matrix(0.394498 -0.918897 0.893747 0.448572 338.308 47.4569)" stroke="url(#paint2_linear_60313_68)" stroke-opacity="0.25" stroke-width="3"/>
</g>
<g opacity="0.5">
<rect x="532.836" y="482.355" width="42.28" height="14.8998" rx="7.44991" transform="rotate(-65.0996 532.836 482.355)" stroke="#BC04FC" stroke-width="3"/>
<rect x="532.836" y="482.355" width="42.28" height="14.8998" rx="7.44991" transform="rotate(-65.0996 532.836 482.355)" stroke="url(#paint3_linear_60313_68)" stroke-opacity="0.25" stroke-width="3"/>
</g>
<g opacity="0.5">
<rect x="986.43" y="282.162" width="83.406" height="31.1576" rx="15.5788" transform="rotate(-65.0996 986.43 282.162)" stroke="#FCC304" stroke-width="3"/>
<rect x="986.43" y="282.162" width="83.406" height="31.1576" rx="15.5788" transform="rotate(-65.0996 986.43 282.162)" stroke="url(#paint4_linear_60313_68)" stroke-opacity="0.25" stroke-width="3"/>
</g>
<g opacity="0.5">
<rect x="858.851" y="479.289" width="148.608" height="55.7233" rx="27.8616" transform="rotate(-65.0996 858.851 479.289)" stroke="#56CCF2" stroke-width="5"/>
<rect x="858.851" y="479.289" width="148.608" height="55.7233" rx="27.8616" transform="rotate(-65.0996 858.851 479.289)" stroke="url(#paint5_linear_60313_68)" stroke-opacity="0.25" stroke-width="5"/>
</g>
<g opacity="0.5">
<rect x="3.22061" y="-1.17581" width="61.4896" height="19.9936" rx="9.9968" transform="matrix(0.394498 -0.918897 0.893747 0.448572 3.00096 361.524)" stroke="#56CCF2" stroke-width="5"/>
<rect x="3.22061" y="-1.17581" width="61.4896" height="19.9936" rx="9.9968" transform="matrix(0.394498 -0.918897 0.893747 0.448572 3.00096 361.524)" stroke="url(#paint6_linear_60313_68)" stroke-opacity="0.25" stroke-width="5"/>
</g>
<g opacity="0.5">
<rect x="795.074" y="187.492" width="138.037" height="51.5447" rx="25.7723" transform="rotate(-65.0996 795.074 187.492)" stroke="black" stroke-width="5"/>
<rect x="795.074" y="187.492" width="138.037" height="51.5447" rx="25.7723" transform="rotate(-65.0996 795.074 187.492)" stroke="#03D542" stroke-width="5"/>
<rect x="795.074" y="187.492" width="138.037" height="51.5447" rx="25.7723" transform="rotate(-65.0996 795.074 187.492)" stroke="url(#paint7_linear_60313_68)" stroke-opacity="0.25" stroke-width="5"/>
</g>
<g opacity="0.5">
<rect x="969.183" y="84.9666" width="48.6867" height="16.2231" rx="8.11156" transform="rotate(-65.0996 969.183 84.9666)" stroke="black" stroke-width="5"/>
<rect x="969.183" y="84.9666" width="48.6867" height="16.2231" rx="8.11156" transform="rotate(-65.0996 969.183 84.9666)" stroke="#BC04FC" stroke-width="5"/>
<rect x="969.183" y="84.9666" width="48.6867" height="16.2231" rx="8.11156" transform="rotate(-65.0996 969.183 84.9666)" stroke="url(#paint8_linear_60313_68)" stroke-opacity="0.25" stroke-width="5"/>
</g>
<g opacity="0.5">
<rect x="3.22061" y="-1.17581" width="136.192" height="48.0743" rx="24.0372" transform="matrix(0.394498 -0.918897 0.893747 0.448572 175.806 343.053)" stroke="black" stroke-width="5"/>
<rect x="3.22061" y="-1.17581" width="136.192" height="48.0743" rx="24.0372" transform="matrix(0.394498 -0.918897 0.893747 0.448572 175.806 343.053)" stroke="#03D542" stroke-width="5"/>
<rect x="3.22061" y="-1.17581" width="136.192" height="48.0743" rx="24.0372" transform="matrix(0.394498 -0.918897 0.893747 0.448572 175.806 343.053)" stroke="url(#paint9_linear_60313_68)" stroke-opacity="0.25" stroke-width="5"/>
</g>
<g opacity="0.5">
<rect x="3.22061" y="-1.17581" width="87.3339" height="29.7085" rx="14.8543" transform="matrix(0.394498 -0.918897 0.893747 0.448572 48.5635 533.604)" stroke="black" stroke-width="5"/>
<rect x="3.22061" y="-1.17581" width="87.3339" height="29.7085" rx="14.8543" transform="matrix(0.394498 -0.918897 0.893747 0.448572 48.5635 533.604)" stroke="#BC04FC" stroke-width="5"/>
<rect x="3.22061" y="-1.17581" width="87.3339" height="29.7085" rx="14.8543" transform="matrix(0.394498 -0.918897 0.893747 0.448572 48.5635 533.604)" stroke="url(#paint10_linear_60313_68)" stroke-opacity="0.25" stroke-width="5"/>
</g>
<g opacity="0.5">
<rect x="3.22061" y="-1.17581" width="39.6933" height="11.8003" rx="5.90017" transform="matrix(0.394498 -0.918897 0.893747 0.448572 371.88 436.379)" stroke="black" stroke-width="5"/>
<rect x="3.22061" y="-1.17581" width="39.6933" height="11.8003" rx="5.90017" transform="matrix(0.394498 -0.918897 0.893747 0.448572 371.88 436.379)" stroke="#FCC304" stroke-width="5"/>
<rect x="3.22061" y="-1.17581" width="39.6933" height="11.8003" rx="5.90017" transform="matrix(0.394498 -0.918897 0.893747 0.448572 371.88 436.379)" stroke="url(#paint11_linear_60313_68)" stroke-opacity="0.25" stroke-width="5"/>
</g>
<defs>
<linearGradient id="paint0_linear_60313_68" x1="780.634" y1="390.826" x2="780.634" y2="424.669" gradientUnits="userSpaceOnUse">
<stop stop-color="white"/>
<stop offset="1" stop-color="white" stop-opacity="0"/>
</linearGradient>
<linearGradient id="paint1_linear_60313_68" x1="42.2532" y1="0" x2="42.2532" y2="31.7661" gradientUnits="userSpaceOnUse">
<stop stop-color="white"/>
<stop offset="1" stop-color="white" stop-opacity="0"/>
</linearGradient>
<linearGradient id="paint2_linear_60313_68" x1="22.3479" y1="0" x2="22.3479" y2="16.8013" gradientUnits="userSpaceOnUse">
<stop stop-color="white"/>
<stop offset="1" stop-color="white" stop-opacity="0"/>
</linearGradient>
<linearGradient id="paint3_linear_60313_68" x1="553.484" y1="483.084" x2="553.484" y2="500.984" gradientUnits="userSpaceOnUse">
<stop stop-color="white"/>
<stop offset="1" stop-color="white" stop-opacity="0"/>
</linearGradient>
<linearGradient id="paint4_linear_60313_68" x1="1027.64" y1="282.891" x2="1027.64" y2="317.048" gradientUnits="userSpaceOnUse">
<stop stop-color="white"/>
<stop offset="1" stop-color="white" stop-opacity="0"/>
</linearGradient>
<linearGradient id="paint5_linear_60313_68" x1="932.335" y1="480.504" x2="932.335" y2="541.227" gradientUnits="userSpaceOnUse">
<stop stop-color="white"/>
<stop offset="1" stop-color="white" stop-opacity="0"/>
</linearGradient>
<linearGradient id="paint6_linear_60313_68" x1="33.2448" y1="0" x2="33.2448" y2="24.9936" gradientUnits="userSpaceOnUse">
<stop stop-color="white"/>
<stop offset="1" stop-color="white" stop-opacity="0"/>
</linearGradient>
<linearGradient id="paint7_linear_60313_68" x1="863.273" y1="188.707" x2="863.273" y2="245.252" gradientUnits="userSpaceOnUse">
<stop stop-color="white"/>
<stop offset="1" stop-color="white" stop-opacity="0"/>
</linearGradient>
<linearGradient id="paint8_linear_60313_68" x1="992.707" y1="86.1816" x2="992.707" y2="107.405" gradientUnits="userSpaceOnUse">
<stop stop-color="white"/>
<stop offset="1" stop-color="white" stop-opacity="0"/>
</linearGradient>
<linearGradient id="paint9_linear_60313_68" x1="70.5959" y1="0" x2="70.5959" y2="53.0743" gradientUnits="userSpaceOnUse">
<stop stop-color="white"/>
<stop offset="1" stop-color="white" stop-opacity="0"/>
</linearGradient>
<linearGradient id="paint10_linear_60313_68" x1="46.1669" y1="0" x2="46.1669" y2="34.7085" gradientUnits="userSpaceOnUse">
<stop stop-color="white"/>
<stop offset="1" stop-color="white" stop-opacity="0"/>
</linearGradient>
<linearGradient id="paint11_linear_60313_68" x1="22.3467" y1="0" x2="22.3467" y2="16.8003" gradientUnits="userSpaceOnUse">
<stop stop-color="white"/>
<stop offset="1" stop-color="white" stop-opacity="0"/>
</linearGradient>
</defs>
</svg>
