<svg xmlns="http://www.w3.org/2000/svg"  viewBox="0 0 30 30" width="30px" height="30px" baseProfile="basic"><polygon fill="#ff5" points="28,9 22,8 21,2 15,5 9,2 8,8 2,9 5,14.5 2,20 8,22 9,28 15,25 21,28 22,22 28,20 25,14.5"/><polygon fill="#ffd72b" points="10,14 5,14.5 6.585,18.462 8,22"/><polygon fill="#ffea3e" points="10,14 8,8 6.575,11.088 5,14.5"/><polygon fill="#ffca1e" points="25,14.5 23.582,11.427 22,8 20,16"/><polygon fill="#ffca1e" points="15,25 10,14 8,22 11.5,23.5"/><polygon fill="#ffea3e" points="20,16 15,5 10,14"/><polygon fill="#ffd72b" points="22,8 18.5,6.5 15,5 20,16"/><polygon fill="#ffc170" points="15,5 11.5,6.5 9,2"/><polygon fill="#ff8930" points="18.846,23.352 22,22 21,28"/><polygon fill="#fa791b" points="21,28 15,25 18.846,23.352"/><polygon fill="#ff8930" points="23.415,18.462 22,22 28,20"/><polygon fill="#ff993d" points="28,20 25,14.5 23.415,18.462"/><polygon fill="#ff993d" points="23.582,11.427 25,14.5 28,9"/><polygon fill="#ffac4f" points="28,9 22,8 23.582,11.427"/><polygon fill="#ffac4f" points="18.5,6.5 22,8 21,2"/><polygon fill="#ffc170" points="21,2 15,5 18.5,6.5"/><polygon fill="#ffac4f" points="2,9 5,14.5 6.575,11.088"/><polygon fill="#ffc170" points="6.575,11.088 8,8 2,9"/><polygon fill="#ff993d" points="6.585,18.462 5,14.5 2,20"/><polygon fill="#ff8930" points="2,20 8,22 6.585,18.462"/><polygon fill="#ff993d" points="11.5,23.5 8,22 9,28"/><polygon fill="#ff8930" points="9,28 15,25 11.5,23.5"/><polygon fill="#ffac4f" points="11.5,6.5 9,2 8,8"/><polygon fill="#ff5" points="15,5 11.5,6.5 8,8 10,14"/><polygon fill="#ffb519" points="25,14.5 20,16 22,22 23.415,18.462"/><polygon fill="#ffd72b" points="15,25 20,16 10,14"/><polygon fill="#ffca1e" points="15,25 18.846,23.352 22,22 20,16"/></svg>