<!DOCTYPE svg PUBLIC "-//W3C//DTD SVG 1.1//EN" "http://www.w3.org/Graphics/SVG/1.1/DTD/svg11.dtd">
<!-- Uploaded to: SVG Repo, www.svgrepo.com, Transformed by: SVG Repo Mixer Tools -->
<svg fill="#a0b0fd" width="64px" height="64px" viewBox="-4 0 32 32" version="1.1" xmlns="http://www.w3.org/2000/svg" stroke="#a0b0fd">
<g id="SVGRepo_bgCarrier" stroke-width="0"/>
<g id="SVGRepo_tracerCarrier" stroke-linecap="round" stroke-linejoin="round"/>
<g id="SVGRepo_iconCarrier"> <title>twitter</title> <path d="M24 8.531c-0.688 1-1.5 1.844-2.469 2.563 0.031 0.219 0.031 0.438 0.031 0.656 0 6.5-4.938 14-14 14-2.781 0-5.375-0.844-7.563-2.219 0.375 0.031 0.781 0.094 1.188 0.094 2.313 0 4.406-0.813 6.094-2.125-2.188-0.031-3.969-1.5-4.594-3.438 0.281 0.063 0.625 0.094 0.938 0.094 0.438 0 0.906-0.063 1.313-0.188-2.281-0.438-3.969-2.406-3.969-4.781v-0.063c0.688 0.344 1.406 0.563 2.219 0.594-1.313-0.906-2.188-2.406-2.188-4.094 0-0.906 0.25-1.75 0.656-2.5 2.438 2.969 6.063 4.969 10.156 5.156-0.063-0.344-0.125-0.75-0.125-1.125 0-2.719 2.188-4.938 4.906-4.938 1.438 0 2.719 0.625 3.625 1.594 1.125-0.219 2.156-0.656 3.094-1.219-0.344 1.156-1.125 2.156-2.125 2.75 1-0.125 1.906-0.406 2.813-0.813z"/> </g>
</svg>