<svg width="32" height="37" viewBox="0 0 32 37" fill="none" xmlns="http://www.w3.org/2000/svg">
<path d="M28.5714 2.28516H3.42857C1.53571 2.28516 0 3.82087 0 5.71373V30.8566C0 32.7494 1.53571 34.2852 3.42857 34.2852H28.5714C30.4643 34.2852 32 32.7494 32 30.8566V5.71373C32 3.82087 30.4643 2.28516 28.5714 2.28516ZM25.0786 13.628C25.0929 13.828 25.0929 14.0352 25.0929 14.2352C25.0929 20.428 20.3786 27.5637 11.7643 27.5637C9.10714 27.5637 6.64286 26.7923 4.57143 25.4637C4.95 25.5066 5.31429 25.5209 5.7 25.5209C7.89286 25.5209 9.90714 24.778 11.5143 23.5209C9.45714 23.478 7.72857 22.128 7.13571 20.2709C7.85714 20.378 8.50714 20.378 9.25 20.1852C7.10714 19.7494 5.5 17.8637 5.5 15.5852V15.528C6.12143 15.878 6.85 16.0923 7.61429 16.1209C6.97173 15.6935 6.44499 15.1136 6.08105 14.4331C5.71711 13.7526 5.52731 12.9926 5.52857 12.2209C5.52857 11.3494 5.75714 10.5494 6.16429 9.85659C8.47143 12.6994 11.9357 14.5566 15.8214 14.7566C15.1571 11.578 17.5357 8.99944 20.3929 8.99944C21.7429 8.99944 22.9571 9.56373 23.8143 10.478C24.8714 10.278 25.8857 9.88516 26.7857 9.34944C26.4357 10.4352 25.7 11.3494 24.7286 11.928C25.6714 11.828 26.5857 11.5637 27.4286 11.1994C26.7929 12.1352 25.9929 12.9637 25.0786 13.628Z" fill="#1DA1F2"/>
</svg>
