<svg width="32" height="32" fill="none" xmlns="http://www.w3.org/2000/svg"><g clip-path="url('#clip0_22904_1514')"><path d="M22.667 4.667A.667.667 0 0 0 22 4h-3.333A6.36 6.36 0 0 0 12 10v3.6H8.667a.667.667 0 0 0-.667.667v3.466a.667.667 0 0 0 .667.667H12v8.933a.666.666 0 0 0 .667.667h4a.667.667 0 0 0 .666-.667V18.4h3.494a.667.667 0 0 0 .653-.493l.96-3.467a.667.667 0 0 0-.64-.84h-4.467V10a1.334 1.334 0 0 1 1.334-1.2H22a.667.667 0 0 0 .667-.667V4.667Z" fill="#fff"/></g><defs><clipPath id="clip0_22904_1514"><path fill="#fff" d="M0 0h32v32H0z"/></clipPath></defs></svg>