<svg version="1.0" xmlns="http://www.w3.org/2000/svg" width="66.667" height="66.667" viewBox="0 0 50 50"><g fill="#2060F6"><path d="M24 8c0 2.2.5 4 1 4 .6 0 1-1.8 1-4s-.4-4-1-4c-.5 0-1 1.8-1 4zM10 10.8c0 1.4 4.9 5.6 5.7 4.9.3-.4-.4-1.8-1.7-3.2-2.4-2.5-4-3.2-4-1.7zM36 12.5c-1.3 1.4-2 2.8-1.7 3.2.8.7 5.7-3.5 5.7-4.9 0-1.5-1.6-.8-4 1.7zM19.8 16.7c-4.6 2.9-6 8.1-3.4 13.2 4.7 9 18.6 5 18.6-5.5 0-1.6-1.2-3.8-3.4-6-3.8-3.8-7.5-4.4-11.8-1.7zm10.7 2.8c3.3 3.2 3.3 7.8 0 11C25.6 35.5 17 32 17 25c0-1.9.9-4 2.5-5.5C21 17.9 23.1 17 25 17s4 .9 5.5 2.5zM4 25c0 .5 1.8 1 4 1s4-.5 4-1c0-.6-1.8-1-4-1s-4 .4-4 1zM38 25c0 .5 1.8 1 4 1s4-.5 4-1c0-.6-1.8-1-4-1s-4 .4-4 1zM12 36.5c-1.3 1.4-2 2.8-1.7 3.2.8.7 5.7-3.5 5.7-4.9 0-1.5-1.6-.8-4 1.7zM34 34.8c0 1.4 4.9 5.6 5.7 4.9.3-.4-.4-1.8-1.7-3.2-2.4-2.5-4-3.2-4-1.7zM24 42c0 2.2.5 4 1 4 .6 0 1-1.8 1-4s-.4-4-1-4c-.5 0-1 1.8-1 4z"/></g></svg>