<svg width="32" height="32" fill="none" xmlns="http://www.w3.org/2000/svg"><g clip-path="url('#clip0_22904_1519')"><path d="M10.772 26.667A14.761 14.761 0 0 0 26.026 12a10.786 10.786 0 0 0 1.973-3.786.587.587 0 0 0-.827-.68 2.507 2.507 0 0 1-2.88-.507 5.187 5.187 0 0 0-7.44-.227A5.507 5.507 0 0 0 15.32 12c-4.467.267-7.533-1.853-9.987-4.76a.573.573 0 0 0-1 .32 12.907 12.907 0 0 0 6.134 13.4A8.973 8.973 0 0 1 4.506 24a.6.6 0 0 0-.187 1.12 14.668 14.668 0 0 0 6.453 1.547Z" fill="#fff"/></g><defs><clipPath id="clip0_22904_1519"><path fill="#fff" d="M0 0h32v32H0z"/></clipPath></defs></svg>