<svg width="640" height="509" viewBox="0 0 640 509" fill="none" xmlns="http://www.w3.org/2000/svg">
<rect opacity="0.5" x="1.99213" y="-0.729001" width="73.5525" height="27.2623" rx="10.5" transform="matrix(0.421044 -0.90704 0.907042 0.42104 553.358 418.848)" stroke="#2060F6" stroke-width="3"/>
<rect opacity="0.5" x="1.99212" y="-0.728998" width="37.489" height="13.0059" rx="4.5" transform="matrix(0.421041 -0.907042 0.907041 0.421043 453.815 262.109)" stroke="#2060F6" stroke-width="3"/>
<rect opacity="0.5" x="602.32" y="114.799" width="122.903" height="45.5618" rx="9.5" transform="rotate(-65.0996 602.32 114.799)" stroke="#2060F6" stroke-width="5"/>
<rect opacity="0.5" x="1.99212" y="-0.728999" width="37.489" height="13.0059" rx="4.5" transform="matrix(0.421041 -0.907042 0.907041 0.421043 108.815 74.1095)" stroke="#2060F6" stroke-width="3"/>
<rect opacity="0.5" x="3.32021" y="-1.215" width="122.903" height="45.5618" rx="9.5" transform="matrix(0.421042 -0.907041 0.907042 0.421041 -50.9757 343.322)" stroke="#2060F6" stroke-width="5"/>
<rect opacity="0.5" x="1.99213" y="-0.729" width="37.4868" height="13.005" rx="4.5" transform="matrix(0.421042 -0.907041 0.907042 0.421041 125.459 425.504)" stroke="#2060F6" stroke-width="3"/>
</svg>
