<?xml version="1.0" encoding="UTF-8" standalone="no" ?>
<!DOCTYPE svg PUBLIC "-//W3C//DTD SVG 1.1//EN" "http://www.w3.org/Graphics/SVG/1.1/DTD/svg11.dtd">
<svg xmlns="http://www.w3.org/2000/svg" xmlns:xlink="http://www.w3.org/1999/xlink" version="1.1" width="1080" height="1080" viewBox="0 0 1080 1080" xml:space="preserve">
<desc>Created with Fabric.js 5.2.4</desc>
<defs>
</defs>
<g transform="matrix(1 0 0 1 540 540)" id="70200b90-5a76-4ac7-aa3c-65a94c3c58d7"  >
<rect style="stroke: none; stroke-width: 1; stroke-dasharray: none; stroke-linecap: butt; stroke-dashoffset: 0; stroke-linejoin: miter; stroke-miterlimit: 4; fill: rgb(255,255,255); fill-rule: nonzero; opacity: 1; visibility: hidden;" vector-effect="non-scaling-stroke"  x="-540" y="-540" rx="0" ry="0" width="1080" height="1080" />
</g>
<g transform="matrix(1 0 0 1 540 540)" id="fea21893-25b0-4eef-9be4-0a29a35f1331"  >
</g>
<g transform="matrix(22.04 0 0 22.04 540 540)"  >
<path style="stroke: none; stroke-width: 1; stroke-dasharray: none; stroke-linecap: butt; stroke-dashoffset: 0; stroke-linejoin: miter; stroke-miterlimit: 4; fill: rgb(32,96,246); fill-rule: nonzero; opacity: 1;"  transform=" translate(-24.41, -12.38)" d="M 0.464 1.21698 L 8.848 1.21698 C 12.5813 1.21698 15.472 2.20898 17.52 4.19298 C 19.5893 6.17698 20.624 8.97164 20.624 12.577 C 20.624 16.2036 19.5893 19.0196 17.52 21.025 C 15.472 23.009 12.5813 24.001 8.848 24.001 L 0.464 24.001 L 0.464 1.21698 Z M 8.592 20.641 C 13.84 20.641 16.464 17.953 16.464 12.577 C 16.464 7.24364 13.84 4.57697 8.592 4.57697 L 4.592 4.57697 L 4.592 20.641 L 8.592 20.641 Z M 24.551 7.84098 L 28.519 7.84098 L 28.519 24.001 L 24.551 24.001 L 24.551 7.84098 Z M 28.743 0.512976 L 28.743 4.44898 L 24.295 4.44898 L 24.295 0.512976 L 28.743 0.512976 Z M 48.3507 7.84098 L 48.3507 24.001 L 44.4148 24.001 L 44.4148 21.409 C 43.9241 22.305 43.2201 23.009 42.3028 23.521 C 41.3854 24.0116 40.3401 24.257 39.1667 24.257 C 37.7588 24.257 36.5108 23.9156 35.4227 23.233 C 34.3348 22.5503 33.4921 21.5796 32.8948 20.321 C 32.2974 19.0623 31.9988 17.601 31.9988 15.937 C 31.9988 14.273 32.2974 12.801 32.8948 11.521 C 33.5134 10.2196 34.3668 9.21698 35.4548 8.51298 C 36.5428 7.78764 37.7801 7.42498 39.1667 7.42498 C 40.3401 7.42498 41.3854 7.68098 42.3028 8.19298 C 43.2201 8.68364 43.9241 9.37698 44.4148 10.273 L 44.4148 7.84098 L 48.3507 7.84098 Z M 40.2548 21.121 C 41.5774 21.121 42.6014 20.6623 43.3268 19.745 C 44.0521 18.8276 44.4148 17.537 44.4148 15.873 C 44.4148 14.1663 44.0521 12.8543 43.3268 11.937 C 42.6014 11.0196 41.5668 10.561 40.2228 10.561 C 38.9001 10.561 37.8654 11.041 37.1188 12.001 C 36.3934 12.9396 36.0308 14.2516 36.0308 15.937 C 36.0308 17.601 36.3934 18.881 37.1188 19.777 C 37.8654 20.673 38.9108 21.121 40.2548 21.121 Z" stroke-linecap="round" />
</g>
</svg>