<svg width="20.578125" height="18.480469" viewBox="0 0 20.5781 18.4805" fill="none" xmlns="http://www.w3.org/2000/svg" xmlns:xlink="http://www.w3.org/1999/xlink">
	<desc>
			Created with Pixso.
	</desc>
	<defs/>
	<path id="“" d="M0 18.4805C0 17.3594 0 16.2402 0 15.1191C0 13.9531 0 12.8105 0 11.6895C0 8.0957 0.511719 5.27344 1.53906 3.2207C2.56641 1.16602 4.36328 0.09375 6.92969 0L8.26172 2.73047C6.8125 2.86914 5.80859 3.57031 5.25 4.83008C4.73828 6.04297 4.48047 7.98047 4.48047 10.6406L8.19141 10.6406L8.19141 18.4805L0 18.4805ZM12.3203 18.4805C12.3203 17.3594 12.3203 16.2402 12.3203 15.1191C12.3203 13.9531 12.3203 12.8105 12.3203 11.6895C12.3203 8.0957 12.832 5.27344 13.8594 3.2207C14.8867 1.16602 16.6836 0.09375 19.25 0L20.5781 2.73047C19.1328 2.86914 18.1289 3.57031 17.5703 4.83008C17.0586 6.04297 16.8008 7.98047 16.8008 10.6406L20.5117 10.6406L20.5117 18.4805L12.3203 18.4805Z" fill="#2060F6" fill-opacity="1.000000" fill-rule="nonzero"/>
</svg>
