<svg xmlns="http://www.w3.org/2000/svg" width="105" height="147" viewBox="0 0 105 147"><defs><clipPath id="hp9ma"><path fill="#fff" d="M124.187 90.005c0 6.627-5.373 12-12 12H-6.85c-6.628 0-12-5.373-12-12V57.46c0-6.627 5.372-12 12-12h119.037c6.627 0 12 5.373 12 12z"/></clipPath></defs><g><g opacity=".5" transform="rotate(114.9 52.5 73.5)"><path fill="none" stroke="#2060f6" stroke-miterlimit="20" stroke-width="10" d="M124.187 90.005c0 6.627-5.373 12-12 12H-6.85c-6.628 0-12-5.373-12-12V57.46c0-6.627 5.372-12 12-12h119.037c6.627 0 12 5.373 12 12z" clip-path="url(&quot;#hp9ma&quot;)"/></g></g></svg>