<svg width="64" height="64" viewBox="0 0 64 64" fill="none" xmlns="http://www.w3.org/2000/svg">
<path fill-rule="evenodd" clip-rule="evenodd" d="M25 25C24.4477 25 24 25.4477 24 26V40C24 40.5523 24.4477 41 25 41H39C39.5523 41 40 40.5523 40 40V26C40 25.4477 39.5523 25 39 25H25ZM22 26C22 24.3431 23.3431 23 25 23H39C40.6569 23 42 24.3431 42 26V40C42 41.6569 40.6569 43 39 43H25C23.3431 43 22 41.6569 22 40V26Z" fill="#008AFF"/>
<path fill-rule="evenodd" clip-rule="evenodd" d="M36 21C36.5523 21 37 21.4477 37 22V26C37 26.5523 36.5523 27 36 27C35.4477 27 35 26.5523 35 26V22C35 21.4477 35.4477 21 36 21Z" fill="#008AFF"/>
<path fill-rule="evenodd" clip-rule="evenodd" d="M28 21C28.5523 21 29 21.4477 29 22V26C29 26.5523 28.5523 27 28 27C27.4477 27 27 26.5523 27 26V22C27 21.4477 27.4477 21 28 21Z" fill="#008AFF"/>
<path fill-rule="evenodd" clip-rule="evenodd" d="M22 30C22 29.4477 22.4477 29 23 29H41C41.5523 29 42 29.4477 42 30C42 30.5523 41.5523 31 41 31H23C22.4477 31 22 30.5523 22 30Z" fill="#008AFF"/>
</svg>
