<svg width="64" height="64" viewBox="0 0 64 64" fill="none" xmlns="http://www.w3.org/2000/svg">
<path fill-rule="evenodd" clip-rule="evenodd" d="M23.8787 21.8787C24.4413 21.3161 25.2044 21 26 21H34C34.2652 21 34.5196 21.1054 34.7071 21.2929L40.7071 27.2929C40.8946 27.4804 41 27.7348 41 28V40C41 40.7957 40.6839 41.5587 40.1213 42.1213C39.5587 42.6839 38.7957 43 38 43H26C25.2043 43 24.4413 42.6839 23.8787 42.1213C23.3161 41.5587 23 40.7957 23 40V24C23 23.2044 23.3161 22.4413 23.8787 21.8787ZM26 23C25.7348 23 25.4804 23.1054 25.2929 23.2929C25.1054 23.4804 25 23.7348 25 24V40C25 40.2652 25.1054 40.5196 25.2929 40.7071C25.4804 40.8946 25.7348 41 26 41H38C38.2652 41 38.5196 40.8946 38.7071 40.7071C38.8946 40.5196 39 40.2652 39 40V28.4142L33.5858 23H26Z" fill="#008AFF"/>
<path fill-rule="evenodd" clip-rule="evenodd" d="M34 21C34.5523 21 35 21.4477 35 22V27H40C40.5523 27 41 27.4477 41 28C41 28.5523 40.5523 29 40 29H34C33.4477 29 33 28.5523 33 28V22C33 21.4477 33.4477 21 34 21Z" fill="#008AFF"/>
<path fill-rule="evenodd" clip-rule="evenodd" d="M27 33C27 32.4477 27.4477 32 28 32H36C36.5523 32 37 32.4477 37 33C37 33.5523 36.5523 34 36 34H28C27.4477 34 27 33.5523 27 33Z" fill="#008AFF"/>
<path fill-rule="evenodd" clip-rule="evenodd" d="M27 37C27 36.4477 27.4477 36 28 36H36C36.5523 36 37 36.4477 37 37C37 37.5523 36.5523 38 36 38H28C27.4477 38 27 37.5523 27 37Z" fill="#008AFF"/>
<path fill-rule="evenodd" clip-rule="evenodd" d="M27 29C27 28.4477 27.4477 28 28 28H30C30.5523 28 31 28.4477 31 29C31 29.5523 30.5523 30 30 30H28C27.4477 30 27 29.5523 27 29Z" fill="#008AFF"/>
</svg>
