<svg width="14.667969" height="24.007812" viewBox="0 0 14.668 24.0078" fill="none" xmlns="http://www.w3.org/2000/svg" xmlns:xlink="http://www.w3.org/1999/xlink">
	<desc>
			Created with Pixso.
	</desc>
	<defs/>
	<path id="Vector" d="M14.668 0.673828C14.668 0.498047 14.5977 0.328125 14.4727 0.203125C14.3477 0.078125 14.1758 0.0078125 14 0.0078125L10.668 0.0078125C8.98828 -0.0761719 7.34375 0.507812 6.09375 1.63281C4.84766 2.75781 4.09375 4.33008 4 6.00781L4 9.60742L0.667969 9.60742C0.488281 9.60742 0.320312 9.67773 0.195312 9.80273C0.0703125 9.92773 0 10.0977 0 10.2754L0 13.7422C0 13.918 0.0703125 14.0879 0.195312 14.2129C0.320312 14.3379 0.488281 14.4082 0.667969 14.4082L4 14.4082L4 23.3418C4 23.5176 4.07031 23.6875 4.19531 23.8125C4.32031 23.9375 4.48828 24.0078 4.66797 24.0078L8.66797 24.0078C8.84375 24.0078 9.01172 23.9375 9.13672 23.8125C9.26172 23.6875 9.33203 23.5176 9.33203 23.3418L9.33203 14.4082L12.8281 14.4082C12.9766 14.4102 13.1211 14.3633 13.2383 14.2734C13.3555 14.1836 13.4414 14.0586 13.4805 13.9141L14.4414 10.4473C14.4648 10.3496 14.4688 10.2461 14.4492 10.1465C14.4297 10.0469 14.3867 9.95117 14.3281 9.87109C14.2656 9.78906 14.1836 9.72266 14.0938 9.67773C14.0039 9.63281 13.9023 9.60938 13.8008 9.60742L9.33203 9.60742L9.33203 6.00781C9.36719 5.67773 9.52344 5.37109 9.76953 5.15039C10.0156 4.92773 10.3359 4.80664 10.668 4.80859L14 4.80859C14.1758 4.80859 14.3477 4.73828 14.4727 4.61328C14.5977 4.48828 14.668 4.31836 14.668 4.14062L14.668 0.673828Z" fill="#FFFFFF" fill-opacity="1.000000" fill-rule="nonzero"/>
</svg>
