<svg width="32.000000" height="32.000000" viewBox="0 0 32 32" fill="none" xmlns="http://www.w3.org/2000/svg" xmlns:xlink="http://www.w3.org/1999/xlink">
	<desc>
			Created with Pixso.
	</desc>
	<defs>
		<clipPath id="clip22904_1519">
			<rect id="twitter 1" width="32.000000" height="32.000000" fill="white" fill-opacity="0"/>
		</clipPath>
	</defs>
	<rect id="twitter 1" width="32.000000" height="32.000000" fill="#FFFFFF" fill-opacity="0"/>
	<g clip-path="url(#clip22904_1519)">
		<g opacity="0.000000">
			<path id="Vector" d="M0 0L32 0L32 32L0 32L0 0Z" fill="#000000" fill-opacity="1.000000" fill-rule="nonzero"/>
		</g>
		<path id="Vector" d="M10.7734 26.668C12.7422 26.7324 14.707 26.4023 16.5508 25.6973C18.3945 24.9902 20.0742 23.9219 21.4961 22.5547C22.918 21.1875 24.0508 19.5488 24.8281 17.7363C25.6094 15.9238 26.0156 13.9727 26.0273 12C26.9297 10.8828 27.6016 9.5957 28 8.21289C28.0273 8.10547 28.0273 7.98828 27.9922 7.88086C27.957 7.77344 27.8945 7.67773 27.8047 7.60547C27.7188 7.53516 27.6133 7.49023 27.5 7.47656C27.3867 7.46289 27.2734 7.48438 27.1719 7.5332C26.6992 7.76172 26.168 7.83398 25.6523 7.74414C25.1328 7.65234 24.6602 7.40234 24.293 7.02734C23.8242 6.51367 23.2578 6.10156 22.6289 5.81055C21.9961 5.52148 21.3125 5.36133 20.6211 5.33984C19.9258 5.31836 19.2344 5.4375 18.5898 5.6875C17.9414 5.93945 17.3516 6.31641 16.8516 6.80078C16.1719 7.46094 15.6719 8.28711 15.4023 9.19922C15.1328 10.1094 15.1055 11.0742 15.3203 12C10.8516 12.2676 7.78516 10.1465 5.33203 7.24023C5.25781 7.15625 5.16406 7.09766 5.05469 7.06641C4.94922 7.03711 4.83203 7.03906 4.72656 7.07422C4.62109 7.10742 4.52734 7.17188 4.45703 7.25781C4.38672 7.34375 4.34375 7.44922 4.33203 7.56055C3.86328 10.1523 4.20312 12.8262 5.29688 15.2227C6.39453 17.6172 8.19922 19.6191 10.4648 20.9609C8.94531 22.7051 6.80859 23.793 4.50391 24C4.38281 24.0215 4.26953 24.0801 4.17969 24.168C4.08984 24.2559 4.03125 24.3711 4.01172 24.4941C3.99219 24.6172 4.01172 24.7441 4.06641 24.8555C4.12109 24.9688 4.20703 25.0605 4.32031 25.1211C6.32422 26.123 8.53125 26.6504 10.7734 26.668Z" fill="#FFFFFF" fill-opacity="1.000000" fill-rule="nonzero"/>
	</g>
</svg>
