<svg width="32.000000" height="32.000000" viewBox="0 0 32 32" fill="none" xmlns="http://www.w3.org/2000/svg" xmlns:xlink="http://www.w3.org/1999/xlink">
	<desc>
			Created with Pixso.
	</desc>
	<defs>
		<clipPath id="clip22904_1524">
			<rect id="instagram" width="32.000000" height="32.000000" fill="white" fill-opacity="0"/>
		</clipPath>
	</defs>
	<g clip-path="url(#clip22904_1524)">
		<path id="Vector" d="M16.0039 9.84766C12.5977 9.84766 9.85156 12.5938 9.85156 16C9.85156 19.4062 12.5977 22.1523 16.0039 22.1523C19.4062 22.1523 22.1562 19.4062 22.1562 16C22.1562 12.5938 19.4062 9.84766 16.0039 9.84766ZM16.0039 20C13.8008 20 12.0039 18.207 12.0039 16C12.0039 13.793 13.7969 12 16.0039 12C18.207 12 20.0039 13.793 20.0039 16C20.0039 18.207 18.2031 20 16.0039 20ZM23.8398 9.5957C23.8398 10.3926 23.1992 11.0293 22.4062 11.0293C21.6094 11.0293 20.9727 10.3867 20.9727 9.5957C20.9727 8.80273 21.6133 8.16016 22.4062 8.16016C23.1992 8.16016 23.8398 8.80273 23.8398 9.5957ZM27.9141 11.0508C27.8242 9.12891 27.3867 7.42578 25.9766 6.02344C24.5742 4.61914 22.8711 4.18164 20.9492 4.08398C18.9688 3.97266 13.0312 3.97266 11.0508 4.08398C9.13281 4.17578 7.42969 4.61523 6.02344 6.01758C4.61328 7.41992 4.17969 9.12305 4.08594 11.0469C3.97266 13.0273 3.97266 18.9668 4.08594 20.9492C4.17578 22.8711 4.61328 24.5742 6.02344 25.9766C7.42969 27.3809 9.12891 27.8184 11.0508 27.916C13.0312 28.0273 18.9688 28.0273 20.9492 27.916C22.8711 27.8242 24.5742 27.3848 25.9766 25.9766C27.3789 24.5742 27.8203 22.8711 27.9141 20.9492C28.0273 18.9668 28.0273 13.0332 27.9141 11.0508ZM25.3555 23.0742C24.9375 24.125 24.1289 24.9336 23.0742 25.3555C21.4961 25.9824 17.75 25.8379 16.0039 25.8379C14.2578 25.8379 10.5039 25.9766 8.92969 25.3555C7.87891 24.9375 7.07031 24.1289 6.64844 23.0742C6.02344 21.4941 6.16797 17.7461 6.16797 16C6.16797 14.2539 6.02734 10.5 6.64844 8.92578C7.06641 7.875 7.875 7.06641 8.92969 6.64453C10.5078 6.01758 14.2578 6.16211 16.0039 6.16211C17.75 6.16211 21.5 6.02344 23.0742 6.64453C24.125 7.0625 24.9336 7.87109 25.3555 8.92578C25.9844 10.5059 25.8398 14.2539 25.8398 16C25.8398 17.7461 25.9844 21.5 25.3555 23.0742Z" fill="#FFFFFF" fill-opacity="1.000000" fill-rule="nonzero"/>
	</g>
</svg>
