<svg width="25" height="22" viewBox="0 0 25 22" fill="none" xmlns="http://www.w3.org/2000/svg">
<path d="M6.76851 21.3292C8.7401 21.3951 10.7049 21.0652 12.5468 20.3589C14.3887 19.6526 16.0704 18.5842 17.4924 17.2169C18.9144 15.8496 20.0478 14.2112 20.8258 12.3983C21.6038 10.5855 22.0105 8.63516 22.0218 6.66249C22.9254 5.54438 23.5963 4.25693 23.9952 2.87583C24.0249 2.76671 24.0225 2.65131 23.9883 2.54353C23.954 2.43574 23.8892 2.34017 23.8019 2.26831C23.7145 2.19646 23.6083 2.15139 23.4959 2.13853C23.3835 2.12567 23.2698 2.14557 23.1685 2.19583C22.6958 2.42337 22.1636 2.49686 21.647 2.40597C21.1303 2.31507 20.6552 2.06436 20.2885 1.68916C19.8204 1.1766 19.2543 0.763201 18.6235 0.473463C17.9927 0.183726 17.3102 0.0235428 16.6164 0.00240553C15.9226 -0.0187317 15.2317 0.099607 14.5844 0.35041C13.9372 0.601212 13.3469 0.979376 12.8485 1.46249C12.1661 2.12337 11.6663 2.94955 11.3976 3.86073C11.1289 4.77191 11.1005 5.7371 11.3152 6.66249C6.8485 6.92916 3.78184 4.80916 1.32851 1.90249C1.2548 1.81903 1.15839 1.75883 1.05104 1.72925C0.943695 1.69967 0.830057 1.702 0.724006 1.73593C0.617955 1.76987 0.524081 1.83395 0.453847 1.92036C0.383613 2.00676 0.34006 2.11175 0.328506 2.22249C-0.138868 4.81506 0.198278 7.48856 1.29466 9.88392C2.39105 12.2793 4.19416 14.2818 6.46184 15.6225C4.94135 17.3663 2.80612 18.4554 0.501839 18.6625C0.378389 18.683 0.264428 18.7415 0.175908 18.83C0.087387 18.9184 0.0287365 19.0323 0.0081642 19.1558C-0.0124081 19.2792 0.00612757 19.406 0.061177 19.5184C0.116227 19.6307 0.205035 19.7231 0.315172 19.7825C2.31987 20.7843 4.52748 21.3134 6.76851 21.3292Z" fill="white"/>
</svg>
