<?xml version="1.0" encoding="utf-8"?>
<!-- Generator: Adobe Illustrator 25.4.0, SVG Export Plug-In . SVG Version: 6.00 Build 0)  -->
<svg version="1.1" id="Слой_1" xmlns="http://www.w3.org/2000/svg" xmlns:xlink="http://www.w3.org/1999/xlink" x="0px" y="0px"
	 viewBox="0 0 45 26" style="enable-background:new 0 0 45 26;" xml:space="preserve">
<style type="text/css">
	.st0{fill:#2C2C2C;}
</style>
<path class="st0" d="M7.1,18l6.3-13.6L19.7,18H7.1z M21.2,21.2l2.1,4.4h3.6L15.1,0.4h-3.4L0,25.6h3.6l2.1-4.4H21.2z"/>
<path class="st0" d="M27.2,2.4c0,0.7,0.2,1.3,0.7,1.8c0.5,0.5,1,0.7,1.8,0.7c0.7,0,1.3-0.2,1.7-0.7s0.7-1,0.7-1.8
	c0-0.7-0.3-1.3-0.7-1.7c-0.5-0.5-1-0.7-1.7-0.7c-0.7,0-1.3,0.3-1.8,0.7C27.4,1.2,27.2,1.8,27.2,2.4z M31.2,7.6h-3.1v18h3.1V7.6z"/>
<path class="st0" d="M37.6,10.3V7.6h-3v18h3.1v-8.4c0-1,0.1-1.9,0.3-2.8c0.1-0.8,0.4-1.5,0.9-2.2c0.4-0.6,1-1,1.7-1.4
	c0.6-0.3,1.5-0.5,2.5-0.5c0.3,0,0.6,0,0.9,0.1c0.3,0,0.6,0.1,0.9,0.1V7.4c-0.3,0-0.6-0.1-0.9-0.1c-0.3,0-0.6-0.1-0.9-0.1
	c-1.3,0-2.4,0.3-3.3,0.8C38.9,8.6,38.2,9.3,37.6,10.3z"/>
</svg>
