<svg id="SvgjsSvg1001" width="288" height="288" xmlns="http://www.w3.org/2000/svg" version="1.1" xmlns:xlink="http://www.w3.org/1999/xlink" xmlns:svgjs="http://svgjs.com/svgjs"><defs id="SvgjsDefs1002"></defs><g id="SvgjsG1008" transform="matrix(1,0,0,1,0,0)"><svg xmlns="http://www.w3.org/2000/svg" width="288" height="288" fill="none" viewBox="0 0 45 26"><path fill="#008aff" d="M7.128 17.964L13.428 4.356 19.728 17.964H7.128zM21.24 21.204L23.292 25.632H26.856L15.12.431998H11.736L0 25.632H3.564L5.616 21.204H21.24zM27.2025 2.448C27.2025 3.168 27.4185 3.744 27.8865 4.212 28.3545 4.68 28.9305 4.896 29.6505 4.896 30.3345 4.896 30.9105 4.68 31.3785 4.212 31.8465 3.744 32.0985 3.168 32.0985 2.448 32.0985 1.764 31.8465 1.188 31.3785.719999 30.9105.251999 30.3345 0 29.6505 0 28.9305 0 28.3545.251999 27.8865.719999 27.4185 1.188 27.2025 1.764 27.2025 2.448zM31.1985 7.632H28.1025V25.632H31.1985V7.632zM37.6183 10.332V7.632H34.6303V25.632H37.7263V17.244C37.7263 16.236 37.7983 15.336 37.9783 14.472 38.1223 13.644 38.4103 12.924 38.8423 12.312 39.2743 11.736 39.8143 11.268 40.4983 10.944 41.1463 10.62 42.0103 10.44 43.0183 10.44 43.3423 10.44 43.6303 10.476 43.9183 10.512 44.2063 10.548 44.4943 10.584 44.8183 10.656V7.38C44.5303 7.344 44.2423 7.308 43.9543 7.272 43.6663 7.236 43.3423 7.2 43.0543 7.2 41.7583 7.2 40.6783 7.488 39.7783 8.028 38.8783 8.568 38.1583 9.324 37.6183 10.332z" class="colorfff svgShape"></path></svg></g></svg>