<svg width="53" height="34" viewBox="0 0 53 34" fill="none" xmlns="http://www.w3.org/2000/svg">
<g filter="url(#filter0_d_22904_274)">
<path d="M11.128 17.964L17.428 4.356L23.728 17.964H11.128ZM25.24 21.204L27.292 25.632H30.856L19.12 0.431998H15.736L4 25.632H7.564L9.616 21.204H25.24Z" fill="white"/>
<path d="M31.2025 2.448C31.2025 3.168 31.4185 3.744 31.8865 4.212C32.3545 4.68 32.9305 4.896 33.6505 4.896C34.3345 4.896 34.9105 4.68 35.3785 4.212C35.8465 3.744 36.0985 3.168 36.0985 2.448C36.0985 1.764 35.8465 1.188 35.3785 0.719999C34.9105 0.251999 34.3345 0 33.6505 0C32.9305 0 32.3545 0.251999 31.8865 0.719999C31.4185 1.188 31.2025 1.764 31.2025 2.448ZM35.1985 7.632H32.1025V25.632H35.1985V7.632Z" fill="white"/>
<path d="M41.6183 10.332V7.632H38.6303V25.632H41.7263V17.244C41.7263 16.236 41.7983 15.336 41.9783 14.472C42.1223 13.644 42.4103 12.924 42.8423 12.312C43.2743 11.736 43.8143 11.268 44.4983 10.944C45.1463 10.62 46.0103 10.44 47.0183 10.44C47.3423 10.44 47.6303 10.476 47.9183 10.512C48.2063 10.548 48.4943 10.584 48.8183 10.656V7.38C48.5303 7.344 48.2423 7.308 47.9543 7.272C47.6663 7.236 47.3423 7.2 47.0543 7.2C45.7583 7.2 44.6783 7.488 43.7783 8.028C42.8783 8.568 42.1583 9.324 41.6183 10.332Z" fill="white"/>
</g>
<defs>
<filter id="filter0_d_22904_274" x="0" y="0" width="52.8164" height="33.6328" filterUnits="userSpaceOnUse" color-interpolation-filters="sRGB">
<feFlood flood-opacity="0" result="BackgroundImageFix"/>
<feColorMatrix in="SourceAlpha" type="matrix" values="0 0 0 0 0 0 0 0 0 0 0 0 0 0 0 0 0 0 127 0" result="hardAlpha"/>
<feOffset dy="4"/>
<feGaussianBlur stdDeviation="2"/>
<feComposite in2="hardAlpha" operator="out"/>
<feColorMatrix type="matrix" values="0 0 0 0 0 0 0 0 0 0 0 0 0 0 0 0 0 0 0.25 0"/>
<feBlend mode="normal" in2="BackgroundImageFix" result="effect1_dropShadow_22904_274"/>
<feBlend mode="normal" in="SourceGraphic" in2="effect1_dropShadow_22904_274" result="shape"/>
</filter>
</defs>
</svg>
