<?xml version="1.0" encoding="utf-8"?>
<!-- Generator: Adobe Illustrator 26.0.2, SVG Export Plug-In . SVG Version: 6.00 Build 0)  -->
<svg version="1.1" id="Layer_1" xmlns="http://www.w3.org/2000/svg" xmlns:xlink="http://www.w3.org/1999/xlink" x="0px" y="0px"
	 viewBox="0 0 46 28" style="enable-background:new 0 0 46 28;" xml:space="preserve">
<style type="text/css">
	.st0{fill:#008AFF;}
</style>
<path class="st0" d="M8.1,19l6.3-13.6L20.7,19H8.1z M22.2,22.2l2.1,4.4h3.6L16.1,1.4h-3.4L1,26.6h3.6l2.1-4.4H22.2z"/>
<path class="st0" d="M28.2,3.4c0,0.7,0.2,1.3,0.7,1.8c0.5,0.5,1,0.7,1.8,0.7c0.7,0,1.3-0.2,1.7-0.7c0.5-0.5,0.7-1,0.7-1.8
	c0-0.7-0.3-1.3-0.7-1.7c-0.5-0.5-1-0.7-1.7-0.7c-0.7,0-1.3,0.3-1.8,0.7C28.4,2.2,28.2,2.8,28.2,3.4z M32.2,8.6h-3.1v18h3.1V8.6z"/>
<path class="st0" d="M38.6,11.3V8.6h-3v18h3.1v-8.4c0-1,0.1-1.9,0.3-2.8c0.1-0.8,0.4-1.5,0.9-2.2c0.4-0.6,1-1,1.7-1.4
	c0.6-0.3,1.5-0.5,2.5-0.5c0.3,0,0.6,0,0.9,0.1c0.3,0,0.6,0.1,0.9,0.1V8.4c-0.3,0-0.6-0.1-0.9-0.1c-0.3,0-0.6-0.1-0.9-0.1
	c-1.3,0-2.4,0.3-3.3,0.8C39.9,9.6,39.2,10.3,38.6,11.3z"/>
</svg>
