<svg width="46" height="26" viewBox="0 0 46 26" fill="none" xmlns="http://www.w3.org/2000/svg">
<path d="M7.84305 17.964L14.0845 4.356L20.326 17.964H7.84305ZM21.824 21.204L23.8569 25.632H27.3878L15.7608 0.431998H12.4082L0.78125 25.632H4.31215L6.34509 21.204H21.824Z" fill="white"/>
<path d="M27.7311 2.448C27.7311 3.168 27.9451 3.744 28.4087 4.212C28.8724 4.68 29.443 4.896 30.1564 4.896C30.834 4.896 31.4047 4.68 31.8683 4.212C32.332 3.744 32.5816 3.168 32.5816 2.448C32.5816 1.764 32.332 1.188 31.8683 0.719999C31.4047 0.251999 30.834 0 30.1564 0C29.443 0 28.8724 0.251999 28.4087 0.719999C27.9451 1.188 27.7311 1.764 27.7311 2.448ZM31.69 7.632H28.6227V25.632H31.69V7.632Z" fill="white"/>
<path d="M38.0502 10.332V7.632H35.0899V25.632H38.1572V17.244C38.1572 16.236 38.2285 15.336 38.4068 14.472C38.5495 13.644 38.8348 12.924 39.2628 12.312C39.6908 11.736 40.2258 11.268 40.9034 10.944C41.5454 10.62 42.4014 10.44 43.4 10.44C43.721 10.44 44.0063 10.476 44.2917 10.512C44.577 10.548 44.8623 10.584 45.1833 10.656V7.38C44.898 7.344 44.6126 7.308 44.3273 7.272C44.042 7.236 43.721 7.2 43.4357 7.2C42.1517 7.2 41.0817 7.488 40.1901 8.028C39.2985 8.568 38.5852 9.324 38.0502 10.332Z" fill="white"/>
</svg>
