<svg xmlns="http://www.w3.org/2000/svg" width="45" height="26" viewBox="0 0 45 26"><g><g><path fill="#fff" d="M19.728 17.964l-6.3-13.608-6.3 13.608zm-14.112 3.24l-2.052 4.428H0L11.736.432h3.384l11.736 25.2h-3.564l-2.052-4.428zM27.886.72C28.356.252 28.931 0 29.652 0c.684 0 1.26.252 1.728.72.468.468.72 1.044.72 1.728 0 .72-.252 1.296-.72 1.764-.468.468-1.044.684-1.728.684-.72 0-1.296-.216-1.764-.684-.468-.468-.684-1.044-.684-1.764 0-.684.216-1.26.684-1.728zM31.2 25.632h-3.097v-18h3.096zm6.42-15.3c.54-1.008 1.26-1.764 2.16-2.304.9-.54 1.98-.828 3.275-.828.288 0 .612.036.9.072l.864.108v3.276a9.269 9.269 0 0 0-.9-.144c-.288-.036-.576-.072-.9-.072-1.008 0-1.872.18-2.52.504a4.4 4.4 0 0 0-1.656 1.368c-.432.612-.72 1.332-.864 2.16-.18.864-.252 1.764-.252 2.772v8.388H34.63v-18h2.988z"/></g></g></svg>