<svg xmlns="http://www.w3.org/2000/svg" viewBox="0 0 44.82 25.63"><defs><style>.cls-1{fill:#0091cf;}</style></defs><g id="Шар_2" data-name="Шар 2"><g id="Шар_1-2" data-name="Шар 1"><path class="cls-1" d="M7.13,18l6.3-13.6L19.73,18ZM21.24,21.2l2.05,4.43h3.57L15.12.43H11.74L0,25.63H3.56L5.62,21.2Z"/><path class="cls-1" d="M27.2,2.45a2.47,2.47,0,0,0,4.18,1.76,2.37,2.37,0,0,0,.72-1.76A2.35,2.35,0,0,0,31.38.72a2.47,2.47,0,0,0-3.49,0A2.33,2.33,0,0,0,27.2,2.45Zm4,5.18H28.1v18h3.1Z"/><path class="cls-1" d="M37.62,10.33V7.63h-3v18h3.1V17.24A13.53,13.53,0,0,1,38,14.47a5.2,5.2,0,0,1,.86-2.16,4.47,4.47,0,0,1,1.66-1.37,5.76,5.76,0,0,1,2.52-.5,10.37,10.37,0,0,1,1.8.22V7.38L44,7.27a8.86,8.86,0,0,0-.9-.07A6.22,6.22,0,0,0,39.78,8,5.79,5.79,0,0,0,37.62,10.33Z"/></g></g></svg>