<svg width="50" height="25" viewBox="0 0 50 25" fill="black" xmlns="http://www.w3.org/2000/svg">
<path d="M0.464 1.21698H8.848C12.5813 1.21698 15.472 2.20898 17.52 4.19298C19.5893 6.17698 20.624 8.97164 20.624 12.577C20.624 16.2036 19.5893 19.0196 17.52 21.025C15.472 23.009 12.5813 24.001 8.848 24.001H0.464V1.21698ZM8.592 20.641C13.84 20.641 16.464 17.953 16.464 12.577C16.464 7.24364 13.84 4.57697 8.592 4.57697H4.592V20.641H8.592ZM24.551 7.84098H28.519V24.001H24.551V7.84098ZM28.743 0.512976V4.44898H24.295V0.512976H28.743ZM48.3507 7.84098V24.001H44.4148V21.409C43.9241 22.305 43.2201 23.009 42.3028 23.521C41.3854 24.0116 40.3401 24.257 39.1667 24.257C37.7588 24.257 36.5108 23.9156 35.4227 23.233C34.3348 22.5503 33.4921 21.5796 32.8948 20.321C32.2974 19.0623 31.9988 17.601 31.9988 15.937C31.9988 14.273 32.2974 12.801 32.8948 11.521C33.5134 10.2196 34.3668 9.21698 35.4548 8.51298C36.5428 7.78764 37.7801 7.42498 39.1667 7.42498C40.3401 7.42498 41.3854 7.68098 42.3028 8.19298C43.2201 8.68364 43.9241 9.37698 44.4148 10.273V7.84098H48.3507ZM40.2548 21.121C41.5774 21.121 42.6014 20.6623 43.3268 19.745C44.0521 18.8276 44.4148 17.537 44.4148 15.873C44.4148 14.1663 44.0521 12.8543 43.3268 11.937C42.6014 11.0196 41.5668 10.561 40.2228 10.561C38.9001 10.561 37.8654 11.041 37.1188 12.001C36.3934 12.9396 36.0308 14.2516 36.0308 15.937C36.0308 17.601 36.3934 18.881 37.1188 19.777C37.8654 20.673 38.9108 21.121 40.2548 21.121Z"/>
</svg>