<svg width="48" height="24" viewBox="0 0 48 24" fill="none" xmlns="http://www.w3.org/2000/svg">
<path d="M0 0.704004H8.384C12.1173 0.704004 15.008 1.696 17.056 3.68C19.1253 5.664 20.16 8.45866 20.16 12.064C20.16 15.6906 19.1253 18.5066 17.056 20.512C15.008 22.496 12.1173 23.488 8.384 23.488H0V0.704004ZM8.128 20.128C13.376 20.128 16 17.44 16 12.064C16 6.73066 13.376 4.06399 8.128 4.06399H4.128V20.128H8.128ZM24.087 7.328H28.055V23.488H24.087V7.328ZM28.279 0V3.936H23.831V0H28.279ZM47.8867 7.328V23.488H43.9508V20.896C43.4601 21.792 42.7561 22.496 41.8388 23.008C40.9214 23.4986 39.8761 23.744 38.7027 23.744C37.2948 23.744 36.0468 23.4026 34.9587 22.72C33.8708 22.0373 33.0281 21.0666 32.4308 19.808C31.8334 18.5493 31.5348 17.088 31.5348 15.424C31.5348 13.76 31.8334 12.288 32.4308 11.008C33.0494 9.70662 33.9028 8.704 34.9908 8C36.0788 7.27466 37.3161 6.912 38.7027 6.912C39.8761 6.912 40.9214 7.168 41.8388 7.68C42.7561 8.17066 43.4601 8.864 43.9508 9.76002V7.328H47.8867ZM39.7908 20.608C41.1134 20.608 42.1374 20.1493 42.8628 19.232C43.5881 18.3146 43.9508 17.024 43.9508 15.36C43.9508 13.6533 43.5881 12.3413 42.8628 11.424C42.1374 10.5066 41.1028 10.048 39.7588 10.048C38.4361 10.048 37.4014 10.528 36.6548 11.488C35.9294 12.4266 35.5668 13.7386 35.5668 15.424C35.5668 17.088 35.9294 18.368 36.6548 19.264C37.4014 20.16 38.4468 20.608 39.7908 20.608Z" fill="#2060F6"/>
</svg>
