<?xml version="1.0" encoding="UTF-8"?>
<!DOCTYPE svg PUBLIC "-//W3C//DTD SVG 1.1//EN" "http://www.w3.org/Graphics/SVG/1.1/DTD/svg11.dtd">
<svg xmlns="http://www.w3.org/2000/svg" version="1.1" width="32px" height="32px" style="shape-rendering:geometricPrecision; text-rendering:geometricPrecision; image-rendering:optimizeQuality; fill-rule:evenodd; clip-rule:evenodd" xmlns:xlink="http://www.w3.org/1999/xlink">
<g><path style="opacity:0.866" fill="#fefffe" d="M 14.5,3.5 C 17.1667,3.5 19.8333,3.5 22.5,3.5C 22.5,5.16667 22.5,6.83333 22.5,8.5C 20.8333,8.5 19.1667,8.5 17.5,8.5C 17.5,9.83333 17.5,11.1667 17.5,12.5C 19.1667,12.5 20.8333,12.5 22.5,12.5C 22.1667,14.5 21.8333,16.5 21.5,18.5C 20.1667,18.5 18.8333,18.5 17.5,18.5C 17.5,21.5 17.5,24.5 17.5,27.5C 15.5,27.5 13.5,27.5 11.5,27.5C 11.5,24.5 11.5,21.5 11.5,18.5C 10.1667,18.5 8.83333,18.5 7.5,18.5C 7.5,16.5 7.5,14.5 7.5,12.5C 8.83333,12.5 10.1667,12.5 11.5,12.5C 10.925,8.84534 11.925,5.84534 14.5,3.5 Z"/></g>
</svg>
