<svg version="1.1" xmlns="http://www.w3.org/2000/svg" xmlns:xlink="http://www.w3.org/1999/xlink" width="45" height="26" viewBox="0,0,256,147.90001"><g fill="#008aff" fill-rule="nonzero" stroke="none" stroke-width="1" stroke-linecap="butt" stroke-linejoin="miter" stroke-miterlimit="10" stroke-dasharray="" stroke-dashoffset="0" font-family="none" font-weight="none" font-size="none" text-anchor="none" style="mix-blend-mode: normal"><g transform="translate(0.51684,1.0412) scale(5.68889,5.68889)"><path d="M7.128,17.964l6.3,-13.608l6.3,13.608zM21.24,21.204l2.052,4.428h3.564l-11.736,-25.2h-3.384l-11.736,25.2h3.564l2.052,-4.428z"></path><path d="M27.2025,2.448c0,0.72 0.216,1.296 0.684,1.764c0.468,0.468 1.044,0.684 1.764,0.684c0.684,0 1.26,-0.216 1.728,-0.684c0.468,-0.468 0.72,-1.044 0.72,-1.764c0,-0.684 -0.252,-1.26 -0.72,-1.728c-0.468,-0.468 -1.044,-0.72 -1.728,-0.72c-0.72,0 -1.296,0.252 -1.764,0.72c-0.468,0.468 -0.684,1.044 -0.684,1.728zM31.1985,7.632h-3.096v18h3.096z"></path><path d="M37.6183,10.332v-2.7h-2.988v18h3.096v-8.388c0,-1.008 0.072,-1.908 0.252,-2.772c0.144,-0.828 0.432,-1.548 0.864,-2.16c0.432,-0.576 0.972,-1.044 1.656,-1.368c0.648,-0.324 1.512,-0.504 2.52,-0.504c0.324,0 0.612,0.036 0.9,0.072c0.288,0.036 0.576,0.072 0.9,0.144v-3.276c-0.288,-0.036 -0.576,-0.072 -0.864,-0.108c-0.288,-0.036 -0.612,-0.072 -0.9,-0.072c-1.296,0 -2.376,0.288 -3.276,0.828c-0.9,0.54 -1.62,1.296 -2.16,2.304z"></path></g></g></svg>