<?xml version="1.0" encoding="utf-8"?>
<!-- Generator: Adobe Illustrator 25.3.1, SVG Export Plug-In . SVG Version: 6.00 Build 0)  -->
<svg version="1.1" id="Слой_1" xmlns="http://www.w3.org/2000/svg" xmlns:xlink="http://www.w3.org/1999/xlink" x="0px" y="0px"
	 viewBox="0 0 45 45" style="enable-background:new 0 0 45 45;" xml:space="preserve">
<style type="text/css">
	.st0{fill:#2060F6;}
	.st1{fill:#2C2C2C;}
	.st2{fill:#FFFFFF;}
</style>
<rect class="st0" width="45" height="45"/>
<path class="st1" d="M45,45H0V32.8C0,14.7,14.7,0,32.8,0H45V45z"/>
<g>
	<path class="st2" d="M11.8,26.1l4.4-9.6l4.4,9.6H11.8z M21.7,28.4l1.4,3.1h2.5l-8.2-17.7H15L6.8,31.5h2.5l1.4-3.1H21.7z"/>
	<path class="st2" d="M25.9,15.2c0,0.5,0.2,0.9,0.5,1.2c0.3,0.3,0.7,0.5,1.2,0.5c0.5,0,0.9-0.2,1.2-0.5s0.5-0.7,0.5-1.2
		c0-0.5-0.2-0.9-0.5-1.2s-0.7-0.5-1.2-0.5c-0.5,0-0.9,0.2-1.2,0.5C26,14.3,25.9,14.7,25.9,15.2z M28.7,18.9h-2.2v12.6h2.2V18.9z"/>
	<path class="st2" d="M33.2,20.8v-1.9h-2.1v12.6h2.2v-5.9c0-0.7,0.1-1.3,0.2-1.9c0.1-0.6,0.3-1.1,0.6-1.5c0.3-0.4,0.7-0.7,1.2-1
		c0.5-0.2,1.1-0.4,1.8-0.4c0.2,0,0.4,0,0.6,0.1c0.2,0,0.4,0.1,0.6,0.1v-2.3c-0.2,0-0.4-0.1-0.6-0.1c-0.2,0-0.4-0.1-0.6-0.1
		c-0.9,0-1.7,0.2-2.3,0.6C34.1,19.5,33.6,20,33.2,20.8z"/>
</g>
</svg>
