<svg version="1.1" xmlns="http://www.w3.org/2000/svg" xmlns:xlink="http://www.w3.org/1999/xlink" width="16" height="16" viewBox="0,0,256,256"><g fill="#ffffff" fill-rule="nonzero" stroke="none" stroke-width="1" stroke-linecap="butt" stroke-linejoin="miter" stroke-miterlimit="10" stroke-dasharray="" stroke-dashoffset="0" font-family="none" font-weight="none" font-size="none" text-anchor="none" style="mix-blend-mode: normal"><g transform="translate(-0.00021,-0.00021) scale(16,16)"><path d="M15.1943,2.41714c0.445,-0.44498 0.445,-1.16644 0,-1.61143c-0.445,-0.44498 -1.1665,-0.44498 -1.6114,0l-5.5829,5.58286l-5.58286,-5.58285c-0.44498,-0.44498 -1.16644,-0.44498 -1.61143,0c-0.44498,0.44499 -0.44498,1.16645 0,1.61143l5.58286,5.58286l-5.58285,5.5829c-0.44498,0.4449 -0.44498,1.1664 0,1.6114c0.44499,0.445 1.16645,0.445 1.61143,0l5.58286,-5.58287l5.5829,5.58287c0.4449,0.445 1.1664,0.445 1.6114,0c0.445,-0.445 0.445,-1.1665 0,-1.6114l-5.58287,-5.5829z"></path></g></g></svg>