<svg width="15" height="24" viewBox="0 0 15 24" fill="none" xmlns="http://www.w3.org/2000/svg">
<path d="M14.6667 0.666738C14.6667 0.489927 14.5964 0.320358 14.4714 0.195334C14.3464 0.0703093 14.1768 7.12564e-05 14 7.12564e-05H10.6667C8.98816 -0.0835409 7.3448 0.500593 6.09563 1.62484C4.84646 2.7491 4.09305 4.32207 4 6.00007V9.60007H0.666667C0.489856 9.60007 0.320287 9.67031 0.195262 9.79533C0.070238 9.92036 0 10.0899 0 10.2667V13.7334C0 13.9102 0.070238 14.0798 0.195262 14.2048C0.320287 14.3298 0.489856 14.4001 0.666667 14.4001H4V23.3334C4 23.5102 4.07024 23.6798 4.19526 23.8048C4.32029 23.9298 4.48986 24.0001 4.66667 24.0001H8.66667C8.84348 24.0001 9.01305 23.9298 9.13807 23.8048C9.2631 23.6798 9.33333 23.5102 9.33333 23.3334V14.4001H12.8267C12.9749 14.4022 13.1197 14.3548 13.238 14.2655C13.3563 14.1762 13.4415 14.0499 13.48 13.9067L14.44 10.4401C14.4665 10.3416 14.4701 10.2383 14.4504 10.1382C14.4308 10.0381 14.3884 9.94384 14.3265 9.8627C14.2647 9.78155 14.1851 9.71568 14.0938 9.67015C14.0025 9.62462 13.902 9.60064 13.8 9.60007H9.33333V6.00007C9.3665 5.67004 9.52149 5.36422 9.76803 5.14233C10.0146 4.92044 10.335 4.79841 10.6667 4.80007H14C14.1768 4.80007 14.3464 4.72983 14.4714 4.60481C14.5964 4.47978 14.6667 4.31021 14.6667 4.1334V0.666738Z" fill="white"/>
</svg>
