<svg width="157" height="37" viewBox="0 0 157 37" fill="none" xmlns="http://www.w3.org/2000/svg">
<g clip-path="url(#clip0)">
<path d="M69.8886 13.0598L60.4676 0.0322876H51.3083V7.11911H57.6707L65.9305 18.5161L57.6707 29.9293H51.3083V37H60.4676L69.8886 23.9887L73.8467 18.5161H73.8631L69.8886 13.0598Z" fill="#00A197"/>
<path d="M79.195 0.0322876L74.0593 7.11911L71.3279 11.0903L75.3187 16.5951L82.3517 7.10297H88.3216V0.0322876" fill="#FF00C7"/>
<path d="M20.3788 9.54057C19.4031 8.27429 18.0891 7.30157 16.5842 6.73167C14.7806 6.04518 12.8576 5.71606 10.9251 5.76308C9.45486 5.73562 7.98574 5.86007 6.54174 6.13437C4.95513 6.47524 3.39689 6.93393 1.88031 7.50654V11.8329C3.31002 11.0338 4.83087 10.4052 6.41089 9.96029C7.87944 9.54793 9.3983 9.3361 10.9251 9.33071C12.7471 9.17596 14.5631 9.68726 16.0281 10.7674C16.6099 11.3733 17.0561 12.0931 17.3378 12.8801C17.6196 13.6672 17.7306 14.5038 17.6637 15.3359V16.0301H11.7593C8.66317 15.8193 5.58273 16.6191 2.99251 18.3063C1.98827 19.099 1.19206 20.1187 0.671103 21.2791C0.150151 22.4395 -0.0802384 23.7066 -0.000610437 24.9734C-0.0474249 26.0995 0.145238 27.2229 0.564971 28.271C0.984704 29.3192 1.6222 30.2691 2.43641 31.0593C4.22938 32.6356 6.5812 33.448 8.97876 33.3194C10.7733 33.3716 12.5534 32.9891 14.1636 32.2055C15.6452 31.3952 16.8686 30.1933 17.6964 28.7347V33.4162H22.0798V17.6283C22.1224 15.8877 21.9964 14.1471 21.7036 12.4302C21.482 11.3828 21.0297 10.3962 20.3788 9.54057ZM17.6474 20.3726C17.7746 22.8247 17.0345 25.2442 15.5538 27.2173C14.8594 28.0445 13.9786 28.7002 12.9819 29.1318C11.9851 29.5634 10.8999 29.7591 9.81291 29.7033C8.34881 29.7918 6.90684 29.3174 5.78937 28.3796C5.28956 27.9079 4.9003 27.334 4.64884 26.6983C4.39739 26.0625 4.28983 25.3801 4.33369 24.6989C4.2842 23.9276 4.43737 23.1567 4.77836 22.461C5.11936 21.7653 5.63662 21.1682 6.28004 20.7277C8.03025 19.7343 10.039 19.2737 12.0537 19.404H17.5983L17.6474 20.3726Z" fill="black"/>
<path d="M47.2685 7.10297L41.9528 7.11911L30.4055 18.1771V0L25.9077 0.0161431L25.8913 33.4485H30.3892L30.4055 23.0201L33.6767 19.9852L43.4575 33.4485H48.8059L36.7516 17.1763L47.2685 7.10297Z" fill="black"/>
<path d="M102.126 28.8639C101.25 27.6938 100.847 26.2432 100.997 24.7958V10.4446H110.991V7.10297H101.014V0H96.6303V7.10297H89.4828V10.4446H96.614V24.7797C96.614 28.0083 97.3009 30.2037 98.6421 31.5113C99.9833 32.8189 102.306 33.4485 105.593 33.4485H110.958V30.01H106.051C105.353 30.0854 104.646 30.0229 103.972 29.8262C103.298 29.6294 102.671 29.3023 102.126 28.8639Z" fill="black"/>
<path d="M123.029 5.65007C121.318 5.57513 119.612 5.87334 118.032 6.52347C116.452 7.1736 115.036 8.15966 113.886 9.41142C111.497 12.2164 110.27 15.8086 110.451 19.4686C110.231 23.1694 111.488 26.8082 113.951 29.6064C115.215 30.8627 116.735 31.8403 118.409 32.4747C120.084 33.1091 121.876 33.386 123.667 33.2871C125.174 33.2748 126.676 33.1071 128.148 32.7866C129.824 32.4163 131.465 31.9087 133.055 31.2692V26.959C131.489 27.7825 129.846 28.4529 128.148 28.9607C126.726 29.3838 125.25 29.6067 123.765 29.6226C122.588 29.6943 121.41 29.5216 120.306 29.1156C119.201 28.7096 118.195 28.0794 117.353 27.2657C115.838 25.7052 115.14 23.1277 115.26 19.5331V19.3879H134.2V17.2731C134.145 14.2585 133.036 11.3553 131.059 9.05627C130.07 7.92511 128.833 7.03071 127.441 6.44063C126.05 5.85055 124.541 5.58023 123.029 5.65007ZM115.374 16.0301C115.525 14.2635 116.322 12.6113 117.615 11.3809C118.294 10.7008 119.108 10.1663 120.005 9.8108C120.903 9.45526 121.866 9.28633 122.832 9.31456C123.748 9.26783 124.663 9.42162 125.511 9.76491C126.359 10.1082 127.12 10.6325 127.739 11.3002C128.887 12.6283 129.59 14.2752 129.751 16.014L115.374 16.0301Z" fill="black"/>
<path d="M149.542 9.45983C150.893 9.43825 152.235 9.66827 153.5 10.1378C154.796 10.663 155.987 11.4119 157.016 12.3494V7.81324C155.856 7.12782 154.614 6.58566 153.32 6.19893C152.093 5.87641 150.828 5.71359 149.558 5.71463C147.774 5.61618 145.988 5.89182 144.319 6.52343C142.65 7.15503 141.136 8.12827 139.875 9.37912C137.384 12.2126 136.126 15.9023 136.375 19.6461C136.155 23.349 137.405 26.991 139.859 29.8001C141.119 31.051 142.634 32.0242 144.303 32.6558C145.972 33.2874 147.757 33.5631 149.542 33.4646C150.835 33.4682 152.122 33.2999 153.369 32.9642C154.646 32.5999 155.871 32.0793 157.016 31.4145V26.9267C156.043 27.8494 154.9 28.5783 153.647 29.0737C152.341 29.5577 150.953 29.7932 149.558 29.7679C148.368 29.8342 147.179 29.63 146.081 29.171C144.984 28.712 144.008 28.0105 143.228 27.1204C141.622 24.9626 140.83 22.3191 140.988 19.6461C140.808 16.9582 141.596 14.2939 143.212 12.1234C143.987 11.2276 144.962 10.5209 146.06 10.0588C147.158 9.59673 148.35 9.39172 149.542 9.45983Z" fill="black"/>
</g>
<defs>
<clipPath id="clip0">
<rect width="157" height="37" fill="white"/>
</clipPath>
</defs>
</svg>
