<svg width="149" height="150" viewBox="0 0 149 150" fill="none" xmlns="http://www.w3.org/2000/svg">
<rect x="2" y="2" width="144.731" height="145.488" rx="22" fill="#2C2C2C"/>
<rect x="2" y="2" width="144.731" height="145.488" rx="22" stroke="white" stroke-width="4"/>
<path d="M50.205 82.809L60.4399 60.7017L70.6747 82.809H50.205ZM73.1311 88.0726L76.4647 95.2663H82.2548L63.1887 54.3268H57.6911L38.625 95.2663H44.415L47.7486 88.0726H73.1311Z" fill="white"/>
<path d="M82.8177 57.602C82.8177 58.7717 83.1686 59.7074 83.9289 60.4677C84.6892 61.228 85.625 61.5789 86.7947 61.5789C87.9059 61.5789 88.8416 61.228 89.6019 60.4677C90.3622 59.7074 90.7716 58.7717 90.7716 57.602C90.7716 56.4908 90.3622 55.555 89.6019 54.7947C88.8416 54.0344 87.9059 53.625 86.7947 53.625C85.625 53.625 84.6892 54.0344 83.9289 54.7947C83.1686 55.555 82.8177 56.4908 82.8177 57.602ZM89.3095 66.0238H84.2798V95.2663H89.3095V66.0238Z" fill="white"/>
<path d="M99.739 70.4102V66.0238H94.8848V95.2663H99.9145V81.6393C99.9145 80.0017 100.031 78.5396 100.324 77.1359C100.558 75.7908 101.026 74.6211 101.727 73.6268C102.429 72.6911 103.307 71.9308 104.418 71.4044C105.471 70.8781 106.874 70.5856 108.512 70.5856C109.038 70.5856 109.506 70.6441 109.974 70.7026C110.442 70.7611 110.91 70.8196 111.436 70.9365V65.6144C110.968 65.5559 110.5 65.4974 110.032 65.439C109.564 65.3805 109.038 65.322 108.57 65.322C106.465 65.322 104.71 65.7899 103.248 66.6671C101.786 67.5444 100.616 68.7726 99.739 70.4102Z" fill="white"/>
</svg>
