<svg id="Capa_1" enable-background="new 0 0 512 512" height="512" viewBox="0 0 512 512" width="512" xmlns="http://www.w3.org/2000/svg"><g><circle cx="436.318" cy="363.484" r="10.002"/><ellipse cx="193.582" cy="501.998" rx="10.002" ry="10.002" transform="matrix(.998 -.071 .071 .998 -35.099 14.986)"/><path d="m468.877 320.874-74.066-63.281c-.081-.069-.162-.137-.245-.203l-26.654-21.345 124.166-209.288c2.49-4.196 1.588-9.577-2.133-12.732-3.722-3.157-9.177-3.166-12.909-.023l-188.372 158.579-14.223-11.391-33.84-83.917c-1.885-4.673-6.953-7.209-11.826-5.931-.663.175-16.41 4.421-31.298 16.522-11.004 8.944-23.181 23.557-26.319 45.631-6.722-2.955-14.048-4.465-21.544-4.349-27.946.438-50.406 23.144-50.748 50.919-23.61 5.027-41.206 26.219-40.814 51.246.09 5.761 1.137 11.408 3.067 16.744-17.246 8.747-28.663 26.858-28.351 46.844.128 8.132 2.197 16.085 5.942 23.207-12.793 9.791-20.474 25.195-20.214 41.756.204 13.079 5.296 25.339 14.05 34.602-8.458 9.525-13.165 21.939-12.961 35.023.215 13.776 5.781 26.643 15.672 36.23 9.692 9.395 22.4 14.54 35.863 14.539 2.221 0 4.438-.153 6.641-.434 1.355 7.96 2.86 16.016 4.515 24.167.947 4.662 5.045 8.011 9.801 8.011h55.861c5.524 0 10.002-4.478 10.002-10.002 0-5.523-4.478-10.002-10.002-10.002h-47.643c-11.549-60.08-14.556-114.534-8.937-161.979 4.653-39.287 15.2-73.848 31.347-102.725 27.339-48.892 61.869-64.872 62.176-65.011 3.986-1.755 6.378-5.89 5.913-10.22-3.851-35.866 21.308-52.187 34.881-58.31l31.191 77.35c.642 1.592 1.684 2.993 3.024 4.066l122.045 97.737 73.946 63.177c16.592 14.177 22.12 37.244 13.755 57.401-5.139 12.384-14.792 22.025-27.183 27.147-12.39 5.124-26.035 5.115-38.417-.024l-90.754-37.661c-2.78-1.154-5.932-.993-8.581.435-9.955 5.368-21.128 8.782-32.013 10.115-.327.023.323-.055 0 0-14.718 1.636-30.26-.373-44.348-6.219-22.164-9.198-39.334-26.513-48.347-48.756-9.01-22.239-8.729-46.631.791-68.681 2.189-5.072-.147-10.958-5.219-13.147-5.069-2.188-10.957.147-13.147 5.218-11.659 27.006-12.001 56.881-.965 84.121 11.039 27.246 32.07 48.454 59.219 59.721 15.781 6.549 32.549 9.223 49.086 8.103 6.673 8.463 23.121 33.614 25.318 78.144h-56.61c-5.524 0-10.002 4.478-10.002 10.002 0 5.523 4.478 10.002 10.002 10.002h66.856c5.524 0 10.002-4.478 10.002-10.002 0-46.062-13.587-75.992-23.711-91.899 6.229-1.741 12.343-4.04 18.269-6.909l86.486 35.891c17.32 7.188 36.401 7.199 53.727.035 17.328-7.164 30.829-20.648 38.016-37.966 11.701-28.192 3.971-60.453-19.234-80.278zm-397.349-55.637c3.106 3.404 6.651 6.376 10.539 8.839-4.417 15.468-7.743 31.863-9.991 49.085-4.446-1.883-8.468-4.765-11.659-8.471-4.816-5.591-7.532-12.731-7.647-20.105-.2-12.776 7.422-24.3 18.758-29.348zm-20.234 68.442c5.462 4.555 11.831 7.957 18.648 9.941-1.173 15.067-1.566 30.735-1.18 46.966-5.519-.225-10.869-1.863-15.539-4.809-9.054-5.729-14.559-15.534-14.727-26.228-.161-10.318 4.717-19.896 12.798-25.87zm20.344 126.569c-8.401.146-16.405-3.027-22.458-8.895-6.055-5.869-9.462-13.745-9.594-22.179-.137-8.753 3.32-17.014 9.438-23.016 6.456 2.885 13.447 4.406 20.589 4.464.975 15.984 2.667 32.474 5.068 49.433-1.008.111-2.025.177-3.043.193zm16.946-206.211c-1.982-1.773-3.749-3.793-5.24-6.022-3.365-5.037-5.195-10.921-5.29-17.016-.236-15.121 10.254-27.954 24.433-31.245 1.628 4.092 3.776 7.965 6.398 11.521-.928 1.545-1.853 3.11-2.769 4.72-6.739 11.836-12.585 24.54-17.532 38.042zm32.684-61.204c-.786-1.885-1.395-3.844-1.801-5.858-.377-1.888-.584-3.828-.614-5.765-.273-17.407 13.667-31.79 31.074-32.063 4.647-.093 9.185.86 13.341 2.722-10.728 7.286-26.43 20.183-42 40.964zm247.705-61.712 10.569 46.117-20.506 34.564-13.83-60.341c-.021-.092-.053-.178-.076-.268zm25.373 21.166-8.17-35.647 58.573-49.308zm-89.764 33.041 23.358-19.664 10.771 46.995z"/><path d="m230.441 249.645c1.162-.412 28.606-9.87 42.236 10.888 1.921 2.925 5.113 4.513 8.37 4.513 1.884 0 3.788-.531 5.48-1.642 4.617-3.032 5.903-9.233 2.871-13.85-17.898-27.259-50.852-24.162-65.775-18.715-5.174 1.888-7.826 7.595-5.96 12.777 1.865 5.183 7.592 7.873 12.778 6.029z"/><path d="m259.333 59.97 24.059 13.158 13.158 24.06c1.754 3.208 5.119 5.202 8.775 5.202s7.021-1.994 8.775-5.202l13.158-24.06 24.059-13.158c3.208-1.754 5.203-5.119 5.203-8.775s-1.995-7.021-5.203-8.775l-24.059-13.158-13.158-24.06c-1.754-3.208-5.119-5.202-8.774-5.202-3.656 0-7.021 1.994-8.775 5.202l-13.158 24.06-24.06 13.158c-3.208 1.754-5.203 5.119-5.203 8.775.001 3.656 1.996 7.021 5.203 8.775zm36.228-14.564c1.678-.918 3.058-2.297 3.976-3.975l5.789-10.585 5.789 10.585c.918 1.678 2.298 3.057 3.976 3.975l10.585 5.789-10.585 5.789c-1.678.918-3.058 2.297-3.976 3.975l-5.789 10.585-5.789-10.585c-.918-1.678-2.298-3.057-3.976-3.975l-10.585-5.789z"/><path d="m463.886 209.507c5.524 0 10.002-4.478 10.002-10.002v-5.214h5.213c5.524 0 10.002-4.478 10.002-10.002s-4.478-10.002-10.002-10.002h-5.213v-5.214c0-5.523-4.478-10.002-10.002-10.002s-10.002 4.478-10.002 10.002v5.214h-5.214c-5.524 0-10.002 4.478-10.002 10.002s4.478 10.002 10.002 10.002h5.214v5.214c.001 5.524 4.478 10.002 10.002 10.002z"/></g></svg>