<svg display="none" xmlns="http://www.w3.org/2000/svg">
<symbol id="top" viewBox="0 0 512 512">
<path d="m512 256c0 141.386719-114.613281 256-256 256s-256-114.613281-256-256 114.613281-256 256-256 256 114.613281 256 256zm0 0" fill="#80deea"/><path d="m0 256c0 141.152344 114.847656 256 256 256s256-114.847656 256-256zm0 0" fill="#4dd0e1"/>
<g fill="#fff"><path d="m335.183594 184.558594-79.183594-79.183594-79.183594 79.183594 22.625 22.625 40.558594-40.558594v121.136719h32v-121.136719l40.558594 40.558594zm0 0"/><path d="m240 319.761719h32v32h-32zm0 0"/><path d="m240 383.761719h32v32h-32zm0 0"/>
</g>
</symbol>
</svg>
