<svg width="46" height="24" viewBox="0 0 46 24" fill="none" xmlns="http://www.w3.org/2000/svg">
<rect opacity="0.1" width="46" height="24" rx="12" fill="#2060F6"/>
<path d="M12.9297 12.138C12.9297 10.6387 13.1984 9.46433 13.7357 8.615C14.2817 7.76567 15.1831 7.341 16.4397 7.341C17.6964 7.341 18.5934 7.76567 19.1307 8.615C19.6767 9.46433 19.9497 10.6387 19.9497 12.138C19.9497 13.646 19.6767 14.829 19.1307 15.687C18.5934 16.545 17.6964 16.974 16.4397 16.974C15.1831 16.974 14.2817 16.545 13.7357 15.687C13.1984 14.829 12.9297 13.646 12.9297 12.138ZM18.1557 12.138C18.1557 11.4967 18.1124 10.9593 18.0257 10.526C17.9477 10.084 17.7831 9.72433 17.5317 9.447C17.2891 9.16967 16.9251 9.031 16.4397 9.031C15.9544 9.031 15.5861 9.16967 15.3347 9.447C15.0921 9.72433 14.9274 10.084 14.8407 10.526C14.7627 10.9593 14.7237 11.4967 14.7237 12.138C14.7237 12.7967 14.7627 13.3513 14.8407 13.802C14.9187 14.244 15.0834 14.6037 15.3347 14.881C15.5861 15.1497 15.9544 15.284 16.4397 15.284C16.9251 15.284 17.2934 15.1497 17.5447 14.881C17.7961 14.6037 17.9607 14.244 18.0387 13.802C18.1167 13.3513 18.1557 12.7967 18.1557 12.138ZM21.334 12.138C21.334 10.6387 21.6027 9.46433 22.14 8.615C22.686 7.76567 23.5874 7.341 24.844 7.341C26.1007 7.341 26.9977 7.76567 27.535 8.615C28.081 9.46433 28.354 10.6387 28.354 12.138C28.354 13.646 28.081 14.829 27.535 15.687C26.9977 16.545 26.1007 16.974 24.844 16.974C23.5874 16.974 22.686 16.545 22.14 15.687C21.6027 14.829 21.334 13.646 21.334 12.138ZM26.56 12.138C26.56 11.4967 26.5167 10.9593 26.43 10.526C26.352 10.084 26.1874 9.72433 25.936 9.447C25.6934 9.16967 25.3294 9.031 24.844 9.031C24.3587 9.031 23.9904 9.16967 23.739 9.447C23.4964 9.72433 23.3317 10.084 23.245 10.526C23.167 10.9593 23.128 11.4967 23.128 12.138C23.128 12.7967 23.167 13.3513 23.245 13.802C23.323 14.244 23.4877 14.6037 23.739 14.881C23.9904 15.1497 24.3587 15.284 24.844 15.284C25.3294 15.284 25.6977 15.1497 25.949 14.881C26.2004 14.6037 26.365 14.244 26.443 13.802C26.521 13.3513 26.56 12.7967 26.56 12.138ZM29.5173 9.2V7.523H32.6503V17H30.7783V9.2H29.5173Z" fill="#2060F6"/>
</svg>
