<svg width="46" height="24" viewBox="0 0 46 24" fill="none" xmlns="http://www.w3.org/2000/svg">
<rect opacity="0.1" width="46" height="24" rx="12" fill="#2060F6"/>
<path d="M12.0523 12.138C12.0523 10.6387 12.3209 9.46433 12.8583 8.615C13.4043 7.76567 14.3056 7.341 15.5623 7.341C16.8189 7.341 17.7159 7.76567 18.2533 8.615C18.7993 9.46433 19.0723 10.6387 19.0723 12.138C19.0723 13.646 18.7993 14.829 18.2533 15.687C17.7159 16.545 16.8189 16.974 15.5623 16.974C14.3056 16.974 13.4043 16.545 12.8583 15.687C12.3209 14.829 12.0523 13.646 12.0523 12.138ZM17.2783 12.138C17.2783 11.4967 17.2349 10.9593 17.1483 10.526C17.0703 10.084 16.9056 9.72433 16.6543 9.447C16.4116 9.16967 16.0476 9.031 15.5623 9.031C15.0769 9.031 14.7086 9.16967 14.4573 9.447C14.2146 9.72433 14.0499 10.084 13.9633 10.526C13.8853 10.9593 13.8463 11.4967 13.8463 12.138C13.8463 12.7967 13.8853 13.3513 13.9633 13.802C14.0413 14.244 14.2059 14.6037 14.4573 14.881C14.7086 15.1497 15.0769 15.284 15.5623 15.284C16.0476 15.284 16.4159 15.1497 16.6673 14.881C16.9186 14.6037 17.0833 14.244 17.1613 13.802C17.2393 13.3513 17.2783 12.7967 17.2783 12.138ZM20.4566 12.138C20.4566 10.6387 20.7252 9.46433 21.2626 8.615C21.8086 7.76567 22.7099 7.341 23.9666 7.341C25.2232 7.341 26.1202 7.76567 26.6576 8.615C27.2036 9.46433 27.4766 10.6387 27.4766 12.138C27.4766 13.646 27.2036 14.829 26.6576 15.687C26.1202 16.545 25.2232 16.974 23.9666 16.974C22.7099 16.974 21.8086 16.545 21.2626 15.687C20.7252 14.829 20.4566 13.646 20.4566 12.138ZM25.6826 12.138C25.6826 11.4967 25.6392 10.9593 25.5526 10.526C25.4746 10.084 25.3099 9.72433 25.0586 9.447C24.8159 9.16967 24.4519 9.031 23.9666 9.031C23.4812 9.031 23.1129 9.16967 22.8616 9.447C22.6189 9.72433 22.4542 10.084 22.3676 10.526C22.2896 10.9593 22.2506 11.4967 22.2506 12.138C22.2506 12.7967 22.2896 13.3513 22.3676 13.802C22.4456 14.244 22.6102 14.6037 22.8616 14.881C23.1129 15.1497 23.4812 15.284 23.9666 15.284C24.4519 15.284 24.8202 15.1497 25.0716 14.881C25.3229 14.6037 25.4876 14.244 25.5656 13.802C25.6436 13.3513 25.6826 12.7967 25.6826 12.138ZM29.4329 14.946C30.2649 14.2527 30.9279 13.6763 31.4219 13.217C31.9159 12.749 32.3275 12.2637 32.6569 11.761C32.9862 11.2583 33.1509 10.7643 33.1509 10.279C33.1509 9.837 33.0469 9.49033 32.8389 9.239C32.6309 8.98767 32.3102 8.862 31.8769 8.862C31.4435 8.862 31.1099 9.00933 30.8759 9.304C30.6419 9.59 30.5205 9.98433 30.5119 10.487H28.7439C28.7785 9.447 29.0862 8.65833 29.6669 8.121C30.2562 7.58367 31.0015 7.315 31.9029 7.315C32.8909 7.315 33.6492 7.57933 34.1779 8.108C34.7065 8.628 34.9709 9.317 34.9709 10.175C34.9709 10.851 34.7889 11.4967 34.4249 12.112C34.0609 12.7273 33.6449 13.2647 33.1769 13.724C32.7089 14.1747 32.0979 14.7207 31.3439 15.362H35.1789V16.87H28.7569V15.518L29.4329 14.946Z" fill="#2060F6"/>
</svg>
