<?xml version="1.0" ?><!DOCTYPE svg  PUBLIC '-//W3C//DTD SVG 1.1//EN'  'http://www.w3.org/Graphics/SVG/1.1/DTD/svg11.dtd'><svg height="512px" style="enable-background:new 0 0 512 512;" version="1.1" viewBox="0 0 512 512" width="512px" xml:space="preserve" xmlns="http://www.w3.org/2000/svg" xmlns:xlink="http://www.w3.org/1999/xlink"><g id="_x31_69_x2C__Network_x2C__Social_x2C__Twitter"><g><path d="M454.02,92.769c-5.75,20.87-20.579,30.4-30.859,45.61c13.609-3.86,27.149-7.8,40.76-11.73    c-17.92,35.17-39.1,26.32-41.439,55.06c-10.29,126.389-90.091,238.559-224.951,246.28c-41.67,2.34-128.88-14.07-149.45-38.199    c25.79-3.33,44.09-4.16,68.22-10.891c24.96-7.039,34.49-14.83,55.59-24.811c-22.69-4.459-79.94,2.471-91.89-55.09    c12.25-0.379,36.3-0.809,47.27-7.309C91.42,274.818,58.18,255.059,60,208.999c15.2,3.86,18.78,7.66,39.21,8.11    c-29.65-37.66-53.4-57.03-26.63-114.74c28.97,21.56,41.07,41.9,78.89,61.87c26.7,14.15,65.96,25.19,100.9,26.93    c-15.73-97.5,95.6-143.56,144.31-80.4C420.81,110.838,435.64,99.949,454.02,92.769z" style="fill:#86DCFD;"/></g></g><g id="Layer_1"/></svg>