<svg width="46" height="24" viewBox="0 0 46 24" fill="none" xmlns="http://www.w3.org/2000/svg">
<rect opacity="0.1" width="46" height="24" rx="12" fill="#2060F6"/>
<path d="M11.8936 12.138C11.8936 10.6387 12.1623 9.46433 12.6996 8.615C13.2456 7.76567 14.1469 7.341 15.4036 7.341C16.6603 7.341 17.5573 7.76567 18.0946 8.615C18.6406 9.46433 18.9136 10.6387 18.9136 12.138C18.9136 13.646 18.6406 14.829 18.0946 15.687C17.5573 16.545 16.6603 16.974 15.4036 16.974C14.1469 16.974 13.2456 16.545 12.6996 15.687C12.1623 14.829 11.8936 13.646 11.8936 12.138ZM17.1196 12.138C17.1196 11.4967 17.0763 10.9593 16.9896 10.526C16.9116 10.084 16.7469 9.72433 16.4956 9.447C16.2529 9.16967 15.8889 9.031 15.4036 9.031C14.9183 9.031 14.5499 9.16967 14.2986 9.447C14.0559 9.72433 13.8913 10.084 13.8046 10.526C13.7266 10.9593 13.6876 11.4967 13.6876 12.138C13.6876 12.7967 13.7266 13.3513 13.8046 13.802C13.8826 14.244 14.0473 14.6037 14.2986 14.881C14.5499 15.1497 14.9183 15.284 15.4036 15.284C15.8889 15.284 16.2573 15.1497 16.5086 14.881C16.7599 14.6037 16.9246 14.244 17.0026 13.802C17.0806 13.3513 17.1196 12.7967 17.1196 12.138ZM20.2979 12.138C20.2979 10.6387 20.5666 9.46433 21.1039 8.615C21.6499 7.76567 22.5512 7.341 23.8079 7.341C25.0646 7.341 25.9616 7.76567 26.4989 8.615C27.0449 9.46433 27.3179 10.6387 27.3179 12.138C27.3179 13.646 27.0449 14.829 26.4989 15.687C25.9616 16.545 25.0646 16.974 23.8079 16.974C22.5512 16.974 21.6499 16.545 21.1039 15.687C20.5666 14.829 20.2979 13.646 20.2979 12.138ZM25.5239 12.138C25.5239 11.4967 25.4806 10.9593 25.3939 10.526C25.3159 10.084 25.1512 9.72433 24.8999 9.447C24.6572 9.16967 24.2932 9.031 23.8079 9.031C23.3226 9.031 22.9542 9.16967 22.7029 9.447C22.4602 9.72433 22.2956 10.084 22.2089 10.526C22.1309 10.9593 22.0919 11.4967 22.0919 12.138C22.0919 12.7967 22.1309 13.3513 22.2089 13.802C22.2869 14.244 22.4516 14.6037 22.7029 14.881C22.9542 15.1497 23.3226 15.284 23.8079 15.284C24.2932 15.284 24.6616 15.1497 24.9129 14.881C25.1642 14.6037 25.3289 14.244 25.4069 13.802C25.4849 13.3513 25.5239 12.7967 25.5239 12.138ZM28.7282 10.019C28.7715 9.15233 29.0749 8.485 29.6382 8.017C30.2102 7.54033 30.9599 7.302 31.8872 7.302C32.5199 7.302 33.0615 7.41467 33.5122 7.64C33.9629 7.85667 34.3009 8.15567 34.5262 8.537C34.7602 8.90967 34.8772 9.33433 34.8772 9.811C34.8772 10.357 34.7342 10.8207 34.4482 11.202C34.1709 11.5747 33.8372 11.826 33.4472 11.956V12.008C33.9499 12.164 34.3399 12.4413 34.6172 12.84C34.9032 13.2387 35.0462 13.75 35.0462 14.374C35.0462 14.894 34.9249 15.3577 34.6822 15.765C34.4482 16.1723 34.0972 16.493 33.6292 16.727C33.1699 16.9523 32.6152 17.065 31.9652 17.065C30.9859 17.065 30.1885 16.818 29.5732 16.324C28.9579 15.83 28.6329 15.102 28.5982 14.14H30.3662C30.3835 14.5647 30.5265 14.907 30.7952 15.167C31.0725 15.4183 31.4495 15.544 31.9262 15.544C32.3682 15.544 32.7062 15.4227 32.9402 15.18C33.1829 14.9287 33.3042 14.608 33.3042 14.218C33.3042 13.698 33.1395 13.3253 32.8102 13.1C32.4809 12.8747 31.9695 12.762 31.2762 12.762H30.8992V11.267H31.2762C32.5069 11.267 33.1222 10.8553 33.1222 10.032C33.1222 9.65933 33.0095 9.369 32.7842 9.161C32.5675 8.953 32.2512 8.849 31.8352 8.849C31.4279 8.849 31.1115 8.96167 30.8862 9.187C30.6695 9.40367 30.5439 9.681 30.5092 10.019H28.7282Z" fill="#2060F6"/>
</svg>
