<svg width="46" height="24" viewBox="0 0 46 24" fill="none" xmlns="http://www.w3.org/2000/svg">
<rect opacity="0.1" width="46" height="24" rx="12" fill="#2060F6"/>
<path d="M10.9873 12.138C10.9873 10.6387 11.256 9.46433 11.7933 8.615C12.3393 7.76567 13.2407 7.341 14.4973 7.341C15.754 7.341 16.651 7.76567 17.1883 8.615C17.7343 9.46433 18.0073 10.6387 18.0073 12.138C18.0073 13.646 17.7343 14.829 17.1883 15.687C16.651 16.545 15.754 16.974 14.4973 16.974C13.2407 16.974 12.3393 16.545 11.7933 15.687C11.256 14.829 10.9873 13.646 10.9873 12.138ZM16.2133 12.138C16.2133 11.4967 16.17 10.9593 16.0833 10.526C16.0053 10.084 15.8407 9.72433 15.5893 9.447C15.3467 9.16967 14.9827 9.031 14.4973 9.031C14.012 9.031 13.6437 9.16967 13.3923 9.447C13.1497 9.72433 12.985 10.084 12.8983 10.526C12.8203 10.9593 12.7813 11.4967 12.7813 12.138C12.7813 12.7967 12.8203 13.3513 12.8983 13.802C12.9763 14.244 13.141 14.6037 13.3923 14.881C13.6437 15.1497 14.012 15.284 14.4973 15.284C14.9827 15.284 15.351 15.1497 15.6023 14.881C15.8537 14.6037 16.0183 14.244 16.0963 13.802C16.1743 13.3513 16.2133 12.7967 16.2133 12.138ZM19.3916 12.138C19.3916 10.6387 19.6603 9.46433 20.1976 8.615C20.7436 7.76567 21.645 7.341 22.9016 7.341C24.1583 7.341 25.0553 7.76567 25.5926 8.615C26.1386 9.46433 26.4116 10.6387 26.4116 12.138C26.4116 13.646 26.1386 14.829 25.5926 15.687C25.0553 16.545 24.1583 16.974 22.9016 16.974C21.645 16.974 20.7436 16.545 20.1976 15.687C19.6603 14.829 19.3916 13.646 19.3916 12.138ZM24.6176 12.138C24.6176 11.4967 24.5743 10.9593 24.4876 10.526C24.4096 10.084 24.245 9.72433 23.9936 9.447C23.751 9.16967 23.387 9.031 22.9016 9.031C22.4163 9.031 22.048 9.16967 21.7966 9.447C21.554 9.72433 21.3893 10.084 21.3026 10.526C21.2246 10.9593 21.1856 11.4967 21.1856 12.138C21.1856 12.7967 21.2246 13.3513 21.3026 13.802C21.3806 14.244 21.5453 14.6037 21.7966 14.881C22.048 15.1497 22.4163 15.284 22.9016 15.284C23.387 15.284 23.7553 15.1497 24.0066 14.881C24.258 14.6037 24.4226 14.244 24.5006 13.802C24.5786 13.3513 24.6176 12.7967 24.6176 12.138ZM27.7179 15.154V13.724L31.9689 7.64H34.0879V13.568H35.2319V15.154H34.0879V17H32.2679V15.154H27.7179ZM32.3849 9.59L29.7199 13.568H32.3849V9.59Z" fill="#2060F6"/>
</svg>
