<svg width="46" height="24" fill="none" xmlns="http://www.w3.org/2000/svg"><rect opacity=".1" width="46" height="24" rx="12" fill="#2060F6"/><path d="M12.052 12.138c0-1.5.269-2.674.806-3.523.546-.85 1.448-1.274 2.704-1.274 1.257 0 2.154.425 2.691 1.274.546.85.82 2.024.82 3.523 0 1.508-.274 2.691-.82 3.549-.537.858-1.434 1.287-2.69 1.287-1.257 0-2.159-.429-2.705-1.287-.537-.858-.806-2.041-.806-3.549Zm5.226 0c0-.641-.043-1.179-.13-1.612-.078-.442-.242-.802-.494-1.079-.242-.277-.606-.416-1.092-.416-.485 0-.853.139-1.105.416-.242.277-.407.637-.494 1.079-.078.433-.117.97-.117 1.612 0 .659.04 1.213.117 1.664.078.442.243.802.494 1.079.252.269.62.403 1.105.403.486 0 .854-.134 1.105-.403.252-.277.416-.637.494-1.079.078-.45.117-1.005.117-1.664Zm3.179 0c0-1.5.268-2.674.806-3.523.546-.85 1.447-1.274 2.704-1.274 1.256 0 2.153.425 2.69 1.274.547.85.82 2.024.82 3.523 0 1.508-.273 2.691-.82 3.549-.537.858-1.434 1.287-2.69 1.287-1.257 0-2.158-.429-2.704-1.287-.538-.858-.806-2.041-.806-3.549Zm5.226 0c0-.641-.044-1.179-.13-1.612-.078-.442-.243-.802-.494-1.079-.243-.277-.607-.416-1.092-.416-.486 0-.854.139-1.105.416-.243.277-.408.637-.494 1.079-.078.433-.117.97-.117 1.612 0 .659.039 1.213.117 1.664.078.442.242.802.494 1.079.25.269.62.403 1.105.403s.853-.134 1.105-.403c.25-.277.416-.637.494-1.079.078-.45.117-1.005.117-1.664Zm3.75 2.808a50.6 50.6 0 0 0 1.989-1.729 8.231 8.231 0 0 0 1.235-1.456c.33-.503.494-.997.494-1.482 0-.442-.104-.789-.312-1.04-.208-.251-.529-.377-.962-.377-.433 0-.767.147-1.001.442-.234.286-.356.68-.364 1.183h-1.768c.035-1.04.342-1.829.923-2.366.59-.537 1.334-.806 2.236-.806.988 0 1.746.264 2.275.793.529.52.793 1.209.793 2.067 0 .676-.182 1.322-.546 1.937a7.824 7.824 0 0 1-1.248 1.612c-.468.45-1.08.997-1.833 1.638h3.835v1.508h-6.422v-1.352l.676-.572Z" fill="#2060F6"/></svg>