<svg width="45" height="26" viewBox="0 0 45 26" fill="none" xmlns="http://www.w3.org/2000/svg">
<path d="M7.128 17.964L13.428 4.356L19.728 17.964H7.128ZM21.24 21.204L23.292 25.632H26.856L15.12 0.431998H11.736L0 25.632H3.564L5.616 21.204H21.24Z" fill="white"/>
<path d="M27.2025 2.448C27.2025 3.168 27.4185 3.744 27.8865 4.212C28.3545 4.68 28.9305 4.896 29.6505 4.896C30.3345 4.896 30.9105 4.68 31.3785 4.212C31.8465 3.744 32.0985 3.168 32.0985 2.448C32.0985 1.764 31.8465 1.188 31.3785 0.719999C30.9105 0.251999 30.3345 0 29.6505 0C28.9305 0 28.3545 0.251999 27.8865 0.719999C27.4185 1.188 27.2025 1.764 27.2025 2.448ZM31.1985 7.632H28.1025V25.632H31.1985V7.632Z" fill="white"/>
<path d="M37.6183 10.332V7.632H34.6303V25.632H37.7263V17.244C37.7263 16.236 37.7983 15.336 37.9783 14.472C38.1223 13.644 38.4103 12.924 38.8423 12.312C39.2743 11.736 39.8143 11.268 40.4983 10.944C41.1463 10.62 42.0103 10.44 43.0183 10.44C43.3423 10.44 43.6303 10.476 43.9183 10.512C44.2063 10.548 44.4943 10.584 44.8183 10.656V7.38C44.5303 7.344 44.2423 7.308 43.9543 7.272C43.6663 7.236 43.3423 7.2 43.0543 7.2C41.7583 7.2 40.6783 7.488 39.7783 8.028C38.8783 8.568 38.1583 9.324 37.6183 10.332Z" fill="white"/>
</svg>
