<?xml version="1.0" encoding="UTF-8"?>
<svg xmlns="http://www.w3.org/2000/svg" xmlns:xlink="http://www.w3.org/1999/xlink" width="16px" height="9px" viewBox="0 0 15 9" version="1.1">
<g id="surface1">
<path style=" stroke:none;fill-rule:nonzero;fill:rgb(100%,100%,100%);fill-opacity:1;" d="M 2.375 6.21875 L 4.476562 1.507812 L 6.574219 6.21875 Z M 7.078125 7.339844 L 7.765625 8.871094 L 8.953125 8.871094 L 5.039062 0.148438 L 3.910156 0.148438 L 0 8.871094 L 1.1875 8.871094 L 1.871094 7.339844 Z M 7.078125 7.339844 "/>
<path style=" stroke:none;fill-rule:nonzero;fill:rgb(100%,100%,100%);fill-opacity:1;" d="M 9.066406 0.847656 C 9.066406 1.097656 9.140625 1.296875 9.296875 1.457031 C 9.453125 1.621094 9.644531 1.695312 9.882812 1.695312 C 10.113281 1.695312 10.304688 1.621094 10.460938 1.457031 C 10.617188 1.296875 10.699219 1.097656 10.699219 0.847656 C 10.699219 0.609375 10.617188 0.410156 10.460938 0.25 C 10.304688 0.0859375 10.113281 0 9.882812 0 C 9.644531 0 9.453125 0.0859375 9.296875 0.25 C 9.140625 0.410156 9.066406 0.609375 9.066406 0.847656 Z M 10.398438 2.640625 L 9.367188 2.640625 L 9.367188 8.871094 L 10.398438 8.871094 Z M 10.398438 2.640625 "/>
<path style=" stroke:none;fill-rule:nonzero;fill:rgb(100%,100%,100%);fill-opacity:1;" d="M 12.539062 3.578125 L 12.539062 2.640625 L 11.542969 2.640625 L 11.542969 8.871094 L 12.574219 8.871094 L 12.574219 5.96875 C 12.574219 5.621094 12.597656 5.308594 12.660156 5.007812 C 12.707031 4.722656 12.804688 4.472656 12.949219 4.261719 C 13.089844 4.0625 13.269531 3.902344 13.5 3.789062 C 13.714844 3.675781 14.003906 3.613281 14.339844 3.613281 C 14.449219 3.613281 14.542969 3.625 14.640625 3.640625 C 14.734375 3.652344 14.832031 3.664062 14.9375 3.6875 L 14.9375 2.554688 C 14.84375 2.542969 14.746094 2.53125 14.652344 2.515625 C 14.554688 2.503906 14.449219 2.492188 14.351562 2.492188 C 13.917969 2.492188 13.558594 2.59375 13.257812 2.777344 C 12.960938 2.964844 12.71875 3.226562 12.539062 3.578125 Z M 12.539062 3.578125 "/>
</g>
</svg>
