<svg width="1600" height="608" viewBox="0 0 1600 608" fill="none" xmlns="http://www.w3.org/2000/svg">
<g opacity="0.5">
<rect x="1220.98" y="450.084" width="82.6109" height="30.8432" rx="15.4216" transform="rotate(-65.0996 1220.98 450.084)" stroke="#F25656" stroke-width="3"/>
<rect x="1220.98" y="450.084" width="82.6109" height="30.8432" rx="15.4216" transform="rotate(-65.0996 1220.98 450.084)" stroke="url(#paint0_linear)" stroke-opacity="0.25" stroke-width="3"/>
</g>
<g opacity="0.5">
<rect x="234.992" y="136.923" width="82.6109" height="30.8432" rx="15.4216" transform="rotate(-65.0996 234.992 136.923)" stroke="#F25656" stroke-width="3"/>
<rect x="234.992" y="136.923" width="82.6109" height="30.8432" rx="15.4216" transform="rotate(-65.0996 234.992 136.923)" stroke="url(#paint1_linear)" stroke-opacity="0.25" stroke-width="3"/>
</g>
<g opacity="0.5">
<rect x="447.992" y="105.341" width="42.28" height="14.8998" rx="7.44991" transform="rotate(-65.0996 447.992 105.341)" stroke="#FCC304" stroke-width="3"/>
<rect x="447.992" y="105.341" width="42.28" height="14.8998" rx="7.44991" transform="rotate(-65.0996 447.992 105.341)" stroke="url(#paint2_linear)" stroke-opacity="0.25" stroke-width="3"/>
</g>
<g opacity="0.5">
<rect x="1013.99" y="542.341" width="42.28" height="14.8998" rx="7.44991" transform="rotate(-65.0996 1013.99 542.341)" stroke="#BC04FC" stroke-width="3"/>
<rect x="1013.99" y="542.341" width="42.28" height="14.8998" rx="7.44991" transform="rotate(-65.0996 1013.99 542.341)" stroke="url(#paint3_linear)" stroke-opacity="0.25" stroke-width="3"/>
</g>
<g opacity="0.5">
<rect x="1467.59" y="342.148" width="83.406" height="31.1576" rx="15.5788" transform="rotate(-65.0996 1467.59 342.148)" stroke="#FCC304" stroke-width="3"/>
<rect x="1467.59" y="342.148" width="83.406" height="31.1576" rx="15.5788" transform="rotate(-65.0996 1467.59 342.148)" stroke="url(#paint4_linear)" stroke-opacity="0.25" stroke-width="3"/>
</g>
<g opacity="0.5">
<rect x="1340.01" y="539.275" width="148.608" height="55.7233" rx="27.8616" transform="rotate(-65.0996 1340.01 539.275)" stroke="#56CCF2" stroke-width="5"/>
<rect x="1340.01" y="539.275" width="148.608" height="55.7233" rx="27.8616" transform="rotate(-65.0996 1340.01 539.275)" stroke="url(#paint5_linear)" stroke-opacity="0.25" stroke-width="5"/>
</g>
<g opacity="0.5">
<rect x="85.4765" y="417.998" width="62.3586" height="21.6278" rx="10.8139" transform="rotate(-65.0996 85.4765 417.998)" stroke="#56CCF2" stroke-width="5"/>
<rect x="85.4765" y="417.998" width="62.3586" height="21.6278" rx="10.8139" transform="rotate(-65.0996 85.4765 417.998)" stroke="url(#paint6_linear)" stroke-opacity="0.25" stroke-width="5"/>
</g>
<g opacity="0.5">
<rect x="1276.23" y="247.48" width="138.037" height="51.5447" rx="25.7723" transform="rotate(-65.0996 1276.23 247.48)" stroke="black" stroke-width="5"/>
<rect x="1276.23" y="247.48" width="138.037" height="51.5447" rx="25.7723" transform="rotate(-65.0996 1276.23 247.48)" stroke="#03D542" stroke-width="5"/>
<rect x="1276.23" y="247.48" width="138.037" height="51.5447" rx="25.7723" transform="rotate(-65.0996 1276.23 247.48)" stroke="url(#paint7_linear)" stroke-opacity="0.25" stroke-width="5"/>
</g>
<g opacity="0.5">
<rect x="1450.34" y="144.961" width="48.6867" height="16.2231" rx="8.11156" transform="rotate(-65.0996 1450.34 144.961)" stroke="black" stroke-width="5"/>
<rect x="1450.34" y="144.961" width="48.6867" height="16.2231" rx="8.11156" transform="rotate(-65.0996 1450.34 144.961)" stroke="#BC04FC" stroke-width="5"/>
<rect x="1450.34" y="144.961" width="48.6867" height="16.2231" rx="8.11156" transform="rotate(-65.0996 1450.34 144.961)" stroke="url(#paint8_linear)" stroke-opacity="0.25" stroke-width="5"/>
</g>
<g opacity="0.5">
<rect x="272.32" y="399.527" width="138.037" height="51.5447" rx="25.7723" transform="rotate(-65.0996 272.32 399.527)" stroke="black" stroke-width="5"/>
<rect x="272.32" y="399.527" width="138.037" height="51.5447" rx="25.7723" transform="rotate(-65.0996 272.32 399.527)" stroke="#03D542" stroke-width="5"/>
<rect x="272.32" y="399.527" width="138.037" height="51.5447" rx="25.7723" transform="rotate(-65.0996 272.32 399.527)" stroke="url(#paint9_linear)" stroke-opacity="0.25" stroke-width="5"/>
</g>
<g opacity="0.5">
<rect x="134.742" y="590.078" width="88.5407" height="31.978" rx="15.989" transform="rotate(-65.0996 134.742 590.078)" stroke="black" stroke-width="5"/>
<rect x="134.742" y="590.078" width="88.5407" height="31.978" rx="15.989" transform="rotate(-65.0996 134.742 590.078)" stroke="#BC04FC" stroke-width="5"/>
<rect x="134.742" y="590.078" width="88.5407" height="31.978" rx="15.989" transform="rotate(-65.0996 134.742 590.078)" stroke="url(#paint10_linear)" stroke-opacity="0.25" stroke-width="5"/>
</g>
<g opacity="0.5">
<rect x="484.32" y="492.853" width="40.2775" height="12.8988" rx="6.44942" transform="rotate(-65.0996 484.32 492.853)" stroke="black" stroke-width="5"/>
<rect x="484.32" y="492.853" width="40.2775" height="12.8988" rx="6.44942" transform="rotate(-65.0996 484.32 492.853)" stroke="#FCC304" stroke-width="5"/>
<rect x="484.32" y="492.853" width="40.2775" height="12.8988" rx="6.44942" transform="rotate(-65.0996 484.32 492.853)" stroke="url(#paint11_linear)" stroke-opacity="0.25" stroke-width="5"/>
</g>
<defs>
<linearGradient id="paint0_linear" x1="1261.79" y1="450.813" x2="1261.79" y2="484.656" gradientUnits="userSpaceOnUse">
<stop stop-color="white"/>
<stop offset="1" stop-color="white" stop-opacity="0"/>
</linearGradient>
<linearGradient id="paint1_linear" x1="275.805" y1="137.652" x2="275.805" y2="171.496" gradientUnits="userSpaceOnUse">
<stop stop-color="white"/>
<stop offset="1" stop-color="white" stop-opacity="0"/>
</linearGradient>
<linearGradient id="paint2_linear" x1="468.64" y1="106.07" x2="468.64" y2="123.97" gradientUnits="userSpaceOnUse">
<stop stop-color="white"/>
<stop offset="1" stop-color="white" stop-opacity="0"/>
</linearGradient>
<linearGradient id="paint3_linear" x1="1034.64" y1="543.07" x2="1034.64" y2="560.97" gradientUnits="userSpaceOnUse">
<stop stop-color="white"/>
<stop offset="1" stop-color="white" stop-opacity="0"/>
</linearGradient>
<linearGradient id="paint4_linear" x1="1508.8" y1="342.877" x2="1508.8" y2="377.035" gradientUnits="userSpaceOnUse">
<stop stop-color="white"/>
<stop offset="1" stop-color="white" stop-opacity="0"/>
</linearGradient>
<linearGradient id="paint5_linear" x1="1413.49" y1="540.49" x2="1413.49" y2="601.214" gradientUnits="userSpaceOnUse">
<stop stop-color="white"/>
<stop offset="1" stop-color="white" stop-opacity="0"/>
</linearGradient>
<linearGradient id="paint6_linear" x1="115.836" y1="419.213" x2="115.836" y2="445.841" gradientUnits="userSpaceOnUse">
<stop stop-color="white"/>
<stop offset="1" stop-color="white" stop-opacity="0"/>
</linearGradient>
<linearGradient id="paint7_linear" x1="1344.43" y1="248.695" x2="1344.43" y2="305.24" gradientUnits="userSpaceOnUse">
<stop stop-color="white"/>
<stop offset="1" stop-color="white" stop-opacity="0"/>
</linearGradient>
<linearGradient id="paint8_linear" x1="1473.86" y1="146.176" x2="1473.86" y2="167.399" gradientUnits="userSpaceOnUse">
<stop stop-color="white"/>
<stop offset="1" stop-color="white" stop-opacity="0"/>
</linearGradient>
<linearGradient id="paint9_linear" x1="340.519" y1="400.742" x2="340.519" y2="457.287" gradientUnits="userSpaceOnUse">
<stop stop-color="white"/>
<stop offset="1" stop-color="white" stop-opacity="0"/>
</linearGradient>
<linearGradient id="paint10_linear" x1="178.192" y1="591.293" x2="178.192" y2="628.271" gradientUnits="userSpaceOnUse">
<stop stop-color="white"/>
<stop offset="1" stop-color="white" stop-opacity="0"/>
</linearGradient>
<linearGradient id="paint11_linear" x1="503.639" y1="494.068" x2="503.639" y2="511.967" gradientUnits="userSpaceOnUse">
<stop stop-color="white"/>
<stop offset="1" stop-color="white" stop-opacity="0"/>
</linearGradient>
</defs>
</svg>
