<svg width="143" height="40" viewBox="0 0 143 40" fill="none" xmlns="http://www.w3.org/2000/svg">
<circle cx="20" cy="20" r="20" fill="#56CCF2"/>
<path d="M20 12L18.59 13.41L24.17 19H12V21H24.17L18.59 26.59L20 28L28 20L20 12Z" fill="white"/>
<path d="M59.4001 23.335H62.8501V25H57.3001V14.53H59.4001V23.335ZM71.9099 20.665C71.9099 20.965 71.8899 21.235 71.8499 21.475H65.7749C65.8249 22.075 66.0349 22.545 66.4049 22.885C66.7749 23.225 67.2299 23.395 67.7699 23.395C68.5499 23.395 69.1049 23.06 69.4349 22.39H71.6999C71.4599 23.19 70.9999 23.85 70.3199 24.37C69.6399 24.88 68.8049 25.135 67.8149 25.135C67.0149 25.135 66.2949 24.96 65.6549 24.61C65.0249 24.25 64.5299 23.745 64.1699 23.095C63.8199 22.445 63.6449 21.695 63.6449 20.845C63.6449 19.985 63.8199 19.23 64.1699 18.58C64.5199 17.93 65.0099 17.43 65.6399 17.08C66.2699 16.73 66.9949 16.555 67.8149 16.555C68.6049 16.555 69.3099 16.725 69.9299 17.065C70.5599 17.405 71.0449 17.89 71.3849 18.52C71.7349 19.14 71.9099 19.855 71.9099 20.665ZM69.7349 20.065C69.7249 19.525 69.5299 19.095 69.1499 18.775C68.7699 18.445 68.3049 18.28 67.7549 18.28C67.2349 18.28 66.7949 18.44 66.4349 18.76C66.0849 19.07 65.8699 19.505 65.7899 20.065H69.7349ZM72.9027 20.815C72.9027 19.975 73.0677 19.23 73.3977 18.58C73.7377 17.93 74.1927 17.43 74.7627 17.08C75.3427 16.73 75.9877 16.555 76.6977 16.555C77.3177 16.555 77.8577 16.68 78.3177 16.93C78.7877 17.18 79.1627 17.495 79.4427 17.875V16.69H81.5577V25H79.4427V23.785C79.1727 24.175 78.7977 24.5 78.3177 24.76C77.8477 25.01 77.3027 25.135 76.6827 25.135C75.9827 25.135 75.3427 24.955 74.7627 24.595C74.1927 24.235 73.7377 23.73 73.3977 23.08C73.0677 22.42 72.9027 21.665 72.9027 20.815ZM79.4427 20.845C79.4427 20.335 79.3427 19.9 79.1427 19.54C78.9427 19.17 78.6727 18.89 78.3327 18.7C77.9927 18.5 77.6277 18.4 77.2377 18.4C76.8477 18.4 76.4877 18.495 76.1577 18.685C75.8277 18.875 75.5577 19.155 75.3477 19.525C75.1477 19.885 75.0477 20.315 75.0477 20.815C75.0477 21.315 75.1477 21.755 75.3477 22.135C75.5577 22.505 75.8277 22.79 76.1577 22.99C76.4977 23.19 76.8577 23.29 77.2377 23.29C77.6277 23.29 77.9927 23.195 78.3327 23.005C78.6727 22.805 78.9427 22.525 79.1427 22.165C79.3427 21.795 79.4427 21.355 79.4427 20.845ZM85.7087 17.98C85.9787 17.54 86.3287 17.195 86.7587 16.945C87.1987 16.695 87.6987 16.57 88.2587 16.57V18.775H87.7037C87.0437 18.775 86.5437 18.93 86.2037 19.24C85.8737 19.55 85.7087 20.09 85.7087 20.86V25H83.6087V16.69H85.7087V17.98ZM94.2782 16.57C95.2682 16.57 96.0682 16.885 96.6782 17.515C97.2882 18.135 97.5932 19.005 97.5932 20.125V25H95.4932V20.41C95.4932 19.75 95.3282 19.245 94.9982 18.895C94.6682 18.535 94.2182 18.355 93.6482 18.355C93.0682 18.355 92.6082 18.535 92.2682 18.895C91.9382 19.245 91.7732 19.75 91.7732 20.41V25H89.6732V16.69H91.7732V17.725C92.0532 17.365 92.4082 17.085 92.8382 16.885C93.2782 16.675 93.7582 16.57 94.2782 16.57ZM113.484 16.57C114.504 16.57 115.324 16.885 115.944 17.515C116.574 18.135 116.889 19.005 116.889 20.125V25H114.789V20.41C114.789 19.76 114.624 19.265 114.294 18.925C113.964 18.575 113.514 18.4 112.944 18.4C112.374 18.4 111.919 18.575 111.579 18.925C111.249 19.265 111.084 19.76 111.084 20.41V25H108.984V20.41C108.984 19.76 108.819 19.265 108.489 18.925C108.159 18.575 107.709 18.4 107.139 18.4C106.559 18.4 106.099 18.575 105.759 18.925C105.429 19.265 105.264 19.76 105.264 20.41V25H103.164V16.69H105.264V17.695C105.534 17.345 105.879 17.07 106.299 16.87C106.729 16.67 107.199 16.57 107.709 16.57C108.359 16.57 108.939 16.71 109.449 16.99C109.959 17.26 110.354 17.65 110.634 18.16C110.904 17.68 111.294 17.295 111.804 17.005C112.324 16.715 112.884 16.57 113.484 16.57ZM122.572 25.135C121.772 25.135 121.052 24.96 120.412 24.61C119.772 24.25 119.267 23.745 118.897 23.095C118.537 22.445 118.357 21.695 118.357 20.845C118.357 19.995 118.542 19.245 118.912 18.595C119.292 17.945 119.807 17.445 120.457 17.095C121.107 16.735 121.832 16.555 122.632 16.555C123.432 16.555 124.157 16.735 124.807 17.095C125.457 17.445 125.967 17.945 126.337 18.595C126.717 19.245 126.907 19.995 126.907 20.845C126.907 21.695 126.712 22.445 126.322 23.095C125.942 23.745 125.422 24.25 124.762 24.61C124.112 24.96 123.382 25.135 122.572 25.135ZM122.572 23.305C122.952 23.305 123.307 23.215 123.637 23.035C123.977 22.845 124.247 22.565 124.447 22.195C124.647 21.825 124.747 21.375 124.747 20.845C124.747 20.055 124.537 19.45 124.117 19.03C123.707 18.6 123.202 18.385 122.602 18.385C122.002 18.385 121.497 18.6 121.087 19.03C120.687 19.45 120.487 20.055 120.487 20.845C120.487 21.635 120.682 22.245 121.072 22.675C121.472 23.095 121.972 23.305 122.572 23.305ZM130.548 17.98C130.818 17.54 131.168 17.195 131.598 16.945C132.038 16.695 132.538 16.57 133.098 16.57V18.775H132.543C131.883 18.775 131.383 18.93 131.043 19.24C130.713 19.55 130.548 20.09 130.548 20.86V25H128.448V16.69H130.548V17.98ZM142.237 20.665C142.237 20.965 142.217 21.235 142.177 21.475H136.102C136.152 22.075 136.362 22.545 136.732 22.885C137.102 23.225 137.557 23.395 138.097 23.395C138.877 23.395 139.432 23.06 139.762 22.39H142.027C141.787 23.19 141.327 23.85 140.647 24.37C139.967 24.88 139.132 25.135 138.142 25.135C137.342 25.135 136.622 24.96 135.982 24.61C135.352 24.25 134.857 23.745 134.497 23.095C134.147 22.445 133.972 21.695 133.972 20.845C133.972 19.985 134.147 19.23 134.497 18.58C134.847 17.93 135.337 17.43 135.967 17.08C136.597 16.73 137.322 16.555 138.142 16.555C138.932 16.555 139.637 16.725 140.257 17.065C140.887 17.405 141.372 17.89 141.712 18.52C142.062 19.14 142.237 19.855 142.237 20.665ZM140.062 20.065C140.052 19.525 139.857 19.095 139.477 18.775C139.097 18.445 138.632 18.28 138.082 18.28C137.562 18.28 137.122 18.44 136.762 18.76C136.412 19.07 136.197 19.505 136.117 20.065H140.062Z" fill="#334563"/>
</svg>
