<svg width="24" height="24" xmlns="http://www.w3.org/2000/svg">

 <g>
  <title>background</title>
  <rect fill="none" id="canvas_background" height="402" width="582" y="-1" x="-1"/>
 </g>
 <g>
  <title>Layer 1</title>
  <path id="svg_1" fill="#008aff" d="m5,5c-0.55228,0 -1,0.44772 -1,1l0,14c0,0.5523 0.44772,1 1,1l14,0c0.5523,0 1,-0.4477 1,-1l0,-14c0,-0.55228 -0.4477,-1 -1,-1l-14,0zm-3,1c0,-1.65685 1.34315,-3 3,-3l14,0c1.6569,0 3,1.34315 3,3l0,14c0,1.6569 -1.3431,3 -3,3l-14,0c-1.65685,0 -3,-1.3431 -3,-3l0,-14z" clip-rule="evenodd" fill-rule="evenodd"/>
  <path id="svg_2" fill="#008aff" d="m16,1c0.5523,0 1,0.44772 1,1l0,4c0,0.55228 -0.4477,1 -1,1c-0.5523,0 -1,-0.44772 -1,-1l0,-4c0,-0.55228 0.4477,-1 1,-1z" clip-rule="evenodd" fill-rule="evenodd"/>
  <path id="svg_3" fill="#008aff" d="m8,1c0.55228,0 1,0.44772 1,1l0,4c0,0.55228 -0.44772,1 -1,1c-0.55228,0 -1,-0.44772 -1,-1l0,-4c0,-0.55228 0.44772,-1 1,-1z" clip-rule="evenodd" fill-rule="evenodd"/>
  <path id="svg_4" fill="#008aff" d="m1.934213,10c0,-0.55229 0.44772,-1 1,-1l18,0c0.5523,0 1,0.44771 1,1c0,0.5523 -0.4477,1 -1,1l-18,0c-0.55228,0 -1,-0.4477 -1,-1z" clip-rule="evenodd" fill-rule="evenodd"/>
 </g>
</svg>