<svg width="32" height="32" viewBox="0 0 32 32" fill="none" xmlns="http://www.w3.org/2000/svg">
<path fill-rule="evenodd" clip-rule="evenodd" d="M24.9429 8.94277C25.4636 8.42207 25.4636 7.57785 24.9429 7.05715C24.4222 6.53645 23.578 6.53645 23.0573 7.05715L16.0001 14.1143L8.94289 7.05715C8.42219 6.53645 7.57797 6.53645 7.05727 7.05715C6.53657 7.57785 6.53657 8.42207 7.05727 8.94277L14.1145 16L7.05727 23.0571C6.53657 23.5778 6.53657 24.4221 7.05727 24.9428C7.57797 25.4635 8.42219 25.4635 8.94289 24.9428L16.0001 17.8856L23.0573 24.9428C23.578 25.4635 24.4222 25.4635 24.9429 24.9428C25.4636 24.4221 25.4636 23.5778 24.9429 23.0571L17.8857 16L24.9429 8.94277Z" fill="#F1F2F9"/>
</svg>
