<svg width="15" height="25" xmlns="http://www.w3.org/2000/svg">

 <g>
  <title>background</title>
  <rect fill="none" id="canvas_background" height="402" width="582" y="-1" x="-1"/>
 </g>
 <g>
  <title>Layer 1</title>
  <path id="svg_1" fill="#2060f6" d="m14.6667,1.66674c0,-0.17681 -0.0703,-0.34638 -0.1953,-0.47141c-0.125,-0.12502 -0.2946,-0.19526 -0.4714,-0.19526l-3.3333,0c-1.67854,-0.08361 -3.3219,0.50052 -4.57107,1.62477c-1.24917,1.12426 -2.00258,2.69723 -2.09563,4.37523l0,3.600029l-3.33333,0c-0.17681,0 -0.34638,0.0702 -0.47141,0.1952c-0.12502,0.1251 -0.19526,0.2946 -0.19526,0.4714l0,3.466701c0,0.1768 0.07024,0.346399 0.19526,0.471399c0.12503,0.125 0.2946,0.1953 0.47141,0.1953l3.33333,0l0,8.933301c0,0.1768 0.07024,0.346399 0.19526,0.471399c0.12503,0.125 0.2946,0.195299 0.47141,0.195299l4,0c0.17681,0 0.34638,-0.070299 0.4714,-0.195299c0.12503,-0.125 0.19526,-0.2946 0.19526,-0.471399l0,-8.933301l3.49337,0c0.1482,0.0021 0.293,-0.0453 0.4113,-0.1346c0.1183,-0.0893 0.2035,-0.2156 0.242,-0.3588l0.96,-3.4666c0.026501,-0.098499 0.030101,-0.201799 0.010401,-0.3019c-0.0196,-0.1001 -0.062,-0.1944 -0.1239,-0.275499c-0.0618,-0.0811 -0.1414,-0.147 -0.2327,-0.1926c-0.0913,-0.0455 -0.191799,-0.0695 -0.293799,-0.070001l-4.46667,0l0,-3.600029c0.03317,-0.33003 0.18816,-0.63585 0.4347,-0.85774c0.24657,-0.22189 0.56697,-0.34392 0.89867,-0.34226l3.3333,0c0.1768,0 0.3464,-0.07024 0.4714,-0.19526c0.125,-0.12503 0.1953,-0.2946 0.1953,-0.47141l0,-3.46666z"/>
 </g>
</svg>