<svg width="24.000000000000004" height="24.000000000000004" xmlns="http://www.w3.org/2000/svg">
 <defs>
  <linearGradient y2="0.008209" x2="0.613057" y1="0.991802" x1="0.386946" id="svg_3">
   <stop offset="0" stop-opacity="0.996094" stop-color="#f58529"/>
   <stop offset="0.164063" stop-opacity="0.996094" stop-color="#feda77"/>
   <stop offset="0.425781" stop-opacity="0.996094" stop-color="#dd2a7b"/>
   <stop offset="0.742188" stop-opacity="0.996094" stop-color="#8134af"/>
   <stop offset="1" stop-opacity="0.996094" stop-color="#515bd4"/>
  </linearGradient>
 </defs>
 <g>
  <title>background</title>
  <rect fill="none" id="canvas_background" height="402" width="582" y="-1" x="-1"/>
 </g>
 <g>
  <title>Layer 1</title>
  <path id="svg_1" fill="url(#svg_3)" d="m12.0027,5.8467c-3.40527,0 -6.15195,2.7473 -6.15195,6.1533c0,3.406 2.74668,6.153299 6.15195,6.153299c3.4052,0 6.1519,-2.747299 6.1519,-6.153299c0,-3.406 -2.7467,-6.1533 -6.1519,-6.1533zm0,10.1537c-2.20058,0 -3.999579,-1.794001 -3.999579,-4.000401c0,-2.2064 1.79365,-4.00045 3.999579,-4.00045c2.2059,0 3.999499,1.79405 3.999499,4.00045c0,2.2064 -1.798999,4.000401 -3.999499,4.000401zm7.8385,-10.405401c0,0.79795 -0.6425,1.43524 -1.434999,1.43524c-0.797701,0 -1.4349,-0.64265 -1.4349,-1.43524c0,-0.79259 0.6425,-1.43523 1.4349,-1.43523c0.7925,0 1.434999,0.64264 1.434999,1.43523zm4.074501,1.45666c-0.091002,-1.92257 -0.530102,-3.62558 -1.9382,-5.02868c-1.402802,-1.403098 -3.1054,-1.842237 -5.027601,-1.938633c-1.981,-0.112463 -7.918779,-0.112463 -9.89982,0c-1.91678,0.091041 -3.6194,0.530179 -5.02755,1.933283c-1.408141,1.4031 -1.841827,3.1061 -1.938202,5.02867c-0.112437,1.98148 -0.112437,7.9206 0,9.901999c0.091021,1.9226 0.530061,3.625601 1.938202,5.0287c1.40815,1.403101 3.10541,1.8423 5.02755,1.938702c1.98104,0.112398 7.91882,0.112398 9.89982,0c1.922201,-0.091101 3.6248,-0.530201 5.027601,-1.938702c1.4028,-1.403099 1.841799,-3.1061 1.9382,-5.0287c0.112398,-1.9814 0.112398,-7.915159 0,-9.896639zm-2.559301,12.02274c-0.417599,1.0497 -1.226099,1.858299 -2.280899,2.281401c-1.5795,0.6266 -5.3274,0.481998 -7.072801,0.481998c-1.7455,0 -5.49874,0.1392 -7.07286,-0.481998c-1.04942,-0.4177 -1.85789,-1.2264 -2.28087,-2.281401c-0.62644,-1.5798 -0.48188,-5.3286 -0.48188,-7.0744c0,-1.7458 -0.1392,-5.49994 0.48188,-7.07442c0.41762,-1.04965 1.2261,-1.8583 2.28087,-2.28138c1.57947,-0.62657 5.32736,-0.48198 7.07286,-0.48198c1.7454,0 5.4987,-0.13924 7.072801,0.48198c1.0494,0.41772 1.857899,1.22638 2.280899,2.28138c0.6264,1.57983 0.481901,5.32862 0.481901,7.07442c0,1.7458 0.144499,5.499901 -0.481901,7.0744z"/>
 </g>
</svg>