<svg width="25" height="22" xmlns="http://www.w3.org/2000/svg">

 <g>
  <title>background</title>
  <rect fill="none" id="canvas_background" height="402" width="582" y="-1" x="-1"/>
 </g>
 <g>
  <title>Layer 1</title>
  <path id="svg_1" fill="#ffffff" d="m6.77241,21.667101c1.971591,0.065899 3.93639,-0.264002 5.77829,-0.970301c1.8419,-0.706301 3.523601,-1.7747 4.9456,-3.142c1.422001,-1.3673 2.555401,-3.0058 3.333401,-4.8186c0.778,-1.8128 1.1847,-3.76315 1.195999,-5.73582c0.903601,-1.11811 1.574501,-2.40556 1.9734,-3.78666c0.0298,-0.10912 0.0273,-0.22452 -0.006899,-0.3323c-0.034302,-0.10779 -0.0991,-0.20336 -0.186401,-0.27522c-0.0874,-0.07185 -0.1936,-0.11692 -0.306,-0.12978c-0.1124,-0.01286 -0.226099,0.00704 -0.3274,0.0573c-0.4727,0.22754 -1.0049,0.30103 -1.5215,0.21014c-0.516701,-0.0909 -0.9918,-0.34161 -1.3585,-0.71681c-0.4681,-0.51256 -1.034201,-0.92596 -1.665001,-1.2157c-0.6308,-0.28973 -1.313299,-0.44992 -2.007099,-0.47105c-0.6938,-0.02114 -1.3847,0.0972 -2.032001,0.348c-0.6472,0.2508 -1.2375,0.62897 -1.7359,1.11208c-0.6824,0.66088 -1.182199,1.48706 -1.4509,2.39824c-0.2687,0.91118 -0.2971,1.87637 -0.082399,2.80176c-4.466691,0.26667 -7.53336,-1.85333 -9.98669,-4.76c-0.0737,-0.08346 -0.17011,-0.14366 -0.27746,-0.17324c-0.10735,-0.02957 -0.22099,-0.02725 -0.32704,0.00668c-0.10605,0.03394 -0.19992,0.09802 -0.27016,0.18443c-0.07023,0.0864 -0.11378,0.19139 -0.12534,0.30213c-0.46737,2.59257 -0.13023,5.26607 0.96616,7.66142c1.09638,2.3954 2.8995,4.397901 5.16717,5.7386c-1.52048,1.743801 -3.65572,2.832901 -5.96,3.040001c-0.12344,0.0205 -0.23741,0.078999 -0.32593,0.1675c-0.08852,0.0884 -0.14717,0.202299 -0.16774,0.3258c-0.02057,0.1234 -0.00204,0.2502 0.05301,0.3626c0.05505,0.112299 0.14386,0.2047 0.254,0.264099c2.00469,1.001801 4.21231,1.530901 6.45333,1.546701z"/>
 </g>
</svg>