<?xml version="1.0" encoding="utf-8"?>
<!-- Generator: Adobe Illustrator 25.3.1, SVG Export Plug-In . SVG Version: 6.00 Build 0)  -->
<svg version="1.1" id="Слой_1" xmlns="http://www.w3.org/2000/svg" xmlns:xlink="http://www.w3.org/1999/xlink" x="0px" y="0px"
	 viewBox="0 0 1600 888" style="enable-background:new 0 0 1600 888;" xml:space="preserve">
<style type="text/css">
	.st0{fill:#FFFFFF;}
	.st1{opacity:0.5;}
	.st2{fill:none;stroke:#F25656;stroke-width:3;}
	.st3{fill:none;stroke:url(#SVGID_1_);stroke-width:3;stroke-opacity:0.25;}
	.st4{fill:none;stroke:url(#SVGID_2_);stroke-width:3;stroke-opacity:0.25;}
	.st5{fill:none;stroke:#FCC304;stroke-width:3;}
	.st6{fill:none;stroke:url(#SVGID_3_);stroke-width:3;stroke-opacity:0.25;}
	.st7{fill:none;stroke:#BC04FC;stroke-width:3;}
	.st8{fill:none;stroke:url(#SVGID_4_);stroke-width:3;stroke-opacity:0.25;}
	.st9{fill:none;stroke:url(#SVGID_5_);stroke-width:3;stroke-opacity:0.25;}
	.st10{fill:none;stroke:#56CCF2;stroke-width:5;}
	.st11{fill:none;stroke:url(#SVGID_6_);stroke-width:5;stroke-opacity:0.25;}
	.st12{fill:none;stroke:url(#SVGID_7_);stroke-width:5;stroke-opacity:0.25;}
	.st13{fill:none;stroke:#000000;stroke-width:5;}
	.st14{fill:none;stroke:#03D542;stroke-width:5;}
	.st15{fill:none;stroke:url(#SVGID_8_);stroke-width:5;stroke-opacity:0.25;}
	.st16{fill:none;stroke:#BC04FC;stroke-width:5;}
	.st17{fill:none;stroke:url(#SVGID_9_);stroke-width:5;stroke-opacity:0.25;}
	.st18{fill:none;stroke:url(#SVGID_10_);stroke-width:5;stroke-opacity:0.25;}
	.st19{fill:none;stroke:url(#SVGID_11_);stroke-width:5;stroke-opacity:0.25;}
	.st20{fill:none;stroke:#FCC304;stroke-width:5;}
	.st21{fill:none;stroke:url(#SVGID_12_);stroke-width:5;stroke-opacity:0.25;}
</style>
<path class="st0" d="M0,0h1600v888H0V0z"/>
<g class="st1">
	<path class="st2" d="M1227.5,448.1l21.8-47c3.6-7.7,12.8-11.1,20.5-7.5l0,0c7.7,3.6,11.1,12.8,7.5,20.5l-21.8,47
		c-3.6,7.7-12.8,11.1-20.5,7.5l0,0C1227.2,465,1223.9,455.8,1227.5,448.1z"/>
	
		<linearGradient id="SVGID_1_" gradientUnits="userSpaceOnUse" x1="1084.0621" y1="337.9685" x2="1084.0621" y2="304.1253" gradientTransform="matrix(0.421 -0.907 -0.907 -0.421 1089.1479 1550.5132)">
		<stop  offset="0" style="stop-color:#FFFFFF"/>
		<stop  offset="1" style="stop-color:#FFFFFF;stop-opacity:0"/>
	</linearGradient>
	<path class="st3" d="M1227.5,448.1l21.8-47c3.6-7.7,12.8-11.1,20.5-7.5l0,0c7.7,3.6,11.1,12.8,7.5,20.5l-21.8,47
		c-3.6,7.7-12.8,11.1-20.5,7.5l0,0C1227.2,465,1223.9,455.8,1227.5,448.1z"/>
</g>
<g class="st1">
	<path class="st2" d="M241.5,134.9l21.8-47c3.6-7.7,12.8-11.1,20.5-7.5l0,0c7.7,3.6,11.1,12.8,7.5,20.5l-21.8,47
		c-3.6,7.7-12.8,11.1-20.5,7.5l0,0C241.3,151.8,237.9,142.7,241.5,134.9z"/>
	
		<linearGradient id="SVGID_2_" gradientUnits="userSpaceOnUse" x1="98.0742" y1="651.1295" x2="98.0742" y2="617.2863" gradientTransform="matrix(0.421 -0.907 -0.907 -0.421 802.3524 474.8745)">
		<stop  offset="0" style="stop-color:#FFFFFF"/>
		<stop  offset="1" style="stop-color:#FFFFFF;stop-opacity:0"/>
	</linearGradient>
	<path class="st4" d="M241.5,134.9l21.8-47c3.6-7.7,12.8-11.1,20.5-7.5l0,0c7.7,3.6,11.1,12.8,7.5,20.5l-21.8,47
		c-3.6,7.7-12.8,11.1-20.5,7.5l0,0C241.3,151.8,237.9,142.7,241.5,134.9z"/>
</g>
<g class="st1">
	<path class="st5" d="M451.1,110.6l11.5-24.8c1.7-3.7,6.2-5.4,9.9-3.6l0,0c3.7,1.7,5.4,6.2,3.6,9.9l-11.5,24.8
		c-1.7,3.7-6.2,5.4-9.9,3.6l0,0C451,118.7,449.4,114.3,451.1,110.6z"/>
	
		<linearGradient id="SVGID_3_" gradientUnits="userSpaceOnUse" x1="290.9088" y1="682.7115" x2="290.9088" y2="664.8116" gradientTransform="matrix(0.421 -0.907 -0.907 -0.421 954.3165 649.7896)">
		<stop  offset="0" style="stop-color:#FFFFFF"/>
		<stop  offset="1" style="stop-color:#FFFFFF;stop-opacity:0"/>
	</linearGradient>
	<path class="st6" d="M451.1,110.6l11.5-24.8c1.7-3.7,6.2-5.4,9.9-3.6l0,0c3.7,1.7,5.4,6.2,3.6,9.9l-11.5,24.8
		c-1.7,3.7-6.2,5.4-9.9,3.6l0,0C451,118.7,449.4,114.3,451.1,110.6z"/>
</g>
<g class="st1">
	<path class="st7" d="M1017.1,547.6l11.5-24.8c1.7-3.7,6.2-5.4,9.9-3.6l0,0c3.7,1.7,5.4,6.2,3.6,9.9l-11.5,24.8
		c-1.7,3.7-6.2,5.4-9.9,3.6l0,0C1017,555.7,1015.4,551.3,1017.1,547.6z"/>
	
		<linearGradient id="SVGID_4_" gradientUnits="userSpaceOnUse" x1="856.9068" y1="245.7115" x2="856.9068" y2="227.8117" gradientTransform="matrix(0.421 -0.907 -0.907 -0.421 885.6286 1416.1776)">
		<stop  offset="0" style="stop-color:#FFFFFF"/>
		<stop  offset="1" style="stop-color:#FFFFFF;stop-opacity:0"/>
	</linearGradient>
	<path class="st8" d="M1017.1,547.6l11.5-24.8c1.7-3.7,6.2-5.4,9.9-3.6l0,0c3.7,1.7,5.4,6.2,3.6,9.9l-11.5,24.8
		c-1.7,3.7-6.2,5.4-9.9,3.6l0,0C1017,555.7,1015.4,551.3,1017.1,547.6z"/>
</g>
<g class="st1">
	<path class="st5" d="M1474.1,340l22-47.4c3.6-7.8,12.9-11.2,20.7-7.6l0,0c7.8,3.6,11.2,12.9,7.6,20.7l-22,47.4
		c-3.6,7.8-12.9,11.2-20.7,7.6l0,0C1473.9,357.1,1470.5,347.8,1474.1,340z"/>
	
		<linearGradient id="SVGID_5_" gradientUnits="userSpaceOnUse" x1="1331.0697" y1="445.9044" x2="1331.0697" y2="411.7469" gradientTransform="matrix(0.421 -0.907 -0.907 -0.421 1329.8271 1711.7081)">
		<stop  offset="0" style="stop-color:#FFFFFF"/>
		<stop  offset="1" style="stop-color:#FFFFFF;stop-opacity:0"/>
	</linearGradient>
	<path class="st9" d="M1474.1,340l22-47.4c3.6-7.8,12.9-11.2,20.7-7.6l0,0c7.8,3.6,11.2,12.9,7.6,20.7l-22,47.4
		c-3.6,7.8-12.9,11.2-20.7,7.6l0,0C1473.9,357.1,1470.5,347.8,1474.1,340z"/>
</g>
<g class="st1">
	<path class="st10" d="M1351.7,526l39.1-84.3c6.5-14,23-20,37-13.5l0,0c14,6.5,20,23,13.5,37l-39.1,84.3c-6.5,14-23,20-37,13.5l0,0
		C1351.3,556.5,1345.3,540,1351.7,526z"/>
	
		<linearGradient id="SVGID_6_" gradientUnits="userSpaceOnUse" x1="1236.0908" y1="248.2915" x2="1236.0908" y2="187.5681" gradientTransform="matrix(0.421 -0.907 -0.907 -0.421 1077.1614 1710.1161)">
		<stop  offset="0" style="stop-color:#FFFFFF"/>
		<stop  offset="1" style="stop-color:#FFFFFF;stop-opacity:0"/>
	</linearGradient>
	<path class="st11" d="M1351.7,526l39.1-84.3c6.5-14,23-20,37-13.5l0,0c14,6.5,20,23,13.5,37l-39.1,84.3c-6.5,14-23,20-37,13.5l0,0
		C1351.3,556.5,1345.3,540,1351.7,526z"/>
</g>
<g class="st1">
	<path class="st10" d="M90,420.2l17.1-36.9c2.5-5.4,8.9-7.8,14.4-5.3l0,0c5.4,2.5,7.8,8.9,5.3,14.4l-17.1,36.9
		c-2.5,5.4-8.9,7.8-14.4,5.3l0,0C89.9,432,87.5,425.6,90,420.2z"/>
	
		<linearGradient id="SVGID_7_" gradientUnits="userSpaceOnUse" x1="-61.5674" y1="369.5685" x2="-61.5674" y2="342.9406" gradientTransform="matrix(0.421 -0.907 -0.907 -0.421 460.8426 501.9884)">
		<stop  offset="0" style="stop-color:#FFFFFF"/>
		<stop  offset="1" style="stop-color:#FFFFFF;stop-opacity:0"/>
	</linearGradient>
	<path class="st12" d="M90,420.2l17.1-36.9c2.5-5.4,8.9-7.8,14.4-5.3l0,0c5.4,2.5,7.8,8.9,5.3,14.4l-17.1,36.9
		c-2.5,5.4-8.9,7.8-14.4,5.3l0,0C89.9,432,87.5,425.6,90,420.2z"/>
</g>
<g class="st1">
	<path class="st13" d="M1287.1,236.1l36.4-78.5c6-12.9,21.3-18.5,34.2-12.5l0,0c12.9,6,18.5,21.3,12.5,34.2l-36.4,78.5
		c-6,12.9-21.3,18.5-34.2,12.5l0,0C1286.7,264.3,1281.1,249,1287.1,236.1z"/>
	<path class="st14" d="M1287.1,236.1l36.4-78.5c6-12.9,21.3-18.5,34.2-12.5l0,0c12.9,6,18.5,21.3,12.5,34.2l-36.4,78.5
		c-6,12.9-21.3,18.5-34.2,12.5l0,0C1286.7,264.3,1281.1,249,1287.1,236.1z"/>
	
		<linearGradient id="SVGID_8_" gradientUnits="userSpaceOnUse" x1="1167.0253" y1="540.0864" x2="1167.0253" y2="483.5417" gradientTransform="matrix(0.421 -0.907 -0.907 -0.421 1304.9055 1483.328)">
		<stop  offset="0" style="stop-color:#FFFFFF"/>
		<stop  offset="1" style="stop-color:#FFFFFF;stop-opacity:0"/>
	</linearGradient>
	<path class="st15" d="M1287.1,236.1l36.4-78.5c6-12.9,21.3-18.5,34.2-12.5l0,0c12.9,6,18.5,21.3,12.5,34.2l-36.4,78.5
		c-6,12.9-21.3,18.5-34.2,12.5l0,0C1286.7,264.3,1281.1,249,1287.1,236.1z"/>
</g>
<g class="st1">
	<path class="st13" d="M1453.8,149.6l13.7-29.4c1.9-4.1,6.7-5.8,10.8-3.9l0,0c4.1,1.9,5.8,6.7,3.9,10.8l-13.7,29.4
		c-1.9,4.1-6.7,5.8-10.8,3.9l0,0C1453.6,158.5,1451.9,153.7,1453.8,149.6z"/>
	<path class="st16" d="M1453.8,149.6l13.7-29.4c1.9-4.1,6.7-5.8,10.8-3.9l0,0c4.1,1.9,5.8,6.7,3.9,10.8l-13.7,29.4
		c-1.9,4.1-6.7,5.8-10.8,3.9l0,0C1453.6,158.5,1451.9,153.7,1453.8,149.6z"/>
	
		<linearGradient id="SVGID_9_" gradientUnits="userSpaceOnUse" x1="1296.4601" y1="642.6055" x2="1296.4601" y2="621.3824" gradientTransform="matrix(0.421 -0.907 -0.907 -0.421 1498.6968 1581.8988)">
		<stop  offset="0" style="stop-color:#FFFFFF"/>
		<stop  offset="1" style="stop-color:#FFFFFF;stop-opacity:0"/>
	</linearGradient>
	<path class="st17" d="M1453.8,149.6l13.7-29.4c1.9-4.1,6.7-5.8,10.8-3.9l0,0c4.1,1.9,5.8,6.7,3.9,10.8l-13.7,29.4
		c-1.9,4.1-6.7,5.8-10.8,3.9l0,0C1453.6,158.5,1451.9,153.7,1453.8,149.6z"/>
</g>
<g class="st1">
	<path class="st13" d="M283.2,388.2l36.4-78.5c6-12.9,21.3-18.5,34.2-12.5l0,0c12.9,6,18.5,21.3,12.5,34.2l-36.4,78.5
		c-6,12.9-21.3,18.5-34.2,12.5l0,0C282.8,416.4,277.2,401.1,283.2,388.2z"/>
	<path class="st14" d="M283.2,388.2l36.4-78.5c6-12.9,21.3-18.5,34.2-12.5l0,0c12.9,6,18.5,21.3,12.5,34.2l-36.4,78.5
		c-6,12.9-21.3,18.5-34.2,12.5l0,0C282.8,416.4,277.2,401.1,283.2,388.2z"/>
	
		<linearGradient id="SVGID_10_" gradientUnits="userSpaceOnUse" x1="163.1153" y1="388.0395" x2="163.1153" y2="331.4948" gradientTransform="matrix(0.421 -0.907 -0.907 -0.421 585.7711 660.7692)">
		<stop  offset="0" style="stop-color:#FFFFFF"/>
		<stop  offset="1" style="stop-color:#FFFFFF;stop-opacity:0"/>
	</linearGradient>
	<path class="st18" d="M283.2,388.2l36.4-78.5c6-12.9,21.3-18.5,34.2-12.5l0,0c12.9,6,18.5,21.3,12.5,34.2l-36.4,78.5
		c-6,12.9-21.3,18.5-34.2,12.5l0,0C282.8,416.4,277.2,401.1,283.2,388.2z"/>
</g>
<g class="st1">
	<path class="st13" d="M141.5,587.6l23.8-51.3c3.7-8,13.2-11.5,21.2-7.8l0,0c8,3.7,11.5,13.2,7.8,21.2L170.5,601
		c-3.7,8-13.2,11.5-21.2,7.8l0,0C141.2,605.1,137.8,595.6,141.5,587.6z"/>
	<path class="st16" d="M141.5,587.6l23.8-51.3c3.7-8,13.2-11.5,21.2-7.8l0,0c8,3.7,11.5,13.2,7.8,21.2L170.5,601
		c-3.7,8-13.2,11.5-21.2,7.8l0,0C141.2,605.1,137.8,595.6,141.5,587.6z"/>
	
		<linearGradient id="SVGID_11_" gradientUnits="userSpaceOnUse" x1="0.7892" y1="197.4884" x2="0.7892" y2="160.5104" gradientTransform="matrix(0.421 -0.907 -0.907 -0.421 333.2816 646.3013)">
		<stop  offset="0" style="stop-color:#FFFFFF"/>
		<stop  offset="1" style="stop-color:#FFFFFF;stop-opacity:0"/>
	</linearGradient>
	<path class="st19" d="M141.5,587.6l23.8-51.3c3.7-8,13.2-11.5,21.2-7.8l0,0c8,3.7,11.5,13.2,7.8,21.2L170.5,601
		c-3.7,8-13.2,11.5-21.2,7.8l0,0C141.2,605.1,137.8,595.6,141.5,587.6z"/>
</g>
<g class="st1">
	<path class="st13" d="M487,499l11.5-24.8c1.5-3.2,5.3-4.6,8.6-3.1h0c3.2,1.5,4.6,5.3,3.1,8.6l-11.5,24.8c-1.5,3.2-5.3,4.6-8.6,3.1
		h0C486.9,506.1,485.5,502.2,487,499z"/>
	<path class="st20" d="M487,499l11.5-24.8c1.5-3.2,5.3-4.6,8.6-3.1h0c3.2,1.5,4.6,5.3,3.1,8.6l-11.5,24.8c-1.5,3.2-5.3,4.6-8.6,3.1
		h0C486.9,506.1,485.5,502.2,487,499z"/>
	
		<linearGradient id="SVGID_12_" gradientUnits="userSpaceOnUse" x1="326.2356" y1="294.7135" x2="326.2356" y2="276.8147" gradientTransform="matrix(0.421 -0.907 -0.907 -0.421 623.8597 907.0937)">
		<stop  offset="0" style="stop-color:#FFFFFF"/>
		<stop  offset="1" style="stop-color:#FFFFFF;stop-opacity:0"/>
	</linearGradient>
	<path class="st21" d="M487,499l11.5-24.8c1.5-3.2,5.3-4.6,8.6-3.1h0c3.2,1.5,4.6,5.3,3.1,8.6l-11.5,24.8c-1.5,3.2-5.3,4.6-8.6,3.1
		h0C486.9,506.1,485.5,502.2,487,499z"/>
</g>
</svg>
