<svg width="18" height="22" xmlns="http://www.w3.org/2000/svg">

 <g>
  <title>background</title>
  <rect fill="none" id="canvas_background" height="402" width="582" y="-1" x="-1"/>
 </g>
 <g>
  <title>Layer 1</title>
  <path id="svg_1" fill="#008aff" d="m0.87868,0.87868c0.56261,-0.56261 1.32567,-0.87868 2.12132,-0.87868l8,0c0.2652,0 0.5196,0.10536 0.7071,0.29289l6,6c0.1875,0.18754 0.2929,0.44189 0.2929,0.70711l0,12c0,0.7957 -0.3161,1.5587 -0.8787,2.1213c-0.5626,0.5626 -1.3256,0.8787 -2.1213,0.8787l-12,0c-0.79565,0 -1.55871,-0.3161 -2.12132,-0.8787c-0.56261,-0.5626 -0.87868,-1.3256 -0.87868,-2.1213l0,-16c0,-0.79565 0.31607,-1.55871 0.87868,-2.12132zm2.12132,1.12132c-0.26522,0 -0.51957,0.10536 -0.70711,0.29289c-0.18753,0.18754 -0.29289,0.44189 -0.29289,0.70711l0,16c0,0.2652 0.10536,0.5196 0.29289,0.7071c0.18754,0.1875 0.44189,0.2929 0.70711,0.2929l12,0c0.2652,0 0.5196,-0.1054 0.7071,-0.2929c0.1875,-0.1875 0.2929,-0.4419 0.2929,-0.7071l0,-11.58579l-5.4142,-5.41421l-7.5858,0z" clip-rule="evenodd" fill-rule="evenodd"/>
  <path id="svg_2" fill="#008aff" d="m11,0c0.5523,0 1,0.44772 1,1l0,5l5,0c0.5523,0 1,0.44772 1,1c0,0.55228 -0.4477,1 -1,1l-6,0c-0.5523,0 -1,-0.44772 -1,-1l0,-6c0,-0.55228 0.4477,-1 1,-1z" clip-rule="evenodd" fill-rule="evenodd"/>
  <path id="svg_3" fill="#008aff" d="m4,12c0,-0.5523 0.44772,-1 1,-1l8,0c0.5523,0 1,0.4477 1,1c0,0.5523 -0.4477,1 -1,1l-8,0c-0.55228,0 -1,-0.4477 -1,-1z" clip-rule="evenodd" fill-rule="evenodd"/>
  <path id="svg_4" fill="#008aff" d="m4,16c0,-0.5523 0.44772,-1 1,-1l8,0c0.5523,0 1,0.4477 1,1c0,0.5523 -0.4477,1 -1,1l-8,0c-0.55228,0 -1,-0.4477 -1,-1z" clip-rule="evenodd" fill-rule="evenodd"/>
  <path id="svg_5" fill="#008aff" d="m4,8c0,-0.55228 0.44772,-1 1,-1l2,0c0.55228,0 1,0.44772 1,1c0,0.55228 -0.44772,1 -1,1l-2,0c-0.55228,0 -1,-0.44772 -1,-1z" clip-rule="evenodd" fill-rule="evenodd"/>
 </g>
</svg>