<svg width="32" height="33" viewBox="0 0 32 33" fill="none" xmlns="http://www.w3.org/2000/svg">
<path d="M22.6667 5.22011C22.6667 5.0416 22.5964 4.8704 22.4714 4.74417C22.3464 4.61794 22.1768 4.54702 22 4.54702H18.6667C16.9882 4.4626 15.3448 5.05237 14.0956 6.18746C12.8465 7.32254 12.093 8.91067 12 10.6049V14.2396H8.66667C8.48986 14.2396 8.32029 14.3105 8.19526 14.4367C8.07024 14.5629 8 14.7341 8 14.9126V18.4127C8 18.5912 8.07024 18.7624 8.19526 18.8887C8.32029 19.0149 8.48986 19.0858 8.66667 19.0858H12V28.1053C12 28.2838 12.0702 28.455 12.1953 28.5812C12.3203 28.7074 12.4899 28.7783 12.6667 28.7783H16.6667C16.8435 28.7783 17.013 28.7074 17.1381 28.5812C17.2631 28.455 17.3333 28.2838 17.3333 28.1053V19.0858H20.8267C20.9749 19.088 21.1197 19.0402 21.238 18.9499C21.3563 18.8597 21.4415 18.7323 21.48 18.5877L22.44 15.0876C22.4665 14.9882 22.4701 14.8839 22.4504 14.7829C22.4308 14.6818 22.3884 14.5866 22.3265 14.5047C22.2647 14.4228 22.1851 14.3563 22.0938 14.3103C22.0025 14.2643 21.902 14.2401 21.8 14.2396H17.3333V10.6049C17.3665 10.2716 17.5215 9.96287 17.768 9.73884C18.0146 9.51481 18.335 9.39161 18.6667 9.39329H22C22.1768 9.39329 22.3464 9.32237 22.4714 9.19614C22.5964 9.06991 22.6667 8.89871 22.6667 8.72019V5.22011Z" fill="white"/>
</svg>
