<svg width="32" height="33" viewBox="0 0 32 33" fill="none" xmlns="http://www.w3.org/2000/svg">
<path d="M32 3.71373V28.8566C32 30.7494 30.4643 32.2852 28.5714 32.2852H22.4786V19.628H26.8071L27.4286 14.7994H22.4786V11.7137C22.4786 10.3137 22.8643 9.36373 24.8714 9.36373H27.4286V5.04944C26.9857 4.9923 25.4714 4.85659 23.7 4.85659C20.0143 4.85659 17.4857 7.10659 17.4857 11.2423V14.8066H13.1429V19.6352H17.4929V32.2852H3.42857C1.53571 32.2852 0 30.7494 0 28.8566V3.71373C0 1.82087 1.53571 0.285156 3.42857 0.285156H28.5714C30.4643 0.285156 32 1.82087 32 3.71373Z" fill="#3B5998"/>
</svg>
