<svg width="146" height="112" viewBox="0 0 146 112" fill="none" xmlns="http://www.w3.org/2000/svg">
<path d="M47.3364 8.09611L4.47273 82.2611C2.00251 86.5352 3.46845 92.0004 7.74699 94.4681L28.4056 106.383C32.6842 108.851 38.1551 107.386 40.6254 103.112L83.489 28.9472C85.9592 24.6731 84.4933 19.2078 80.2147 16.7401L59.5561 4.82525C55.2775 2.35759 49.8066 3.82201 47.3364 8.09611Z" fill="#2060F6"/>
<path d="M105.298 8.73895L62.4345 82.9039C59.9642 87.178 61.4302 92.6433 65.7087 95.1109L86.3674 107.026C90.6459 109.493 96.1169 108.029 98.5871 103.755L141.451 29.59C143.921 25.3159 142.455 19.8506 138.176 17.383L117.518 5.46808C113.239 3.00043 107.768 4.46485 105.298 8.73895Z" fill="#144ED5"/>
</svg>
