<svg width="46" height="46" viewBox="0 0 46 28" fill="none" xmlns="http://www.w3.org/2000/svg">
  <path fill="#E5E5E5" d="M0 0h46v28H0z"/>
  <g clip-path="url(#a)">
    <path fill="#F2F6FA" d="M-20-20h320v8415H-20z"/>
    <path d="M-20-20h320v863c0 16.569-13.431 30-30 30H10c-16.569 0-30-13.431-30-30V-20Z" fill="#2C2C2C"/>
    <path d="m8.128 18.964 6.3-13.608 6.3 13.608h-12.6Zm14.112 3.24 2.052 4.428h3.564L16.12 1.432h-3.384L1 26.632h3.564l2.052-4.428H22.24Zm5.963-18.756c0 .72.216 1.296.684 1.764.468.468 1.043.684 1.764.684.683 0 1.26-.216 1.728-.684.468-.468.72-1.044.72-1.764 0-.684-.252-1.26-.72-1.728A2.364 2.364 0 0 0 30.65 1c-.72 0-1.296.252-1.764.72-.468.468-.684 1.044-.684 1.728Zm3.996 5.184h-3.096v18h3.096v-18Zm6.419 2.7v-2.7H35.63v18h3.096v-8.388c0-1.008.072-1.908.252-2.772.144-.828.432-1.548.864-2.16a4.4 4.4 0 0 1 1.656-1.368c.648-.324 1.512-.504 2.52-.504.324 0 .612.036.9.072.288.036.576.072.9.144V8.38l-.864-.108a7.579 7.579 0 0 0-.9-.072c-1.296 0-2.376.288-3.276.828-.9.54-1.62 1.296-2.16 2.304Z" fill="#fff"/>
  </g>
  <defs>
    <clipPath id="a">
      <path fill="#fff" d="M-20-20h320v8415H-20z"/>
    </clipPath>
  </defs>
</svg>
