<svg width="17" height="16" viewBox="0 0 17 16" fill="none" xmlns="http://www.w3.org/2000/svg">
<rect x="0.853271" width="16" height="16" rx="2" fill="#2C2C2C"/>
<path d="M4.76178 9.4059L6.44859 5.68961L8.1354 9.4059H4.76178ZM8.54023 10.2907L9.08965 11.5H10.0439L6.90162 4.61798H5.99556L2.85327 11.5H3.80752L4.35694 10.2907H8.54023Z" fill="white"/>
<path d="M10.1367 5.16854C10.1367 5.36517 10.1945 5.52247 10.3198 5.65028C10.4451 5.77809 10.5993 5.83708 10.7921 5.83708C10.9753 5.83708 11.1295 5.77809 11.2548 5.65028C11.3801 5.52247 11.4476 5.36517 11.4476 5.16854C11.4476 4.98174 11.3801 4.82444 11.2548 4.69663C11.1295 4.56882 10.9753 4.5 10.7921 4.5C10.5993 4.5 10.4451 4.56882 10.3198 4.69663C10.1945 4.82444 10.1367 4.98174 10.1367 5.16854ZM11.2066 6.58427H10.3777V11.5H11.2066V6.58427Z" fill="white"/>
<path d="M12.9255 7.32163V6.58427H12.1255V11.5H12.9544V9.20927C12.9544 8.93399 12.9737 8.6882 13.0219 8.45225C13.0604 8.22612 13.1375 8.02949 13.2532 7.86236C13.3689 7.70506 13.5135 7.57725 13.6966 7.48876C13.8701 7.40028 14.1014 7.35112 14.3713 7.35112C14.4581 7.35112 14.5352 7.36095 14.6123 7.37079C14.6894 7.38062 14.7665 7.39045 14.8533 7.41011V6.51545C14.7762 6.50562 14.699 6.49579 14.6219 6.48595C14.5448 6.47612 14.4581 6.46629 14.381 6.46629C14.034 6.46629 13.7448 6.54494 13.5038 6.69242C13.2628 6.83989 13.0701 7.04635 12.9255 7.32163Z" fill="white"/>
</svg>
