<svg xmlns="http://www.w3.org/2000/svg" viewBox="0 2 98 98" width="512" height="512"><linearGradient id="a" gradientUnits="userSpaceOnUse" x1="49" y1="20.55" x2="49" y2="81.45"><stop offset="0" stop-color="#00efd1"/><stop offset="1" stop-color="#00acea"/></linearGradient><path d="M76.6 43.5c-2.4-13.1-14-22.9-27.6-22.9-13.6 0-25.3 9.9-27.7 22.9-9.9.7-17.7 8.9-17.7 19 0 10.5 8.6 19 19.1 19h52.7c10.5 0 19-8.5 19-19 0-10.1-7.9-18.3-17.8-19zm-1.2 32H22.7c-7.2 0-13.1-5.8-13.1-13 0-7.3 5.7-13 13-13h1.3c1.6 0 2.9-1.2 3-2.7 1-11.3 10.7-20.2 22.1-20.2 11.5 0 21.1 8.8 22 20.1.1 1.6 1.4 2.8 3 2.8h1.3c7.2 0 13.1 5.8 13.1 13s-5.7 13-13 13z" fill="url(#a)"/></svg>