<?xml version="1.0" encoding="UTF-8"?>
<svg xmlns="http://www.w3.org/2000/svg" xmlns:xlink="http://www.w3.org/1999/xlink" width="28px" height="16px" viewBox="0 0 27 16" version="1.1">
<g id="surface1">
<path style=" stroke:none;fill-rule:nonzero;fill:rgb(100%,100%,100%);fill-opacity:1;" d="M 4.277344 11.054688 L 8.058594 2.679688 L 11.835938 11.054688 Z M 12.742188 13.046875 L 13.976562 15.773438 L 16.113281 15.773438 L 9.070312 0.265625 L 7.042969 0.265625 L 0 15.773438 L 2.136719 15.773438 L 3.371094 13.046875 Z M 12.742188 13.046875 "/>
<path style=" stroke:none;fill-rule:nonzero;fill:rgb(100%,100%,100%);fill-opacity:1;" d="M 16.320312 1.507812 C 16.320312 1.949219 16.449219 2.304688 16.730469 2.59375 C 17.011719 2.878906 17.359375 3.011719 17.789062 3.011719 C 18.199219 3.011719 18.546875 2.878906 18.828125 2.59375 C 19.109375 2.304688 19.257812 1.949219 19.257812 1.507812 C 19.257812 1.085938 19.109375 0.730469 18.828125 0.441406 C 18.546875 0.15625 18.199219 0 17.789062 0 C 17.359375 0 17.011719 0.15625 16.730469 0.441406 C 16.449219 0.730469 16.320312 1.085938 16.320312 1.507812 Z M 18.71875 4.695312 L 16.863281 4.695312 L 16.863281 15.773438 L 18.71875 15.773438 Z M 18.71875 4.695312 "/>
<path style=" stroke:none;fill-rule:nonzero;fill:rgb(100%,100%,100%);fill-opacity:1;" d="M 22.570312 6.359375 L 22.570312 4.695312 L 20.777344 4.695312 L 20.777344 15.773438 L 22.636719 15.773438 L 22.636719 10.613281 C 22.636719 9.992188 22.679688 9.4375 22.785156 8.90625 C 22.875 8.394531 23.046875 7.953125 23.304688 7.578125 C 23.566406 7.222656 23.886719 6.933594 24.300781 6.734375 C 24.6875 6.535156 25.207031 6.425781 25.8125 6.425781 C 26.003906 6.425781 26.179688 6.445312 26.351562 6.46875 C 26.523438 6.492188 26.695312 6.511719 26.890625 6.558594 L 26.890625 4.542969 C 26.71875 4.519531 26.546875 4.496094 26.371094 4.476562 C 26.199219 4.453125 26.003906 4.429688 25.832031 4.429688 C 25.054688 4.429688 24.40625 4.609375 23.867188 4.941406 C 23.328125 5.273438 22.894531 5.738281 22.570312 6.359375 Z M 22.570312 6.359375 "/>
</g>
</svg>
