<svg width="32" height="37" viewBox="0 0 32 37" fill="none" xmlns="http://www.w3.org/2000/svg">
<path d="M32 5.71373V30.8566C32 32.7494 30.4643 34.2852 28.5714 34.2852H22.4786V21.628H26.8071L27.4286 16.7994H22.4786V13.7137C22.4786 12.3137 22.8643 11.3637 24.8714 11.3637H27.4286V7.04944C26.9857 6.9923 25.4714 6.85659 23.7 6.85659C20.0143 6.85659 17.4857 9.10659 17.4857 13.2423V16.8066H13.1429V21.6352H17.4929V34.2852H3.42857C1.53571 34.2852 0 32.7494 0 30.8566V5.71373C0 3.82087 1.53571 2.28516 3.42857 2.28516H28.5714C30.4643 2.28516 32 3.82087 32 5.71373Z" fill="#3B5998"/>
</svg>
