<?xml version="1.0" ?><!DOCTYPE svg  PUBLIC '-//W3C//DTD SVG 1.1//EN'  'http://www.w3.org/Graphics/SVG/1.1/DTD/svg11.dtd'><svg enable-background="new 0 0 512 512" id="Layer_1" version="1.1" viewBox="0 0 512 512" xml:space="preserve" xmlns="http://www.w3.org/2000/svg" xmlns:xlink="http://www.w3.org/1999/xlink"><g><path d="M308.1,382.5c0,40.3-0.1,80.6,0.1,121c0,4.4-1,5.6-5.5,5.5c-34.3-0.2-68.6-0.2-103,0   c-4.7,0-5.8-1.3-5.8-5.9c0.1-80.1,0.1-160.3,0.2-240.4c0-4.4-0.8-6-5.6-5.9c-15.2,0.3-30.3,0-45.5,0.2c-3.5,0-4.5-1-4.5-4.5   c0.1-25.3,0.2-50.7,0-76c0-3.9,1.4-4.7,4.9-4.6c15.2,0.2,30.3-0.1,45.5,0.2c4.3,0.1,5.2-1.3,5.2-5.4c-0.2-22.3-0.2-44.7,0-67   c0.2-19.3,4.1-37.6,15.5-53.8c12.1-17.2,28.9-27.6,48.6-33.9c14.7-4.7,29.9-6.7,45.2-6.8c29-0.4,58-0.1,87-0.3c4.1,0,5,1.3,5,5.2   c-0.1,26-0.2,52,0,78c0,4.3-1.3,5.2-5.4,5.2c-18.3-0.2-36.7-0.1-55-0.1c-16.1,0-26.6,10.6-26.6,26.5c0,15.8,0.1,31.7-0.1,47.5   c0,3.8,1.1,4.8,4.8,4.8c25.7-0.1,51.3,0,77-0.2c3.9,0,5.3,0.9,4.8,5c-2.9,26-5.2,52-9.8,77.8c-0.6,3.2-2.6,2.4-4.4,2.4   c-15.2,0-30.3,0-45.5,0c-7.3,0-14.7,0.2-22-0.1c-4.1-0.2-5.3,1-5.2,5.2C308.1,302.2,308.1,342.3,308.1,382.5z" fill="#4862A3"/></g></svg>