<svg width="67" height="11" viewBox="0 0 67 11" fill="none" xmlns="http://www.w3.org/2000/svg">
<path d="M8.8223 0.874V10H6.5993V6.243H3.1413V10H0.918305V0.874H3.1413V4.449H6.5993V0.874H8.8223ZM15.6501 0.874V10H13.4271V0.874H15.6501ZM24.9151 10L23.0171 6.555H22.4841V10H20.2611V0.874H23.9921C24.7114 0.874 25.3224 0.999666 25.8251 1.251C26.3364 1.50233 26.7177 1.849 26.9691 2.291C27.2204 2.72433 27.3461 3.20967 27.3461 3.747C27.3461 4.35367 27.1727 4.89533 26.8261 5.372C26.4881 5.84867 25.9854 6.18667 25.3181 6.386L27.4241 10H24.9151ZM22.4841 4.982H23.8621C24.2694 4.982 24.5727 4.88233 24.7721 4.683C24.9801 4.48367 25.0841 4.202 25.0841 3.838C25.0841 3.49133 24.9801 3.21833 24.7721 3.019C24.5727 2.81967 24.2694 2.72 23.8621 2.72H22.4841V4.982ZM33.9645 2.655V4.501H36.9415V6.217H33.9645V8.219H37.3315V10H31.7415V0.874H37.3315V2.655H33.9645ZM49.7136 0.874V6.334C49.7136 6.88 49.848 7.30033 50.1166 7.595C50.3853 7.88967 50.7796 8.037 51.2996 8.037C51.8196 8.037 52.2183 7.88967 52.4956 7.595C52.773 7.30033 52.9116 6.88 52.9116 6.334V0.874H55.1346V6.321C55.1346 7.13567 54.9613 7.82467 54.6146 8.388C54.268 8.95133 53.8 9.376 53.2106 9.662C52.63 9.948 51.98 10.091 51.2606 10.091C50.5413 10.091 49.8956 9.95233 49.3236 9.675C48.7603 9.389 48.314 8.96433 47.9846 8.401C47.6553 7.829 47.4906 7.13567 47.4906 6.321V0.874H49.7136ZM62.9976 10.091C62.3303 10.091 61.7323 9.98267 61.2036 9.766C60.675 9.54933 60.2503 9.22867 59.9296 8.804C59.6176 8.37933 59.453 7.868 59.4356 7.27H61.8016C61.8363 7.608 61.9533 7.868 62.1526 8.05C62.352 8.22333 62.612 8.31 62.9326 8.31C63.262 8.31 63.522 8.23633 63.7126 8.089C63.9033 7.933 63.9986 7.72067 63.9986 7.452C63.9986 7.22667 63.9206 7.04033 63.7646 6.893C63.6173 6.74567 63.431 6.62433 63.2056 6.529C62.989 6.43367 62.677 6.32533 62.2696 6.204C61.6803 6.022 61.1993 5.84 60.8266 5.658C60.454 5.476 60.1333 5.20733 59.8646 4.852C59.596 4.49667 59.4616 4.033 59.4616 3.461C59.4616 2.61167 59.7693 1.94867 60.3846 1.472C61 0.986666 61.8016 0.744 62.7896 0.744C63.795 0.744 64.6053 0.986666 65.2206 1.472C65.836 1.94867 66.1653 2.616 66.2086 3.474H63.8036C63.7863 3.17933 63.678 2.94967 63.4786 2.785C63.2793 2.61167 63.0236 2.525 62.7116 2.525C62.443 2.525 62.2263 2.59867 62.0616 2.746C61.897 2.88467 61.8146 3.08833 61.8146 3.357C61.8146 3.65167 61.9533 3.88133 62.2306 4.046C62.508 4.21067 62.9413 4.38833 63.5306 4.579C64.12 4.77833 64.5966 4.969 64.9606 5.151C65.3333 5.333 65.654 5.59733 65.9226 5.944C66.1913 6.29067 66.3256 6.737 66.3256 7.283C66.3256 7.803 66.1913 8.27533 65.9226 8.7C65.6626 9.12467 65.2813 9.46267 64.7786 9.714C64.276 9.96533 63.6823 10.091 62.9976 10.091Z" fill="white"/>
</svg>
