<?xml version="1.0" encoding="UTF-8" standalone="no" ?>
<!DOCTYPE svg PUBLIC "-//W3C//DTD SVG 1.1//EN" "http://www.w3.org/Graphics/SVG/1.1/DTD/svg11.dtd">
<svg xmlns="http://www.w3.org/2000/svg" xmlns:xlink="http://www.w3.org/1999/xlink" version="1.1" width="1080" height="1080" viewBox="0 0 1080 1080" xml:space="preserve">
<desc>Created with Fabric.js 5.2.4</desc>
<defs>
</defs>
<g transform="matrix(1 0 0 1 540 540)" id="3f641994-6a83-43ae-8a14-f965517cfddb"  >
<rect style="stroke: none; stroke-width: 1; stroke-dasharray: none; stroke-linecap: butt; stroke-dashoffset: 0; stroke-linejoin: miter; stroke-miterlimit: 4; fill: rgb(255,255,255); fill-rule: nonzero; opacity: 1; visibility: hidden;" vector-effect="non-scaling-stroke"  x="-540" y="-540" rx="0" ry="0" width="1080" height="1080" />
</g>
<g transform="matrix(1 0 0 1 540 540)" id="62b38a45-419e-4ba0-a518-989040aa595d"  >
</g>
<g transform="matrix(45 0 0 45 540 540)" id="Vector"  >
<path style="stroke: none; stroke-width: 1; stroke-dasharray: none; stroke-linecap: butt; stroke-dashoffset: 0; stroke-linejoin: miter; stroke-miterlimit: 4; fill: rgb(255,255,255); fill-rule: nonzero; opacity: 1;"  transform=" translate(-12, -12)" d="M 19.1943 6.41714 C 19.6393 5.97216 19.6393 5.2507 19.1943 4.80571 C 18.7493 4.36073 18.0278 4.36073 17.5829 4.80571 L 12 10.3886 L 6.41714 4.80572 C 5.97216 4.36073 5.2507 4.36073 4.80571 4.80571 C 4.36073 5.2507 4.36073 5.97216 4.80571 6.41714 L 10.3886 12 L 4.80572 17.5829 C 4.36073 18.0278 4.36073 18.7493 4.80571 19.1943 C 5.2507 19.6393 5.97216 19.6393 6.41714 19.1943 L 12 13.6114 L 17.5829 19.1943 C 18.0278 19.6393 18.7493 19.6393 19.1943 19.1943 C 19.6393 18.7493 19.6393 18.0278 19.1943 17.5829 L 13.6114 12 L 19.1943 6.41714 Z" stroke-linecap="round" />
</g>
</svg>