<svg width="32" height="33" viewBox="0 0 32 33" fill="none" xmlns="http://www.w3.org/2000/svg">
    <path d="M16.009 8.072A8.194 8.194 0 0 0 7.8 16.279a8.194 8.194 0 0 0 8.208 8.207 8.194 8.194 0 0 0 8.207-8.207 8.194 8.194 0 0 0-8.207-8.207zm0 13.543a5.345 5.345 0 0 1-5.336-5.336 5.34 5.34 0 0 1 5.336-5.336 5.34 5.34 0 0 1 5.335 5.336c0 2.943-2.4 5.335-5.335 5.335zm10.457-13.88A1.91 1.91 0 0 1 24.55 9.65a1.914 1.914 0 1 1 1.914-1.914zM31.9 9.68c-.121-2.564-.707-4.836-2.585-6.707C27.444 1.1 25.173.515 22.609.386 19.966.236 12.044.236 9.4.386c-2.557.121-4.828.707-6.707 2.579C.816 4.835.237 7.107.11 9.672c-.15 2.643-.15 10.564 0 13.207.121 2.564.707 4.835 2.585 6.707 1.879 1.871 4.143 2.457 6.707 2.586 2.643.15 10.565.15 13.208 0 2.564-.122 4.835-.707 6.707-2.586 1.871-1.871 2.457-4.143 2.585-6.707.15-2.643.15-10.557 0-13.2zm-3.414 16.035a5.402 5.402 0 0 1-3.043 3.043c-2.107.836-7.107.643-9.435.643-2.329 0-7.336.186-9.436-.643a5.402 5.402 0 0 1-3.043-3.043c-.836-2.107-.643-7.107-.643-9.435 0-2.329-.186-7.336.643-9.436A5.402 5.402 0 0 1 6.573 3.8c2.107-.835 7.107-.643 9.436-.643 2.328 0 7.335-.185 9.435.643a5.402 5.402 0 0 1 3.043 3.043c.836 2.107.643 7.107.643 9.436 0 2.328.193 7.335-.643 9.436z"
          fill="#E1306C"></path>
</svg>