<svg width="32" height="37" viewBox="0 0 32 37" fill="none" xmlns="http://www.w3.org/2000/svg">
<g clip-path="url(#clip0)">
<path d="M16.0086 10.0717C11.4657 10.0717 7.80145 13.7359 7.80145 18.2788C7.80145 22.8217 11.4657 26.4859 16.0086 26.4859C20.5515 26.4859 24.2157 22.8217 24.2157 18.2788C24.2157 13.7359 20.5515 10.0717 16.0086 10.0717ZM16.0086 23.6145C13.0729 23.6145 10.6729 21.2217 10.6729 18.2788C10.6729 15.3359 13.0657 12.9431 16.0086 12.9431C18.9515 12.9431 21.3443 15.3359 21.3443 18.2788C21.3443 21.2217 18.9443 23.6145 16.0086 23.6145ZM26.4657 9.73594C26.4657 10.8002 25.6086 11.6502 24.5515 11.6502C23.4872 11.6502 22.6372 10.7931 22.6372 9.73594C22.6372 8.67879 23.4943 7.82165 24.5515 7.82165C25.6086 7.82165 26.4657 8.67879 26.4657 9.73594ZM31.9015 11.6788C31.78 9.11451 31.1943 6.84308 29.3158 4.97165C27.4443 3.10022 25.1729 2.51451 22.6086 2.38594C19.9657 2.23594 12.0443 2.23594 9.40146 2.38594C6.84431 2.50737 4.57288 3.09308 2.69431 4.96451C0.815737 6.83594 0.237165 9.10737 0.108594 11.6717C-0.0414063 14.3145 -0.0414063 22.2359 0.108594 24.8788C0.230022 27.4431 0.815737 29.7145 2.69431 31.5859C4.57288 33.4574 6.83717 34.0431 9.40146 34.1717C12.0443 34.3217 19.9657 34.3217 22.6086 34.1717C25.1729 34.0502 27.4443 33.4645 29.3158 31.5859C31.1872 29.7145 31.7729 27.4431 31.9015 24.8788C32.0515 22.2359 32.0515 14.3217 31.9015 11.6788ZM28.4872 27.7145C27.93 29.1145 26.8515 30.1931 25.4443 30.7574C23.3372 31.5931 18.3372 31.4002 16.0086 31.4002C13.68 31.4002 8.67288 31.5859 6.57288 30.7574C5.17288 30.2002 4.09431 29.1217 3.53002 27.7145C2.69431 25.6074 2.88717 20.6074 2.88717 18.2788C2.88717 15.9502 2.70145 10.9431 3.53002 8.84308C4.08717 7.44308 5.16574 6.36451 6.57288 5.80022C8.68003 4.96451 13.68 5.15737 16.0086 5.15737C18.3372 5.15737 23.3443 4.97165 25.4443 5.80022C26.8443 6.35737 27.9229 7.43594 28.4872 8.84308C29.3229 10.9502 29.13 15.9502 29.13 18.2788C29.13 20.6074 29.3229 25.6145 28.4872 27.7145Z" fill="#E1306C"/>
</g>
<defs>
<clipPath id="clip0">
<rect width="32" height="36.5714" fill="white"/>
</clipPath>
</defs>
</svg>
