<svg width="32" height="33" viewBox="0 0 32 33" fill="none" xmlns="http://www.w3.org/2000/svg">
<path d="M16.0027 10.4499C12.5974 10.4499 9.85075 13.2237 9.85075 16.6625C9.85075 20.1014 12.5974 22.8751 16.0027 22.8751C19.4079 22.8751 22.1546 20.1014 22.1546 16.6625C22.1546 13.2237 19.4079 10.4499 16.0027 10.4499ZM16.0027 20.7015C13.8021 20.7015 12.0031 18.8902 12.0031 16.6625C12.0031 14.4349 13.7968 12.6235 16.0027 12.6235C18.2086 12.6235 20.0022 14.4349 20.0022 16.6625C20.0022 18.8902 18.2032 20.7015 16.0027 20.7015V20.7015ZM23.8412 10.1958C23.8412 11.0014 23.1987 11.6449 22.4062 11.6449C21.6085 11.6449 20.9713 10.996 20.9713 10.1958C20.9713 9.39557 21.6138 8.74674 22.4062 8.74674C23.1987 8.74674 23.8412 9.39557 23.8412 10.1958ZM27.9157 11.6665C27.8247 9.7254 27.3856 8.00598 25.9775 6.58936C24.5747 5.17273 22.8721 4.72936 20.9499 4.63203C18.9689 4.51849 13.0311 4.51849 11.0501 4.63203C9.1333 4.72395 7.43068 5.16732 6.02253 6.58395C4.61439 8.00058 4.1807 9.71999 4.08433 11.6611C3.97189 13.6617 3.97189 19.658 4.08433 21.6586C4.17535 23.5997 4.61439 25.3191 6.02253 26.7357C7.43068 28.1523 9.12794 28.5957 11.0501 28.693C13.0311 28.8066 18.9689 28.8066 20.9499 28.693C22.8721 28.6011 24.5747 28.1577 25.9775 26.7357C27.3803 25.3191 27.8193 23.5997 27.9157 21.6586C28.0281 19.658 28.0281 13.6671 27.9157 11.6665V11.6665ZM25.3564 23.8051C24.9388 24.8649 24.1303 25.6814 23.0755 26.1085C21.496 26.7411 17.7481 26.5951 16.0027 26.5951C14.2572 26.5951 10.504 26.7357 8.92984 26.1085C7.88042 25.6868 7.07195 24.8703 6.64897 23.8051C6.02253 22.2101 6.16709 18.4252 6.16709 16.6625C6.16709 14.8999 6.02789 11.1096 6.64897 9.51993C7.06659 8.46017 7.87507 7.64372 8.92984 7.21656C10.5093 6.58395 14.2572 6.72994 16.0027 6.72994C17.7481 6.72994 21.5014 6.58936 23.0755 7.21656C24.1249 7.63831 24.9334 8.45476 25.3564 9.51993C25.9828 11.115 25.8383 14.8999 25.8383 16.6625C25.8383 18.4252 25.9828 22.2155 25.3564 23.8051Z" fill="white"/>
</svg>
