<svg width="32" height="33" viewBox="0 0 32 33" fill="none" xmlns="http://www.w3.org/2000/svg">
<path d="M10.7724 27.4312C12.744 27.4978 14.7088 27.1647 16.5507 26.4516C18.3926 25.7385 20.0743 24.6598 21.4963 23.2793C22.9183 21.8989 24.0517 20.2446 24.8297 18.4143C25.6077 16.584 26.0144 14.6149 26.0257 12.6232C26.9293 11.4943 27.6002 10.1944 27.9991 8.80003C28.0289 8.68986 28.0265 8.57335 27.9922 8.46453C27.9579 8.3557 27.8931 8.25921 27.8058 8.18666C27.7184 8.11412 27.6122 8.06861 27.4998 8.05563C27.3874 8.04264 27.2737 8.06273 27.1724 8.11348C26.6997 8.34321 26.1675 8.41741 25.6509 8.32564C25.1342 8.23387 24.6591 7.98074 24.2924 7.60193C23.8243 7.08442 23.2582 6.66704 22.6274 6.37451C21.9966 6.08198 21.3141 5.92025 20.6203 5.89891C19.9265 5.87757 19.2356 5.99705 18.5883 6.25027C17.9411 6.50349 17.3508 6.8853 16.8524 7.37307C16.17 8.04032 15.6702 8.87446 15.4015 9.79442C15.1328 10.7144 15.1044 11.6889 15.3191 12.6232C10.8524 12.8924 7.78574 10.752 5.33241 7.81732C5.25871 7.73305 5.1623 7.67227 5.05495 7.6424C4.9476 7.61254 4.83396 7.61488 4.72791 7.64915C4.62186 7.68341 4.52799 7.74811 4.45775 7.83535C4.38752 7.92259 4.34397 8.02858 4.33241 8.1404C3.86504 10.758 4.20218 13.4572 5.29857 15.8757C6.39495 18.2941 8.19807 20.3159 10.4657 21.6696C8.94526 23.4301 6.81002 24.5297 4.50575 24.7389C4.38229 24.7595 4.26833 24.8187 4.17981 24.908C4.09129 24.9973 4.03264 25.1123 4.01207 25.2369C3.9915 25.3615 4.01003 25.4895 4.06508 25.603C4.12013 25.7164 4.20894 25.8097 4.31908 25.8697C6.32377 26.8811 8.53139 27.4153 10.7724 27.4312" fill="#ffffff"/>
</svg>
