<svg width="24" height="10" xmlns="http://www.w3.org/2000/svg">

 <g>
  <title>background</title>
  <rect fill="none" id="canvas_background" height="12" width="26" y="-1" x="-1"/>
 </g>
 <g>
  <title>Layer 1</title>
  <path id="svg_1" fill="white" d="m0,14.6667c0,0.7363 0.596954,1.3333 1.33333,1.3333l9.33337,0c0.7363,0 1.3333,-0.597 1.3333,-1.3333c0,-0.7364 -0.597,-1.3334 -1.3333,-1.3334l-9.33337,0c-0.736376,0 -1.33333,0.597 -1.33333,1.3334zm0,-6.6667c0,0.73638 0.596954,1.33333 1.33333,1.33333l21.33337,0c0.7363,0 1.3333,-0.59695 1.3333,-1.33333c0,-0.73638 -0.597,-1.33333 -1.3333,-1.33333l-21.33337,0c-0.736376,0 -1.33333,0.59695 -1.33333,1.33333zm1.33334,-8c-0.736384,0 -1.33334,0.596954 -1.33334,1.33333c0,0.73638 0.596954,1.33334 1.33333,1.33334l14.66667,0c0.7364,0 1.3333,-0.59696 1.3333,-1.33334c0,-0.736376 -0.5969,-1.33333 -1.3333,-1.33333l-14.66666,0z"/>
 </g>
</svg>