<svg width="24" height="24" viewBox="0 0 24 24" fill="none" xmlns="http://www.w3.org/2000/svg">
<path d="M2 21.48C2 20.36 2 19.24 2 18.12C2 16.9533 2 15.81 2 14.69C2 11.0967 2.51333 8.27334 3.54 6.22C4.56667 4.16667 6.36333 3.09333 8.93 3L10.26 5.73C8.81333 5.87 7.81 6.57 7.25 7.83C6.73667 9.04333 6.48 10.98 6.48 13.64H10.19V21.48H2ZM14.32 21.48C14.32 20.36 14.32 19.24 14.32 18.12C14.32 16.9533 14.32 15.81 14.32 14.69C14.32 11.0967 14.8333 8.27334 15.86 6.22C16.8867 4.16667 18.6833 3.09333 21.25 3L22.58 5.73C21.1333 5.87 20.13 6.57 19.57 7.83C19.0567 9.04333 18.8 10.98 18.8 13.64H22.51V21.48H14.32Z" fill="#2060F6"/>
</svg>
