<svg width="1451" height="547" viewBox="0 0 1451 547" fill="none" xmlns="http://www.w3.org/2000/svg">
<rect opacity="0.5" x="1138.98" y="390.084" width="82.6109" height="30.8432" rx="10.5" transform="rotate(-65.0996 1138.98 390.084)" stroke="#2060F6" stroke-width="3"/>
<rect opacity="0.5" x="1.99212" y="-0.728999" width="82.6109" height="30.8432" rx="10.5" transform="matrix(0.421041 -0.907041 0.907041 0.421042 152.815 79.0372)" stroke="#2060F6" stroke-width="3"/>
<rect opacity="0.5" x="365.992" y="45.3413" width="42.28" height="14.8998" rx="4.5" transform="rotate(-65.0996 365.992 45.3413)" stroke="#2060F6" stroke-width="3"/>
<rect opacity="0.5" x="1.99213" y="-0.729002" width="42.28" height="14.8998" rx="4.5" transform="matrix(0.421045 -0.90704 0.907043 0.421038 931.815 484.455)" stroke="#2060F6" stroke-width="3"/>
<rect opacity="0.5" x="1.99213" y="-0.729" width="83.406" height="31.1576" rx="10.5" transform="matrix(0.421042 -0.907041 0.907041 0.421041 1385.41 284.262)" stroke="#2060F6" stroke-width="3"/>
<rect opacity="0.5" x="1258.01" y="479.275" width="148.608" height="55.7233" rx="9.5" transform="rotate(-65.0996 1258.01 479.275)" stroke="#2060F6" stroke-width="5"/>
<rect opacity="0.5" x="3.47646" y="357.998" width="62.3586" height="21.6278" rx="9.5" transform="rotate(-65.0996 3.47646 357.998)" stroke="#2060F6" stroke-width="5"/>
<rect opacity="0.5" x="3.3202" y="-1.215" width="138.037" height="51.5447" rx="9.5" transform="matrix(0.421041 -0.907042 0.907041 0.421043 1193.93 191.003)" stroke="#2060F6" stroke-width="5"/>
<rect opacity="0.5" x="1.99212" y="-0.728999" width="50.6867" height="18.2231" rx="6.5" transform="matrix(0.421041 -0.907042 0.907041 0.421042 1366.83 87.5607)" stroke="#2060F6" stroke-width="3"/>
<rect opacity="0.5" x="190.32" y="339.527" width="138.037" height="51.5447" rx="9.5" transform="rotate(-65.0996 190.32 339.527)" stroke="#2060F6" stroke-width="5"/>
<rect opacity="0.5" x="52.7421" y="530.078" width="88.5407" height="31.978" rx="9.5" transform="rotate(-65.0996 52.7421 530.078)" stroke="#2060F6" stroke-width="5"/>
<rect opacity="0.5" x="1.99212" y="-0.728998" width="42.2775" height="14.8988" rx="4.5" transform="matrix(0.42104 -0.907042 0.90704 0.421044 400.815 435.453)" stroke="#2060F6" stroke-width="3"/>
</svg>
