<svg width="1451" height="547" viewBox="0 0 1451 547" fill="none" xmlns="http://www.w3.org/2000/svg">
<rect opacity="0.5" x="1138.98" y="390.084" width="82.6109" height="30.8432" rx="10.5" transform="rotate(-65.0996 1138.98 390.084)" stroke="#2060F6" style="stroke:#2060F6;stroke:color(display-p3 0.1255 0.3765 0.9647);stroke-opacity:1;" stroke-width="3"/>
<rect opacity="0.5" x="152.992" y="76.9233" width="82.6109" height="30.8432" rx="10.5" transform="rotate(-65.0996 152.992 76.9233)" stroke="#2060F6" style="stroke:#2060F6;stroke:color(display-p3 0.1255 0.3765 0.9647);stroke-opacity:1;" stroke-width="3"/>
<rect opacity="0.5" x="365.992" y="45.3413" width="42.28" height="14.8998" rx="4.5" transform="rotate(-65.0996 365.992 45.3413)" stroke="#2060F6" style="stroke:#2060F6;stroke:color(display-p3 0.1255 0.3765 0.9647);stroke-opacity:1;" stroke-width="3"/>
<rect opacity="0.5" x="931.992" y="482.341" width="42.28" height="14.8998" rx="4.5" transform="rotate(-65.0996 931.992 482.341)" stroke="#2060F6" style="stroke:#2060F6;stroke:color(display-p3 0.1255 0.3765 0.9647);stroke-opacity:1;" stroke-width="3"/>
<rect opacity="0.5" x="1385.59" y="282.148" width="83.406" height="31.1576" rx="10.5" transform="rotate(-65.0996 1385.59 282.148)" stroke="#2060F6" style="stroke:#2060F6;stroke:color(display-p3 0.1255 0.3765 0.9647);stroke-opacity:1;" stroke-width="3"/>
<rect opacity="0.5" x="1258.01" y="479.275" width="148.608" height="55.7233" rx="9.5" transform="rotate(-65.0996 1258.01 479.275)" stroke="#2060F6" style="stroke:#2060F6;stroke:color(display-p3 0.1255 0.3765 0.9647);stroke-opacity:1;" stroke-width="5"/>
<rect opacity="0.5" x="3.47646" y="357.998" width="62.3586" height="21.6278" rx="9.5" transform="rotate(-65.0996 3.47646 357.998)" stroke="#2060F6" style="stroke:#2060F6;stroke:color(display-p3 0.1255 0.3765 0.9647);stroke-opacity:1;" stroke-width="5"/>
<rect opacity="0.5" x="1194.23" y="187.48" width="138.037" height="51.5447" rx="9.5" transform="rotate(-65.0996 1194.23 187.48)" stroke="#2060F6" style="stroke:#2060F6;stroke:color(display-p3 0.1255 0.3765 0.9647);stroke-opacity:1;" stroke-width="5"/>
<rect opacity="0.5" x="1367.01" y="85.4468" width="50.6867" height="18.2231" rx="6.5" transform="rotate(-65.0996 1367.01 85.4468)" stroke="#2060F6" style="stroke:#2060F6;stroke:color(display-p3 0.1255 0.3765 0.9647);stroke-opacity:1;" stroke-width="3"/>
<rect opacity="0.5" x="190.32" y="339.527" width="138.037" height="51.5447" rx="9.5" transform="rotate(-65.0996 190.32 339.527)" stroke="#2060F6" style="stroke:#2060F6;stroke:color(display-p3 0.1255 0.3765 0.9647);stroke-opacity:1;" stroke-width="5"/>
<rect opacity="0.5" x="52.7421" y="530.078" width="88.5407" height="31.978" rx="9.5" transform="rotate(-65.0996 52.7421 530.078)" stroke="#2060F6" style="stroke:#2060F6;stroke:color(display-p3 0.1255 0.3765 0.9647);stroke-opacity:1;" stroke-width="5"/>
<rect opacity="0.5" x="400.992" y="433.339" width="42.2775" height="14.8988" rx="4.5" transform="rotate(-65.0996 400.992 433.339)" stroke="#2060F6" style="stroke:#2060F6;stroke:color(display-p3 0.1255 0.3765 0.9647);stroke-opacity:1;" stroke-width="3"/>
</svg>
