<svg width="1058" height="509" viewBox="0 0 1058 509" fill="none" xmlns="http://www.w3.org/2000/svg">
<rect opacity="0.5" x="1.99213" y="-0.729001" width="73.5525" height="27.2623" rx="10.5" transform="matrix(0.421044 -0.90704 0.907042 0.42104 778.358 418.848)" stroke="#2060F6" stroke-width="3"/>
<rect opacity="0.5" x="1.99212" y="-0.728998" width="37.489" height="13.0059" rx="4.5" transform="matrix(0.421041 -0.907042 0.907041 0.421043 678.815 262.109)" stroke="#2060F6" stroke-width="3"/>
<rect opacity="0.5" x="999.051" y="272.218" width="74.2636" height="27.5434" rx="10.5" transform="rotate(-65.0996 999.051 272.218)" stroke="#2060F6" stroke-width="3"/>
<rect opacity="0.5" x="3.32021" y="-1.215" width="132.355" height="49.2983" rx="9.5" transform="matrix(0.421041 -0.907042 0.907041 0.421042 884.817 451.96)" stroke="#2060F6" stroke-width="5"/>
<rect opacity="0.5" x="827.32" y="114.799" width="122.903" height="45.5618" rx="9.5" transform="rotate(-65.0996 827.32 114.799)" stroke="#2060F6" stroke-width="5"/>
<rect opacity="0.5" x="982.441" y="96.3296" width="45.0062" height="15.9775" rx="6.5" transform="rotate(-65.0996 982.441 96.3296)" stroke="#2060F6" stroke-width="3"/>
<rect opacity="0.5" x="136.875" y="88.6831" width="73.5526" height="27.2623" rx="10.5" transform="rotate(-65.0996 136.875 88.6831)" stroke="#2060F6" stroke-width="3"/>
<rect opacity="0.5" x="1.99212" y="-0.728999" width="37.489" height="13.0059" rx="4.5" transform="matrix(0.421041 -0.907042 0.907041 0.421043 333.815 74.1095)" stroke="#2060F6" stroke-width="3"/>
<rect opacity="0.5" x="3.32021" y="-1.215" width="55.2315" height="18.8104" rx="9.4052" transform="matrix(0.421041 -0.907042 0.907041 0.421043 3.02431 343.492)" stroke="#2060F6" stroke-width="5"/>
<rect opacity="0.5" x="3.32021" y="-1.215" width="122.903" height="45.5618" rx="9.5" transform="matrix(0.421042 -0.907041 0.907042 0.421041 174.024 343.322)" stroke="#2060F6" stroke-width="5"/>
<rect opacity="0.5" x="3.3202" y="-1.215" width="78.6434" height="28.0654" rx="9.5" transform="matrix(0.421041 -0.907042 0.907041 0.421043 47.079 497.363)" stroke="#2060F6" stroke-width="5"/>
<rect opacity="0.5" x="1.99213" y="-0.729" width="37.4868" height="13.005" rx="4.5" transform="matrix(0.421042 -0.907041 0.907042 0.421041 350.459 425.504)" stroke="#2060F6" stroke-width="3"/>
</svg>
