<svg width="640" height="509" viewBox="0 0 640 509" fill="none" xmlns="http://www.w3.org/2000/svg">
<g clip-path="url(#clip0_4_22)">
<path opacity="0.5" d="M580.083 359.543L557.956 407.21C555.515 412.47 557.8 418.713 563.059 421.155L568.74 423.792C574 426.233 580.243 423.949 582.685 418.689L604.811 371.022C607.253 365.762 604.968 359.518 599.708 357.077L594.028 354.44C588.768 351.998 582.525 354.283 580.083 359.543Z" stroke="#2060F6" stroke-width="3"/>
<path opacity="0.5" d="M467.882 230.073L455.887 255.913C454.841 258.168 455.82 260.843 458.074 261.89L461.708 263.576C463.962 264.623 466.638 263.644 467.684 261.389L479.679 235.549C480.726 233.294 479.746 230.619 477.492 229.572L473.859 227.886C471.604 226.839 468.929 227.818 467.882 230.073Z" stroke="#2060F6" stroke-width="3"/>
<path opacity="0.5" d="M650.067 11.9378L606.32 106.182C604.111 110.941 606.178 116.59 610.937 118.799L635.03 129.983C639.789 132.192 645.437 130.125 647.646 125.366L691.394 31.1212C693.603 26.3623 691.536 20.7135 686.777 18.5044L662.684 7.32081C657.925 5.11173 652.277 7.17883 650.067 11.9378Z" stroke="#2060F6" stroke-width="5"/>
<path opacity="0.5" d="M122.882 42.0732L110.887 67.9139C109.841 70.1682 110.82 72.8439 113.074 73.8903L116.708 75.577C118.962 76.6234 121.638 75.6442 122.684 73.39L134.679 47.5493C135.726 45.295 134.746 42.6193 132.492 41.5729L128.859 39.8862C126.604 38.8398 123.929 39.819 122.882 42.0732Z" stroke="#2060F6" stroke-width="3"/>
<path opacity="0.5" d="M-2.93238 236.938L-46.6799 331.182C-48.889 335.941 -46.8219 341.59 -42.0629 343.799L-17.9702 354.982C-13.2113 357.191 -7.56252 355.124 -5.35344 350.365L38.3941 256.121C40.6032 251.362 38.5361 245.713 33.7771 243.504L9.68441 232.321C4.92543 230.112 -0.723301 232.179 -2.93238 236.938Z" stroke="#2060F6" stroke-width="5"/>
<path opacity="0.5" d="M139.525 393.47L127.531 419.308C126.485 421.563 127.464 424.238 129.718 425.285L133.351 426.971C135.605 428.017 138.281 427.038 139.327 424.784L151.321 398.945C152.368 396.691 151.389 394.015 149.134 392.969L145.502 391.283C143.247 390.236 140.572 391.215 139.525 393.47Z" stroke="#2060F6" stroke-width="3"/>
</g>
<defs>
<clipPath id="clip0_4_22">
<rect width="640" height="509" fill="white"/>
</clipPath>
</defs>
</svg>
