<svg width="24" height="26" viewBox="0 0 24 26" fill="none" xmlns="http://www.w3.org/2000/svg">
<path d="M12 0C9.25401 0 7.00001 2.254 7.00001 5V6H2.06201L2.00001 6.938L1.00001 24.938L0.937012 26H23.062L23 24.937L22 6.937L21.937 6H17V5C17 2.254 14.746 0 12 0ZM12 2C12.7957 2 13.5587 2.31607 14.1213 2.87868C14.6839 3.44129 15 4.20435 15 5V6H9.00001V5C9.00001 4.20435 9.31608 3.44129 9.87869 2.87868C10.4413 2.31607 11.2044 2 12 2ZM3.93701 8H7.00001V11H9.00001V8H15V11H17V8H20.063L20.938 24H3.06301L3.93701 8Z" fill="#344F10"/>
</svg>
