<svg width="64" height="64" viewBox="0 0 64 64" fill="none" xmlns="http://www.w3.org/2000/svg">
<circle cx="32" cy="32" r="32" fill="white"/>
<path fill-rule="evenodd" clip-rule="evenodd" d="M36.7008 24.5773C36.1258 25.7273 35.7413 27.3859 35.7413 29.2726C35.7413 31.1593 36.1258 32.8179 36.7008 33.9679C37.3057 35.1777 37.9563 35.5452 38.3776 35.5452C38.7989 35.5452 39.4496 35.1777 40.0545 33.9679C40.6294 32.8179 41.0139 31.1593 41.0139 29.2726C41.0139 27.3859 40.6294 25.7273 40.0545 24.5773C39.4496 23.3675 38.7989 23 38.3776 23C37.9563 23 37.3057 23.3675 36.7008 24.5773ZM24.1362 27.4981L34.7049 24.1285C34.0915 25.5507 33.7413 27.3496 33.7413 29.2726C33.7413 31.1956 34.0915 32.9945 34.7049 34.4167L24.1362 31.0471L24.1176 31.0414C23.7677 30.9372 23.4652 30.7139 23.2626 30.41C23.0601 30.1062 22.9702 29.7411 23.0087 29.378C23.0161 29.3079 23.0161 29.2373 23.0087 29.1672C22.9702 28.8041 23.0601 28.439 23.2626 28.1352C23.4652 27.8313 23.7677 27.608 24.1176 27.5038L24.1362 27.4981ZM23.5371 25.5899L37.3612 21.1824C37.6781 21.0651 38.017 21 38.3776 21C39.9646 21 41.1321 22.2605 41.8433 23.6829C42.5844 25.1651 43.0139 27.1427 43.0139 29.2726C43.0139 31.4024 42.5844 33.3801 41.8433 34.8623C41.1321 36.2847 39.9646 37.5452 38.3776 37.5452C38.017 37.5452 37.6781 37.4801 37.3612 37.3628L31.9439 35.6356L32.8266 38.3031C33.0919 38.9878 33.0795 39.7496 32.7913 40.4259C32.4985 41.1128 31.9452 41.6555 31.2526 41.9348L31.2512 41.9354C30.5583 42.2136 29.7832 42.2054 29.0963 41.9127C28.4094 41.6199 27.8667 41.0666 27.5874 40.374C27.5824 40.3616 27.5776 40.349 27.5731 40.3364L25.1169 33.4589L23.5371 32.9553C22.7438 32.7166 22.0582 32.209 21.5985 31.5194C21.1565 30.8564 20.95 30.0652 21.0103 29.2726C20.95 28.48 21.1565 27.6888 21.5985 27.0258C22.0582 26.3362 22.7438 25.8286 23.5371 25.5899ZM29.5888 34.8847L27.5135 34.2231L29.4485 39.641C29.5312 39.8351 29.6859 39.9899 29.8804 40.0728C30.0796 40.1577 30.3044 40.1601 30.5055 40.0796C30.7061 39.9984 30.8665 39.841 30.9514 39.6418C31.0364 39.4424 31.0388 39.2173 30.958 39.0161C30.9503 38.9969 30.9431 38.9774 30.9366 38.9577L29.5888 34.8847ZM38.9336 27.4634C39.3793 27.9608 39.6263 28.6048 39.6275 29.2726C39.6263 29.9404 39.3793 30.5845 38.9336 31.0818C38.4879 31.5791 37.8747 31.895 37.211 31.9692C37.0005 31.0859 36.8961 30.1806 36.9001 29.2726C36.8961 28.3646 37.0005 27.4593 37.211 26.576C37.8747 26.6502 38.4879 26.9661 38.9336 27.4634Z" fill="#56CCF2"/>
</svg>
