<svg width="24" height="24" xmlns="http://www.w3.org/2000/svg">

 <g>
  <title>background</title>
  <rect fill="none" id="canvas_background" height="402" width="582" y="-1" x="-1"/>
 </g>
 <g>
  <title>Layer 1</title>
  <path id="svg_1" fill="#008aff" d="m16.760206,4.636716c-0.575,1.14996 -0.9595,2.8086 -0.9595,4.69528c0,1.88671 0.3845,3.54531 0.9595,4.69531c0.6049,1.2098 1.2555,1.5773 1.6768,1.5773c0.4213,0 1.072,-0.3675 1.6769,-1.5773c0.5749,-1.15 0.9594,-2.8086 0.9594,-4.69531c0,-1.88668 -0.3845,-3.54532 -0.9594,-4.69528c-0.6049,-1.20978 -1.2556,-1.57731 -1.6769,-1.57731c-0.4213,0 -1.0719,0.36753 -1.6768,1.57731zm-12.56461,2.92081l10.56871,-3.36966c-0.6134,1.42221 -0.9636,3.22114 -0.9636,5.14413c0,1.92301 0.3502,3.72191 0.9636,5.14411l-10.56871,-3.3696l-0.01855,-0.0057c-0.34998,-0.1042 -0.65248,-0.3275 -0.85503,-0.6314c-0.20255,-0.3038 -0.29237,-0.66892 -0.2539,-1.03204c0.00742,-0.07005 0.00742,-0.14068 0,-0.21073c-0.03847,-0.36312 0.05135,-0.72825 0.2539,-1.03207c0.20255,-0.30383 0.50505,-0.52718 0.85503,-0.63132l0.01855,-0.00572zm-0.59904,-1.9082l13.82405,-4.40757c0.3169,-0.11727 0.6558,-0.18235 1.0164,-0.18235c1.587,0 2.7545,1.26049 3.4657,2.68288c0.7411,1.4822 1.1706,3.45986 1.1706,5.58971c0,2.12981 -0.4295,4.10751 -1.1706,5.58971c-0.7112,1.4224 -1.8787,2.6829 -3.4657,2.6829c-0.3606,0 -0.6995,-0.0651 -1.0164,-0.1824l-5.4173,-1.7272l0.8827,2.6675c0.2653,0.6847 0.2529,1.4465 -0.0353,2.1228c-0.2928,0.6869 -0.8461,1.2296 -1.5387,1.5089l-0.0014,0.0006c-0.6929,0.2782 -1.46797,0.27 -2.15491,-0.0227c-0.68693,-0.2928 -1.22962,-0.8461 -1.50889,-1.5387c-0.00502,-0.0124 -0.00979,-0.025 -0.01431,-0.0376l-2.45623,-6.8775l-1.57971,-0.5036c-0.79339,-0.2387 -1.47895,-0.7463 -1.93864,-1.4359c-0.44204,-0.663 -0.64852,-1.4542 -0.58825,-2.24681c-0.06027,-0.79259 0.14621,-1.58377 0.58825,-2.24683c0.45969,-0.68954 1.14525,-1.1972 1.93864,-1.43584zm6.05165,9.29478l-2.07531,-0.6616l1.93497,5.4179c0.08276,0.1941 0.23743,0.3489 0.43191,0.4318c0.19923,0.0849 0.42403,0.0873 0.62513,0.0068c0.2006,-0.0812 0.361,-0.2386 0.4459,-0.4378c0.085,-0.1994 0.0874,-0.4245 0.0066,-0.6257c-0.0077,-0.0192 -0.0149,-0.0387 -0.0214,-0.0584l-1.3478,-4.073zm9.3448,-7.42128c0.4457,0.49735 0.6927,1.14136 0.6939,1.80919c-0.0012,0.66783 -0.2482,1.31189 -0.6939,1.80919c-0.4457,0.4973 -1.0589,0.8132 -1.7226,0.8874c-0.2105,-0.8833 -0.3149,-1.7886 -0.3109,-2.69659c-0.004,-0.90802 0.1004,-1.81328 0.3109,-2.69656c0.6637,0.07415 1.2769,0.39003 1.7226,0.88737z" clip-rule="evenodd" fill-rule="evenodd"/>
 </g>
</svg>