<svg aria-hidden="true" style="position: absolute; width: 0; height: 0; overflow: hidden;" version="1.1" xmlns="http://www.w3.org/2000/svg" xmlns:xlink="http://www.w3.org/1999/xlink">
<defs>
<symbol id="icon-quotes" viewBox="0 0 35 32">
<path d="M0 31.124c0-1.886 0-3.773 0-5.659 0-1.965 0-3.891 0-5.777 0-6.052 0.865-10.807 2.594-14.265s4.755-5.266 9.078-5.423l2.24 4.598c-2.437 0.236-4.126 1.415-5.069 3.537-0.865 2.043-1.297 5.305-1.297 9.785h6.248v13.204h-13.794zM20.749 31.124c0-1.886 0-3.773 0-5.659 0-1.965 0-3.891 0-5.777 0-6.052 0.864-10.807 2.594-14.265s4.755-5.266 9.078-5.423l2.24 4.598c-2.437 0.236-4.126 1.415-5.069 3.537-0.864 2.043-1.297 5.305-1.297 9.785h6.248v13.204h-13.794z"></path>
</symbol>
<symbol id="icon-menu" viewBox="0 0 72 32">
<path d="M72 32h-72v-8h72v8zM72 8h-72v-8h72v8z"></path>
</symbol>
<symbol id="icon-arrow-forward" viewBox="0 0 32 32">
<path d="M16 5.333l-1.88 1.88 7.44 7.453h-16.227v2.667h16.227l-7.44 7.453 1.88 1.88 10.667-10.667-10.667-10.667z"></path>
</symbol>
<symbol id="icon-chevron-right" viewBox="0 0 32 32">
<path d="M11.453 9.88l1.88-1.88 8 8-8 8-1.88-1.88 6.107-6.12-6.107-6.12z"></path>
</symbol>
<symbol id="icon-chevron-left" viewBox="0 0 32 32">
<path d="M20.547 9.88l-1.88-1.88-8 8 8 8 1.88-1.88-6.107-6.12 6.107-6.12z"></path>
</symbol>
<symbol id="icon-twitter" viewBox="0 0 36 32">
<path d="M9.851 31.516c2.868 0.096 5.726-0.384 8.405-1.411s5.125-2.581 7.194-4.57c2.068-1.989 3.717-4.372 4.849-7.009s1.723-5.474 1.74-8.343c1.314-1.626 2.29-3.499 2.87-5.508 0.043-0.159 0.040-0.327-0.010-0.483s-0.144-0.296-0.271-0.4c-0.127-0.104-0.282-0.17-0.445-0.189s-0.329 0.010-0.476 0.083c-0.688 0.331-1.462 0.438-2.213 0.306s-1.443-0.497-1.976-1.043c-0.681-0.746-1.504-1.347-2.422-1.768s-1.91-0.654-2.919-0.685c-1.009-0.031-2.014 0.141-2.956 0.506s-1.8 0.915-2.525 1.618c-0.993 0.961-1.72 2.163-2.11 3.488s-0.432 2.729-0.12 4.075c-6.497 0.388-10.958-2.696-14.526-6.924-0.107-0.121-0.247-0.209-0.404-0.252s-0.321-0.040-0.476 0.010c-0.154 0.049-0.291 0.143-0.393 0.268s-0.165 0.278-0.182 0.439c-0.68 3.771-0.189 7.66 1.405 11.144s4.217 6.397 7.516 8.347c-2.212 2.536-5.317 4.121-8.669 4.422-0.18 0.030-0.345 0.115-0.474 0.244s-0.214 0.294-0.244 0.474c-0.030 0.18-0.003 0.364 0.077 0.527s0.209 0.298 0.369 0.384c2.916 1.457 6.127 2.227 9.387 2.25z"></path>
</symbol>
<symbol id="icon-facebook" viewBox="0 0 20 32">
<path d="M19.556 0.889c0-0.236-0.094-0.462-0.26-0.629s-0.393-0.26-0.629-0.26h-4.444c-2.238-0.111-4.429 0.667-6.095 2.166s-2.67 3.596-2.794 5.834v4.8h-4.444c-0.236 0-0.462 0.094-0.629 0.26s-0.26 0.393-0.26 0.629v4.622c0 0.236 0.094 0.462 0.26 0.629s0.393 0.26 0.629 0.26h4.444v11.911c0 0.236 0.094 0.462 0.26 0.629s0.393 0.26 0.629 0.26h5.333c0.236 0 0.462-0.094 0.629-0.26s0.26-0.393 0.26-0.629v-11.911h4.658c0.198 0.003 0.391-0.060 0.548-0.179s0.271-0.287 0.323-0.478l1.28-4.622c0.035-0.131 0.040-0.269 0.014-0.403s-0.083-0.259-0.165-0.367c-0.082-0.108-0.189-0.196-0.31-0.257s-0.256-0.093-0.392-0.093h-5.956v-4.8c0.044-0.44 0.251-0.848 0.58-1.144s0.756-0.459 1.198-0.456h4.444c0.236 0 0.462-0.094 0.629-0.26s0.26-0.393 0.26-0.629v-4.622z"></path>
</symbol>
<symbol id="icon-instagram" viewBox="0 0 32 32">
<path d="M16.004 7.796c-4.54 0-8.203 3.663-8.203 8.204s3.662 8.204 8.203 8.204c4.54 0 8.203-3.663 8.203-8.204s-3.662-8.204-8.203-8.204zM16.004 21.334c-2.934 0-5.333-2.392-5.333-5.334s2.392-5.334 5.333-5.334c2.941 0 5.333 2.392 5.333 5.334s-2.399 5.334-5.333 5.334zM26.455 7.46c0 1.064-0.857 1.914-1.913 1.914-1.064 0-1.913-0.857-1.913-1.914s0.857-1.914 1.913-1.914c1.057 0 1.913 0.857 1.913 1.914zM31.888 9.402c-0.121-2.563-0.707-4.834-2.584-6.705-1.87-1.871-4.141-2.456-6.703-2.585-2.641-0.15-10.558-0.15-13.2 0-2.556 0.121-4.826 0.707-6.703 2.578s-2.456 4.141-2.584 6.705c-0.15 2.642-0.15 10.561 0 13.203 0.121 2.563 0.707 4.834 2.584 6.705s4.141 2.456 6.703 2.585c2.641 0.15 10.558 0.15 13.2 0 2.563-0.121 4.833-0.707 6.703-2.585 1.87-1.871 2.456-4.141 2.584-6.705 0.15-2.642 0.15-10.554 0-13.196zM28.475 25.433c-0.557 1.4-1.635 2.478-3.041 3.042-2.106 0.835-7.103 0.643-9.43 0.643s-7.332 0.186-9.43-0.643c-1.399-0.557-2.477-1.635-3.041-3.042-0.835-2.106-0.643-7.105-0.643-9.433s-0.186-7.333 0.643-9.433c0.557-1.4 1.635-2.478 3.041-3.042 2.106-0.835 7.103-0.643 9.43-0.643s7.332-0.186 9.43 0.643c1.399 0.557 2.477 1.635 3.041 3.042 0.835 2.106 0.643 7.105 0.643 9.433s0.193 7.333-0.643 9.433z"></path>
</symbol>
<symbol id="icon-close" viewBox="0 0 32 32">
<path d="M16 14.115l6.6-6.6 1.885 1.885-6.6 6.6 6.6 6.6-1.885 1.885-6.6-6.6-6.6 6.6-1.885-1.885 6.6-6.6-6.6-6.6 1.885-1.885 6.6 6.6z"></path>
</symbol>
</defs>
</svg>
