<svg width="32" height="33" viewBox="0 0 32 33" fill="none" xmlns="http://www.w3.org/2000/svg">
<path d="M28.5714 0.285156H3.42857C1.53571 0.285156 0 1.82087 0 3.71373V28.8566C0 30.7494 1.53571 32.2852 3.42857 32.2852H28.5714C30.4643 32.2852 32 30.7494 32 28.8566V3.71373C32 1.82087 30.4643 0.285156 28.5714 0.285156ZM25.0786 11.628C25.0929 11.828 25.0929 12.0352 25.0929 12.2352C25.0929 18.428 20.3786 25.5637 11.7643 25.5637C9.10714 25.5637 6.64286 24.7923 4.57143 23.4637C4.95 23.5066 5.31429 23.5209 5.7 23.5209C7.89286 23.5209 9.90714 22.778 11.5143 21.5209C9.45714 21.478 7.72857 20.128 7.13571 18.2709C7.85714 18.378 8.50714 18.378 9.25 18.1852C7.10714 17.7494 5.5 15.8637 5.5 13.5852V13.528C6.12143 13.878 6.85 14.0923 7.61429 14.1209C6.97173 13.6935 6.44499 13.1136 6.08105 12.4331C5.71711 11.7526 5.52731 10.9926 5.52857 10.2209C5.52857 9.34944 5.75714 8.54944 6.16429 7.85659C8.47143 10.6994 11.9357 12.5566 15.8214 12.7566C15.1571 9.57802 17.5357 6.99944 20.3929 6.99944C21.7429 6.99944 22.9571 7.56373 23.8143 8.47801C24.8714 8.27801 25.8857 7.88516 26.7857 7.34944C26.4357 8.43516 25.7 9.34944 24.7286 9.92801C25.6714 9.82801 26.5857 9.56373 27.4286 9.19944C26.7929 10.1352 25.9929 10.9637 25.0786 11.628Z" fill="#1DA1F2"/>
</svg>
