<?xml version="1.0" standalone="no"?>
<!DOCTYPE svg PUBLIC "-//W3C//DTD SVG 20010904//EN"
 "http://www.w3.org/TR/2001/REC-SVG-20010904/DTD/svg10.dtd">
<svg version="1.0" xmlns="http://www.w3.org/2000/svg"
 width="2133.000000pt" height="1280.000000pt" viewBox="0 0 2133.000000 1280.000000"
 preserveAspectRatio="xMidYMid meet">
<metadata>
Created by potrace 1.16, written by Peter Selinger 2001-2019
</metadata>
<g transform="translate(0.000000,1280.000000) scale(0.100000,-0.100000)"
fill="#000000" stroke="none">
<path d="M5855 8000 l-4800 -4800 1130 -1130 c621 -621 1133 -1130 1136 -1130
3 0 1657 1647 3674 3660 l3669 3661 520 -519 c287 -285 1938 -1932 3670 -3660
1731 -1728 3151 -3142 3155 -3142 3 0 515 509 1136 1130 l1130 1130 -4800
4800 c-2640 2640 -4804 4800 -4810 4800 -6 0 -2170 -2160 -4810 -4800z"/>
</g>
</svg>
