<svg width="32" height="33" viewBox="0 0 32 33" fill="none" xmlns="http://www.w3.org/2000/svg">
<path d="M16.0086 8.07165C11.4657 8.07165 7.80145 11.7359 7.80145 16.2788C7.80145 20.8217 11.4657 24.4859 16.0086 24.4859C20.5515 24.4859 24.2157 20.8217 24.2157 16.2788C24.2157 11.7359 20.5515 8.07165 16.0086 8.07165ZM16.0086 21.6145C13.0729 21.6145 10.6729 19.2217 10.6729 16.2788C10.6729 13.3359 13.0657 10.9431 16.0086 10.9431C18.9515 10.9431 21.3443 13.3359 21.3443 16.2788C21.3443 19.2217 18.9443 21.6145 16.0086 21.6145ZM26.4657 7.73594C26.4657 8.80022 25.6086 9.65022 24.5515 9.65022C23.4872 9.65022 22.6372 8.79308 22.6372 7.73594C22.6372 6.67879 23.4943 5.82165 24.5515 5.82165C25.6086 5.82165 26.4657 6.67879 26.4657 7.73594ZM31.9015 9.67879C31.78 7.11451 31.1943 4.84308 29.3158 2.97165C27.4443 1.10022 25.1729 0.514509 22.6086 0.385937C19.9657 0.235937 12.0443 0.235937 9.40146 0.385937C6.84431 0.507366 4.57288 1.09308 2.69431 2.96451C0.815737 4.83594 0.237165 7.10737 0.108594 9.67165C-0.0414063 12.3145 -0.0414063 20.2359 0.108594 22.8788C0.230022 25.4431 0.815737 27.7145 2.69431 29.5859C4.57288 31.4574 6.83717 32.0431 9.40146 32.1717C12.0443 32.3217 19.9657 32.3217 22.6086 32.1717C25.1729 32.0502 27.4443 31.4645 29.3158 29.5859C31.1872 27.7145 31.7729 25.4431 31.9015 22.8788C32.0515 20.2359 32.0515 12.3217 31.9015 9.67879ZM28.4872 25.7145C27.93 27.1145 26.8515 28.1931 25.4443 28.7574C23.3372 29.5931 18.3372 29.4002 16.0086 29.4002C13.68 29.4002 8.67288 29.5859 6.57288 28.7574C5.17288 28.2002 4.09431 27.1217 3.53002 25.7145C2.69431 23.6074 2.88717 18.6074 2.88717 16.2788C2.88717 13.9502 2.70145 8.94308 3.53002 6.84308C4.08717 5.44308 5.16574 4.36451 6.57288 3.80022C8.68003 2.96451 13.68 3.15737 16.0086 3.15737C18.3372 3.15737 23.3443 2.97165 25.4443 3.80022C26.8443 4.35737 27.9229 5.43594 28.4872 6.84308C29.3229 8.95022 29.13 13.9502 29.13 16.2788C29.13 18.6074 29.3229 23.6145 28.4872 25.7145Z" fill="#E1306C"/>
</svg>
