<svg width="33" height="32" viewBox="0 0 33 32" fill="none" xmlns="http://www.w3.org/2000/svg">
<g clip-path="url(#clip0_1013_2340)">
<path d="M22.8004 4.66674C22.8004 4.48993 22.7299 4.32036 22.6045 4.19533C22.4791 4.07031 22.309 4.00007 22.1316 4.00007H18.7879C17.1041 3.91646 15.4556 4.50059 14.2026 5.62484C12.9495 6.7491 12.1937 8.32207 12.1004 10.0001V13.6001H8.75664C8.57928 13.6001 8.40918 13.6703 8.28376 13.7953C8.15835 13.9204 8.08789 14.0899 8.08789 14.2667V17.7334C8.08789 17.9102 8.15835 18.0798 8.28376 18.2048C8.40918 18.3298 8.57928 18.4001 8.75664 18.4001H12.1004V27.3334C12.1004 27.5102 12.1708 27.6798 12.2963 27.8048C12.4217 27.9298 12.5918 28.0001 12.7691 28.0001H16.7816C16.959 28.0001 17.1291 27.9298 17.2545 27.8048C17.3799 27.6798 17.4504 27.5102 17.4504 27.3334V18.4001H20.9546C21.1034 18.4022 21.2485 18.3548 21.3672 18.2655C21.4859 18.1762 21.5714 18.0499 21.61 17.9067L22.573 14.4401C22.5996 14.3416 22.6032 14.2383 22.5835 14.1382C22.5637 14.0381 22.5212 13.9438 22.4592 13.8627C22.3972 13.7816 22.3173 13.7157 22.2257 13.6701C22.1342 13.6246 22.0333 13.6006 21.931 13.6001H17.4504V10.0001C17.4837 9.67004 17.6391 9.36422 17.8864 9.14233C18.1338 8.92044 18.4552 8.79841 18.7879 8.80007H22.1316C22.309 8.80007 22.4791 8.72983 22.6045 8.60481C22.7299 8.47978 22.8004 8.31022 22.8004 8.1334V4.66674Z" fill="white"/>
</g>
<defs>
<clipPath id="clip0_1013_2340">
<rect width="32.1" height="32" fill="white" transform="translate(0.0625)"/>
</clipPath>
</defs>
</svg>
