<svg width="33" height="32" viewBox="0 0 33 32" fill="none" xmlns="http://www.w3.org/2000/svg">
<path d="M16.5158 9.8467C13.0999 9.8467 10.3446 12.594 10.3446 16C10.3446 19.406 13.0999 22.1533 16.5158 22.1533C19.9317 22.1533 22.6869 19.406 22.6869 16C22.6869 12.594 19.9317 9.8467 16.5158 9.8467ZM16.5158 20.0004C14.3083 20.0004 12.5037 18.2064 12.5037 16C12.5037 13.7936 14.303 11.9996 16.5158 11.9996C18.7286 11.9996 20.5278 13.7936 20.5278 16C20.5278 18.2064 18.7232 20.0004 16.5158 20.0004V20.0004ZM24.3787 9.595C24.3787 10.3929 23.7342 11.0302 22.9394 11.0302C22.1391 11.0302 21.5 10.3876 21.5 9.595C21.5 8.80241 22.1445 8.15977 22.9394 8.15977C23.7342 8.15977 24.3787 8.80241 24.3787 9.595ZM28.466 11.0517C28.3747 9.12909 27.9343 7.42609 26.5217 6.02298C25.1146 4.61988 23.4066 4.18074 21.4785 4.08435C19.4912 3.97188 13.5349 3.97188 11.5477 4.08435C9.62492 4.17539 7.91698 4.61453 6.50444 6.01763C5.0919 7.42073 4.65685 9.12373 4.56018 11.0463C4.44739 13.0278 4.44739 18.9669 4.56018 20.9483C4.65148 22.8709 5.0919 24.5739 6.50444 25.977C7.91698 27.3801 9.61955 27.8193 11.5477 27.9157C13.5349 28.0281 19.4912 28.0281 21.4785 27.9157C23.4066 27.8246 25.1146 27.3855 26.5217 25.977C27.9289 24.5739 28.3693 22.8709 28.466 20.9483C28.5788 18.9669 28.5788 13.0331 28.466 11.0517V11.0517ZM25.8987 23.0744C25.4798 24.1241 24.6688 24.9327 23.6107 25.3558C22.0263 25.9824 18.2667 25.8378 16.5158 25.8378C14.7649 25.8378 10.9999 25.977 9.42083 25.3558C8.36814 24.9381 7.55713 24.1294 7.13283 23.0744C6.50444 21.4946 6.64945 17.7458 6.64945 16C6.64945 14.2542 6.50981 10.5001 7.13283 8.92558C7.55176 7.87593 8.36276 7.06728 9.42083 6.6442C11.0052 6.01763 14.7649 6.16222 16.5158 6.16222C18.2667 6.16222 22.0317 6.02298 23.6107 6.6442C24.6634 7.06192 25.4744 7.87058 25.8987 8.92558C26.5271 10.5054 26.3821 14.2542 26.3821 16C26.3821 17.7458 26.5271 21.4999 25.8987 23.0744Z" fill="white"/>
</svg>
