<svg width="33" height="32" viewBox="0 0 33 32" fill="none" xmlns="http://www.w3.org/2000/svg">
<g clip-path="url(#clip0_1013_2345)">
<path d="M11.069 26.6671C13.0467 26.733 15.0177 26.4031 16.8653 25.6968C18.713 24.9905 20.3999 23.9221 21.8263 22.5548C23.2528 21.1875 24.3898 19.549 25.1702 17.7362C25.9506 15.9234 26.3585 13.973 26.37 12.0004C27.2763 10.8823 27.9493 9.59482 28.3495 8.21372C28.3793 8.1046 28.3769 7.9892 28.3425 7.88142C28.3081 7.77363 28.2432 7.67806 28.1556 7.6062C28.0679 7.53435 27.9613 7.48928 27.8486 7.47642C27.7359 7.46356 27.6218 7.48346 27.5202 7.53372C27.046 7.76126 26.5122 7.83475 25.9939 7.74386C25.4756 7.65296 24.999 7.40225 24.6312 7.02705C24.1617 6.51449 23.5937 6.10109 22.961 5.81135C22.3283 5.52162 21.6436 5.36143 20.9477 5.3403C20.2517 5.31916 19.5586 5.4375 18.9093 5.6883C18.2601 5.9391 17.6679 6.31727 17.168 6.80038C16.4834 7.46126 15.982 8.28744 15.7125 9.19862C15.443 10.1098 15.4145 11.075 15.6298 12.0004C11.1492 12.2671 8.07295 10.1471 5.61195 7.24038C5.53802 7.15692 5.44131 7.09672 5.33362 7.06714C5.22594 7.03757 5.11195 7.03989 5.00557 7.07382C4.89918 7.10776 4.80502 7.17184 4.73456 7.25825C4.66411 7.34465 4.62042 7.44964 4.60883 7.56038C4.13999 10.1529 4.47819 12.8264 5.57801 15.2218C6.67782 17.6172 8.48657 19.6197 10.7613 20.9604C9.23609 22.7042 7.09418 23.7933 4.7827 24.0004C4.65887 24.0209 4.54455 24.0794 4.45575 24.1679C4.36696 24.2563 4.30812 24.3702 4.28749 24.4937C4.26685 24.6171 4.28544 24.7439 4.34067 24.8563C4.39589 24.9686 4.48497 25.061 4.59545 25.1204C6.60641 26.1222 8.82092 26.6513 11.069 26.6671" fill="white"/>
</g>
<defs>
<clipPath id="clip0_1013_2345">
<rect width="32.1" height="32" fill="white" transform="translate(0.262695)"/>
</clipPath>
</defs>
</svg>
