<svg width="1442" height="536" viewBox="0 0 1442 536" fill="none" xmlns="http://www.w3.org/2000/svg">
<g opacity="0.5">
<rect x="1134.98" y="385.084" width="82.6109" height="30.8432" rx="15.4216" transform="rotate(-65.0996 1134.98 385.084)" stroke="#F25656" stroke-width="3"/>
<rect x="1134.98" y="385.084" width="82.6109" height="30.8432" rx="15.4216" transform="rotate(-65.0996 1134.98 385.084)" stroke="url(#paint0_linear_0_1)" stroke-opacity="0.25" stroke-width="3"/>
</g>
<g opacity="0.5">
<rect x="148.992" y="71.9233" width="82.6109" height="30.8432" rx="15.4216" transform="rotate(-65.0996 148.992 71.9233)" stroke="#F25656" stroke-width="3"/>
<rect x="148.992" y="71.9233" width="82.6109" height="30.8432" rx="15.4216" transform="rotate(-65.0996 148.992 71.9233)" stroke="url(#paint1_linear_0_1)" stroke-opacity="0.25" stroke-width="3"/>
</g>
<g opacity="0.5">
<rect x="927.992" y="477.341" width="42.28" height="14.8998" rx="7.44991" transform="rotate(-65.0996 927.992 477.341)" stroke="#BC04FC" stroke-width="3"/>
<rect x="927.992" y="477.341" width="42.28" height="14.8998" rx="7.44991" transform="rotate(-65.0996 927.992 477.341)" stroke="url(#paint2_linear_0_1)" stroke-opacity="0.25" stroke-width="3"/>
</g>
<g opacity="0.5">
<rect x="1381.59" y="277.148" width="83.406" height="31.1576" rx="15.5788" transform="rotate(-65.0996 1381.59 277.148)" stroke="#FCC304" stroke-width="3"/>
<rect x="1381.59" y="277.148" width="83.406" height="31.1576" rx="15.5788" transform="rotate(-65.0996 1381.59 277.148)" stroke="url(#paint3_linear_0_1)" stroke-opacity="0.25" stroke-width="3"/>
</g>
<g opacity="0.5">
<rect x="1254.01" y="474.275" width="148.608" height="55.7233" rx="27.8616" transform="rotate(-65.0996 1254.01 474.275)" stroke="#56CCF2" stroke-width="5"/>
<rect x="1254.01" y="474.275" width="148.608" height="55.7233" rx="27.8616" transform="rotate(-65.0996 1254.01 474.275)" stroke="url(#paint4_linear_0_1)" stroke-opacity="0.25" stroke-width="5"/>
</g>
<g opacity="0.5">
<rect x="-0.523542" y="352.998" width="62.3586" height="21.6278" rx="10.8139" transform="rotate(-65.0996 -0.523542 352.998)" stroke="#56CCF2" stroke-width="5"/>
<rect x="-0.523542" y="352.998" width="62.3586" height="21.6278" rx="10.8139" transform="rotate(-65.0996 -0.523542 352.998)" stroke="url(#paint5_linear_0_1)" stroke-opacity="0.25" stroke-width="5"/>
</g>
<g opacity="0.5">
<rect x="1190.23" y="182.48" width="138.037" height="51.5447" rx="25.7723" transform="rotate(-65.0996 1190.23 182.48)" stroke="black" stroke-width="5"/>
<rect x="1190.23" y="182.48" width="138.037" height="51.5447" rx="25.7723" transform="rotate(-65.0996 1190.23 182.48)" stroke="#03D542" stroke-width="5"/>
<rect x="1190.23" y="182.48" width="138.037" height="51.5447" rx="25.7723" transform="rotate(-65.0996 1190.23 182.48)" stroke="url(#paint6_linear_0_1)" stroke-opacity="0.25" stroke-width="5"/>
</g>
<g opacity="0.5">
<rect x="1364.34" y="79.9608" width="48.6867" height="16.2231" rx="8.11156" transform="rotate(-65.0996 1364.34 79.9608)" stroke="black" stroke-width="5"/>
<rect x="1364.34" y="79.9608" width="48.6867" height="16.2231" rx="8.11156" transform="rotate(-65.0996 1364.34 79.9608)" stroke="#BC04FC" stroke-width="5"/>
<rect x="1364.34" y="79.9608" width="48.6867" height="16.2231" rx="8.11156" transform="rotate(-65.0996 1364.34 79.9608)" stroke="url(#paint7_linear_0_1)" stroke-opacity="0.25" stroke-width="5"/>
</g>
<g opacity="0.5">
<rect x="186.32" y="334.527" width="138.037" height="51.5447" rx="25.7723" transform="rotate(-65.0996 186.32 334.527)" stroke="black" stroke-width="5"/>
<rect x="186.32" y="334.527" width="138.037" height="51.5447" rx="25.7723" transform="rotate(-65.0996 186.32 334.527)" stroke="#03D542" stroke-width="5"/>
<rect x="186.32" y="334.527" width="138.037" height="51.5447" rx="25.7723" transform="rotate(-65.0996 186.32 334.527)" stroke="url(#paint8_linear_0_1)" stroke-opacity="0.25" stroke-width="5"/>
</g>
<g opacity="0.5">
<rect x="48.7421" y="525.078" width="88.5407" height="31.978" rx="15.989" transform="rotate(-65.0996 48.7421 525.078)" stroke="black" stroke-width="5"/>
<rect x="48.7421" y="525.078" width="88.5407" height="31.978" rx="15.989" transform="rotate(-65.0996 48.7421 525.078)" stroke="#BC04FC" stroke-width="5"/>
<rect x="48.7421" y="525.078" width="88.5407" height="31.978" rx="15.989" transform="rotate(-65.0996 48.7421 525.078)" stroke="url(#paint9_linear_0_1)" stroke-opacity="0.25" stroke-width="5"/>
</g>
<g opacity="0.5">
<rect x="398.32" y="427.853" width="40.2775" height="12.8988" rx="6.44942" transform="rotate(-65.0996 398.32 427.853)" stroke="black" stroke-width="5"/>
<rect x="398.32" y="427.853" width="40.2775" height="12.8988" rx="6.44942" transform="rotate(-65.0996 398.32 427.853)" stroke="#FCC304" stroke-width="5"/>
<rect x="398.32" y="427.853" width="40.2775" height="12.8988" rx="6.44942" transform="rotate(-65.0996 398.32 427.853)" stroke="url(#paint10_linear_0_1)" stroke-opacity="0.25" stroke-width="5"/>
</g>
<defs>
<linearGradient id="paint0_linear_0_1" x1="1175.79" y1="385.813" x2="1175.79" y2="419.656" gradientUnits="userSpaceOnUse">
<stop stop-color="white"/>
<stop offset="1" stop-color="white" stop-opacity="0"/>
</linearGradient>
<linearGradient id="paint1_linear_0_1" x1="189.805" y1="72.6523" x2="189.805" y2="106.496" gradientUnits="userSpaceOnUse">
<stop stop-color="white"/>
<stop offset="1" stop-color="white" stop-opacity="0"/>
</linearGradient>
<linearGradient id="paint2_linear_0_1" x1="948.64" y1="478.07" x2="948.64" y2="495.97" gradientUnits="userSpaceOnUse">
<stop stop-color="white"/>
<stop offset="1" stop-color="white" stop-opacity="0"/>
</linearGradient>
<linearGradient id="paint3_linear_0_1" x1="1422.8" y1="277.877" x2="1422.8" y2="312.035" gradientUnits="userSpaceOnUse">
<stop stop-color="white"/>
<stop offset="1" stop-color="white" stop-opacity="0"/>
</linearGradient>
<linearGradient id="paint4_linear_0_1" x1="1327.49" y1="475.49" x2="1327.49" y2="536.214" gradientUnits="userSpaceOnUse">
<stop stop-color="white"/>
<stop offset="1" stop-color="white" stop-opacity="0"/>
</linearGradient>
<linearGradient id="paint5_linear_0_1" x1="29.8356" y1="354.213" x2="29.8356" y2="380.841" gradientUnits="userSpaceOnUse">
<stop stop-color="white"/>
<stop offset="1" stop-color="white" stop-opacity="0"/>
</linearGradient>
<linearGradient id="paint6_linear_0_1" x1="1258.43" y1="183.695" x2="1258.43" y2="240.24" gradientUnits="userSpaceOnUse">
<stop stop-color="white"/>
<stop offset="1" stop-color="white" stop-opacity="0"/>
</linearGradient>
<linearGradient id="paint7_linear_0_1" x1="1387.86" y1="81.1758" x2="1387.86" y2="102.399" gradientUnits="userSpaceOnUse">
<stop stop-color="white"/>
<stop offset="1" stop-color="white" stop-opacity="0"/>
</linearGradient>
<linearGradient id="paint8_linear_0_1" x1="254.519" y1="335.742" x2="254.519" y2="392.287" gradientUnits="userSpaceOnUse">
<stop stop-color="white"/>
<stop offset="1" stop-color="white" stop-opacity="0"/>
</linearGradient>
<linearGradient id="paint9_linear_0_1" x1="92.1922" y1="526.293" x2="92.1922" y2="563.271" gradientUnits="userSpaceOnUse">
<stop stop-color="white"/>
<stop offset="1" stop-color="white" stop-opacity="0"/>
</linearGradient>
<linearGradient id="paint10_linear_0_1" x1="417.639" y1="429.068" x2="417.639" y2="446.967" gradientUnits="userSpaceOnUse">
<stop stop-color="white"/>
<stop offset="1" stop-color="white" stop-opacity="0"/>
</linearGradient>
</defs>
</svg>
