<svg width="1600" height="691" viewBox="0 0 1600 691" fill="none" xmlns="http://www.w3.org/2000/svg">
<path d="M0 0H1600V888H0V0Z" fill="white"/>
<rect opacity="0.5" x="1220.98" y="462.084" width="82.6109" height="30.8432" rx="10.5" transform="rotate(-65.0996 1220.98 462.084)" stroke="#2060F6" stroke-width="3"/>
<rect opacity="0.5" x="234.992" y="148.923" width="82.6109" height="30.8432" rx="10.5" transform="rotate(-65.0996 234.992 148.923)" stroke="#2060F6" stroke-width="3"/>
<rect opacity="0.5" x="447.992" y="117.341" width="42.28" height="14.8998" rx="4.5" transform="rotate(-65.0996 447.992 117.341)" stroke="#2060F6" stroke-width="3"/>
<rect opacity="0.5" x="1013.99" y="554.341" width="42.28" height="14.8998" rx="4.5" transform="rotate(-65.0996 1013.99 554.341)" stroke="#2060F6" stroke-width="3"/>
<rect opacity="0.5" x="1467.59" y="354.148" width="83.406" height="31.1576" rx="10.5" transform="rotate(-65.0996 1467.59 354.148)" stroke="#2060F6" stroke-width="3"/>
<rect opacity="0.5" x="1340.01" y="551.275" width="148.608" height="55.7233" rx="9.5" transform="rotate(-65.0996 1340.01 551.275)" stroke="#2060F6" stroke-width="5"/>
<rect opacity="0.5" x="85.4765" y="429.998" width="62.3586" height="21.6278" rx="9.5" transform="rotate(-65.0996 85.4765 429.998)" stroke="#2060F6" stroke-width="5"/>
<rect opacity="0.5" x="1276.23" y="259.48" width="138.037" height="51.5447" rx="9.5" transform="rotate(-65.0996 1276.23 259.48)" stroke="#2060F6" stroke-width="5"/>
<rect opacity="0.5" x="1449.01" y="157.447" width="50.6867" height="18.2231" rx="6.5" transform="rotate(-65.0996 1449.01 157.447)" stroke="#2060F6" stroke-width="3"/>
<rect opacity="0.5" x="272.32" y="411.527" width="138.037" height="51.5447" rx="9.5" transform="rotate(-65.0996 272.32 411.527)" stroke="#2060F6" stroke-width="5"/>
<rect opacity="0.5" x="134.742" y="602.078" width="88.5407" height="31.978" rx="9.5" transform="rotate(-65.0996 134.742 602.078)" stroke="#2060F6" stroke-width="5"/>
<rect opacity="0.5" x="482.992" y="505.339" width="42.2775" height="14.8988" rx="4.5" transform="rotate(-65.0996 482.992 505.339)" stroke="#2060F6" stroke-width="3"/>
</svg>
