<svg width="1451" height="547" viewBox="0 0 1451 547" fill="none" xmlns="http://www.w3.org/2000/svg">
<g opacity="0.5">
<path fill-rule="evenodd" clip-rule="evenodd" d="M1168.63 329.772L1146.83 376.727C1143.59 383.701 1146.62 391.979 1153.6 395.216C1160.57 398.453 1168.85 395.424 1172.09 388.45L1193.88 341.495C1197.12 334.521 1194.09 326.243 1187.12 323.006C1180.14 319.768 1171.86 322.798 1168.63 329.772ZM1144.11 375.464C1140.17 383.941 1143.86 394.002 1152.33 397.937C1160.81 401.872 1170.87 398.19 1174.81 389.713L1196.6 342.758C1200.54 334.281 1196.86 324.219 1188.38 320.285C1179.9 316.35 1169.84 320.032 1165.91 328.509L1144.11 375.464Z" fill="#F25656"/>
<path fill-rule="evenodd" clip-rule="evenodd" d="M1168.63 329.772L1146.83 376.727C1143.59 383.701 1146.62 391.979 1153.6 395.216C1160.57 398.453 1168.85 395.424 1172.09 388.45L1193.88 341.495C1197.12 334.521 1194.09 326.243 1187.12 323.006C1180.14 319.768 1171.86 322.798 1168.63 329.772ZM1144.11 375.464C1140.17 383.941 1143.86 394.002 1152.33 397.937C1160.81 401.872 1170.87 398.19 1174.81 389.713L1196.6 342.758C1200.54 334.281 1196.86 324.219 1188.38 320.285C1179.9 316.35 1169.84 320.032 1165.91 328.509L1144.11 375.464Z" fill="url(#paint0_linear)" fill-opacity="0.25"/>
</g>
<g opacity="0.5">
<path fill-rule="evenodd" clip-rule="evenodd" d="M182.642 16.6115L160.846 63.5669C157.609 70.5408 160.638 78.8187 167.612 82.0559C174.586 85.2932 182.864 82.264 186.101 75.29L207.897 28.3346C211.134 21.3607 208.105 13.0828 201.131 9.84559C194.157 6.60833 185.879 9.63752 182.642 16.6115ZM158.125 62.3038C154.19 70.7805 157.872 80.8422 166.349 84.777C174.825 88.7119 184.887 85.0299 188.822 76.5532L210.618 29.5978C214.553 21.121 210.871 11.0593 202.394 7.12446C193.918 3.1896 183.856 6.87156 179.921 15.3484L158.125 62.3038Z" fill="#F25656"/>
<path fill-rule="evenodd" clip-rule="evenodd" d="M182.642 16.6115L160.846 63.5669C157.609 70.5408 160.638 78.8187 167.612 82.0559C174.586 85.2932 182.864 82.264 186.101 75.29L207.897 28.3346C211.134 21.3607 208.105 13.0828 201.131 9.84559C194.157 6.60833 185.879 9.63752 182.642 16.6115ZM158.125 62.3038C154.19 70.7805 157.872 80.8422 166.349 84.777C174.825 88.7119 184.887 85.0299 188.822 76.5532L210.618 29.5978C214.553 21.121 210.871 11.0593 202.394 7.12446C193.918 3.1896 183.856 6.87156 179.921 15.3484L158.125 62.3038Z" fill="url(#paint1_linear)" fill-opacity="0.25"/>
</g>
<g opacity="0.5">
<path fill-rule="evenodd" clip-rule="evenodd" d="M382.018 14.3806L370.489 39.2155C369.106 42.1961 370.4 45.7339 373.381 47.1175C376.362 48.501 379.899 47.2064 381.283 44.2258L392.811 19.3909C394.195 16.4103 392.9 12.8725 389.92 11.4889C386.939 10.1054 383.401 11.4 382.018 14.3806ZM367.768 37.9524C365.687 42.4358 367.635 47.7574 372.118 49.8386C376.601 51.9198 381.923 49.9724 384.004 45.4889L395.532 20.654C397.614 16.1706 395.666 10.849 391.183 8.76781C386.699 6.68664 381.378 8.63405 379.296 13.1175L367.768 37.9524Z" fill="#FCC304"/>
<path fill-rule="evenodd" clip-rule="evenodd" d="M382.018 14.3806L370.489 39.2155C369.106 42.1961 370.4 45.7339 373.381 47.1175C376.362 48.501 379.899 47.2064 381.283 44.2258L392.811 19.3909C394.195 16.4103 392.9 12.8725 389.92 11.4889C386.939 10.1054 383.401 11.4 382.018 14.3806ZM367.768 37.9524C365.687 42.4358 367.635 47.7574 372.118 49.8386C376.601 51.9198 381.923 49.9724 384.004 45.4889L395.532 20.654C397.614 16.1706 395.666 10.849 391.183 8.76781C386.699 6.68664 381.378 8.63405 379.296 13.1175L367.768 37.9524Z" fill="url(#paint2_linear)" fill-opacity="0.25"/>
</g>
<g opacity="0.5">
<path fill-rule="evenodd" clip-rule="evenodd" d="M948.018 451.381L936.489 476.216C935.106 479.196 936.4 482.734 939.381 484.117C942.362 485.501 945.899 484.206 947.283 481.226L958.811 456.391C960.195 453.41 958.9 449.872 955.92 448.489C952.939 447.105 949.401 448.4 948.018 451.381ZM933.768 474.952C931.687 479.436 933.635 484.757 938.118 486.839C942.601 488.92 947.923 486.972 950.004 482.489L961.532 457.654C963.614 453.171 961.666 447.849 957.183 445.768C952.699 443.687 947.378 445.634 945.296 450.117L933.768 474.952Z" fill="#BC04FC"/>
<path fill-rule="evenodd" clip-rule="evenodd" d="M948.018 451.381L936.489 476.216C935.106 479.196 936.4 482.734 939.381 484.117C942.362 485.501 945.899 484.206 947.283 481.226L958.811 456.391C960.195 453.41 958.9 449.872 955.92 448.489C952.939 447.105 949.401 448.4 948.018 451.381ZM933.768 474.952C931.687 479.436 933.635 484.757 938.118 486.839C942.601 488.92 947.923 486.972 950.004 482.489L961.532 457.654C963.614 453.171 961.666 447.849 957.183 445.768C952.699 443.687 947.378 445.634 945.296 450.117L933.768 474.952Z" fill="url(#paint3_linear)" fill-opacity="0.25"/>
</g>
<g opacity="0.5">
<path fill-rule="evenodd" clip-rule="evenodd" d="M1415.5 221.257L1393.51 268.649C1390.23 275.702 1393.3 284.073 1400.35 287.347C1407.4 290.621 1415.77 287.557 1419.05 280.504L1441.04 233.113C1444.32 226.06 1441.26 217.689 1434.2 214.415C1427.15 211.141 1418.78 214.205 1415.5 221.257ZM1390.78 267.386C1386.81 275.941 1390.53 286.096 1399.08 290.068C1407.64 294.039 1417.8 290.323 1421.77 281.768L1443.77 234.376C1447.74 225.821 1444.02 215.665 1435.47 211.694C1426.91 207.723 1416.75 211.439 1412.78 219.994L1390.78 267.386Z" fill="#FCC304"/>
<path fill-rule="evenodd" clip-rule="evenodd" d="M1415.5 221.257L1393.51 268.649C1390.23 275.702 1393.3 284.073 1400.35 287.347C1407.4 290.621 1415.77 287.557 1419.05 280.504L1441.04 233.113C1444.32 226.06 1441.26 217.689 1434.2 214.415C1427.15 211.141 1418.78 214.205 1415.5 221.257ZM1390.78 267.386C1386.81 275.941 1390.53 286.096 1399.08 290.068C1407.64 294.039 1417.8 290.323 1421.77 281.768L1443.77 234.376C1447.74 225.821 1444.02 215.665 1435.47 211.694C1426.91 207.723 1416.75 211.439 1412.78 219.994L1390.78 267.386Z" fill="url(#paint4_linear)" fill-opacity="0.25"/>
</g>
<g opacity="0.5">
<path fill-rule="evenodd" clip-rule="evenodd" d="M1311.11 370.806L1272.01 455.056C1266.11 467.761 1271.63 482.841 1284.33 488.739C1297.04 494.636 1312.12 489.118 1318.01 476.413L1357.12 392.163C1363.02 379.458 1357.5 364.378 1344.8 358.481C1332.09 352.583 1317.01 358.102 1311.11 370.806ZM1267.47 452.951C1260.41 468.16 1267.02 486.214 1282.23 493.274C1297.44 500.334 1315.49 493.728 1322.55 478.518L1361.66 394.268C1368.72 379.059 1362.11 361.006 1346.9 353.945C1331.69 346.885 1313.64 353.492 1306.58 368.701L1267.47 452.951Z" fill="#56CCF2"/>
<path fill-rule="evenodd" clip-rule="evenodd" d="M1311.11 370.806L1272.01 455.056C1266.11 467.761 1271.63 482.841 1284.33 488.739C1297.04 494.636 1312.12 489.118 1318.01 476.413L1357.12 392.163C1363.02 379.458 1357.5 364.378 1344.8 358.481C1332.09 352.583 1317.01 358.102 1311.11 370.806ZM1267.47 452.951C1260.41 468.16 1267.02 486.214 1282.23 493.274C1297.44 500.334 1315.49 493.728 1322.55 478.518L1361.66 394.268C1368.72 379.059 1362.11 361.006 1346.9 353.945C1331.69 346.885 1313.64 353.492 1306.58 368.701L1267.47 452.951Z" fill="url(#paint5_linear)" fill-opacity="0.25"/>
</g>
<g opacity="0.5">
<path fill-rule="evenodd" clip-rule="evenodd" d="M27.4465 312.297L10.2972 349.242C8.3639 353.407 10.1729 358.35 14.3377 360.283C18.5025 362.217 23.446 360.408 25.3793 356.243L42.5287 319.298C44.462 315.134 42.6529 310.19 38.4881 308.257C34.3233 306.323 29.3798 308.132 27.4465 312.297ZM5.76197 347.137C2.66602 353.806 5.56298 361.723 12.2325 364.819C18.9021 367.915 26.8186 365.018 29.9145 358.348L47.0639 321.404C50.1598 314.734 47.2629 306.818 40.5933 303.722C33.9238 300.626 26.0073 303.523 22.9113 310.192L5.76197 347.137Z" fill="#56CCF2"/>
<path fill-rule="evenodd" clip-rule="evenodd" d="M27.4465 312.297L10.2972 349.242C8.3639 353.407 10.1729 358.35 14.3377 360.283C18.5025 362.217 23.446 360.408 25.3793 356.243L42.5287 319.298C44.462 315.134 42.6529 310.19 38.4881 308.257C34.3233 306.323 29.3798 308.132 27.4465 312.297ZM5.76197 347.137C2.66602 353.806 5.56298 361.723 12.2325 364.819C18.9021 367.915 26.8186 365.018 29.9145 358.348L47.0639 321.404C50.1598 314.734 47.2629 306.818 40.5933 303.722C33.9238 300.626 26.0073 303.523 22.9113 310.192L5.76197 347.137Z" fill="url(#paint6_linear)" fill-opacity="0.25"/>
</g>
<g opacity="0.5">
<path fill-rule="evenodd" clip-rule="evenodd" d="M1243.77 86.704L1207.35 165.156C1201.94 176.815 1207 190.652 1218.66 196.064C1230.32 201.476 1244.16 196.412 1249.57 184.754L1285.98 106.301C1291.4 94.6431 1286.33 80.8053 1274.67 75.3937C1263.02 69.982 1249.18 75.0459 1243.77 86.704ZM1202.81 163.051C1196.24 177.214 1202.39 194.025 1216.55 200.599C1230.72 207.173 1247.53 201.022 1254.1 186.859L1290.52 108.406C1297.09 94.2436 1290.94 77.4328 1276.78 70.8585C1262.62 64.2842 1245.81 70.4359 1239.23 84.5988L1202.81 163.051Z" fill="black"/>
<path fill-rule="evenodd" clip-rule="evenodd" d="M1243.77 86.704L1207.35 165.156C1201.94 176.815 1207 190.652 1218.66 196.064C1230.32 201.476 1244.16 196.412 1249.57 184.754L1285.98 106.301C1291.4 94.6431 1286.33 80.8053 1274.67 75.3937C1263.02 69.982 1249.18 75.0459 1243.77 86.704ZM1202.81 163.051C1196.24 177.214 1202.39 194.025 1216.55 200.599C1230.72 207.173 1247.53 201.022 1254.1 186.859L1290.52 108.406C1297.09 94.2436 1290.94 77.4328 1276.78 70.8585C1262.62 64.2842 1245.81 70.4359 1239.23 84.5988L1202.81 163.051Z" fill="#03D542"/>
<path fill-rule="evenodd" clip-rule="evenodd" d="M1243.77 86.704L1207.35 165.156C1201.94 176.815 1207 190.652 1218.66 196.064C1230.32 201.476 1244.16 196.412 1249.57 184.754L1285.98 106.301C1291.4 94.6431 1286.33 80.8053 1274.67 75.3937C1263.02 69.982 1249.18 75.0459 1243.77 86.704ZM1202.81 163.051C1196.24 177.214 1202.39 194.025 1216.55 200.599C1230.72 207.173 1247.53 201.022 1254.1 186.859L1290.52 108.406C1297.09 94.2436 1290.94 77.4328 1276.78 70.8585C1262.62 64.2842 1245.81 70.4359 1239.23 84.5988L1202.81 163.051Z" fill="url(#paint7_linear)" fill-opacity="0.25"/>
</g>
<g opacity="0.5">
<path fill-rule="evenodd" clip-rule="evenodd" d="M1387.69 49.2101L1374.02 78.6559C1372.72 81.467 1373.94 84.8036 1376.75 86.1085C1379.56 87.4134 1382.9 86.1923 1384.2 83.3813L1397.87 53.9355C1399.18 51.1244 1397.95 47.7878 1395.14 46.4829C1392.33 45.178 1389 46.399 1387.69 49.2101ZM1369.49 76.5507C1367.02 81.8665 1369.33 88.1761 1374.64 90.6437C1379.96 93.1112 1386.27 90.8023 1388.74 85.4865L1402.41 56.0407C1404.87 50.7249 1402.56 44.4152 1397.25 41.9477C1391.93 39.4801 1385.62 41.7891 1383.16 47.1049L1369.49 76.5507Z" fill="black"/>
<path fill-rule="evenodd" clip-rule="evenodd" d="M1387.69 49.2101L1374.02 78.6559C1372.72 81.467 1373.94 84.8036 1376.75 86.1085C1379.56 87.4134 1382.9 86.1923 1384.2 83.3813L1397.87 53.9355C1399.18 51.1244 1397.95 47.7878 1395.14 46.4829C1392.33 45.178 1389 46.399 1387.69 49.2101ZM1369.49 76.5507C1367.02 81.8665 1369.33 88.1761 1374.64 90.6437C1379.96 93.1112 1386.27 90.8023 1388.74 85.4865L1402.41 56.0407C1404.87 50.7249 1402.56 44.4152 1397.25 41.9477C1391.93 39.4801 1385.62 41.7891 1383.16 47.1049L1369.49 76.5507Z" fill="#BC04FC"/>
<path fill-rule="evenodd" clip-rule="evenodd" d="M1387.69 49.2101L1374.02 78.6559C1372.72 81.467 1373.94 84.8036 1376.75 86.1085C1379.56 87.4134 1382.9 86.1923 1384.2 83.3813L1397.87 53.9355C1399.18 51.1244 1397.95 47.7878 1395.14 46.4829C1392.33 45.178 1389 46.399 1387.69 49.2101ZM1369.49 76.5507C1367.02 81.8665 1369.33 88.1761 1374.64 90.6437C1379.96 93.1112 1386.27 90.8023 1388.74 85.4865L1402.41 56.0407C1404.87 50.7249 1402.56 44.4152 1397.25 41.9477C1391.93 39.4801 1385.62 41.7891 1383.16 47.1049L1369.49 76.5507Z" fill="url(#paint8_linear)" fill-opacity="0.25"/>
</g>
<g opacity="0.5">
<path fill-rule="evenodd" clip-rule="evenodd" d="M239.856 238.751L203.439 317.203C198.027 328.861 203.091 342.699 214.749 348.111C226.408 353.522 240.245 348.459 245.657 336.8L282.074 258.348C287.486 246.69 282.422 232.852 270.764 227.441C259.105 222.029 245.268 227.093 239.856 238.751ZM198.904 315.098C192.33 329.261 198.481 346.072 212.644 352.646C226.807 359.22 243.618 353.069 250.192 338.906L286.609 260.453C293.183 246.29 287.032 229.48 272.869 222.905C258.706 216.331 241.895 222.483 235.321 236.646L198.904 315.098Z" fill="black"/>
<path fill-rule="evenodd" clip-rule="evenodd" d="M239.856 238.751L203.439 317.203C198.027 328.861 203.091 342.699 214.749 348.111C226.408 353.522 240.245 348.459 245.657 336.8L282.074 258.348C287.486 246.69 282.422 232.852 270.764 227.441C259.105 222.029 245.268 227.093 239.856 238.751ZM198.904 315.098C192.33 329.261 198.481 346.072 212.644 352.646C226.807 359.22 243.618 353.069 250.192 338.906L286.609 260.453C293.183 246.29 287.032 229.48 272.869 222.905C258.706 216.331 241.895 222.483 235.321 236.646L198.904 315.098Z" fill="#03D542"/>
<path fill-rule="evenodd" clip-rule="evenodd" d="M239.856 238.751L203.439 317.203C198.027 328.861 203.091 342.699 214.749 348.111C226.408 353.522 240.245 348.459 245.657 336.8L282.074 258.348C287.486 246.69 282.422 232.852 270.764 227.441C259.105 222.029 245.268 227.093 239.856 238.751ZM198.904 315.098C192.33 329.261 198.481 346.072 212.644 352.646C226.807 359.22 243.618 353.069 250.192 338.906L286.609 260.453C293.183 246.29 287.032 229.48 272.869 222.905C258.706 216.331 241.895 222.483 235.321 236.646L198.904 315.098Z" fill="url(#paint9_linear)" fill-opacity="0.25"/>
</g>
<g opacity="0.5">
<path fill-rule="evenodd" clip-rule="evenodd" d="M85.557 465.323L61.7417 516.628C58.6051 523.385 61.5401 531.406 68.2974 534.542C75.0546 537.679 83.0752 534.744 86.2119 527.987L110.027 476.682C113.164 469.925 110.229 461.904 103.472 458.768C96.7143 455.631 88.6937 458.566 85.557 465.323ZM57.2065 514.523C52.9072 523.785 56.9302 534.778 66.1922 539.078C75.4541 543.377 86.4478 539.354 90.7471 530.092L114.562 478.787C118.862 469.525 114.839 458.532 105.577 454.232C96.3147 449.933 85.3211 453.956 81.0218 463.218L57.2065 514.523Z" fill="black"/>
<path fill-rule="evenodd" clip-rule="evenodd" d="M85.557 465.323L61.7417 516.628C58.6051 523.385 61.5401 531.406 68.2974 534.542C75.0546 537.679 83.0752 534.744 86.2119 527.987L110.027 476.682C113.164 469.925 110.229 461.904 103.472 458.768C96.7143 455.631 88.6937 458.566 85.557 465.323ZM57.2065 514.523C52.9072 523.785 56.9302 534.778 66.1922 539.078C75.4541 543.377 86.4478 539.354 90.7471 530.092L114.562 478.787C118.862 469.525 114.839 458.532 105.577 454.232C96.3147 449.933 85.3211 453.956 81.0218 463.218L57.2065 514.523Z" fill="#BC04FC"/>
<path fill-rule="evenodd" clip-rule="evenodd" d="M85.557 465.323L61.7417 516.628C58.6051 523.385 61.5401 531.406 68.2974 534.542C75.0546 537.679 83.0752 534.744 86.2119 527.987L110.027 476.682C113.164 469.925 110.229 461.904 103.472 458.768C96.7143 455.631 88.6937 458.566 85.557 465.323ZM57.2065 514.523C52.9072 523.785 56.9302 534.778 66.1922 539.078C75.4541 543.377 86.4478 539.354 90.7471 530.092L114.562 478.787C118.862 469.525 114.839 458.532 105.577 454.232C96.3147 449.933 85.3211 453.956 81.0218 463.218L57.2065 514.523Z" fill="url(#paint10_linear)" fill-opacity="0.25"/>
</g>
<g opacity="0.5">
<path fill-rule="evenodd" clip-rule="evenodd" d="M418.831 403.223L407.303 428.056C406.385 430.035 407.244 432.383 409.223 433.301C411.201 434.22 413.549 433.36 414.468 431.382L425.995 406.548C426.914 404.57 426.054 402.221 424.076 401.303C422.098 400.385 419.749 401.244 418.831 403.223ZM402.768 425.951C400.687 430.434 402.634 435.755 407.117 437.836C411.601 439.917 416.922 437.97 419.003 433.487L430.531 408.653C432.612 404.17 430.664 398.849 426.181 396.768C421.698 394.687 416.377 396.634 414.296 401.117L402.768 425.951Z" fill="black"/>
<path fill-rule="evenodd" clip-rule="evenodd" d="M418.831 403.223L407.303 428.056C406.385 430.035 407.244 432.383 409.223 433.301C411.201 434.22 413.549 433.36 414.468 431.382L425.995 406.548C426.914 404.57 426.054 402.221 424.076 401.303C422.098 400.385 419.749 401.244 418.831 403.223ZM402.768 425.951C400.687 430.434 402.634 435.755 407.117 437.836C411.601 439.917 416.922 437.97 419.003 433.487L430.531 408.653C432.612 404.17 430.664 398.849 426.181 396.768C421.698 394.687 416.377 396.634 414.296 401.117L402.768 425.951Z" fill="#FCC304"/>
<path fill-rule="evenodd" clip-rule="evenodd" d="M418.831 403.223L407.303 428.056C406.385 430.035 407.244 432.383 409.223 433.301C411.201 434.22 413.549 433.36 414.468 431.382L425.995 406.548C426.914 404.57 426.054 402.221 424.076 401.303C422.098 400.385 419.749 401.244 418.831 403.223ZM402.768 425.951C400.687 430.434 402.634 435.755 407.117 437.836C411.601 439.917 416.922 437.97 419.003 433.487L430.531 408.653C432.612 404.17 430.664 398.849 426.181 396.768C421.698 394.687 416.377 396.634 414.296 401.117L402.768 425.951Z" fill="url(#paint11_linear)" fill-opacity="0.25"/>
</g>
<defs>
<linearGradient id="paint0_linear" x1="1155.01" y1="351.986" x2="1185.7" y2="366.236" gradientUnits="userSpaceOnUse">
<stop stop-color="white"/>
<stop offset="1" stop-color="white" stop-opacity="0"/>
</linearGradient>
<linearGradient id="paint1_linear" x1="169.023" y1="38.8261" x2="199.72" y2="53.0755" gradientUnits="userSpaceOnUse">
<stop stop-color="white"/>
<stop offset="1" stop-color="white" stop-opacity="0"/>
</linearGradient>
<linearGradient id="paint2_linear" x1="373.532" y1="25.5349" x2="389.768" y2="33.0715" gradientUnits="userSpaceOnUse">
<stop stop-color="white"/>
<stop offset="1" stop-color="white" stop-opacity="0"/>
</linearGradient>
<linearGradient id="paint3_linear" x1="939.532" y1="462.535" x2="955.768" y2="470.071" gradientUnits="userSpaceOnUse">
<stop stop-color="white"/>
<stop offset="1" stop-color="white" stop-opacity="0"/>
</linearGradient>
<linearGradient id="paint4_linear" x1="1401.78" y1="243.69" x2="1432.77" y2="258.072" gradientUnits="userSpaceOnUse">
<stop stop-color="white"/>
<stop offset="1" stop-color="white" stop-opacity="0"/>
</linearGradient>
<linearGradient id="paint5_linear" x1="1287.03" y1="410.826" x2="1342.1" y2="436.393" gradientUnits="userSpaceOnUse">
<stop stop-color="white"/>
<stop offset="1" stop-color="white" stop-opacity="0"/>
</linearGradient>
<linearGradient id="paint6_linear" x1="14.3367" y1="328.664" x2="38.4892" y2="339.876" gradientUnits="userSpaceOnUse">
<stop stop-color="white"/>
<stop offset="1" stop-color="white" stop-opacity="0"/>
</linearGradient>
<linearGradient id="paint7_linear" x1="1221.02" y1="123.825" x2="1272.31" y2="147.633" gradientUnits="userSpaceOnUse">
<stop stop-color="white"/>
<stop offset="1" stop-color="white" stop-opacity="0"/>
</linearGradient>
<linearGradient id="paint8_linear" x1="1376.32" y1="61.8278" x2="1395.57" y2="70.7636" gradientUnits="userSpaceOnUse">
<stop stop-color="white"/>
<stop offset="1" stop-color="white" stop-opacity="0"/>
</linearGradient>
<linearGradient id="paint9_linear" x1="217.112" y1="275.872" x2="268.401" y2="299.68" gradientUnits="userSpaceOnUse">
<stop stop-color="white"/>
<stop offset="1" stop-color="white" stop-opacity="0"/>
</linearGradient>
<linearGradient id="paint10_linear" x1="69.1142" y1="488.87" x2="102.655" y2="504.44" gradientUnits="userSpaceOnUse">
<stop stop-color="white"/>
<stop offset="1" stop-color="white" stop-opacity="0"/>
</linearGradient>
<linearGradient id="paint11_linear" x1="408.532" y1="413.534" x2="424.767" y2="421.07" gradientUnits="userSpaceOnUse">
<stop stop-color="white"/>
<stop offset="1" stop-color="white" stop-opacity="0"/>
</linearGradient>
</defs>
</svg>
