<svg width="15" height="15" viewBox="0 0 15 15" fill="none" xmlns="http://www.w3.org/2000/svg">
<path fill-rule="evenodd" clip-rule="evenodd" d="M12.8546 2.85463C12.9011 2.80814 12.938 2.75295 12.9632 2.69221C12.9883 2.63148 13.0013 2.56638 13.0013 2.50063C13.0013 2.43489 12.9883 2.36979 12.9632 2.30905C12.938 2.24831 12.9011 2.19312 12.8546 2.14663C12.8081 2.10014 12.753 2.06327 12.6922 2.03811C12.6315 2.01295 12.5664 2 12.5006 2C12.4349 2 12.3698 2.01295 12.309 2.03811C12.2483 2.06327 12.1931 2.10014 12.1466 2.14663L7.50063 6.79363L2.85463 2.14663C2.80814 2.10014 2.75295 2.06327 2.69221 2.03811C2.63148 2.01295 2.56638 2 2.50063 2C2.43489 2 2.36979 2.01295 2.30905 2.03811C2.24831 2.06327 2.19312 2.10014 2.14663 2.14663C2.10014 2.19312 2.06327 2.24831 2.03811 2.30905C2.01295 2.36979 2 2.43489 2 2.50063C2 2.56638 2.01295 2.63148 2.03811 2.69221C2.06327 2.75295 2.10014 2.80814 2.14663 2.85463L6.79363 7.50063L2.14663 12.1466C2.05274 12.2405 2 12.3679 2 12.5006C2 12.6334 2.05274 12.7607 2.14663 12.8546C2.24052 12.9485 2.36786 13.0013 2.50063 13.0013C2.63341 13.0013 2.76075 12.9485 2.85463 12.8546L7.50063 8.20763L12.1466 12.8546C12.2405 12.9485 12.3679 13.0013 12.5006 13.0013C12.6334 13.0013 12.7607 12.9485 12.8546 12.8546C12.9485 12.7607 13.0013 12.6334 13.0013 12.5006C13.0013 12.3679 12.9485 12.2405 12.8546 12.1466L8.20763 7.50063L12.8546 2.85463Z" fill="white"/>
</svg>
