<?xml version="1.0" standalone="no"?>
<!DOCTYPE svg PUBLIC "-//W3C//DTD SVG 20010904//EN"
 "http://www.w3.org/TR/2001/REC-SVG-20010904/DTD/svg10.dtd">
<svg version="1.0" xmlns="http://www.w3.org/2000/svg"
 width="50.000000pt" height="50.000000pt" viewBox="0 0 50.000000 50.000000"
 preserveAspectRatio="xMidYMid meet">

<g transform="translate(0.000000,50.000000) scale(0.100000,-0.100000)"
fill="#FF9C8E" stroke="none">
<path d="M152 453 c-67 -32 -122 -123 -122 -198 0 -115 110 -225 225 -225 77
0 167 56 200 125 9 20 15 39 12 41 -2 2 -26 -5 -52 -17 -151 -67 -303 85 -236
236 11 26 21 49 21 51 0 8 -15 3 -48 -13z m-2 -57 c-51 -136 110 -297 246
-246 37 15 39 8 7 -30 -53 -63 -145 -86 -221 -54 -142 59 -175 242 -62 337 38
32 45 30 30 -7z"/>
</g>
</svg>
