<?xml version="1.0" encoding="utf-8"?>
<!-- Generator: Adobe Illustrator 25.3.1, SVG Export Plug-In . SVG Version: 6.00 Build 0)  -->
<svg version="1.1" id="Слой_1" xmlns="http://www.w3.org/2000/svg" xmlns:xlink="http://www.w3.org/1999/xlink" x="0px" y="0px"
	 viewBox="0 0 15 25" style="enable-background:new 0 0 15 25;" xml:space="preserve">
<style type="text/css">
	.st0{fill:#D2EBFF;}
</style>
<path class="st0" d="M14.7,1.7c0-0.2-0.1-0.3-0.2-0.5C14.3,1.1,14.2,1,14,1h-3.3C9,0.9,7.3,1.5,6.1,2.6C4.8,3.7,4.1,5.3,4,7v3.6H0.7
	c-0.2,0-0.3,0.1-0.5,0.2C0.1,10.9,0,11.1,0,11.3v3.5c0,0.2,0.1,0.3,0.2,0.5c0.1,0.1,0.3,0.2,0.5,0.2H4v8.9c0,0.2,0.1,0.3,0.2,0.5
	c0.1,0,0.3,0.1,0.5,0.1h4c0.2,0,0.3-0.1,0.5-0.2c0.1-0.1,0.2-0.3,0.2-0.5v-8.9h3.5c0.1,0,0.3,0,0.4-0.1c0.1-0.1,0.2-0.2,0.2-0.4
	l1-3.5c0-0.1,0-0.2,0-0.3s-0.1-0.2-0.1-0.3c-0.1-0.1-0.1-0.1-0.2-0.2c-0.1,0-0.2-0.1-0.3-0.1H9.3V7c0-0.3,0.2-0.6,0.4-0.9
	c0.2-0.2,0.6-0.3,0.9-0.3H14c0.2,0,0.3-0.1,0.5-0.2c0.1-0.1,0.2-0.3,0.2-0.5V1.7z"/>
</svg>
