<?xml version="1.0" encoding="utf-8"?>
<!-- Generator: Adobe Illustrator 26.0.2, SVG Export Plug-In . SVG Version: 6.00 Build 0)  -->
<svg version="1.1" id="Layer_1" xmlns="http://www.w3.org/2000/svg" xmlns:xlink="http://www.w3.org/1999/xlink" x="0px" y="0px"
	 viewBox="0 0 32 32" style="enable-background:new 0 0 32 32;" xml:space="preserve">
<style type="text/css">
	.st0{clip-path:url(#SVGID_00000095335030313426394510000015167586014251781276_);}
	.st1{fill:#FFFFFF;}
</style>
<g>
	<defs>
		<rect id="SVGID_1_" y="0" width="32" height="32"/>
	</defs>
	<clipPath id="SVGID_00000045590166161429364850000009976133726477311926_">
		<use xlink:href="#SVGID_1_"  style="overflow:visible;"/>
	</clipPath>
	<g id="Icon-Burger-menu-hover" style="clip-path:url(#SVGID_00000045590166161429364850000009976133726477311926_);">
		<path id="Vector" class="st1" d="M4,22.7C4,23.4,4.6,24,5.3,24h9.3c0.7,0,1.3-0.6,1.3-1.3c0-0.7-0.6-1.3-1.3-1.3H5.3
			C4.6,21.3,4,21.9,4,22.7z M4,16c0,0.7,0.6,1.3,1.3,1.3h21.3c0.7,0,1.3-0.6,1.3-1.3c0-0.7-0.6-1.3-1.3-1.3H5.3
			C4.6,14.7,4,15.3,4,16z M5.3,8C4.6,8,4,8.6,4,9.3c0,0.7,0.6,1.3,1.3,1.3H20c0.7,0,1.3-0.6,1.3-1.3C21.3,8.6,20.7,8,20,8H5.3z"/>
	</g>
</g>
</svg>
