<?xml version="1.0" encoding="utf-8"?>
<!-- Generator: Adobe Illustrator 26.0.2, SVG Export Plug-In . SVG Version: 6.00 Build 0)  -->
<svg version="1.1" id="Layer_1" xmlns="http://www.w3.org/2000/svg" xmlns:xlink="http://www.w3.org/1999/xlink" x="0px" y="0px"
	 viewBox="0 0 24 24" style="enable-background:new 0 0 24 24;" xml:space="preserve">
<style type="text/css">
	.st0{fill:#FFFFFF;}
</style>
<g id="Icon-Close">
	<path id="Vector" class="st0" d="M19.2,6.4c0.4-0.4,0.4-1.2,0-1.6c-0.4-0.4-1.2-0.4-1.6,0L12,10.4L6.4,4.8C6,4.4,5.3,4.4,4.8,4.8
		C4.4,5.3,4.4,6,4.8,6.4l5.6,5.6l-5.6,5.6c-0.4,0.4-0.4,1.2,0,1.6c0.4,0.4,1.2,0.4,1.6,0l5.6-5.6l5.6,5.6c0.4,0.4,1.2,0.4,1.6,0
		s0.4-1.2,0-1.6L13.6,12L19.2,6.4z"/>
</g>
</svg>
