<?xml version="1.0" encoding="utf-8"?>
<!-- Generator: Adobe Illustrator 26.0.2, SVG Export Plug-In . SVG Version: 6.00 Build 0)  -->
<svg version="1.1" id="Layer_1" xmlns="http://www.w3.org/2000/svg" xmlns:xlink="http://www.w3.org/1999/xlink" x="0px" y="0px"
	 viewBox="0 0 32 32" style="enable-background:new 0 0 32 32;" xml:space="preserve">
<style type="text/css">
	.st0{fill:#D2EBFF;}
</style>
<path class="st0" d="M16,9.8c-3.4,0-6.2,2.7-6.2,6.2s2.7,6.2,6.2,6.2c3.4,0,6.2-2.7,6.2-6.2S19.4,9.8,16,9.8z M16,20
	c-2.2,0-4-1.8-4-4s1.8-4,4-4c2.2,0,4,1.8,4,4S18.2,20,16,20L16,20z M23.8,9.6c0,0.8-0.6,1.4-1.4,1.4c-0.8,0-1.4-0.6-1.4-1.4
	c0-0.8,0.6-1.4,1.4-1.4C23.2,8.2,23.8,8.8,23.8,9.6z M27.9,11.1c-0.1-1.9-0.5-3.6-1.9-5c-1.4-1.4-3.1-1.8-5-1.9C19,4,13,4,11.1,4.1
	C9.1,4.2,7.4,4.6,6,6c-1.4,1.4-1.8,3.1-1.9,5C4,13,4,19,4.1,20.9c0.1,1.9,0.5,3.6,1.9,5c1.4,1.4,3.1,1.8,5,1.9c2,0.1,7.9,0.1,9.9,0
	c1.9-0.1,3.6-0.5,5-1.9c1.4-1.4,1.8-3.1,1.9-5C28,19,28,13,27.9,11.1L27.9,11.1z M25.4,23.1c-0.4,1-1.2,1.9-2.3,2.3
	c-1.6,0.6-5.3,0.5-7.1,0.5c-1.7,0-5.5,0.1-7.1-0.5c-1-0.4-1.9-1.2-2.3-2.3C6,21.5,6.2,17.7,6.2,16S6,10.5,6.6,8.9
	c0.4-1,1.2-1.9,2.3-2.3C10.5,6,14.3,6.2,16,6.2c1.7,0,5.5-0.1,7.1,0.5c1,0.4,1.9,1.2,2.3,2.3c0.6,1.6,0.5,5.3,0.5,7.1
	S26,21.5,25.4,23.1z"/>
</svg>
