<svg aria-hidden="true" style="position: absolute; width: 0; height: 0; overflow: hidden;" version="1.1" xmlns="http://www.w3.org/2000/svg" xmlns:xlink="http://www.w3.org/1999/xlink">
<defs>
<symbol id="icon-facebook" viewBox="0 0 32 32">
<path d="M22.667 4.667c0-0.177-0.070-0.346-0.195-0.471s-0.295-0.195-0.471-0.195h-3.333c-1.678-0.084-3.322 0.501-4.571 1.625s-2.003 2.697-2.096 4.375v3.6h-3.333c-0.177 0-0.346 0.070-0.471 0.195s-0.195 0.295-0.195 0.471v3.467c0 0.177 0.070 0.346 0.195 0.471s0.295 0.195 0.471 0.195h3.333v8.933c0 0.177 0.070 0.346 0.195 0.471s0.295 0.195 0.471 0.195h4c0.177 0 0.346-0.070 0.471-0.195s0.195-0.295 0.195-0.471v-8.933h3.493c0.148 0.002 0.293-0.045 0.411-0.135s0.203-0.216 0.242-0.359l0.96-3.467c0.026-0.098 0.030-0.202 0.010-0.302s-0.062-0.194-0.124-0.275c-0.062-0.081-0.141-0.147-0.233-0.193s-0.192-0.069-0.294-0.070h-4.467v-3.6c0.033-0.33 0.188-0.636 0.435-0.858s0.567-0.344 0.899-0.342h3.333c0.177 0 0.346-0.070 0.471-0.195s0.195-0.295 0.195-0.471v-3.467z"></path>
</symbol>
<symbol id="icon-instagram" viewBox="0 0 32 32">
<path d="M16.003 9.847c-3.405 0-6.152 2.747-6.152 6.153s2.747 6.153 6.152 6.153c3.405 0 6.152-2.747 6.152-6.153s-2.747-6.153-6.152-6.153zM16.003 20c-2.201 0-4-1.794-4-4s1.794-4 4-4c2.206 0 4 1.794 4 4s-1.799 4-4 4zM23.841 9.595c0 0.798-0.642 1.435-1.435 1.435-0.798 0-1.435-0.643-1.435-1.435s0.642-1.435 1.435-1.435c0.793 0 1.435 0.643 1.435 1.435zM27.916 11.052c-0.091-1.923-0.53-3.626-1.938-5.029-1.403-1.403-3.105-1.842-5.028-1.939-1.981-0.112-7.919-0.112-9.9 0-1.917 0.091-3.619 0.53-5.028 1.933s-1.842 3.106-1.938 5.029c-0.112 1.982-0.112 7.921 0 9.902 0.091 1.923 0.53 3.626 1.938 5.029s3.105 1.842 5.028 1.939c1.981 0.112 7.919 0.112 9.9 0 1.922-0.091 3.625-0.53 5.028-1.939 1.403-1.403 1.842-3.106 1.938-5.029 0.112-1.981 0.112-7.915 0-9.897zM25.356 23.074c-0.418 1.050-1.226 1.858-2.281 2.281-1.579 0.627-5.327 0.482-7.073 0.482s-5.499 0.139-7.073-0.482c-1.049-0.418-1.858-1.226-2.281-2.281-0.626-1.58-0.482-5.329-0.482-7.074s-0.139-5.5 0.482-7.074c0.418-1.050 1.226-1.858 2.281-2.281 1.579-0.627 5.327-0.482 7.073-0.482s5.499-0.139 7.073 0.482c1.049 0.418 1.858 1.226 2.281 2.281 0.626 1.58 0.482 5.329 0.482 7.074s0.145 5.5-0.482 7.074z"></path>
</symbol>
<symbol id="icon-twitter" viewBox="0 0 32 32">
<path d="M10.772 26.667c1.972 0.066 3.936-0.264 5.778-0.97s3.524-1.775 4.946-3.142c1.422-1.367 2.555-3.006 3.333-4.819s1.185-3.763 1.196-5.736c0.904-1.118 1.575-2.406 1.973-3.787 0.030-0.109 0.027-0.225-0.007-0.332s-0.099-0.203-0.186-0.275c-0.087-0.072-0.194-0.117-0.306-0.13s-0.226 0.007-0.327 0.057c-0.473 0.228-1.005 0.301-1.521 0.21s-0.992-0.342-1.358-0.717c-0.468-0.513-1.034-0.926-1.665-1.216s-1.313-0.45-2.007-0.471c-0.694-0.021-1.385 0.097-2.032 0.348s-1.238 0.629-1.736 1.112c-0.682 0.661-1.182 1.487-1.451 2.398s-0.297 1.876-0.082 2.802c-4.467 0.267-7.533-1.853-9.987-4.76-0.074-0.083-0.17-0.144-0.277-0.173s-0.221-0.027-0.327 0.007c-0.106 0.034-0.2 0.098-0.27 0.184s-0.114 0.191-0.125 0.302c-0.467 2.593-0.13 5.266 0.966 7.661s2.9 4.398 5.167 5.739c-1.52 1.744-3.656 2.833-5.96 3.040-0.123 0.020-0.237 0.079-0.326 0.168s-0.147 0.202-0.168 0.326c-0.021 0.123-0.002 0.25 0.053 0.363s0.144 0.205 0.254 0.264c2.005 1.002 4.212 1.531 6.453 1.547z"></path>
</symbol>
</defs>
</svg>
