<svg width="24" height="24" viewBox="0 0 24 24" fill="none" xmlns="http://www.w3.org/2000/svg">
<rect width="24" height="24" fill="#E5E5E5"/>
<g id="Air Black" clip-path="url(#clip0_0_1)">
<rect width="320" height="8415" transform="translate(-148 -5001)" fill="#F2F6FA"/>
<g id="Testimonials">
<g id="Quote 1">
<g id="BG" filter="url(#filter0_d_0_1)">
<rect x="-128" y="-252" width="280" height="456" rx="16" fill="white"/>
</g>
<g id="Quote">
<g id="Group 19">
<path id="&#226;&#128;&#156;" d="M2 21.48C2 20.36 2 19.24 2 18.12C2 16.9533 2 15.81 2 14.69C2 11.0967 2.51333 8.27334 3.54 6.22C4.56667 4.16667 6.36333 3.09333 8.93 3L10.26 5.73C8.81333 5.87 7.81 6.57 7.25 7.83C6.73667 9.04333 6.48 10.98 6.48 13.64H10.19V21.48H2ZM14.32 21.48C14.32 20.36 14.32 19.24 14.32 18.12C14.32 16.9533 14.32 15.81 14.32 14.69C14.32 11.0967 14.8333 8.27334 15.86 6.22C16.8867 4.16667 18.6833 3.09333 21.25 3L22.58 5.73C21.1333 5.87 20.13 6.57 19.57 7.83C19.0567 9.04333 18.8 10.98 18.8 13.64H22.51V21.48H14.32Z" fill="$main-color"/>
</g>
</g>
</g>
</g>
</g>
<defs>
<filter id="filter0_d_0_1" x="-146" y="-261" width="316" height="492" filterUnits="userSpaceOnUse" color-interpolation-filters="sRGB">
<feFlood flood-opacity="0" result="BackgroundImageFix"/>
<feColorMatrix in="SourceAlpha" type="matrix" values="0 0 0 0 0 0 0 0 0 0 0 0 0 0 0 0 0 0 127 0" result="hardAlpha"/>
<feOffset dy="9"/>
<feGaussianBlur stdDeviation="9"/>
<feColorMatrix type="matrix" values="0 0 0 0 0.146146 0 0 0 0 0.158892 0 0 0 0 0.191667 0 0 0 0.03 0"/>
<feBlend mode="normal" in2="BackgroundImageFix" result="effect1_dropShadow_0_1"/>
<feBlend mode="normal" in="SourceGraphic" in2="effect1_dropShadow_0_1" result="shape"/>
</filter>
<clipPath id="clip0_0_1">
<rect width="320" height="8415" fill="white" transform="translate(-148 -5001)"/>
</clipPath>
</defs>
</svg>
