<svg width="32" height="32" viewBox="0 0 32 32" fill="none" xmlns="http://www.w3.org/2000/svg">
<g clip-path="url(#clip0_298_194)">
<path d="M10.7685 26.6651C12.7401 26.7311 14.7049 26.4011 16.5468 25.6948C18.3887 24.9885 20.0704 23.9201 21.4924 22.5528C22.9144 21.1856 24.0478 19.5471 24.8258 17.7343C25.6038 15.9215 26.0105 13.9711 26.0218 11.9984C26.9254 10.8803 27.5963 9.59287 27.9952 8.21176C28.0249 8.10265 28.0225 7.98725 27.9883 7.87946C27.954 7.77168 27.8892 7.67611 27.8019 7.60425C27.7145 7.5324 27.6083 7.48733 27.4959 7.47447C27.3835 7.46161 27.2698 7.4815 27.1685 7.53176C26.6958 7.7593 26.1636 7.8328 25.647 7.74191C25.1303 7.65101 24.6552 7.4003 24.2885 7.0251C23.8204 6.51254 23.2543 6.09914 22.6235 5.8094C21.9927 5.51966 21.3102 5.35948 20.6164 5.33834C19.9226 5.31721 19.2317 5.43554 18.5844 5.68635C17.9372 5.93715 17.3469 6.31531 16.8485 6.79843C16.1661 7.45931 15.6663 8.28549 15.3976 9.19666C15.1289 10.1078 15.1005 11.073 15.3152 11.9984C10.8485 12.2651 7.78184 10.1451 5.32851 7.23843C5.2548 7.15497 5.15839 7.09477 5.05104 7.06519C4.94369 7.03561 4.83006 7.03793 4.72401 7.07187C4.61795 7.10581 4.52408 7.16989 4.45385 7.25629C4.38361 7.3427 4.34006 7.44768 4.32851 7.55843C3.86113 10.151 4.19828 12.8245 5.29466 15.2199C6.39105 17.6152 8.19416 19.6177 10.4618 20.9584C8.94135 22.7022 6.80612 23.7913 4.50184 23.9984C4.37839 24.0189 4.26443 24.0775 4.17591 24.1659C4.08739 24.2544 4.02874 24.3683 4.00816 24.4917C3.98759 24.6151 4.00613 24.7419 4.06118 24.8543C4.11623 24.9667 4.20503 25.059 4.31517 25.1184C6.31987 26.1203 8.52748 26.6494 10.7685 26.6651" fill="#144ED4"/>
</g>
<defs>
<clipPath id="clip0_298_194">
<rect width="32" height="32" fill="white"/>
</clipPath>
</defs>
</svg>
