<?xml version="1.0" encoding="utf-8"?>
<!-- Generator: Adobe Illustrator 25.3.1, SVG Export Plug-In . SVG Version: 6.00 Build 0)  -->
<svg version="1.1" id="Слой_1" xmlns="http://www.w3.org/2000/svg" xmlns:xlink="http://www.w3.org/1999/xlink" x="0px" y="0px"
	 viewBox="0 0 25 22" style="enable-background:new 0 0 25 22;" xml:space="preserve">
<style type="text/css">
	.st0{fill:#D2EBFF;}
</style>
<path class="st0" d="M6.8,21.7c2,0.1,3.9-0.3,5.8-1c1.8-0.7,3.5-1.8,4.9-3.1c1.4-1.4,2.6-3,3.3-4.8S22,9,22,7c0.9-1.1,1.6-2.4,2-3.8
	c0-0.1,0-0.2,0-0.3s-0.1-0.2-0.2-0.3s-0.2-0.1-0.3-0.1c-0.1,0-0.2,0-0.3,0.1c-0.5,0.2-1,0.3-1.5,0.2s-1-0.3-1.4-0.7
	c-0.5-0.5-1-0.9-1.7-1.2c-0.6-0.3-1.3-0.4-2-0.5s-1.4,0.1-2,0.3C14,1,13.4,1.3,12.9,1.8c-0.7,0.7-1.2,1.5-1.5,2.4S11.1,6.1,11.3,7
	c-4.5,0.3-7.5-1.9-10-4.8c0,0-0.1-0.1-0.2-0.1s-0.2,0-0.3,0S0.6,2.2,0.5,2.3c-0.1,0-0.2,0.1-0.2,0.3c-0.5,2.6-0.1,5.3,1,7.7
	s2.9,4.4,5.2,5.7c-1.5,1.7-3.7,2.8-6,3c-0.1,0-0.2,0.1-0.3,0.2C0.1,19.3,0,19.4,0,19.5s0,0.3,0.1,0.4s0.1,0.2,0.3,0.3
	C2.3,21.1,4.5,21.7,6.8,21.7z"/>
</svg>
