<svg width="46" height="24" fill="none" xmlns="http://www.w3.org/2000/svg"><rect opacity=".1" width="46" height="24" rx="12" fill="#2060F6"/><path d="M10.987 12.138c0-1.5.269-2.674.806-3.523.546-.85 1.448-1.274 2.704-1.274 1.257 0 2.154.425 2.691 1.274.546.85.82 2.024.82 3.523 0 1.508-.274 2.691-.82 3.549-.537.858-1.434 1.287-2.69 1.287-1.257 0-2.159-.429-2.705-1.287-.537-.858-.806-2.041-.806-3.549Zm5.226 0c0-.641-.043-1.179-.13-1.612-.078-.442-.242-.802-.494-1.079-.242-.277-.606-.416-1.092-.416-.485 0-.853.139-1.105.416-.242.277-.407.637-.494 1.079-.078.433-.117.97-.117 1.612 0 .659.04 1.213.117 1.664.078.442.243.802.494 1.079.252.269.62.403 1.105.403.486 0 .854-.134 1.105-.403.252-.277.416-.637.494-1.079.078-.45.117-1.005.117-1.664Zm3.179 0c0-1.5.268-2.674.806-3.523.546-.85 1.447-1.274 2.704-1.274 1.256 0 2.153.425 2.69 1.274.547.85.82 2.024.82 3.523 0 1.508-.273 2.691-.82 3.549-.537.858-1.434 1.287-2.69 1.287-1.257 0-2.158-.429-2.704-1.287-.538-.858-.806-2.041-.806-3.549Zm5.226 0c0-.641-.044-1.179-.13-1.612-.078-.442-.243-.802-.494-1.079-.243-.277-.607-.416-1.092-.416-.486 0-.854.139-1.105.416-.243.277-.408.637-.494 1.079-.078.433-.117.97-.117 1.612 0 .659.039 1.213.117 1.664.078.442.242.802.494 1.079.251.269.62.403 1.105.403s.853-.134 1.105-.403c.251-.277.416-.637.494-1.079.078-.45.117-1.005.117-1.664Zm3.1 3.016v-1.43l4.25-6.084h2.12v5.928h1.144v1.586h-1.144V17h-1.82v-1.846h-4.55Zm4.667-5.564-2.665 3.978h2.665V9.59Z" fill="#2060F6"/></svg>