<svg width="49" height="25" fill="none" xmlns="http://www.w3.org/2000/svg"><path d="M.464 1.217h8.384c3.733 0 6.624.992 8.672 2.976 2.07 1.984 3.104 4.779 3.104 8.384 0 3.627-1.035 6.443-3.104 8.448-2.048 1.984-4.939 2.976-8.672 2.976H.464V1.217Zm8.128 19.424c5.248 0 7.872-2.688 7.872-8.064 0-5.333-2.624-8-7.872-8h-4v16.064h4Zm15.959-12.8h3.968v16.16h-3.968V7.841ZM28.743.513v3.936h-4.448V.513h4.448Zm19.608 7.328v16.16h-3.936v-2.592a5.295 5.295 0 0 1-2.112 2.112c-.918.49-1.963.736-3.136.736-1.408 0-2.656-.341-3.744-1.024s-1.93-1.653-2.528-2.912c-.598-1.259-.896-2.72-.896-4.384 0-1.664.298-3.136.896-4.416.618-1.301 1.472-2.304 2.56-3.008 1.088-.725 2.325-1.088 3.712-1.088 1.173 0 2.218.256 3.136.768a5.09 5.09 0 0 1 2.112 2.08V7.841h3.936Zm-8.096 13.28c1.322 0 2.346-.459 3.072-1.376.725-.917 1.088-2.208 1.088-3.872 0-1.707-.363-3.019-1.088-3.936-.726-.917-1.76-1.376-3.104-1.376-1.323 0-2.358.48-3.104 1.44-.726.939-1.088 2.25-1.088 3.936 0 1.664.362 2.944 1.088 3.84.746.896 1.792 1.344 3.136 1.344Z" fill="#fff"/></svg>