<svg width="67" height="30" viewBox="0 0 67 30" fill="none" xmlns="http://www.w3.org/2000/svg">
<rect y="28" width="67" height="2" rx="1" fill="#2060F6"/>
<path d="M8.8223 5.874V15H6.5993V11.243H3.1413V15H0.918305V5.874H3.1413V9.449H6.5993V5.874H8.8223ZM15.6501 5.874V15H13.4271V5.874H15.6501ZM24.9151 15L23.0171 11.555H22.4841V15H20.2611V5.874H23.9921C24.7114 5.874 25.3224 5.99967 25.8251 6.251C26.3364 6.50233 26.7177 6.849 26.9691 7.291C27.2204 7.72433 27.3461 8.20967 27.3461 8.747C27.3461 9.35367 27.1727 9.89533 26.8261 10.372C26.4881 10.8487 25.9854 11.1867 25.3181 11.386L27.4241 15H24.9151ZM22.4841 9.982H23.8621C24.2694 9.982 24.5727 9.88233 24.7721 9.683C24.9801 9.48367 25.0841 9.202 25.0841 8.838C25.0841 8.49133 24.9801 8.21833 24.7721 8.019C24.5727 7.81967 24.2694 7.72 23.8621 7.72H22.4841V9.982ZM33.9645 7.655V9.501H36.9415V11.217H33.9645V13.219H37.3315V15H31.7415V5.874H37.3315V7.655H33.9645ZM49.7136 5.874V11.334C49.7136 11.88 49.848 12.3003 50.1166 12.595C50.3853 12.8897 50.7796 13.037 51.2996 13.037C51.8196 13.037 52.2183 12.8897 52.4956 12.595C52.773 12.3003 52.9116 11.88 52.9116 11.334V5.874H55.1346V11.321C55.1346 12.1357 54.9613 12.8247 54.6146 13.388C54.268 13.9513 53.8 14.376 53.2106 14.662C52.63 14.948 51.98 15.091 51.2606 15.091C50.5413 15.091 49.8956 14.9523 49.3236 14.675C48.7603 14.389 48.314 13.9643 47.9846 13.401C47.6553 12.829 47.4906 12.1357 47.4906 11.321V5.874H49.7136ZM62.9976 15.091C62.3303 15.091 61.7323 14.9827 61.2036 14.766C60.675 14.5493 60.2503 14.2287 59.9296 13.804C59.6176 13.3793 59.453 12.868 59.4356 12.27H61.8016C61.8363 12.608 61.9533 12.868 62.1526 13.05C62.352 13.2233 62.612 13.31 62.9326 13.31C63.262 13.31 63.522 13.2363 63.7126 13.089C63.9033 12.933 63.9986 12.7207 63.9986 12.452C63.9986 12.2267 63.9206 12.0403 63.7646 11.893C63.6173 11.7457 63.431 11.6243 63.2056 11.529C62.989 11.4337 62.677 11.3253 62.2696 11.204C61.6803 11.022 61.1993 10.84 60.8266 10.658C60.454 10.476 60.1333 10.2073 59.8646 9.852C59.596 9.49667 59.4616 9.033 59.4616 8.461C59.4616 7.61167 59.7693 6.94867 60.3846 6.472C61 5.98667 61.8016 5.744 62.7896 5.744C63.795 5.744 64.6053 5.98667 65.2206 6.472C65.836 6.94867 66.1653 7.616 66.2086 8.474H63.8036C63.7863 8.17933 63.678 7.94967 63.4786 7.785C63.2793 7.61167 63.0236 7.525 62.7116 7.525C62.443 7.525 62.2263 7.59867 62.0616 7.746C61.897 7.88467 61.8146 8.08833 61.8146 8.357C61.8146 8.65167 61.9533 8.88133 62.2306 9.046C62.508 9.21067 62.9413 9.38833 63.5306 9.579C64.12 9.77833 64.5966 9.969 64.9606 10.151C65.3333 10.333 65.654 10.5973 65.9226 10.944C66.1913 11.2907 66.3256 11.737 66.3256 12.283C66.3256 12.803 66.1913 13.2753 65.9226 13.7C65.6626 14.1247 65.2813 14.4627 64.7786 14.714C64.276 14.9653 63.6823 15.091 62.9976 15.091Z" fill="white"/>
</svg>
