<svg width="32" height="32" fill="none" xmlns="http://www.w3.org/2000/svg"><path d="M16.003 9.847A6.143 6.143 0 0 0 9.85 16a6.143 6.143 0 0 0 6.152 6.153A6.143 6.143 0 0 0 22.155 16a6.143 6.143 0 0 0-6.152-6.153Zm0 10.153c-2.2 0-4-1.794-4-4s1.794-4 4-4 4 1.794 4 4-1.8 4-4 4ZM23.84 9.595c0 .798-.642 1.435-1.435 1.435a1.435 1.435 0 1 1 1.435-1.435Zm4.075 1.457c-.091-1.923-.53-3.626-1.939-5.029-1.402-1.403-3.105-1.842-5.027-1.939-1.981-.112-7.919-.112-9.9 0-1.917.091-3.62.53-5.027 1.934C4.614 7.42 4.18 9.124 4.084 11.046c-.112 1.982-.112 7.92 0 9.902.091 1.923.53 3.626 1.939 5.029 1.408 1.403 3.105 1.842 5.027 1.939 1.981.112 7.919.112 9.9 0 1.922-.091 3.625-.53 5.027-1.939 1.403-1.403 1.842-3.106 1.939-5.029.112-1.981.112-7.915 0-9.896Zm-2.56 12.022a4.05 4.05 0 0 1-2.28 2.282c-1.58.626-5.328.482-7.073.482-1.746 0-5.499.139-7.073-.482a4.05 4.05 0 0 1-2.281-2.282c-.626-1.58-.482-5.328-.482-7.074 0-1.746-.14-5.5.482-7.074a4.05 4.05 0 0 1 2.28-2.282c1.58-.626 5.328-.482 7.074-.482 1.745 0 5.498-.139 7.073.482a4.05 4.05 0 0 1 2.28 2.282c.627 1.58.482 5.328.482 7.074 0 1.746.145 5.5-.482 7.074Z" fill="#fff"/></svg>