<svg width="149" height="150" fill="none" xmlns="http://www.w3.org/2000/svg"><rect x="2" y="2" width="144.731" height="145.488" rx="22" fill="#2C2C2C"/><rect x="2" y="2" width="144.731" height="145.488" rx="22" stroke="#fff" stroke-width="4"/><path d="M50.205 82.809 60.44 60.702l10.235 22.107h-20.47Zm22.926 5.264 3.334 7.193h5.79l-19.066-40.94H57.69l-19.066 40.94h5.79l3.334-7.193H73.13ZM82.818 57.602c0 1.17.35 2.105 1.11 2.866.761.76 1.697 1.11 2.867 1.11 1.11 0 2.047-.35 2.807-1.11.76-.76 1.17-1.696 1.17-2.866 0-1.111-.41-2.047-1.17-2.807-.76-.76-1.696-1.17-2.807-1.17-1.17 0-2.106.41-2.866 1.17-.76.76-1.111 1.696-1.111 2.807Zm6.492 8.422h-5.03v29.242h5.03V66.024ZM99.739 70.41v-4.386h-4.854v29.242h5.03V81.64c0-1.637.116-3.1.409-4.503.234-1.345.702-2.515 1.403-3.51.702-.935 1.58-1.695 2.691-2.222 1.053-.526 2.456-.818 4.094-.818.526 0 .994.058 1.462.117.468.058.936.117 1.462.233v-5.322l-1.404-.175c-.468-.058-.994-.117-1.462-.117-2.105 0-3.86.468-5.322 1.345-1.462.877-2.632 2.106-3.509 3.743Z" fill="#fff"/></svg>