<svg width="32" height="32" fill="none" xmlns="http://www.w3.org/2000/svg"><g clip-path="url('#clip0_245_2093')"><path d="M10.768 26.665a14.76 14.76 0 0 0 15.254-14.667 10.786 10.786 0 0 0 1.973-3.786.588.588 0 0 0-.826-.68 2.507 2.507 0 0 1-2.88-.507 5.187 5.187 0 0 0-7.44-.227 5.507 5.507 0 0 0-1.534 5.2c-4.466.267-7.533-1.853-9.986-4.76a.573.573 0 0 0-1 .32 12.907 12.907 0 0 0 6.133 13.4 8.973 8.973 0 0 1-5.96 3.04.6.6 0 0 0-.187 1.12 14.665 14.665 0 0 0 6.453 1.547Z" fill="#fff"/></g><defs><clipPath id="clip0_245_2093"><path fill="#fff" d="M0 0h32v32H0z"/></clipPath></defs></svg>