<svg xmlns="http://www.w3.org/2000/svg" width="24" height="24" viewBox="0 0 24 24"><g><g><path fill="#2060f6" d="M18.155 12a6.143 6.143 0 0 1-6.152 6.153A6.143 6.143 0 0 1 5.85 12a6.143 6.143 0 0 1 6.152-6.153A6.143 6.143 0 0 1 18.155 12zm-2.153 0c0-2.206-1.793-4-4-4-2.205 0-3.999 1.794-3.999 4s1.8 4 4 4 4-1.794 4-4zm3.84-6.405c0 .798-.643 1.435-1.436 1.435a1.435 1.435 0 1 1 1.435-1.435zm4.074 11.353c-.097 1.923-.536 3.626-1.938 5.029-1.403 1.409-3.106 1.848-5.028 1.939-1.981.112-7.919.112-9.9 0-1.922-.097-3.62-.536-5.027-1.939C.614 20.574.175 18.871.084 16.948c-.112-1.981-.112-7.92 0-9.902.097-1.922.53-3.625 1.939-5.028C3.43.615 5.133.175 7.05.084c1.981-.112 7.919-.112 9.9 0 1.922.097 3.625.536 5.028 1.939 1.408 1.403 1.847 3.106 1.938 5.029.112 1.981.112 7.915 0 9.896zM21.838 12c0-1.746.145-5.495-.482-7.074a4.05 4.05 0 0 0-2.28-2.282c-1.575-.621-5.328-.482-7.073-.482-1.746 0-5.494-.144-7.073.482a4.05 4.05 0 0 0-2.281 2.282C2.028 6.5 2.167 10.254 2.167 12c0 1.746-.144 5.495.482 7.074a4.05 4.05 0 0 0 2.28 2.282c1.575.621 5.328.482 7.074.482 1.745 0 5.493.144 7.073-.482a4.05 4.05 0 0 0 2.28-2.282c.627-1.574.482-5.328.482-7.074z"/></g></g></svg>