<svg width="44.816406" height="25.631836" viewBox="0 0 44.8164 25.6318" fill="none" xmlns="http://www.w3.org/2000/svg" xmlns:xlink="http://www.w3.org/1999/xlink">
	<desc>
			Created with Pixso.
	</desc>
	<defs/>
	<path id="Air" d="M27.2031 2.44824C27.2031 3.16797 27.418 3.74414 27.8867 4.21191C28.3555 4.67969 28.9297 4.89648 29.6523 4.89648C30.3359 4.89648 30.9102 4.67969 31.3789 4.21191C31.8477 3.74414 32.0977 3.16797 32.0977 2.44824C32.0977 1.76367 31.8477 1.18848 31.3789 0.719727C30.9102 0.251953 30.3359 0 29.6523 0C28.9297 0 28.3555 0.251953 27.8867 0.719727C27.418 1.18848 27.2031 1.76367 27.2031 2.44824ZM21.2383 21.2041L23.293 25.6318L26.8555 25.6318L15.1211 0.431641L11.7344 0.431641L0 25.6318L3.5625 25.6318L5.61719 21.2041L21.2383 21.2041ZM7.12891 17.9639L13.4297 4.35645L19.7266 17.9639L7.12891 17.9639ZM37.6172 7.63184L37.6172 10.332C38.1602 9.32422 38.8789 8.56836 39.7773 8.02832C40.6797 7.48828 41.7578 7.2002 43.0547 7.2002C43.3438 7.2002 43.668 7.23633 43.9531 7.27246L44.8164 7.37988L44.8164 10.6562C44.4961 10.584 44.207 10.5479 43.918 10.5117C43.6289 10.4756 43.3438 10.4404 43.0195 10.4404C42.0117 10.4404 41.1445 10.6201 40.5 10.9443C39.8125 11.2676 39.2734 11.7363 38.8438 12.3115C38.4102 12.9238 38.1211 13.6436 37.9766 14.4717C37.7969 15.3359 37.7266 16.2363 37.7266 17.2441L37.7266 25.6318L34.6289 25.6318L34.6289 7.63184L37.6172 7.63184ZM31.1992 7.63184L28.1016 7.63184L28.1016 25.6318L31.1992 25.6318L31.1992 7.63184Z" fill="#FFFFFF" fill-opacity="1.000000" fill-rule="evenodd"/>
</svg>
