<svg width="60" height="28" viewBox="0 0 60 28" fill="none" xmlns="http://www.w3.org/2000/svg">
<path d="M11.2961 0H0V28H11.2961C19.7582 28 25.7456 22.16 25.7456 14C25.7456 5.8 19.7582 0 11.2961 0ZM10.9369 20.96H7.74363V7.08H10.9369C15.0881 7.08 17.8423 9.84 17.8423 14C17.8423 18.12 15.0881 20.96 10.9369 20.96Z" fill="white"/>
<path d="M24.7523 28H32.5758V0H24.7523V28Z" fill="white"/>
<path d="M51.498 28H60L48.7837 0H41.2397L30.2629 28H38.5254L40.0821 23.48H49.9812L51.498 28ZM48.1052 17.44H41.9582L44.9917 8.76L48.1052 17.44Z" fill="white"/>
</svg>
