<?xml version="1.0" standalone="no"?>
<!DOCTYPE svg PUBLIC "-//W3C//DTD SVG 20010904//EN"
 "http://www.w3.org/TR/2001/REC-SVG-20010904/DTD/svg10.dtd">
<svg version="1.0" xmlns="http://www.w3.org/2000/svg"
 width="300.000000pt" height="300.000000pt" viewBox="0 0 300.000000 300.000000"
 preserveAspectRatio="xMidYMid meet">
<metadata>
Created by potrace 1.14, written by Peter Selinger 2001-2017
</metadata>
<g transform="translate(0.000000,300.000000) scale(0.100000,-0.100000)"
fill="#000000" stroke="none">
<path d="M750 2339 c0 -5 5 -7 10 -4 6 3 10 8 10 11 0 2 -4 4 -10 4 -5 0 -10
-5 -10 -11z"/>
<path d="M778 2333 c-8 -10 -8 -17 1 -26 10 -9 11 -9 8 3 -2 8 -2 12 0 7 3 -4
9 -5 14 -1 5 3 9 1 9 -4 0 -17 -32 -23 -48 -10 -13 11 -14 11 -7 -1 6 -11 4
-13 -9 -8 -10 4 -15 3 -11 -3 3 -6 0 -10 -7 -10 -9 0 -9 -3 2 -10 11 -7 19 -5
28 7 16 23 15 12 -3 -23 -8 -16 -15 -23 -15 -16 0 20 -17 14 -35 -14 -13 -20
-14 -29 -5 -38 8 -8 10 -7 7 4 -2 8 -2 11 1 7 2 -4 11 -2 20 5 12 8 11 5 -2
-10 -11 -12 -26 -20 -33 -17 -8 2 -12 1 -8 -4 3 -5 2 -11 -2 -14 -5 -2 -3 -2
4 -1 6 2 11 -6 10 -16 -1 -10 -5 -16 -9 -14 -4 3 -8 -2 -8 -10 0 -8 6 -14 13
-12 6 1 9 1 4 -1 -4 -3 -4 -10 -1 -15 5 -7 2 -8 -6 -3 -10 6 -12 4 -7 -9 5
-11 3 -15 -5 -10 -8 5 -9 2 -5 -10 5 -11 3 -15 -5 -10 -7 5 -9 2 -5 -8 4 -12
1 -14 -16 -10 -12 3 -16 7 -9 10 7 2 9 9 6 14 -4 7 -2 8 4 4 7 -4 12 -3 12 3
0 5 -8 9 -18 8 -14 -1 -18 -8 -16 -26 4 -36 -14 -55 -35 -39 -14 12 -14 11 -2
-4 11 -15 11 -18 0 -18 -12 0 -12 -2 0 -9 8 -5 19 -8 25 -7 6 1 1 -2 -12 -8
-12 -6 -20 -16 -18 -23 3 -7 1 -15 -4 -18 -5 -3 -8 -22 -6 -42 2 -31 1 -33
-10 -18 -8 10 -11 22 -7 28 3 6 1 7 -5 3 -6 -4 -9 -13 -6 -21 9 -24 -5 -38
-24 -23 -15 11 -15 11 -4 -3 18 -23 24 -59 9 -56 -7 1 -12 -7 -12 -18 -1 -11
-5 -27 -10 -35 -13 -21 -15 -40 -4 -40 6 0 7 -4 4 -10 -3 -5 -14 -10 -23 -10
-10 0 -13 3 -7 8 10 7 19 32 11 32 -2 0 -11 -12 -21 -26 -9 -15 -13 -24 -8
-21 5 3 15 2 23 -4 12 -7 11 -9 -5 -10 -11 -1 -24 -1 -28 0 -4 1 -15 -5 -23
-14 -9 -8 -11 -15 -5 -15 17 0 26 4 24 12 -2 5 6 5 36 -1 2 -1 -2 -8 -9 -16
-7 -8 -16 -13 -20 -10 -5 3 -11 1 -15 -5 -3 -5 2 -10 12 -11 15 0 14 -2 -3 -9
-12 -5 -25 -13 -28 -19 -4 -6 -13 -8 -21 -5 -8 4 -12 11 -8 17 4 6 1 7 -7 2
-10 -6 -9 -11 5 -21 10 -7 22 -11 26 -8 5 3 9 1 9 -4 0 -11 -30 -26 -43 -23
-5 1 -6 -3 -3 -8 4 -5 -2 -14 -11 -20 -16 -9 -14 -11 15 -11 4 0 7 5 7 10 0 6
5 10 10 10 6 0 10 -8 10 -17 -1 -10 -7 -17 -14 -15 -9 2 -11 -3 -7 -15 4 -9 4
-14 0 -11 -3 4 -13 1 -21 -7 -17 -18 -37 -20 -27 -3 4 7 3 8 -5 4 -9 -6 -9
-11 -1 -21 7 -8 8 -20 4 -26 -5 -9 -2 -10 12 -6 18 7 18 6 -1 -9 -11 -8 -19
-21 -17 -29 1 -7 -1 -16 -5 -18 -5 -3 -8 8 -8 23 -1 16 2 27 6 24 10 -6 5 24
-6 33 -4 4 -5 3 -1 -4 3 -6 2 -14 -4 -18 -6 -4 -8 -10 -5 -15 3 -5 -5 -16 -17
-26 -15 -11 -17 -14 -6 -11 12 4 18 1 18 -9 0 -8 -4 -13 -9 -9 -5 3 -13 0 -17
-6 -4 -8 -3 -9 4 -5 7 4 12 4 13 -1 0 -4 2 -18 5 -30 2 -12 -1 -25 -6 -28 -6
-3 -10 -11 -10 -16 0 -6 4 -8 9 -4 5 3 12 1 16 -4 3 -6 -5 -8 -19 -5 -14 2
-28 0 -31 -6 -4 -6 -12 -7 -18 -3 -8 5 -8 2 0 -9 7 -8 9 -19 5 -23 -4 -5 -1
-5 6 -1 7 4 9 12 6 18 -5 7 -2 8 6 3 9 -6 11 -4 5 6 -8 12 -6 12 8 0 9 -7 17
-19 16 -25 0 -7 -2 -6 -6 1 -3 10 -9 9 -21 -3 -14 -15 -17 -15 -27 0 -7 9 -16
16 -21 16 -4 0 -3 -5 4 -12 21 -21 13 -32 -10 -12 l-23 19 18 -22 c11 -12 26
-20 35 -17 10 3 6 -1 -6 -8 -20 -10 -23 -17 -18 -42 3 -17 3 -26 -2 -21 -18
25 -40 36 -48 24 -4 -8 -3 -9 4 -5 7 4 18 -6 27 -25 9 -17 12 -29 7 -25 -5 3
-15 -1 -21 -8 -10 -11 -8 -17 6 -26 17 -11 17 -11 -1 -6 -14 5 -17 2 -12 -9 3
-9 2 -13 -4 -10 -5 3 -14 -4 -20 -15 -6 -11 -20 -20 -30 -20 -11 0 -20 -5 -20
-11 0 -5 5 -7 10 -4 7 4 9 -3 6 -19 -2 -13 1 -27 7 -30 7 -3 5 -4 -4 -3 -22 3
-74 -59 -58 -69 8 -5 9 -3 4 6 -5 8 -3 11 5 8 16 -5 24 -48 9 -48 -5 0 -7 6
-3 13 4 6 4 9 -1 5 -4 -4 -14 -3 -22 4 -10 8 -17 8 -24 1 -8 -8 -6 -11 6 -10
10 1 20 -3 22 -9 2 -6 -7 -10 -19 -10 -13 1 -22 -4 -21 -11 2 -7 0 -13 -5 -13
-4 0 -7 -22 -7 -50 l0 -49 144 0 c84 0 139 4 131 9 -8 5 -17 7 -20 5 -4 -2 -7
2 -7 10 0 9 5 11 11 7 6 -5 18 -8 26 -7 8 0 18 -4 22 -10 5 -7 8 -6 8 1 0 6
-7 17 -15 24 -11 9 -12 17 -4 31 5 11 14 17 18 15 4 -3 8 1 8 8 0 21 -25 7
-34 -17 -4 -12 -6 -25 -5 -30 4 -14 -16 -7 -22 9 -4 10 -2 13 6 8 8 -5 9 -2 5
10 -4 10 -1 19 8 22 8 4 13 10 10 14 -3 5 0 12 6 16 8 4 9 3 5 -4 -5 -8 -1
-10 10 -5 15 5 15 7 0 15 -22 12 -20 28 3 28 12 0 23 11 30 31 9 27 13 29 33
19 21 -10 21 -10 6 3 -21 17 -24 31 -5 24 8 -3 14 1 14 9 0 7 -5 11 -10 7 -5
-3 -4 4 3 16 6 12 15 19 21 16 5 -4 9 0 9 7 0 10 2 10 9 -1 6 -9 11 -10 15 -3
8 14 36 4 32 -11 -1 -7 -1 -9 1 -4 3 4 9 5 14 2 5 -4 6 0 4 7 -4 9 2 14 15 15
11 1 20 -3 20 -8 0 -6 -4 -8 -9 -5 -11 7 -8 -20 3 -31 4 -4 6 -2 4 6 -2 7 3
16 11 19 8 3 11 0 7 -6 -7 -12 13 -10 49 4 18 7 19 6 5 -11 -13 -17 -13 -18 0
-10 8 6 18 10 23 10 11 0 9 20 -3 20 -5 0 -14 6 -20 13 -7 9 -7 9 2 2 8 -7 18
-4 30 7 10 9 18 11 18 5 0 -6 -4 -12 -8 -14 -4 -1 -2 -14 5 -28 l14 -25 -3 25
c-3 25 2 27 36 14 15 -6 18 -4 12 7 -4 8 5 1 19 -16 19 -21 24 -24 16 -8 -14
28 -14 30 4 30 8 0 12 -4 10 -8 -3 -4 2 -10 11 -13 8 -3 12 -10 9 -16 -4 -6 1
-7 11 -3 13 5 15 3 9 -7 -6 -9 -4 -11 5 -5 10 6 7 12 -11 26 -13 10 -19 19
-14 20 6 0 18 2 28 4 11 2 17 -1 14 -9 -6 -14 30 -19 38 -5 4 5 -2 6 -12 2
-10 -3 -15 -3 -11 1 11 12 69 14 64 2 -2 -6 -8 -10 -13 -9 -5 1 -10 -4 -10
-12 0 -8 5 -11 11 -7 6 3 17 7 25 9 7 1 19 7 25 13 8 8 6 9 -9 5 -15 -5 -17
-4 -6 3 17 12 43 4 34 -11 -3 -6 -1 -7 5 -3 11 7 17 -6 13 -27 -1 -5 3 -6 9
-2 7 4 7 12 0 25 -13 25 -13 26 10 27 11 1 20 -3 20 -8 0 -6 -4 -7 -10 -4 -6
4 -7 -1 -3 -11 4 -11 8 -13 11 -6 2 7 8 12 13 12 6 0 7 -5 3 -12 -4 -7 -3 -8
5 -4 8 6 9 12 2 20 -8 9 -6 12 9 11 21 -1 41 -15 22 -15 -7 0 -12 -8 -12 -17
0 -15 2 -16 10 -3 9 14 14 7 11 -13 -1 -5 3 -6 9 -2 8 5 8 11 0 20 -9 11 -7
14 9 12 12 -1 21 -7 21 -14 0 -7 4 -13 10 -13 5 0 7 7 3 15 -6 17 16 17 30 0
5 -6 7 -4 4 5 -2 8 -10 14 -16 12 -7 -1 -10 2 -6 8 4 6 16 5 35 -5 17 -9 33
-16 37 -18 5 -1 7 -5 6 -9 -2 -4 4 -5 13 -1 15 5 15 7 0 15 -20 11 -21 25 -1
25 8 0 12 -4 10 -8 -3 -4 2 -10 11 -13 8 -3 12 -2 9 4 -3 6 -1 11 4 11 21 3
26 4 39 12 14 9 13 -14 -1 -24 -5 -3 -1 -9 8 -12 9 -4 13 -3 10 3 -3 6 -1 10
5 10 6 0 8 5 5 10 -4 6 4 5 19 -1 14 -7 28 -20 31 -29 3 -9 21 -23 40 -30 19
-8 35 -18 35 -22 0 -5 4 -7 9 -3 6 3 15 -4 21 -15 6 -11 8 -20 4 -20 -4 0 0
-8 10 -19 18 -20 15 -39 -18 -86 -14 -21 -15 -26 -4 -17 18 15 25 7 23 -25 -2
-21 0 -21 159 -20 89 0 155 2 149 4 -16 6 -17 33 -1 33 6 0 9 2 6 5 -8 8 -39
-6 -33 -15 3 -5 1 -11 -4 -14 -5 -4 -12 -2 -16 4 -4 6 -11 8 -16 5 -5 -4 -9
-1 -9 5 0 7 7 10 18 6 14 -5 13 -3 -3 10 -11 8 -19 22 -17 31 2 10 -1 12 -10
7 -7 -4 -10 -4 -6 1 4 4 2 15 -5 24 -11 14 -10 14 6 2 23 -18 22 -6 -4 29 -20
26 -20 30 -7 44 9 8 19 12 23 8 5 -4 5 -1 1 6 -6 9 -12 9 -29 0 -21 -10 -21
-10 -7 7 16 20 22 75 7 72 -5 -1 -11 6 -12 16 -5 26 -11 31 -19 12 -3 -9 -2
-14 2 -11 5 3 9 -1 9 -8 0 -8 -6 -12 -12 -10 -6 3 -12 18 -12 34 0 16 3 27 7
25 4 -2 7 2 7 10 0 12 -4 12 -19 -2 -12 -11 -15 -19 -7 -23 7 -5 4 -10 -7 -14
-10 -4 -15 -4 -11 0 4 4 1 14 -6 22 -6 9 -7 13 -2 10 6 -4 17 2 23 13 12 19
11 19 -8 9 -12 -6 -24 -10 -26 -7 -2 2 7 10 21 17 14 7 25 17 25 22 0 5 -4 7
-9 4 -5 -3 -14 0 -20 8 -9 11 -9 15 1 20 7 3 3 3 -9 0 -16 -4 -23 -1 -23 10 0
10 6 13 18 9 14 -5 13 -3 -3 10 -17 14 -18 18 -5 27 12 9 12 10 -5 8 -16 -2
-20 3 -20 23 1 14 -5 26 -11 26 -7 0 -12 -8 -11 -18 1 -10 5 -15 9 -13 5 3 7
2 6 -3 -1 -4 3 -18 10 -30 11 -19 9 -24 -10 -33 -21 -10 -21 -10 -6 3 17 13
17 15 -2 37 -11 12 -17 27 -13 33 4 7 0 8 -12 3 -13 -5 -15 -3 -8 6 16 21 24
50 12 42 -7 -4 -10 -1 -7 7 3 8 11 13 17 11 7 -1 10 2 6 8 -5 8 -12 7 -22 -2
-14 -11 -15 -10 -9 10 4 12 3 22 -2 22 -11 0 -9 -32 3 -65 4 -11 -2 -6 -12 10
-11 17 -17 32 -14 35 13 10 5 33 -14 42 -15 6 -13 7 10 3 28 -5 29 -4 12 9
-11 8 -25 12 -33 9 -8 -3 -14 0 -14 5 0 6 12 9 28 6 l27 -4 -25 15 c-14 8 -19
14 -12 15 6 0 12 5 12 11 0 5 -4 7 -10 4 -5 -3 -10 0 -11 7 -1 7 -5 2 -9 -12
-5 -14 -8 -18 -9 -9 -1 9 -7 29 -15 44 -8 15 -12 35 -8 44 5 14 3 14 -10 3
-11 -9 -18 -10 -23 -2 -4 6 -1 9 6 8 6 -2 14 3 16 10 3 7 1 12 -4 11 -21 -4
-33 2 -33 18 0 15 2 14 16 -3 15 -18 15 -18 8 5 -3 14 -2 21 3 18 5 -4 10 0
10 7 0 7 -6 13 -13 13 -7 0 -11 -3 -9 -7 2 -4 -2 -7 -10 -7 -22 0 -18 12 8 26
21 11 21 11 -6 8 -15 -3 -30 0 -34 6 -3 6 -1 7 5 3 7 -4 12 -1 12 8 0 8 -4 18
-10 21 -5 3 -10 11 -10 16 0 6 6 7 13 2 16 -10 41 -14 32 -5 -4 4 -12 7 -18 7
-7 1 -11 7 -9 15 2 8 0 12 -3 8 -4 -4 -17 -3 -29 3 -19 9 -19 9 -4 -4 10 -8
15 -17 11 -20 -3 -4 0 -13 7 -22 8 -10 9 -15 1 -15 -6 0 -13 11 -17 25 -3 14
-10 23 -14 20 -5 -3 -7 3 -6 12 2 10 8 18 14 18 6 0 14 4 19 9 4 5 3 6 -3 3
-7 -4 -14 0 -17 7 -3 8 -3 17 1 19 4 2 1 2 -5 1 -7 -2 -13 1 -13 5 0 5 6 12
13 14 9 4 8 6 -2 6 -11 1 -11 4 -1 17 11 12 11 15 -1 12 -8 -2 -13 3 -11 10 1
8 -2 11 -8 7 -12 -7 -9 23 5 45 7 12 6 13 -7 3 -8 -7 -19 -9 -24 -5 -4 4 -2
-1 5 -10 9 -12 10 -18 2 -18 -10 0 -13 7 -10 26 0 4 -5 11 -13 16 -9 7 -7 9 8
5 12 -2 21 1 21 8 0 9 -8 10 -29 4 -16 -4 -26 -4 -23 1 7 11 -20 32 -30 22 -4
-4 -3 2 2 13 6 11 8 26 5 34 -2 8 0 11 5 8 5 -3 10 0 10 8 0 8 -4 12 -9 9 -4
-3 -8 0 -8 5 0 6 -5 11 -11 11 -8 0 -8 -5 1 -15 7 -8 8 -15 4 -15 -5 0 -15 9
-22 21 -8 12 -9 18 -3 15 7 -4 10 6 9 29 -1 19 -5 35 -10 35 -5 0 -6 5 -2 12
4 7 3 8 -4 4 -6 -4 -9 -13 -5 -21 6 -17 -22 -21 -32 -5 -3 5 0 7 7 5 21 -8 16
39 -6 64 -11 12 -14 21 -8 21 7 0 12 4 12 8 0 5 -6 9 -13 9 -19 0 -17 -29 2
-45 14 -11 13 -11 -6 -2 -16 7 -22 17 -19 33 3 12 5 26 5 30 1 5 6 5 13 1 7
-4 8 -3 4 5 -6 9 -11 9 -22 0 -12 -10 -15 -10 -12 2 2 8 -3 13 -11 11 -12 -3
-12 0 -1 12 10 13 10 19 -1 33 -8 10 -9 14 -2 10 6 -4 14 -3 18 3 5 9 -15 15
-38 11 -5 -1 -6 3 -2 9 6 9 -8 15 -29 11 -5 -1 -4 4 2 12 7 8 8 18 4 22 -4 5
-1 5 6 1 7 -4 10 -12 7 -17 -3 -5 2 -6 11 -2 11 4 15 3 10 -5 -3 -6 -2 -13 3
-16 5 -4 8 1 7 10 -1 8 -8 19 -15 24 -11 6 -11 9 0 13 8 3 3 4 -11 2 -14 -2
-29 -4 -33 -4 -5 -1 -6 -5 -3 -9 2 -4 -4 -8 -15 -8 -17 0 -18 2 -6 11 8 5 14
14 15 18 0 5 4 12 8 15 4 4 4 1 -1 -7 -5 -9 -4 -12 3 -7 13 8 -5 46 -22 46 -4
0 -3 -7 4 -15 11 -13 10 -14 -4 -9 -11 4 -15 13 -11 25 4 11 2 19 -4 19 -6 0
-11 -6 -11 -12 0 -10 -2 -10 -8 0 -12 18 -168 13 -184 -5z m49 -15 c-3 -8 -6
-5 -6 6 -1 11 2 17 5 13 3 -3 4 -12 1 -19z m123 -12 c0 -2 -7 -7 -16 -10 -8
-3 -12 -2 -9 4 6 10 25 14 25 6z m-110 -22 c0 -8 -19 -13 -24 -6 -3 5 1 9 9 9
8 0 15 -2 15 -3z m-35 -13 c3 -5 0 -13 -6 -17 -7 -4 -9 -3 -5 4 3 5 0 13 -6
15 -9 4 -10 6 -1 6 6 1 14 -3 18 -8z m-84 -54 c-10 -9 -11 -8 -5 6 3 10 9 15
12 12 3 -3 0 -11 -7 -18z m421 -189 c-7 -7 -12 -8 -12 -2 0 14 12 26 19 19 2
-3 -1 -11 -7 -17z m-492 -28 c-35 -24 -54 -31 -30 -11 14 11 30 21 35 21 6 0
3 -5 -5 -10z m220 -40 c0 -5 -5 -10 -11 -10 -5 0 -8 -4 -4 -10 3 -5 13 -7 23
-4 14 5 14 4 2 -4 -8 -6 -18 -8 -22 -6 -4 3 -8 1 -8 -4 0 -5 -7 -9 -15 -9 -21
0 -19 17 3 18 9 0 12 3 5 6 -10 3 -10 7 0 18 14 17 27 19 27 5z m77 -4 c5 -4
4 -7 -2 -6 -19 4 -35 0 -35 -9 0 -6 9 -8 20 -6 11 2 23 -1 26 -7 4 -7 2 -8 -4
-4 -14 8 -15 5 -5 -19 5 -15 8 -14 20 6 13 24 13 24 7 -6 -4 -24 -3 -27 6 -15
10 13 11 12 6 -3 -3 -10 2 -25 13 -36 16 -16 17 -20 5 -25 -8 -3 -13 -2 -10 2
7 12 -31 58 -41 49 -4 -5 2 -16 14 -25 14 -12 20 -26 18 -45 l-4 -28 20 23
c11 13 17 16 13 8 -14 -25 -13 -39 2 -33 10 4 12 0 8 -11 -3 -9 -10 -14 -14
-11 -5 3 -12 1 -15 -5 -4 -6 -1 -9 7 -8 8 2 12 -5 10 -17 -2 -15 -1 -17 7 -6
6 9 15 11 27 6 11 -5 26 -7 34 -6 12 1 13 0 1 -7 -16 -11 -7 -33 12 -28 7 1 9
1 4 -1 -4 -3 -5 -8 -3 -12 3 -4 -1 -8 -9 -8 -8 0 -12 4 -9 9 3 4 -2 5 -12 1
-14 -5 -13 -8 7 -19 13 -7 27 -10 31 -8 5 3 8 0 8 -5 0 -6 -4 -11 -8 -11 -4 0
-8 -9 -9 -21 -2 -16 1 -18 12 -9 10 8 15 8 21 -1 4 -7 3 -9 -3 -6 -6 4 -19 -3
-29 -15 -19 -21 -19 -21 6 -8 23 12 24 12 11 -3 -16 -20 -1 -23 18 -4 11 10
11 8 0 -10 -10 -17 -17 -20 -32 -11 -10 5 -21 7 -24 5 -2 -3 5 -8 16 -12 12
-3 21 -11 21 -16 0 -5 5 -9 10 -9 6 0 10 6 10 14 0 8 7 17 16 20 11 4 9 -3 -8
-27 l-23 -32 30 19 c22 14 26 15 17 4 -9 -11 -10 -18 -2 -23 5 -3 10 -13 10
-21 0 -8 -5 -12 -10 -9 -6 4 -8 10 -5 15 3 5 1 11 -4 14 -5 4 -13 2 -16 -4 -8
-13 34 -49 57 -50 9 0 19 -4 22 -9 4 -5 -4 -7 -16 -4 -23 6 -22 6 2 -16 20
-18 21 -20 4 -12 -18 8 -20 7 -19 -11 1 -12 8 -24 16 -26 11 -3 11 -1 -1 7
-12 8 -10 10 9 8 l23 -1 -24 -20 c-20 -17 -20 -18 -3 -12 34 13 37 12 46 -12
6 -15 5 -21 -1 -17 -6 3 -10 13 -10 21 0 8 -4 13 -9 10 -11 -7 -2 -46 11 -46
5 0 7 -4 3 -9 -3 -5 -1 -12 5 -16 6 -4 7 -11 4 -17 -4 -7 -2 -8 5 -4 8 5 9 12
2 19 -6 8 -5 19 5 31 8 11 14 15 14 10 0 -6 -5 -15 -11 -21 -8 -8 -6 -15 10
-25 11 -7 21 -17 21 -22 0 -4 -6 -3 -14 3 -11 9 -15 9 -19 -1 -6 -17 3 -38 15
-38 6 0 5 8 -3 18 -11 14 -11 15 1 5 16 -15 23 -46 9 -37 -6 3 -17 3 -26 0
-13 -5 -13 -9 -2 -23 13 -15 12 -15 -8 -2 -20 12 -24 11 -37 -6 -14 -19 -15
-19 -10 8 2 15 0 27 -6 27 -6 0 -8 -4 -5 -10 3 -5 2 -10 -4 -10 -6 0 -8 -8 -4
-17 5 -15 3 -14 -10 2 -8 11 -19 16 -23 12 -5 -4 -2 -12 6 -17 8 -6 10 -10 5
-10 -15 0 -44 37 -37 47 4 4 -2 0 -14 -10 -11 -9 -25 -14 -29 -10 -5 5 -3 0 4
-10 12 -15 12 -17 -3 -11 -9 3 -16 10 -16 14 0 4 -7 11 -16 14 -15 6 -14 3 1
-21 17 -26 18 -27 1 -13 -22 17 -46 22 -46 9 0 -6 -6 -4 -14 3 -10 9 -11 17
-4 26 8 9 7 11 -6 6 -19 -7 -20 -16 -4 -32 9 -9 9 -12 0 -12 -7 0 -12 5 -12
11 0 5 -5 7 -12 3 -8 -5 -9 -1 -5 12 7 18 6 18 -7 2 -16 -22 -30 -23 -22 -3 3
8 1 15 -4 15 -6 0 -10 -6 -10 -14 0 -8 -4 -18 -10 -21 -6 -4 -7 1 -3 12 6 16
5 16 -10 4 -20 -16 -23 -2 -4 19 6 8 3 7 -9 -3 -11 -9 -25 -14 -29 -10 -5 5
-3 0 4 -10 12 -15 12 -17 -3 -11 -9 3 -16 10 -16 14 0 4 -7 10 -15 14 -13 5
-14 2 -4 -15 9 -17 8 -20 -3 -13 -18 12 -31 12 -41 -1 -6 -6 -7 -4 -4 6 3 8
-3 21 -13 27 -16 10 -20 8 -26 -10 -5 -16 -8 -18 -15 -7 -6 10 -9 11 -9 2 0
-7 -5 -13 -11 -13 -5 0 -8 4 -5 8 2 4 -4 13 -15 20 -12 8 -19 9 -19 1 0 -5 -5
-7 -10 -4 -6 3 -13 0 -16 -8 -3 -8 -13 -14 -22 -12 -9 1 -26 -5 -37 -14 -20
-16 -20 -16 -1 7 19 22 19 22 -7 22 -14 0 -27 -3 -30 -7 -2 -5 -3 -3 -1 3 1 6
-2 16 -7 21 -7 7 -5 16 6 27 10 10 12 16 4 16 -8 0 -9 4 -1 13 9 10 7 19 -4
35 -12 17 -12 22 -2 20 7 -2 12 2 11 7 -1 6 7 22 18 35 14 18 17 20 12 6 -5
-15 -3 -17 8 -11 12 7 12 6 1 -7 -10 -13 -10 -17 1 -21 15 -6 17 39 2 63 -5 9
-4 11 3 6 7 -4 12 -2 12 4 0 6 4 8 10 5 6 -3 7 1 4 10 -5 13 -9 13 -23 3 -15
-12 -15 -11 0 7 9 11 14 27 12 35 -4 13 -3 13 6 0 5 -8 8 -17 5 -21 -2 -4 1
-11 8 -15 7 -4 10 -3 5 1 -4 5 2 18 12 29 11 12 21 26 21 31 1 6 6 9 12 7 5
-1 7 2 3 8 -3 5 2 10 12 11 11 0 13 3 5 6 -17 6 -54 -26 -45 -40 4 -6 1 -7 -7
-2 -9 6 -11 4 -5 -6 8 -12 6 -12 -8 0 -20 16 -22 22 -4 19 7 -2 11 7 10 22 -1
14 1 20 3 13 4 -10 10 -10 25 0 22 13 26 29 6 21 -8 -3 -19 1 -25 9 -9 11 -8
14 3 14 8 0 11 -5 8 -10 -3 -5 0 -7 8 -5 8 3 12 12 11 19 -2 8 0 10 5 6 8 -8
9 -12 12 -39 1 -9 4 -9 11 2 5 9 5 19 -1 26 -11 14 -1 46 12 38 5 -3 9 -2 8 3
-4 21 2 34 13 27 6 -4 8 -3 4 4 -3 6 1 18 10 26 8 9 13 16 11 16 -3 0 -13 3
-21 6 -12 5 -16 1 -14 -17 2 -13 -3 -24 -9 -25 -26 -3 -28 -5 -15 -13 11 -7
11 -9 -1 -14 -13 -5 -16 9 -7 33 1 3 2 9 1 14 -1 5 5 4 14 -4 13 -11 15 -9 13
11 -2 17 2 24 14 24 9 0 20 4 25 9 4 5 3 6 -4 2 -7 -4 -13 -2 -13 4 0 7 -7 10
-17 6 -16 -5 -16 -5 -2 6 9 7 16 16 17 21 2 26 10 32 23 18 12 -12 12 -13 0
-6 -10 6 -12 4 -6 -5 5 -8 4 -11 -2 -7 -5 3 -10 0 -10 -8 0 -8 3 -13 5 -10 3
3 12 -1 21 -8 14 -11 14 -10 2 5 -11 15 -11 19 3 24 9 3 16 10 16 16 0 5 -4 7
-9 4 -5 -3 -12 1 -15 10 -4 12 -2 15 9 11 8 -4 17 -2 20 3 3 4 -1 10 -7 13 -7
2 -10 7 -7 11 4 4 14 0 23 -9 19 -20 21 -7 2 17 -7 10 -17 14 -21 10 -5 -4 -5
-1 -1 6 5 8 16 10 28 6 18 -5 19 -4 7 9 -8 8 -18 12 -24 9 -5 -3 -4 1 2 9 10
12 10 18 0 29 -10 12 -9 12 6 1 14 -11 17 -11 17 2 0 17 16 25 47 22 13 -1 21
0 19 3 -2 2 4 12 15 23 11 11 18 23 15 28 -6 10 31 7 41 -3z m-340 -34 c0 -10
-7 -19 -14 -19 -9 0 -10 4 -3 12 5 7 7 15 3 18 -3 4 -1 7 5 7 6 0 10 -8 9 -18z
m-37 -96 c0 -3 -4 -8 -10 -11 -5 -3 -10 -1 -10 4 0 6 5 11 10 11 6 0 10 -2 10
-4z m484 -69 c-3 -8 -12 -14 -21 -14 -13 0 -13 2 3 14 10 7 19 13 21 13 1 0 0
-6 -3 -13z m33 -23 c-3 -3 -12 -4 -19 -1 -8 3 -5 6 6 6 11 1 17 -2 13 -5z
m208 -2 c16 -10 12 -35 -5 -39 -12 -4 -12 -3 -2 5 11 7 10 12 -3 26 -16 16 -9
22 10 8z m25 -66 c0 -3 -4 -8 -10 -11 -5 -3 -10 -1 -10 4 0 6 5 11 10 11 6 0
10 -2 10 -4z m-877 -111 c-3 -9 -8 -14 -10 -11 -3 3 -2 9 2 15 9 16 15 13 8
-4z m-63 -140 c-7 -8 -17 -15 -23 -15 -6 0 -2 7 9 15 25 19 30 19 14 0z m141
-164 c-7 -5 -11 -13 -8 -17 3 -5 -1 -18 -9 -29 -8 -10 -14 -14 -14 -8 0 7 5
15 10 18 14 9 2 27 -13 19 -7 -3 -3 2 7 10 11 9 25 16 30 16 6 0 5 -4 -3 -9z
m983 -71 c-6 -6 -10 -3 -10 10 0 13 4 16 10 10 7 -7 7 -13 0 -20z m-834 -21
c0 -6 -4 -7 -10 -4 -5 3 -10 1 -10 -4 0 -6 -4 -11 -10 -11 -19 0 -10 26 10 27
11 1 20 -3 20 -8z m77 -4 c0 -8 -4 -15 -9 -15 -4 0 -8 7 -8 15 0 8 4 15 8 15
5 0 9 -7 9 -15z m378 5 c3 -5 1 -10 -4 -10 -6 0 -11 5 -11 10 0 6 2 10 4 10 3
0 8 -4 11 -10z m494 -114 c9 -10 8 -15 -3 -19 -9 -4 -18 -1 -22 5 -4 7 -3 8 4
4 7 -4 12 -3 12 3 0 5 -6 12 -12 14 -8 4 -9 6 -2 6 6 1 17 -5 23 -13z m-497
-93 c-6 -3 -10 -8 -7 -13 8 -14 -24 -5 -38 10 -10 12 -9 12 4 2 13 -10 19 -9
29 3 7 9 16 13 19 9 3 -4 0 -9 -7 -11z m-537 -15 c3 -3 -1 -8 -9 -11 -8 -3
-19 0 -25 7 -8 10 -6 12 9 11 11 -1 22 -4 25 -7z m-430 -18 c-3 -5 -12 -10
-18 -10 -7 0 -6 4 3 10 19 12 23 12 15 0z m1262 -5 c-1 -5 6 -9 17 -7 15 3 16
1 5 -12 -11 -12 -16 -12 -24 -2 -5 7 -14 13 -20 14 -5 0 -11 5 -13 11 -2 5 6
9 17 8 11 0 19 -6 18 -12z m280 -26 c3 -19 2 -19 -13 -5 -8 9 -12 21 -9 27 4
5 10 8 13 4 3 -3 7 -15 9 -26z m-1337 -10 c-9 -16 -40 -17 -40 -2 0 3 7 3 15
-1 9 -3 15 0 15 10 0 9 -5 12 -12 8 -7 -4 -8 -3 -4 4 4 6 13 9 21 6 11 -5 12
-11 5 -25z m-255 -19 c-3 -5 0 -10 7 -11 10 0 10 -2 0 -6 -6 -2 -10 -9 -7 -14
4 -5 -1 -6 -9 -3 -19 7 -20 16 -4 32 15 15 21 16 13 2z m232 -23 c-2 -6 -14
-12 -28 -13 -21 -3 -22 -2 -6 7 9 6 15 14 12 20 -3 5 1 6 10 3 9 -4 14 -11 12
-17z m-263 -96 c-13 -13 -21 -28 -17 -34 3 -6 1 -7 -6 -3 -9 6 -9 11 0 22 10
12 9 17 0 27 -7 7 -11 8 -10 2 3 -12 -18 -65 -26 -65 -2 0 -1 10 4 23 4 12 7
30 6 39 -2 13 5 16 35 15 l38 -2 -24 -24z m1453 -15 c0 -9 -6 -12 -16 -8 -13
5 -14 3 -4 -10 7 -8 9 -19 5 -23 -4 -5 1 -5 10 -2 10 3 19 3 22 -1 2 -4 -7 -9
-21 -10 -18 -1 -24 2 -19 13 3 8 1 17 -4 20 -15 10 -12 23 8 28 9 3 17 5 18 6
0 0 1 -5 1 -13z m-1453 -45 c-3 -4 -9 -6 -12 -6 -4 0 -12 -3 -18 -7 -6 -4 -11
-1 -11 5 0 7 11 13 23 13 13 0 21 -2 18 -5z"/>
<path d="M906 1918 c3 -4 9 -8 15 -8 5 0 9 4 9 8 0 5 -7 9 -15 9 -8 0 -12 -4
-9 -9z"/>
<path d="M893 1895 c0 -8 4 -12 9 -9 5 3 6 10 3 15 -9 13 -12 11 -12 -6z"/>
<path d="M825 1890 c-3 -5 -3 -10 1 -10 4 0 -1 -6 -11 -14 -18 -13 -18 -14 6
-25 19 -9 21 -9 8 1 -15 10 -15 13 4 28 13 11 16 19 9 24 -6 3 -13 2 -17 -4z"/>
<path d="M790 1750 c0 -5 5 -10 11 -10 5 0 7 5 4 10 -3 6 -8 10 -11 10 -2 0
-4 -4 -4 -10z"/>
<path d="M1038 1713 c6 -2 12 -9 12 -14 0 -6 -4 -8 -8 -5 -5 3 -9 -1 -9 -9 0
-10 4 -12 12 -5 7 5 15 6 20 2 4 -4 2 3 -4 16 -6 12 -17 22 -24 21 -9 0 -9 -2
1 -6z"/>
<path d="M1077 1633 c-10 -9 -9 -23 1 -23 5 0 9 7 9 15 0 17 -1 18 -10 8z"/>
<path d="M696 1558 c3 -5 10 -6 15 -3 13 9 11 12 -6 12 -8 0 -12 -4 -9 -9z"/>
<path d="M1093 1495 c0 -8 4 -12 9 -9 5 3 6 10 3 15 -9 13 -12 11 -12 -6z"/>
<path d="M635 1420 c-3 -5 -1 -10 4 -10 6 0 11 5 11 10 0 6 -2 10 -4 10 -3 0
-8 -4 -11 -10z"/>
<path d="M1156 1417 c3 -10 9 -15 12 -12 3 3 0 11 -7 18 -10 9 -11 8 -5 -6z"/>
<path d="M595 1360 c3 -5 8 -10 11 -10 2 0 4 5 4 10 0 6 -5 10 -11 10 -5 0 -7
-4 -4 -10z"/>
<path d="M549 1325 c-1 -3 -2 -8 -3 -12 -1 -5 -5 -13 -9 -20 -4 -6 -2 -15 4
-19 8 -5 9 -3 4 6 -6 10 -3 12 14 7 21 -5 22 -4 7 12 -9 10 -13 21 -9 24 3 4
3 7 0 7 -4 0 -8 -2 -8 -5z"/>
<path d="M1194 1282 c4 -3 14 -7 22 -8 9 -1 13 0 10 4 -4 3 -14 7 -22 8 -9 1
-13 0 -10 -4z"/>
<path d="M525 1201 c-6 -11 13 -26 22 -17 4 3 0 6 -8 6 -11 0 -11 2 1 10 9 6
10 10 3 10 -6 0 -14 -4 -18 -9z"/>
<path d="M1007 1176 c-4 -10 -1 -13 8 -9 8 3 12 9 9 14 -7 12 -11 11 -17 -5z"/>
<path d="M1850 2338 c0 -5 -6 -6 -12 -2 -7 4 -10 4 -6 -1 4 -4 0 -14 -10 -22
-16 -12 -16 -13 1 -7 9 3 17 1 17 -5 0 -6 -5 -11 -11 -11 -6 0 -8 -7 -5 -15 3
-9 -1 -18 -9 -21 -8 -4 -12 -10 -9 -15 3 -5 1 -9 -4 -9 -5 0 -8 -12 -7 -27 1
-16 -3 -32 -9 -36 -7 -5 -3 -6 8 -3 13 5 17 2 13 -9 -4 -8 -1 -17 5 -21 6 -4
8 -3 4 4 -3 6 -1 14 6 18 7 4 10 4 6 -1 -4 -4 -2 -15 5 -23 9 -13 9 -14 0 -8
-8 4 -13 2 -13 -5 0 -9 -3 -9 -14 0 -11 9 -16 9 -22 -1 -4 -7 -4 -10 1 -6 13
12 34 -11 28 -30 -4 -14 -3 -15 5 -2 6 8 8 18 6 22 -3 5 6 3 20 -3 14 -7 28
-18 31 -27 4 -12 2 -12 -8 -4 -8 7 -18 8 -22 4 -5 -4 -5 -1 -1 6 4 6 2 12 -3
12 -6 0 -9 -9 -8 -21 3 -21 23 -39 42 -38 6 0 -1 6 -14 13 -14 8 -19 16 -13
20 6 3 13 2 17 -4 12 -20 33 -11 29 13 -4 20 -4 20 5 2 5 -11 5 -27 0 -37 -12
-22 -11 -37 0 -19 16 26 40 22 35 -5 l-4 -24 20 20 c25 25 48 26 66 3 12 -15
13 -16 8 -2 -7 22 11 33 34 20 14 -7 18 -6 18 9 0 12 -4 16 -11 11 -5 -5 -19
-4 -30 0 -19 9 -18 9 2 5 24 -4 47 15 35 30 -4 5 3 0 16 -10 12 -11 22 -15 23
-10 2 27 0 91 -3 104 -3 8 -3 12 -1 8 8 -15 32 -8 43 11 14 28 12 41 -3 14
-10 -18 -14 -20 -30 -8 -16 11 -16 13 -2 19 11 4 14 2 9 -6 -4 -7 -3 -8 5 -4
6 4 9 12 6 17 -4 5 0 9 7 9 9 0 9 3 -2 10 -8 5 -19 10 -25 10 -5 0 -4 -4 3 -9
11 -6 10 -10 -4 -15 -10 -4 -15 -4 -11 0 4 4 1 14 -6 22 -8 10 -8 13 -1 9 14
-8 26 17 18 37 -3 8 -14 13 -25 11 -17 -4 -18 -2 -3 20 l16 24 -126 -1 c-72 0
-126 -4 -126 -10z m211 -21 c-10 -9 -11 -8 -5 6 3 10 9 15 12 12 3 -3 0 -11
-7 -18z m-189 1 c7 -18 -2 -39 -13 -32 -5 3 -9 0 -9 -5 0 -6 5 -11 10 -11 6 0
10 -5 10 -10 0 -6 -8 -5 -19 2 -14 8 -17 16 -10 24 5 7 9 16 8 20 -4 25 15 34
23 12z m-22 -81 c0 -7 -4 -6 -10 3 -8 13 -10 12 -11 -5 -1 -11 -2 -31 -1 -45
0 -14 -2 -19 -5 -12 -2 6 -9 10 -13 7 -11 -7 -5 27 10 55 11 21 30 19 30 -3z
m15 -117 c3 -5 1 -10 -4 -10 -6 0 -11 5 -11 10 0 6 2 10 4 10 3 0 8 -4 11 -10z
m105 -79 c0 -5 -7 -11 -14 -14 -10 -4 -13 -1 -9 9 6 15 23 19 23 5z"/>
<path d="M2096 2322 c-2 -4 4 -8 15 -8 10 0 19 4 19 8 0 4 -6 8 -14 8 -8 0
-17 -4 -20 -8z"/>
<path d="M695 2260 c-3 -5 -1 -10 4 -10 6 0 11 5 11 10 0 6 -2 10 -4 10 -3 0
-8 -4 -11 -10z"/>
<path d="M1093 2244 c0 -17 2 -22 7 -13 5 6 6 18 3 26 -8 19 -10 16 -10 -13z"/>
<path d="M1785 2260 c-3 -6 1 -7 9 -4 18 7 21 14 7 14 -6 0 -13 -4 -16 -10z"/>
<path d="M2135 2260 c3 -5 8 -10 11 -10 2 0 4 5 4 10 0 6 -5 10 -11 10 -5 0
-7 -4 -4 -10z"/>
<path d="M1116 2207 c3 -10 9 -15 12 -12 3 3 0 11 -7 18 -10 9 -11 8 -5 -6z"/>
<path d="M1098 2183 c10 -4 10 -8 1 -19 -8 -10 -8 -14 0 -14 6 0 11 5 11 11 0
8 6 7 18 -2 14 -11 13 -10 -2 9 -11 12 -24 22 -30 21 -6 0 -5 -3 2 -6z"/>
<path d="M2130 2153 c7 -3 7 -10 -2 -21 -8 -10 -9 -13 -1 -9 6 4 14 1 17 -5 2
-7 3 -2 2 11 -2 14 -8 26 -15 27 -7 2 -7 0 -1 -3z"/>
<path d="M665 2100 c6 -9 2 -10 -16 -5 -13 4 -22 6 -19 3 34 -27 38 -28 43
-14 4 9 1 18 -5 22 -7 5 -8 2 -3 -6z"/>
<path d="M1156 2095 c-9 -26 -7 -32 5 -12 6 10 9 21 6 23 -2 3 -7 -2 -11 -11z"/>
<path d="M1170 2060 c0 -5 5 -10 11 -10 5 0 7 5 4 10 -3 6 -8 10 -11 10 -2 0
-4 -4 -4 -10z"/>
<path d="M1190 2026 c0 -2 7 -7 16 -10 8 -3 12 -2 9 4 -6 10 -25 14 -25 6z"/>
<path d="M1969 2003 c-13 -16 -12 -17 4 -4 9 7 17 15 17 17 0 8 -8 3 -21 -13z"/>
<path d="M555 1930 c3 -5 8 -10 11 -10 2 0 4 5 4 10 0 6 -5 10 -11 10 -5 0 -7
-4 -4 -10z"/>
<path d="M2934 1898 c1 -7 5 -19 9 -25 5 -8 3 -13 -3 -13 -6 0 -8 -6 -4 -12 4
-8 3 -10 -2 -5 -9 8 -10 12 -13 40 -1 8 -4 7 -11 -3 -9 -13 -10 -13 -10 0 0
10 -3 11 -8 4 -10 -16 -75 -27 -66 -12 4 7 -8 1 -26 -12 -18 -13 -30 -18 -25
-11 5 9 3 12 -6 9 -8 -3 -13 -12 -11 -19 2 -9 -3 -8 -16 4 -21 19 -38 11 -21
-10 9 -9 8 -13 0 -13 -6 0 -11 5 -11 10 0 5 -6 9 -12 8 -7 -2 -12 5 -10 14 1
9 -2 19 -8 23 -6 4 -7 -1 -3 -11 5 -14 3 -15 -18 -4 l-24 12 23 -21 c20 -20
22 -49 2 -36 -5 3 -11 1 -15 -5 -4 -6 -11 -7 -17 -4 -6 4 -8 -2 -4 -17 6 -21
5 -22 -4 -6 -9 14 -9 22 0 32 7 8 16 13 20 10 5 -3 11 -1 14 4 3 5 0 11 -8 14
-8 3 -17 -1 -20 -8 -3 -8 -12 -12 -20 -9 -8 3 -17 1 -21 -5 -3 -7 0 -8 10 -5
11 5 14 2 9 -10 -3 -9 -10 -13 -15 -10 -5 3 -6 -2 -3 -10 3 -9 11 -13 17 -9 6
3 7 1 3 -6 -4 -6 -11 -9 -16 -6 -4 3 -11 -3 -14 -12 -5 -12 -10 -13 -18 -5 -6
6 -16 9 -22 8 -6 -2 -8 -1 -3 1 4 3 4 10 0 16 -3 7 -3 9 2 5 10 -9 35 10 35
25 0 6 -6 3 -13 -8 -10 -13 -16 -15 -21 -6 -4 6 -12 9 -17 6 -5 -4 -9 -1 -9 4
0 6 5 11 10 11 6 0 10 5 10 11 0 5 -4 8 -9 4 -5 -3 -12 -1 -16 4 -3 6 -13 8
-23 5 -11 -4 -8 2 8 16 14 12 19 18 11 14 -14 -7 -44 -13 -91 -18 -14 -1 -34
-7 -45 -13 -14 -8 -26 -8 -38 -2 -9 6 -18 8 -18 4 -1 -3 -3 -9 -4 -15 -1 -5
-3 -15 -4 -21 0 -5 -6 -7 -12 -3 -8 4 -8 0 0 -15 9 -16 9 -21 -1 -21 -6 0 -3
-6 8 -14 16 -13 17 -17 5 -28 -12 -11 -13 -10 -8 3 3 9 0 16 -9 16 -7 0 -11
-4 -8 -9 10 -15 13 -51 6 -62 -11 -18 -11 -36 -1 -36 6 0 7 -6 3 -12 -4 -7 -3
-9 1 -5 13 11 15 37 4 37 -6 0 -7 5 -4 10 12 19 25 0 21 -31 -2 -16 1 -32 5
-35 5 -3 6 -11 2 -17 -8 -12 -9 -18 -12 -38 -1 -8 -7 -7 -18 2 -15 11 -16 11
-5 -1 13 -16 17 -44 4 -36 -5 3 -8 -7 -7 -22 1 -15 7 -26 13 -24 7 1 12 -5 12
-13 0 -13 -4 -14 -22 -5 -20 9 -21 9 -7 -2 9 -7 15 -23 14 -35 -1 -12 3 -21 9
-20 6 1 12 -8 14 -20 2 -13 -1 -23 -7 -23 -6 0 -8 7 -5 15 4 10 0 15 -12 15
-16 0 -17 -2 -4 -10 14 -9 7 -15 -14 -11 -5 1 -4 -4 2 -12 7 -8 8 -18 4 -22
-4 -5 -1 -5 6 -1 6 4 12 3 12 -3 0 -5 -6 -12 -12 -14 -10 -4 -10 -6 0 -6 6 -1
12 -6 12 -12 0 -5 -4 -8 -8 -5 -5 3 -9 -1 -9 -9 0 -8 4 -12 9 -9 4 3 8 -2 8
-10 0 -9 -6 -16 -12 -16 -7 0 -5 -5 5 -11 9 -5 21 -8 26 -4 5 3 13 0 17 -6 4
-7 3 -9 -4 -5 -6 3 -17 0 -25 -8 -8 -8 -17 -13 -20 -10 -3 3 -4 -2 -3 -13 2
-10 -2 -25 -8 -33 -9 -13 -9 -13 5 -2 14 10 18 10 23 -4 8 -22 8 -24 -6 -20
-7 1 -10 1 -5 -1 4 -3 4 -10 1 -15 -4 -7 -2 -8 4 -4 7 4 12 1 12 -8 0 -9 -3
-15 -7 -13 -5 1 -8 -3 -8 -8 0 -6 3 -9 7 -8 5 2 8 -4 8 -12 0 -13 -4 -14 -22
-5 -20 9 -21 9 -7 -2 9 -7 15 -21 13 -31 -1 -9 2 -15 7 -11 5 3 7 9 4 14 -3 4
2 11 10 14 13 4 13 2 5 -14 -13 -25 -13 -33 3 -24 9 6 9 4 -1 -8 -11 -14 -10
-18 5 -27 10 -6 14 -10 8 -11 -20 0 -38 18 -30 30 5 9 4 11 -4 6 -6 -4 -9 -16
-6 -27 4 -12 2 -19 -7 -19 -10 0 -9 -3 2 -10 13 -9 13 -10 0 -10 -12 -1 -11
-3 3 -11 9 -5 21 -8 26 -4 5 3 13 0 17 -6 4 -7 3 -9 -4 -5 -6 3 -17 0 -25 -8
-8 -8 -17 -13 -21 -11 -3 3 -4 2 -2 -1 3 -3 1 -17 -5 -31 -6 -16 -6 -22 1 -18
6 3 10 12 10 19 0 22 24 36 40 24 12 -8 11 -9 -4 -4 -15 5 -17 2 -13 -14 3
-12 1 -18 -5 -14 -6 4 -8 -1 -3 -15 5 -17 3 -20 -12 -15 -10 3 -14 2 -8 -3 13
-10 19 -47 7 -39 -5 3 -9 -1 -9 -9 0 -8 4 -15 8 -15 11 0 20 30 12 42 -3 7 -1
8 5 4 11 -7 17 6 13 27 -1 5 3 6 9 2 7 -4 7 -13 -1 -26 -6 -11 -8 -27 -5 -35
4 -10 2 -12 -6 -8 -8 5 -9 2 -5 -10 4 -10 7 -20 7 -22 0 -3 4 -3 8 0 5 3 9 -1
9 -9 0 -11 -4 -12 -14 -4 -10 9 -13 8 -13 -2 1 -34 15 -38 123 -37 59 0 105 3
102 6 -2 3 3 11 13 19 16 12 16 13 -3 7 -19 -5 -19 -5 -1 10 18 14 18 15 -2
13 -13 -1 -19 -7 -17 -18 2 -10 -3 -20 -11 -23 -11 -4 -12 -1 -5 12 14 26 14
34 -1 44 -9 7 -4 8 14 4 15 -3 30 -2 33 4 3 5 0 7 -8 4 -8 -3 -21 6 -31 21 -9
14 -13 25 -9 24 19 -3 23 2 14 20 -8 13 -6 23 5 37 9 11 13 14 10 8 -3 -7 1
-15 9 -18 13 -5 14 -2 4 15 -6 11 -16 18 -23 16 -9 -4 -12 5 -11 29 1 19 -3
34 -9 34 -6 0 1 8 16 17 36 22 41 38 15 41 -15 1 -18 -1 -9 -7 11 -6 10 -10
-4 -15 -9 -4 -22 -2 -28 4 -8 8 -6 9 8 4 12 -5 17 -4 13 3 -4 5 1 19 9 29 9
10 13 13 9 7 -3 -7 -1 -13 5 -13 7 0 10 6 7 13 -2 6 -11 12 -18 11 -10 -1 -15
10 -15 36 0 23 4 37 12 37 7 0 11 -4 9 -8 -3 -4 1 -9 8 -12 7 -3 13 3 13 14 0
10 -2 16 -4 14 -3 -2 -13 0 -23 5 -20 11 -18 42 3 68 11 13 10 15 -5 9 -10 -4
-16 -3 -12 2 3 5 1 13 -5 16 -8 5 -6 15 4 31 20 30 20 35 -1 27 -11 -4 -14 -3
-9 5 4 7 13 12 21 12 19 0 26 -27 9 -34 -9 -3 -12 -10 -9 -16 3 -5 1 -10 -5
-10 -17 0 -3 -17 18 -22 11 -3 19 0 19 7 0 7 -6 11 -12 9 -6 -3 -12 2 -12 11
0 9 6 14 12 11 22 -8 11 39 -13 52 -18 10 -20 16 -12 32 6 11 13 20 16 20 3 0
3 -4 0 -9 -3 -5 0 -11 7 -14 14 -5 17 19 4 39 -3 6 3 20 14 30 12 10 25 28 31
39 5 11 -2 5 -17 -13 -15 -18 -31 -29 -37 -26 -7 4 -8 2 -4 -4 5 -8 1 -10 -10
-5 -14 5 -14 7 4 17 22 12 59 55 60 71 0 5 6 11 13 14 7 2 9 -1 4 -9 -5 -8 -4
-11 3 -6 6 3 9 15 7 26 -2 11 2 23 10 27 7 5 15 13 17 18 2 6 7 9 11 7 5 -1 6
2 2 8 -3 6 -10 8 -15 5 -4 -3 -14 3 -21 13 -13 15 -12 16 3 4 15 -12 20 -10
38 20 11 18 20 28 20 22 0 -11 50 -38 57 -30 2 2 -4 7 -14 10 -10 3 -24 15
-31 27 -13 21 -13 21 20 -2 18 -13 27 -16 21 -8 -13 16 -8 29 9 29 5 0 6 -6 2
-12 -5 -10 -3 -10 7 0 12 11 12 14 -1 22 -11 7 -9 9 10 7 27 -1 52 -26 43 -41
-4 -5 -1 -6 6 -2 6 4 9 12 6 17 -6 8 9 13 29 10 5 -1 13 4 17 11 7 10 9 10 9
1 0 -7 5 -13 10 -13 7 0 6 8 -1 23 -11 20 -11 21 4 8 14 -11 17 -11 17 0 0 11
2 11 10 -1 9 -14 11 -13 14 9 0 5 5 13 10 18 5 4 6 3 3 -3 -8 -14 16 -37 27
-27 4 4 4 1 1 -8 -4 -10 1 -15 17 -16 18 -2 19 0 8 7 -13 8 -13 11 -1 22 11
11 13 11 6 -1 -5 -9 -4 -12 3 -7 15 9 17 196 3 196 -6 0 -8 9 -6 20 2 11 -1
22 -6 26 -5 3 -8 0 -7 -8 2 -7 -4 -13 -12 -13 -8 0 -15 5 -15 12 0 6 -3 14 -7
18 -3 4 -6 1 -4 -7z m-22 -50 c-2 -10 -7 -18 -11 -18 -4 0 -7 8 -8 18 -1 10 4
19 11 19 8 0 11 -8 8 -19z m65 15 c-4 -3 -3 -11 3 -17 6 -8 2 -12 -13 -13 -17
-2 -19 0 -7 7 13 9 13 10 0 10 -13 0 -13 1 0 10 17 11 26 13 17 3z m-522 -23
c-6 -9 0 -12 35 -14 8 -1 15 -10 15 -21 0 -12 6 -19 15 -17 12 2 11 -1 -2 -11
-10 -8 -14 -18 -10 -22 4 -5 2 -5 -5 -1 -7 4 -10 13 -7 20 6 15 -23 49 -36 41
-9 -6 -21 20 -13 29 10 10 15 7 8 -4z m380 0 c3 -6 -1 -7 -9 -4 -18 7 -21 14
-7 14 6 0 13 -4 16 -10z m-506 -24 c10 -12 8 -17 -9 -26 -20 -10 -21 -10 -11
8 6 11 7 22 4 26 -3 3 -4 6 -1 6 3 0 11 -6 17 -14z m61 4 c0 -5 -5 -10 -11
-10 -5 0 -7 5 -4 10 3 6 8 10 11 10 2 0 4 -4 4 -10z m40 0 c0 -5 -2 -10 -4
-10 -3 0 -8 5 -11 10 -3 6 -1 10 4 10 6 0 11 -4 11 -10z m-104 -60 c0 -12 -4
-16 -9 -11 -5 5 -6 14 -3 20 10 15 12 14 12 -9z m-5 -59 c-8 -5 -10 -14 -5
-22 6 -11 4 -11 -10 0 -13 11 -14 16 -4 22 7 5 18 9 23 9 6 0 4 -4 -4 -9z
m512 -44 c3 -8 -1 -14 -9 -14 -15 0 -18 9 -7 20 9 9 10 9 16 -6z m-118 -17
c-3 -5 -12 -10 -18 -10 -7 0 -6 4 3 10 19 12 23 12 15 0z m-74 -43 c-10 -9
-11 -8 -5 6 3 10 9 15 12 12 3 -3 0 -11 -7 -18z m-28 -73 c-3 -8 -10 -14 -15
-14 -6 0 -7 -7 -4 -16 3 -8 2 -13 -2 -11 -4 2 -15 -4 -24 -15 -11 -10 -13 -18
-6 -18 6 0 1 -11 -12 -25 -21 -22 -48 -26 -34 -4 3 5 10 7 15 4 5 -4 9 -1 9 4
0 18 -5 26 -13 23 -5 -1 -6 2 -2 8 3 6 10 8 14 6 13 -8 32 10 34 32 0 11 5 20
10 19 5 -1 12 4 14 11 3 8 -2 10 -14 6 -14 -5 -15 -4 -4 4 19 13 41 4 34 -14z
m-288 6 c3 -5 1 -10 -4 -10 -6 0 -11 5 -11 10 0 6 2 10 4 10 3 0 8 -4 11 -10z
m5 -37 c0 -3 -7 -3 -15 1 -9 3 -15 0 -15 -9 0 -7 -4 -16 -9 -19 -11 -7 -9 13
2 31 7 11 37 8 37 -4z m0 -27 c0 -3 -4 -8 -10 -11 -5 -3 -10 -1 -10 4 0 6 5
11 10 11 6 0 10 -2 10 -4z m-15 -46 c-4 -6 -1 -19 6 -28 10 -13 8 -12 -9 2
-17 15 -19 22 -10 28 17 10 20 10 13 -2z m218 -77 c3 -5 -6 -9 -19 -9 -13 -1
-21 2 -18 7 6 11 31 12 37 2z m-228 -21 c-3 -3 -11 0 -18 7 -9 10 -8 11 6 5
10 -3 15 -9 12 -12z m22 -28 c0 -7 -4 -11 -8 -8 -15 9 -15 -21 0 -34 14 -11
13 -12 -5 -3 -14 7 -20 18 -18 33 3 27 1 25 17 25 8 0 14 -6 14 -13z m3 -121
c0 -3 -7 -2 -16 1 -13 5 -15 2 -11 -14 4 -18 3 -19 -9 -9 -10 8 -11 15 -3 25
9 11 39 9 39 -3z m0 -107 c0 -3 -4 -8 -10 -11 -5 -3 -10 -1 -10 4 0 6 5 11 10
11 6 0 10 -2 10 -4z m-20 -145 c0 -6 -4 -12 -8 -15 -5 -3 -9 1 -9 9 0 8 4 15
9 15 4 0 8 -4 8 -9z"/>
<path d="M1226 1881 c-3 -4 1 -17 10 -27 14 -18 15 -18 5 2 -6 12 -7 24 -4 28
3 3 4 6 0 6 -3 0 -8 -4 -11 -9z"/>
<path d="M1915 1875 c11 -34 10 -37 -4 -43 -8 -2 -11 0 -8 5 3 5 0 10 -8 10
-11 0 -12 -4 -4 -13 7 -8 7 -14 -1 -19 -5 -3 -10 -1 -10 6 0 7 -3 10 -6 6 -3
-3 -3 -11 1 -17 5 -8 11 -7 23 2 15 11 15 11 4 -3 -7 -9 -12 -21 -11 -25 3
-20 -2 -34 -12 -34 -5 0 -8 4 -5 9 3 5 0 11 -7 14 -7 3 -13 -3 -13 -13 0 -10
4 -16 8 -14 4 3 8 0 8 -5 0 -13 22 -10 33 4 4 6 5 -1 3 -15 -3 -14 -5 -28 -5
-32 -1 -5 -6 -8 -12 -8 -8 0 -8 4 0 14 8 10 9 16 1 21 -5 3 -10 1 -10 -6 0 -8
-4 -9 -13 0 -10 8 -14 7 -14 -4 0 -8 4 -12 8 -10 7 5 20 -18 26 -49 2 -11 9
-27 16 -35 11 -14 10 -14 -5 -2 -23 17 -23 4 -1 -23 13 -15 10 -14 -10 3 -15
14 -30 21 -34 18 -3 -4 -1 -7 5 -7 7 0 11 -10 10 -22 -1 -13 8 -40 20 -60 21
-37 21 -37 2 -25 -11 6 -18 18 -15 25 3 7 0 10 -5 7 -6 -3 -10 -1 -10 6 0 7
-3 10 -6 7 -3 -4 -1 -16 6 -27 8 -16 8 -21 -2 -21 -10 0 -10 -2 1 -9 8 -5 10
-14 6 -21 -6 -9 -4 -11 4 -6 7 5 10 15 7 23 -3 8 -1 11 4 8 15 -9 12 -35 -4
-41 -8 -3 -17 -13 -20 -21 -5 -12 -3 -13 7 -5 9 8 17 8 27 0 12 -8 12 -9 -2
-4 -22 7 -22 3 -2 -36 10 -20 11 -28 3 -22 -9 5 -10 2 -6 -10 6 -14 3 -16 -16
-11 -15 4 -18 3 -8 -3 11 -8 11 -11 0 -16 -8 -3 -5 -4 6 -1 13 3 25 -2 33 -16
8 -12 9 -18 4 -15 -5 3 -9 -6 -9 -19 0 -14 3 -28 8 -31 11 -6 0 -34 -13 -34
-6 0 -6 6 1 14 8 10 9 16 1 21 -5 3 -10 1 -10 -6 0 -8 -4 -9 -13 0 -10 8 -14
7 -14 -4 0 -8 4 -12 8 -10 7 5 20 -18 26 -49 2 -11 9 -27 16 -35 11 -14 10
-14 -5 -2 -23 17 -23 4 -1 -23 10 -12 14 -18 9 -14 -5 4 -16 2 -25 -5 -14 -10
-14 -10 -3 4 10 13 9 19 -3 29 -9 7 -18 10 -22 6 -3 -3 -1 -6 5 -6 7 0 11 -11
10 -25 -2 -19 -7 -24 -20 -19 -10 3 -18 1 -18 -4 0 -4 14 -8 30 -8 17 0 30 4
30 9 0 6 3 7 6 4 4 -4 1 -13 -6 -22 -13 -16 -6 -50 9 -40 5 3 13 0 17 -6 4 -7
3 -9 -4 -5 -6 3 -13 -3 -17 -14 -7 -23 -22 -27 -22 -5 0 8 4 12 9 9 14 -9 9
13 -6 25 -11 9 -14 8 -12 -6 0 -10 -5 -17 -12 -15 -9 2 -11 -2 -5 -10 8 -13 9
-18 12 -38 0 -5 6 -10 12 -10 5 0 7 5 4 10 -3 6 -1 10 5 10 7 0 9 -7 6 -16 -3
-8 -2 -12 3 -9 5 3 13 0 17 -6 4 -7 3 -9 -3 -6 -6 4 -10 -4 -10 -18 0 -14 3
-28 8 -31 11 -6 0 -34 -13 -34 -6 0 -6 6 1 14 7 8 8 17 3 20 -6 3 -12 -4 -15
-15 -5 -20 -27 -18 -27 2 0 6 5 7 12 3 7 -5 8 -3 3 5 -5 9 -10 10 -18 2 -11
-11 9 -44 23 -36 4 2 15 -4 25 -15 16 -18 14 -21 -10 -20 -3 0 -12 -5 -19 -12
-14 -13 -4 -28 19 -28 6 0 3 5 -5 10 -12 7 -10 9 8 7 21 -1 32 -17 12 -17 -5
0 -10 -7 -10 -16 0 -9 5 -12 13 -8 6 4 8 3 4 -1 -15 -17 -39 -14 -32 3 5 13 3
14 -6 5 -6 -6 -8 -17 -3 -25 14 -22 13 -40 -1 -35 -15 6 -9 -30 8 -40 6 -3 7
-1 3 6 -4 6 -3 17 2 24 5 7 8 20 7 29 -2 11 2 15 12 11 11 -4 12 -8 3 -13 -9
-6 -9 -9 1 -13 10 -4 10 -6 2 -6 -19 -1 -16 -41 3 -41 9 0 12 5 8 13 -6 9 -4
9 8 -1 19 -15 188 -15 188 0 0 5 -8 7 -19 3 -12 -4 -21 0 -25 11 -5 14 -4 15
9 4 9 -8 15 -8 15 -2 0 6 -5 14 -11 18 -8 5 -8 9 1 14 8 5 9 13 4 21 -13 21
-14 39 -2 39 6 0 7 7 4 16 -3 8 -2 12 4 9 5 -3 18 -1 27 5 16 11 16 11 1 6
-10 -3 -21 0 -25 7 -10 16 -11 47 -2 42 11 -7 19 23 12 43 -6 15 -5 16 13 2
17 -14 18 -14 6 2 -8 9 -11 23 -7 30 4 7 -1 4 -9 -6 -13 -17 -16 -17 -16 -4 0
9 -5 18 -12 20 -7 3 -5 7 6 11 11 4 15 3 10 -4 -5 -8 -1 -8 13 0 11 6 24 7 28
3 5 -4 5 -2 1 5 -4 7 -13 10 -21 6 -11 -4 -13 -1 -8 13 6 17 5 18 -12 4 -19
-15 -19 -14 -2 12 21 33 22 45 3 29 -11 -9 -16 -9 -22 0 -5 8 -3 9 6 4 10 -6
12 -4 7 8 -3 9 -1 19 5 23 7 5 8 2 3 -7 -5 -8 -5 -11 0 -7 4 4 15 2 23 -5 11
-9 11 -5 -2 15 -10 15 -23 25 -29 21 -6 -4 -7 -1 -2 7 4 7 2 16 -6 22 -11 8
-10 9 4 4 12 -4 17 0 17 15 0 11 -4 17 -10 14 -5 -3 -7 0 -4 9 3 8 12 12 19
10 7 -3 16 -1 20 5 4 7 0 8 -11 4 -13 -5 -15 -3 -9 7 6 10 4 12 -8 7 -9 -3
-19 -1 -23 5 -5 7 -2 8 6 3 10 -6 12 -4 6 10 -5 15 -4 16 8 5 9 -6 21 -10 28
-7 8 4 7 6 -4 6 -12 1 -15 6 -11 18 4 10 2 14 -4 10 -6 -4 -17 1 -24 11 -13
15 -12 16 4 3 12 -9 17 -10 17 -2 0 7 5 9 12 5 7 -5 8 -3 4 5 -5 7 0 19 10 27
18 14 17 14 -4 4 -18 -9 -23 -8 -28 5 -3 8 -9 13 -13 10 -4 -2 -8 2 -8 10 0 8
4 12 9 9 4 -3 11 2 14 11 5 13 9 13 23 3 13 -10 14 -10 4 2 -7 8 -13 18 -13
23 0 4 6 5 13 1 6 -4 9 -4 5 1 -4 4 -3 14 4 22 8 10 8 12 -4 8 -8 -3 -21 -17
-28 -30 -7 -13 -17 -22 -23 -18 -5 3 -3 9 4 14 11 7 10 11 -6 24 -20 16 -19
16 3 5 21 -10 27 -5 23 23 -1 7 15 11 32 8 5 -1 6 3 2 9 -4 7 -12 7 -26 0 -11
-7 -17 -16 -12 -23 4 -7 0 -7 -10 2 -18 15 -23 26 -7 16 6 -3 10 -2 10 4 0 5
-6 12 -12 15 -7 3 -4 4 7 1 11 -2 27 0 35 6 13 9 13 10 0 8 -8 -1 -23 1 -33 6
-15 6 -16 10 -5 16 10 6 9 12 -7 24 -19 16 -19 16 3 5 14 -7 21 -17 18 -26 -3
-8 -1 -14 5 -14 7 0 9 10 4 27 -6 24 -5 25 11 12 17 -13 17 -13 1 11 -22 32
-22 46 1 29 15 -13 16 -12 4 3 -8 9 -11 23 -7 30 4 7 -1 4 -9 -6 -13 -17 -16
-17 -16 -4 0 9 -5 18 -12 20 -7 3 -5 7 6 11 11 4 15 3 10 -4 -4 -8 0 -7 15 0
25 14 28 23 4 14 -12 -5 -14 -3 -8 7 6 10 4 12 -8 7 -11 -4 -14 -2 -11 8 3 8
12 11 19 9 7 -3 16 -1 20 5 4 7 0 8 -11 4 -12 -4 -15 -3 -10 5 9 15 -6 16 -20
2 -7 -7 -11 -6 -11 4 0 8 4 13 9 10 4 -3 8 -1 8 4 0 6 10 8 23 6 14 -3 17 -2
7 3 -16 9 -19 31 -7 50 4 6 3 14 -3 18 -11 7 -12 5 -14 -24 0 -11 -4 -22 -7
-26 -11 -11 2 99 13 113 6 7 8 15 4 19 -3 3 -6 0 -6 -8 -1 -8 -8 -3 -16 11
-11 17 -13 19 -9 5 10 -32 10 -33 0 -33 -5 -1 -9 6 -7 14 2 8 -5 14 -17 14
-11 0 -22 4 -25 9 -4 5 4 7 16 5 22 -4 22 -4 -1 6 -20 9 -22 12 -10 28 13 16
13 16 -6 0 -27 -23 -38 -23 -47 -1 -7 16 -8 16 -5 -2 2 -14 9 -20 25 -19 17 1
20 -2 13 -9 -15 -15 -14 -30 1 -21 7 5 8 3 3 -6 -6 -10 -12 -8 -24 8 -9 11
-25 22 -36 24 -11 2 -26 12 -33 23 l-13 20 6 -20z m35 -35 c0 -5 -5 -10 -11
-10 -5 0 -7 5 -4 10 3 6 8 10 11 10 2 0 4 -4 4 -10z m-50 -275 c7 -8 9 -15 6
-15 -4 0 -14 7 -22 15 -9 8 -11 15 -6 15 5 0 15 -7 22 -15z m195 -36 c11 -16
1 -19 -13 -3 -7 8 -8 14 -3 14 5 0 13 -5 16 -11z m5 -269 c0 -5 -7 -7 -15 -4
-8 4 -15 8 -15 10 0 2 7 4 15 4 8 0 15 -4 15 -10z m-5 -371 c11 -16 1 -19 -13
-3 -7 8 -8 14 -3 14 5 0 13 -5 16 -11z"/>
<path d="M2713 1878 c-22 -29 -24 -41 -3 -20 12 13 20 25 17 28 -2 2 -9 -1
-14 -8z"/>
<path d="M2751 1873 c-7 -8 -11 -16 -8 -19 2 -2 10 2 17 11 17 20 9 27 -9 8z"/>
<path d="M2783 1874 c0 -7 6 -10 14 -7 7 3 13 8 13 12 0 4 -6 8 -13 8 -8 0
-14 -6 -14 -13z"/>
<path d="M2391 1870 c-8 -4 -19 -7 -25 -6 -6 2 -8 1 -3 -1 4 -3 4 -10 0 -16
-5 -8 -2 -8 8 0 9 7 25 11 37 8 12 -2 25 2 28 8 4 7 4 9 -1 5 -4 -4 -13 -4
-19 2 -7 5 -18 5 -25 0z"/>
<path d="M1256 1858 c3 -4 11 -5 19 -1 21 7 19 12 -4 10 -11 0 -18 -5 -15 -9z"/>
<path d="M2323 1862 c-9 -6 -7 -11 7 -20 12 -7 20 -8 20 -2 0 5 -5 10 -11 10
-5 0 -7 5 -4 10 7 12 4 12 -12 2z"/>
<path d="M2275 1831 c-3 -5 -2 -12 3 -15 5 -3 9 1 9 9 0 17 -3 19 -12 6z"/>
<path d="M505 1821 c3 -6 -3 -14 -12 -20 -11 -6 -13 -11 -5 -11 8 0 10 -5 6
-12 -4 -7 2 -4 14 6 17 15 19 22 11 33 -13 15 -23 18 -14 4z"/>
<path d="M1860 1796 c0 -2 8 -10 18 -17 15 -13 16 -12 3 4 -13 16 -21 21 -21
13z"/>
<path d="M2561 1771 c-8 -5 -9 -11 -3 -15 5 -3 12 1 16 9 6 17 6 18 -13 6z"/>
<path d="M480 1750 c13 -8 12 -11 -5 -25 -21 -17 0 -9 23 8 11 8 11 12 0 18
-7 5 -17 9 -23 9 -5 0 -3 -5 5 -10z"/>
<path d="M1840 1680 c-9 -6 -10 -10 -3 -10 6 0 15 5 18 10 8 12 4 12 -15 0z"/>
<path d="M1860 1665 c-7 -8 -9 -15 -4 -15 5 0 2 -5 -6 -10 -12 -7 -10 -9 8 -7
22 1 32 17 11 17 -8 0 -8 5 1 15 7 8 10 15 7 15 -2 0 -10 -7 -17 -15z"/>
<path d="M2915 1650 c-4 -6 -11 -8 -16 -5 -5 4 -9 2 -9 -3 0 -6 14 -15 30 -21
18 -6 28 -6 25 -1 -4 6 -13 10 -21 10 -8 0 -12 5 -9 10 4 6 11 7 17 4 7 -4 8
-2 4 4 -9 15 -13 15 -21 2z"/>
<path d="M407 1591 c-3 -13 -1 -18 9 -14 7 2 10 11 7 19 -7 19 -10 18 -16 -5z"/>
<path d="M2290 1586 c0 -8 -5 -16 -12 -18 -7 -3 -4 -7 7 -12 11 -4 16 -4 12 0
-4 4 -2 13 4 20 7 8 7 14 -1 19 -5 3 -10 0 -10 -9z"/>
<path d="M2671 1573 c7 -12 15 -20 18 -17 3 2 -3 12 -13 22 -17 16 -18 16 -5
-5z"/>
<path d="M1380 1576 c0 -2 7 -7 16 -10 8 -3 12 -2 9 4 -6 10 -25 14 -25 6z"/>
<path d="M2646 1561 c-3 -5 1 -11 9 -14 9 -4 12 -1 8 9 -6 16 -10 17 -17 5z"/>
<path d="M1426 1477 c3 -10 9 -15 12 -12 3 3 0 11 -7 18 -10 9 -11 8 -5 -6z"/>
<path d="M334 1458 c-4 -6 -3 -8 4 -4 5 3 12 1 14 -6 3 -8 6 -9 11 -1 4 6 0
13 -8 17 -8 3 -17 0 -21 -6z"/>
<path d="M1435 1430 c-4 -6 1 -7 12 -3 16 6 16 5 4 -10 -8 -10 -11 -20 -7 -24
12 -12 43 -10 43 4 0 16 -9 17 -25 1 -9 -9 -12 -9 -12 -1 0 7 5 15 10 18 11 7
4 25 -10 25 -5 0 -12 -4 -15 -10z"/>
<path d="M1864 1380 c0 -13 4 -16 10 -10 7 7 7 13 0 20 -6 6 -10 3 -10 -10z"/>
<path d="M1867 1294 c3 -9 0 -19 -6 -24 -9 -5 -8 -9 4 -13 9 -4 13 -3 10 3 -3
6 -2 10 2 10 5 0 9 9 9 20 0 11 -6 20 -13 20 -7 0 -10 -7 -6 -16z"/>
<path d="M2099 1297 c7 -7 14 -8 21 -1 6 6 2 10 -12 11 -16 2 -18 -1 -9 -10z"/>
<path d="M238 1290 c7 -8 17 -15 23 -15 5 0 9 -3 9 -7 0 -5 0 -12 0 -18 0 -5
-5 -9 -11 -7 -6 1 -14 -5 -16 -13 -4 -13 -3 -13 6 0 6 8 11 11 11 6 0 -5 6 -3
14 3 19 16 16 49 -4 46 -8 -1 -22 2 -30 8 -13 9 -13 9 -2 -3z"/>
<path d="M1835 1200 c-4 -6 -1 -9 6 -8 16 4 19 -24 4 -34 -5 -4 -1 -6 11 -6
14 1 20 9 20 25 0 12 -2 20 -5 18 -2 -3 -10 0 -17 6 -8 7 -14 7 -19 -1z"/>
<path d="M2532 1161 c-11 -7 -11 -9 0 -14 9 -3 15 1 15 9 0 8 -1 14 -1 14 -1
0 -7 -4 -14 -9z"/>
<path d="M193 1129 c-2 -23 3 -25 10 -4 4 8 3 16 -1 19 -4 3 -9 -4 -9 -15z"/>
<path d="M2519 1132 c11 -8 11 -10 0 -15 -10 -4 -8 -6 4 -6 21 -1 18 21 -4 27
-12 3 -12 2 0 -6z"/>
<path d="M2106 1093 c-4 -11 -1 -11 14 -3 24 13 25 17 5 17 -8 0 -16 -6 -19
-14z"/>
<path d="M170 1075 c5 -21 0 -36 -10 -30 -5 3 -10 1 -10 -4 0 -16 16 -13 30 4
10 13 11 18 1 28 -7 7 -12 8 -11 2z"/>
<path d="M1860 1060 c-9 -6 -10 -10 -3 -10 6 0 15 5 18 10 8 12 4 12 -15 0z"/>
<path d="M2510 1061 c0 -6 6 -11 13 -11 9 0 9 -2 -1 -9 -11 -6 -9 -10 7 -14
18 -4 19 -2 11 13 -12 23 -30 35 -30 21z"/>
<path d="M115 1020 c-4 -6 -3 -10 2 -9 19 3 33 -2 33 -12 0 -5 -4 -8 -9 -4 -5
3 -12 1 -15 -4 -4 -5 1 -8 10 -7 9 1 21 11 27 22 5 10 6 16 2 12 -4 -4 -16 -3
-26 2 -12 7 -20 7 -24 0z"/>
<path d="M1696 967 c3 -10 9 -15 12 -12 3 3 0 11 -7 18 -10 9 -11 8 -5 -6z"/>
<path d="M2255 971 c-3 -5 -2 -12 3 -15 5 -3 9 1 9 9 0 17 -3 19 -12 6z"/>
<path d="M1835 951 c-3 -5 -2 -12 3 -15 5 -3 9 1 9 9 0 17 -3 19 -12 6z"/>
<path d="M80 931 c13 -26 13 -34 -2 -25 -7 4 -8 3 -4 -4 4 -6 13 -9 21 -6 12
5 12 9 -2 30 -18 29 -28 32 -13 5z"/>
<path d="M445 931 c-3 -5 -2 -12 3 -15 5 -3 9 1 9 9 0 17 -3 19 -12 6z"/>
<path d="M669 921 c6 -10 7 -22 3 -26 -4 -5 -1 -5 6 -1 9 5 9 12 2 27 -6 10
-13 19 -16 19 -2 0 0 -8 5 -19z"/>
<path d="M1864 931 c5 -8 4 -16 -4 -21 -8 -5 -7 -9 5 -13 9 -4 14 -3 10 2 -3
5 0 11 6 13 7 2 4 10 -7 18 -13 11 -16 12 -10 1z"/>
<path d="M2519 936 c-8 -10 -6 -46 4 -46 9 0 9 -2 -1 -9 -10 -6 -8 -10 8 -14
21 -5 21 -5 4 20 -13 20 -13 25 -2 21 8 -4 14 1 14 11 0 13 -19 25 -27 17z"/>
<path d="M407 912 c1 -8 3 -16 3 -18 0 -2 4 -4 8 -4 4 0 9 10 9 22 2 16 0 19
-6 9 -5 -7 -11 -9 -13 -5 -3 5 -3 3 -1 -4z"/>
<path d="M711 914 c0 -11 3 -14 6 -6 3 7 2 16 -1 19 -3 4 -6 -2 -5 -13z"/>
<path d="M1331 914 c0 -11 3 -14 6 -6 3 7 2 16 -1 19 -3 4 -6 -2 -5 -13z"/>
<path d="M1271 913 c-1 -17 16 -25 25 -12 4 7 3 9 -4 5 -5 -3 -13 0 -15 6 -4
9 -6 10 -6 1z"/>
<path d="M479 893 c-13 -16 -12 -17 4 -4 9 7 17 15 17 17 0 8 -8 3 -21 -13z"/>
<path d="M820 905 c0 -7 30 -13 34 -7 3 4 -4 9 -15 9 -10 1 -19 0 -19 -2z"/>
<path d="M61 874 c0 -11 3 -14 6 -6 3 7 2 16 -1 19 -3 4 -6 -2 -5 -13z"/>
<path d="M1384 862 c4 -4 12 -8 17 -8 5 -1 13 -2 19 -3 5 0 8 -7 6 -13 -1 -7
-1 -10 1 -5 8 14 25 7 19 -8 -3 -8 -2 -14 2 -14 19 3 23 -2 12 -17 -8 -8 -9
-14 -4 -13 23 4 26 -2 8 -16 -18 -15 -18 -15 0 -8 14 5 17 3 11 -7 -5 -9 -4
-11 4 -6 6 4 9 11 6 16 -3 4 1 10 7 13 9 3 7 10 -7 27 -11 12 -19 24 -17 26 5
9 2 27 -4 21 -4 -3 -15 -2 -26 4 -24 13 -63 21 -54 11z"/>
<path d="M2100 840 c-7 -14 -7 -20 0 -20 5 0 10 6 10 14 0 8 6 17 13 19 9 4 9
6 0 6 -7 1 -17 -8 -23 -19z"/>
<path d="M355 821 c-3 -5 -2 -12 3 -15 5 -3 9 1 9 9 0 17 -3 19 -12 6z"/>
<path d="M1706 821 c-3 -5 3 -20 13 -33 11 -13 18 -36 17 -50 -4 -33 26 -54
45 -32 10 12 8 18 -9 30 -12 8 -22 21 -22 28 0 8 -7 17 -16 20 -12 5 -14 10
-5 20 6 7 8 16 4 19 -9 10 -21 9 -27 -2z m58 -90 c13 -14 14 -21 5 -27 -8 -4
-10 -3 -5 4 4 7 3 12 -2 12 -6 0 -12 7 -16 15 -7 20 -3 19 18 -4z"/>
<path d="M1825 820 c-3 -6 1 -7 9 -4 18 7 21 14 7 14 -6 0 -13 -4 -16 -10z"/>
<path d="M1856 814 c-5 -13 -4 -14 7 -6 8 7 17 9 20 5 4 -3 7 -1 7 5 0 18 -27
14 -34 -4z"/>
<path d="M2520 813 c5 -2 8 -9 4 -14 -3 -5 0 -9 6 -9 15 0 7 23 -8 26 -7 1 -8
0 -2 -3z"/>
<path d="M2099 769 c-20 -20 -20 -21 -2 -39 23 -22 28 -18 11 9 -11 18 -10 23
7 35 11 9 17 16 13 16 -5 0 -17 -9 -29 -21z"/>
<path d="M2514 768 c-3 -4 -4 -8 -2 -9 25 -6 35 -5 35 5 0 14 -25 17 -33 4z"/>
<path d="M1796 753 c-6 -14 -5 -15 5 -6 7 7 10 15 7 18 -3 3 -9 -2 -12 -12z"/>
<path d="M1825 759 c-3 -4 2 -6 10 -5 21 3 28 13 10 13 -9 0 -18 -4 -20 -8z"/>
<path d="M1812 731 c-11 -6 -10 -10 0 -19 11 -8 14 -7 14 9 0 10 0 19 -1 19 0
0 -6 -4 -13 -9z"/>
<path d="M2285 710 c-4 -6 -11 -7 -17 -4 -7 4 -8 2 -4 -4 10 -16 23 -15 30 3
6 17 0 20 -9 5z"/>
<path d="M2090 701 c0 -5 5 -13 10 -16 6 -3 10 -2 10 4 0 5 -4 13 -10 16 -5 3
-10 2 -10 -4z"/>
</g>
</svg>
