<?xml version="1.0" encoding="utf-8"?>
<!-- Generator: Adobe Illustrator 25.4.0, SVG Export Plug-In . SVG Version: 6.00 Build 0)  -->
<svg version="1.1" id="Capa_1" xmlns="http://www.w3.org/2000/svg" xmlns:xlink="http://www.w3.org/1999/xlink" x="0px" y="0px"
	 viewBox="0 0 512 512" style="enable-background:new 0 0 512 512;" xml:space="preserve">
<style type="text/css">
	.st0{fill:#2060F6;}
</style>
<g>
	<circle class="st0" cx="436.3" cy="363.5" r="10"/>
	
		<ellipse transform="matrix(0.9975 -7.096291e-02 7.096291e-02 0.9975 -35.1517 15.0143)" class="st0" cx="193.7" cy="502.2" rx="10" ry="10"/>
	<path class="st0" d="M468.9,320.9l-74.1-63.3c-0.1-0.1-0.2-0.1-0.2-0.2L367.9,236L492.1,26.8c2.5-4.2,1.6-9.6-2.1-12.7
		c-3.7-3.2-9.2-3.2-12.9,0L288.7,172.6l-14.2-11.4l-33.8-83.9c-1.9-4.7-7-7.2-11.8-5.9c-0.7,0.2-16.4,4.4-31.3,16.5
		c-11,8.9-23.2,23.6-26.3,45.6c-6.7-3-14-4.5-21.5-4.3c-27.9,0.4-50.4,23.1-50.7,50.9c-23.6,5-41.2,26.2-40.8,51.2
		c0.1,5.8,1.1,11.4,3.1,16.7c-17.2,8.7-28.7,26.9-28.4,46.8c0.1,8.1,2.2,16.1,5.9,23.2c-12.8,9.8-20.5,25.2-20.2,41.8
		c0.2,13.1,5.3,25.3,14,34.6c-8.5,9.5-13.2,21.9-13,35c0.2,13.8,5.8,26.6,15.7,36.2c9.7,9.4,22.4,14.5,35.9,14.5
		c2.2,0,4.4-0.2,6.6-0.4c1.4,8,2.9,16,4.5,24.2c0.9,4.7,5,8,9.8,8h55.9c5.5,0,10-4.5,10-10c0-5.5-4.5-10-10-10h-47.6
		c-11.5-60.1-14.6-114.5-8.9-162c4.7-39.3,15.2-73.8,31.3-102.7c27.3-48.9,61.9-64.9,62.2-65c4-1.8,6.4-5.9,5.9-10.2
		c-3.9-35.9,21.3-52.2,34.9-58.3l31.2,77.3c0.6,1.6,1.7,3,3,4.1l122,97.7l73.9,63.2c16.6,14.2,22.1,37.2,13.8,57.4
		c-5.1,12.4-14.8,22-27.2,27.1c-12.4,5.1-26,5.1-38.4,0l-90.8-37.7c-2.8-1.2-5.9-1-8.6,0.4c-10,5.4-21.1,8.8-32,10.1
		c-0.3,0,0.3-0.1,0,0c-14.7,1.6-30.3-0.4-44.3-6.2c-22.2-9.2-39.3-26.5-48.3-48.8c-9-22.2-8.7-46.6,0.8-68.7
		c2.2-5.1-0.1-11-5.2-13.1c-5.1-2.2-11,0.1-13.1,5.2c-11.7,27-12,56.9-1,84.1c11,27.2,32.1,48.5,59.2,59.7
		c15.8,6.5,32.5,9.2,49.1,8.1c6.7,8.5,23.1,33.6,25.3,78.1h-56.6c-5.5,0-10,4.5-10,10c0,5.5,4.5,10,10,10h66.9c5.5,0,10-4.5,10-10
		c0-46.1-13.6-76-23.7-91.9c6.2-1.7,12.3-4,18.3-6.9l86.5,35.9c17.3,7.2,36.4,7.2,53.7,0c17.3-7.2,30.8-20.6,38-38
		C499.8,373,492.1,340.7,468.9,320.9L468.9,320.9z M71.5,265.2c3.1,3.4,6.7,6.4,10.5,8.8c-4.4,15.5-7.7,31.9-10,49.1
		c-4.4-1.9-8.5-4.8-11.7-8.5c-4.8-5.6-7.5-12.7-7.6-20.1C52.6,281.8,60.2,270.3,71.5,265.2L71.5,265.2z M51.3,333.7
		c5.5,4.6,11.8,8,18.6,9.9c-1.2,15.1-1.6,30.7-1.2,47c-5.5-0.2-10.9-1.9-15.5-4.8c-9.1-5.7-14.6-15.5-14.7-26.2
		C38.3,349.2,43.2,339.7,51.3,333.7L51.3,333.7z M71.6,460.2c-8.4,0.1-16.4-3-22.5-8.9c-6.1-5.9-9.5-13.7-9.6-22.2
		c-0.1-8.8,3.3-17,9.4-23c6.5,2.9,13.4,4.4,20.6,4.5c1,16,2.7,32.5,5.1,49.4C73.7,460.2,72.7,460.2,71.6,460.2L71.6,460.2z
		 M88.6,254c-2-1.8-3.7-3.8-5.2-6c-3.4-5-5.2-10.9-5.3-17c-0.2-15.1,10.3-28,24.4-31.2c1.6,4.1,3.8,8,6.4,11.5
		c-0.9,1.5-1.9,3.1-2.8,4.7C99.4,227.8,93.5,240.5,88.6,254z M121.3,192.8c-0.8-1.9-1.4-3.8-1.8-5.9c-0.4-1.9-0.6-3.8-0.6-5.8
		c-0.3-17.4,13.7-31.8,31.1-32.1c4.6-0.1,9.2,0.9,13.3,2.7C152.5,159.2,136.8,172.1,121.3,192.8z M369,131.1l10.6,46.1L359,211.8
		l-13.8-60.3c0-0.1-0.1-0.2-0.1-0.3L369,131.1z M394.3,152.3l-8.2-35.6l58.6-49.3L394.3,152.3z M304.6,185.3l23.4-19.7l10.8,47
		L304.6,185.3z"/>
	<path class="st0" d="M230.4,249.6c1.2-0.4,28.6-9.9,42.2,10.9c1.9,2.9,5.1,4.5,8.4,4.5c1.9,0,3.8-0.5,5.5-1.6
		c4.6-3,5.9-9.2,2.9-13.9c-17.9-27.3-50.9-24.2-65.8-18.7c-5.2,1.9-7.8,7.6-6,12.8C219.5,248.8,225.3,251.5,230.4,249.6L230.4,249.6
		z"/>
	<path class="st0" d="M259.3,60l24.1,13.2l13.2,24.1c1.8,3.2,5.1,5.2,8.8,5.2s7-2,8.8-5.2l13.2-24.1L351.3,60
		c3.2-1.8,5.2-5.1,5.2-8.8s-2-7-5.2-8.8l-24.1-13.2L314.1,5.2C312.3,2,309,0,305.3,0c-3.7,0-7,2-8.8,5.2l-13.2,24.1l-24.1,13.2
		c-3.2,1.8-5.2,5.1-5.2,8.8C254.1,54.9,256.1,58.2,259.3,60z M295.6,45.4c1.7-0.9,3.1-2.3,4-4l5.8-10.6l5.8,10.6
		c0.9,1.7,2.3,3.1,4,4l10.6,5.8L315.1,57c-1.7,0.9-3.1,2.3-4,4l-5.8,10.6L299.5,61c-0.9-1.7-2.3-3.1-4-4L285,51.2L295.6,45.4z"/>
	<path class="st0" d="M463.9,209.5c5.5,0,10-4.5,10-10v-5.2h5.2c5.5,0,10-4.5,10-10s-4.5-10-10-10h-5.2v-5.2c0-5.5-4.5-10-10-10
		s-10,4.5-10,10v5.2h-5.2c-5.5,0-10,4.5-10,10s4.5,10,10,10h5.2v5.2C453.9,205,458.4,209.5,463.9,209.5z"/>
</g>
</svg>
