<svg version="1.1" xmlns="http://www.w3.org/2000/svg" xmlns:xlink="http://www.w3.org/1999/xlink" width="15" height="25" viewBox="0,0,153.60001,256"><g fill="none" fill-rule="nonzero" stroke="none" stroke-width="none" stroke-linecap="butt" stroke-linejoin="miter" stroke-miterlimit="10" stroke-dasharray="none" stroke-dashoffset="0" font-family="none" font-weight="none" font-size="none" text-anchor="none" style="mix-blend-mode: normal"><g transform="translate(0,0) scale(1,1)"><g transform="translate(-6.144,-10.24) scale(1.08,1.08)"><g><g><g transform="translate(6.144,10.24) scale(0.92,0.92)"><g fill="#2060f6" stroke="none" stroke-width="1" stroke-dasharray=""><g transform="translate(-0.0001,0)"><g><g transform="translate(1.7065,-5.08051) scale(10.24,10.24)"><path d="M14.6667,1.66674c0,-0.17681 -0.0703,-0.34638 -0.1953,-0.47141c-0.125,-0.12502 -0.2946,-0.19526 -0.4714,-0.19526h-3.3333c-1.67854,-0.08361 -3.3219,0.50052 -4.57107,1.62477c-1.24917,1.12426 -2.00258,2.69723 -2.09563,4.37523v3.60003h-3.33333c-0.17681,0 -0.34638,0.0702 -0.4714,0.1952c-0.12502,0.1251 -0.19526,0.2946 -0.19526,0.4714v3.4667c0,0.1768 0.07024,0.3464 0.19526,0.4714c0.12503,0.125 0.29459,0.1953 0.47141,0.1953h3.33333v8.9333c0,0.1768 0.07024,0.3464 0.19526,0.4714c0.12503,0.125 0.2946,0.1953 0.47141,0.1953h4c0.17681,0 0.34638,-0.0703 0.4714,-0.1953c0.12503,-0.125 0.19526,-0.2946 0.19526,-0.4714v-8.9333h3.49337c0.1482,0.0021 0.293,-0.0453 0.4113,-0.1346c0.1183,-0.0893 0.2035,-0.2156 0.242,-0.3588l0.96,-3.4666c0.0265,-0.0985 0.0301,-0.2018 0.0104,-0.3019c-0.0196,-0.1001 -0.062,-0.1944 -0.1239,-0.2755c-0.0618,-0.0811 -0.1414,-0.147 -0.2327,-0.1926c-0.0913,-0.0455 -0.1918,-0.0695 -0.2938,-0.07h-4.46667v-3.60003c0.03317,-0.33003 0.18816,-0.63585 0.4347,-0.85774c0.24657,-0.22189 0.56697,-0.34392 0.89867,-0.34226h3.3333c0.1768,0 0.3464,-0.07024 0.4714,-0.19526c0.125,-0.12503 0.1953,-0.29459 0.1953,-0.47141z"></path></g></g></g></g><g fill="none" stroke="#5dd3c8" stroke-width="1.16" stroke-dasharray="9.28,9.28" font-family="none" font-weight="none" font-size="NaN" text-anchor="start"></g></g></g></g></g></g></g></svg>