<svg version="1.1" xmlns="http://www.w3.org/2000/svg" xmlns:xlink="http://www.w3.org/1999/xlink" width="24" height="24" viewBox="0,0,256,256"><g fill="#2060f6" fill-rule="nonzero" stroke="none" stroke-width="1" stroke-linecap="butt" stroke-linejoin="miter" stroke-miterlimit="10" stroke-dasharray="" stroke-dashoffset="0" font-family="none" font-weight="none" font-size="none" text-anchor="none" style="mix-blend-mode: normal"><g transform="scale(10.66667,10.66667)"><path d="M12.0027,5.8467c-3.40527,0 -6.15195,2.7473 -6.15195,6.1533c0,3.406 2.74668,6.1533 6.15195,6.1533c3.4052,0 6.1519,-2.7473 6.1519,-6.1533c0,-3.406 -2.7467,-6.1533 -6.1519,-6.1533zM12.0027,16.0004c-2.20058,0 -3.99958,-1.794 -3.99958,-4.0004c0,-2.2064 1.79365,-4.00045 3.99958,-4.00045c2.2059,0 3.9995,1.79405 3.9995,4.00045c0,2.2064 -1.799,4.0004 -3.9995,4.0004zM19.8412,5.595c0,0.79795 -0.6425,1.43524 -1.435,1.43524c-0.7977,0 -1.4349,-0.64265 -1.4349,-1.43524c0,-0.79259 0.6425,-1.43523 1.4349,-1.43523c0.7925,0 1.435,0.64264 1.435,1.43523zM23.9157,7.05166c-0.091,-1.92257 -0.5301,-3.62558 -1.9382,-5.02868c-1.4028,-1.4031 -3.1054,-1.84224 -5.0276,-1.93863c-1.981,-0.11246 -7.91878,-0.11246 -9.89982,0c-1.91678,0.09104 -3.6194,0.53018 -5.02755,1.93328c-1.40814,1.4031 -1.84183,3.1061 -1.9382,5.02867c-0.11244,1.98148 -0.11244,7.9206 0,9.902c0.09102,1.9226 0.53006,3.6256 1.9382,5.0287c1.40815,1.4031 3.10541,1.8423 5.02755,1.9387c1.98104,0.1124 7.91882,0.1124 9.89982,0c1.9222,-0.0911 3.6248,-0.5302 5.0276,-1.9387c1.4028,-1.4031 1.8418,-3.1061 1.9382,-5.0287c0.1124,-1.9814 0.1124,-7.91516 0,-9.89664zM21.3564,19.0744c-0.4176,1.0497 -1.2261,1.8583 -2.2809,2.2814c-1.5795,0.6266 -5.3274,0.482 -7.0728,0.482c-1.7455,0 -5.49874,0.1392 -7.07286,-0.482c-1.04942,-0.4177 -1.85789,-1.2264 -2.28087,-2.2814c-0.62644,-1.5798 -0.48188,-5.3286 -0.48188,-7.0744c0,-1.7458 -0.1392,-5.49994 0.48188,-7.07442c0.41762,-1.04965 1.2261,-1.8583 2.28087,-2.28138c1.57947,-0.62657 5.32736,-0.48198 7.07286,-0.48198c1.7454,0 5.4987,-0.13924 7.0728,0.48198c1.0494,0.41772 1.8579,1.22638 2.2809,2.28138c0.6264,1.57983 0.4819,5.32862 0.4819,7.07442c0,1.7458 0.1445,5.4999 -0.4819,7.0744z"></path></g></g></svg>