<svg width="24.000000" height="24.000000" viewBox="0 0 24 24" fill="none" xmlns="http://www.w3.org/2000/svg" xmlns:xlink="http://www.w3.org/1999/xlink">
	<desc>
			Created with Pixso.
	</desc>
	<defs/>
	<path id="“" d="M2 21.4805C2 20.3594 2 19.2402 2 18.1191C2 16.9531 2 15.8105 2 14.6895C2 11.0957 2.51172 8.27344 3.53906 6.2207C4.56641 4.16602 6.36328 3.09375 8.92969 3L10.2617 5.73047C8.8125 5.86914 7.80859 6.57031 7.25 7.83008C6.73828 9.04297 6.48047 10.9805 6.48047 13.6406L10.1914 13.6406L10.1914 21.4805L2 21.4805ZM14.3203 21.4805C14.3203 20.3594 14.3203 19.2402 14.3203 18.1191C14.3203 16.9531 14.3203 15.8105 14.3203 14.6895C14.3203 11.0957 14.832 8.27344 15.8594 6.2207C16.8867 4.16602 18.6836 3.09375 21.25 3L22.5781 5.73047C21.1328 5.86914 20.1289 6.57031 19.5703 7.83008C19.0586 9.04297 18.8008 10.9805 18.8008 13.6406L22.5117 13.6406L22.5117 21.4805L14.3203 21.4805Z" fill="#2060F6" fill-opacity="1.000000" fill-rule="nonzero"/>
</svg>
