<svg width="161" height="182" viewBox="0 0 161 182" fill="none" xmlns="http://www.w3.org/2000/svg">
<path d="M6.66574 96.8672C0.926225 93.5535 -1.04027 86.2144 2.27345 80.4749L44.7615 6.88352C48.0752 1.14401 55.4143 -0.822483 61.1538 2.49122L78.3912 12.4432C84.1307 15.7569 86.0972 23.096 82.7835 28.8355L40.2954 102.427C36.9817 108.166 29.6426 110.133 23.9031 106.819L6.66574 96.8672Z" fill="#2060F6"/>
<path d="M82.3884 169.553C76.6489 166.239 74.6824 158.9 77.9961 153.16L120.484 79.5691C123.798 73.8296 131.137 71.8631 136.876 75.1768L154.114 85.1288C159.853 88.4425 161.82 95.7815 158.506 101.521L116.018 175.112C112.704 180.852 105.365 182.818 99.6258 179.505L82.3884 169.553Z" fill="#2060F6"/>
</svg>
