<svg version="1.1" xmlns="http://www.w3.org/2000/svg" xmlns:xlink="http://www.w3.org/1999/xlink" width="25" height="22" viewBox="0,0,256,225.27501"><g fill="#ffffff" fill-rule="nonzero" stroke="none" stroke-width="1" stroke-linecap="butt" stroke-linejoin="miter" stroke-miterlimit="10" stroke-dasharray="" stroke-dashoffset="0" font-family="none" font-weight="none" font-size="none" text-anchor="none" style="mix-blend-mode: normal"><g transform="translate(4.99873,-0.07024) scale(10.24,10.24)"><path d="M6.77241,21.6671c1.97159,0.0659 3.93639,-0.264 5.77829,-0.9703c1.8419,-0.7063 3.5236,-1.7747 4.9456,-3.142c1.422,-1.3673 2.5554,-3.0058 3.3334,-4.8186c0.778,-1.8128 1.1847,-3.76315 1.196,-5.73582c0.9036,-1.11811 1.5745,-2.40556 1.9734,-3.78666c0.0298,-0.10912 0.0273,-0.22452 -0.0069,-0.3323c-0.0343,-0.10779 -0.0991,-0.20336 -0.1864,-0.27522c-0.0874,-0.07185 -0.1936,-0.11692 -0.306,-0.12978c-0.1124,-0.01286 -0.2261,0.00704 -0.3274,0.0573c-0.4727,0.22754 -1.0049,0.30103 -1.5215,0.21014c-0.5167,-0.0909 -0.9918,-0.34161 -1.3585,-0.71681c-0.4681,-0.51256 -1.0342,-0.92596 -1.665,-1.2157c-0.6308,-0.28974 -1.3133,-0.44992 -2.0071,-0.47106c-0.6938,-0.02114 -1.3847,0.0972 -2.032,0.348c-0.6472,0.2508 -1.2375,0.62897 -1.7359,1.11208c-0.6824,0.66088 -1.1822,1.48706 -1.4509,2.39824c-0.2687,0.91118 -0.2971,1.87637 -0.0824,2.80176c-4.46669,0.26667 -7.53336,-1.85333 -9.98669,-4.76c-0.0737,-0.08346 -0.17011,-0.14366 -0.27746,-0.17324c-0.10735,-0.02957 -0.22099,-0.02725 -0.32704,0.00668c-0.10605,0.03394 -0.19993,0.09802 -0.27016,0.18443c-0.07023,0.0864 -0.11379,0.19139 -0.12534,0.30213c-0.46737,2.59257 -0.13023,5.26607 0.96616,7.66142c1.09638,2.3954 2.8995,4.3979 5.16717,5.7386c-1.52048,1.7438 -3.65572,2.8329 -5.95999,3.04c-0.12345,0.0205 -0.23741,0.079 -0.32593,0.1675c-0.08852,0.0884 -0.14717,0.2023 -0.16774,0.3258c-0.02057,0.1234 -0.00204,0.2502 0.05301,0.3626c0.05505,0.1123 0.14386,0.2047 0.254,0.2641c2.00469,1.0018 4.21231,1.5309 6.45333,1.5467z"></path></g></g></svg>