<svg width="21" height="19" viewBox="0 0 21 19" fill="none" xmlns="http://www.w3.org/2000/svg">
<rect width="21" height="19" fill="#E5E5E5"/>
<rect x="-374" y="-4463" width="1600" height="6374" fill="#F2F9FF"/>
<g filter="url(#filter0_d)">
<rect x="-147" y="-309" width="314" height="494" rx="24" fill="white"/>
</g>
<path d="M0 18.48C0 17.36 0 16.24 0 15.12C0 13.9533 0 12.81 0 11.69C0 8.09667 0.513333 5.27334 1.54 3.22C2.56667 1.16667 4.36333 0.0933349 6.93 0L8.26 2.73C6.81333 2.87 5.81 3.57 5.25 4.83C4.73667 6.04333 4.48 7.98 4.48 10.64H8.19V18.48H0ZM12.32 18.48C12.32 17.36 12.32 16.24 12.32 15.12C12.32 13.9533 12.32 12.81 12.32 11.69C12.32 8.09667 12.8333 5.27334 13.86 3.22C14.8867 1.16667 16.6833 0.0933349 19.25 0L20.58 2.73C19.1333 2.87 18.13 3.57 17.57 4.83C17.0567 6.04333 16.8 7.98 16.8 10.64H20.51V18.48H12.32Z" fill="#56CCF2"/>
<defs>
<filter id="filter0_d" x="-165" y="-318" width="350" height="530" filterUnits="userSpaceOnUse" color-interpolation-filters="sRGB">
<feFlood flood-opacity="0" result="BackgroundImageFix"/>
<feColorMatrix in="SourceAlpha" type="matrix" values="0 0 0 0 0 0 0 0 0 0 0 0 0 0 0 0 0 0 127 0"/>
<feOffset dy="9"/>
<feGaussianBlur stdDeviation="9"/>
<feColorMatrix type="matrix" values="0 0 0 0 0.146146 0 0 0 0 0.158892 0 0 0 0 0.191667 0 0 0 0.03 0"/>
<feBlend mode="normal" in2="BackgroundImageFix" result="effect1_dropShadow"/>
<feBlend mode="normal" in="SourceGraphic" in2="effect1_dropShadow" result="shape"/>
</filter>
</defs>
</svg>
