<?xml version="1.0" ?><svg fill="none" height="28" viewBox="0 0 24 24" width="28" xmlns="http://www.w3.org/2000/svg"><g clip-path="url(#clip0_14_4)"><path d="M18.5 5.5H18.51M17 12C17 14.7614 14.7614 17 12 17C9.23858 17 7 14.7614 7 12C7 9.23858 9.23858 7 12 7C14.7614 7 17 9.23858 17 12ZM12 23C12.8336 23 13.6812 22.9861 14.5148 22.9629C17.1371 22.8901 18.4483 22.8536 19.6777 22.2099C20.6688 21.691 21.691 20.6688 22.2099 19.6777C22.8536 18.4483 22.8901 17.1371 22.9629 14.5148C22.9861 13.6812 23 12.8336 23 12C23 11.1664 22.9861 10.3188 22.9629 9.48519C22.8901 6.86286 22.8536 5.55169 22.2099 4.32232C21.691 3.33118 20.6688 2.30902 19.6777 1.79006C18.4483 1.14636 17.1371 1.10993 14.5148 1.03706C13.6812 1.0139 12.8336 1 12 1C11.1664 1 10.3188 1.0139 9.48519 1.03706C6.86286 1.10993 5.55169 1.14636 4.32232 1.79006C3.33118 2.30902 2.30902 3.33118 1.79006 4.32232C1.14636 5.55169 1.10993 6.86286 1.03706 9.48519C1.0139 10.3188 1 11.1664 1 12C1 12.8336 1.0139 13.6812 1.03706 14.5148C1.10993 17.1371 1.14636 18.4483 1.79006 19.6777C2.30902 20.6688 3.33118 21.691 4.32232 22.2099C5.55169 22.8536 6.86286 22.8901 9.48519 22.9629C10.3188 22.9861 11.1664 23 12 23Z" stroke="blue" stroke-linecap="round" stroke-linejoin="round" stroke-width="2"/></g><defs><clipPath id="clip0_14_4"><rect fill="white" height="24" width="24"/></clipPath></defs></svg>