<?xml version="1.0" encoding="utf-8"?>
<!-- Uploaded to: SVG Repo, www.svgrepo.com, Generator: SVG Repo Mixer Tools -->
<svg width="800px" height="800px" viewBox="0 0 71.084 71.084" xmlns="http://www.w3.org/2000/svg">
  <g id="Sun" transform="translate(1.542 1.542)">
    <g id="Oval-9">
      <path id="Path_8" data-name="Path 8" d="M34,54A20,20,0,1,1,54,34,20.022,20.022,0,0,1,34,54Zm0-36A16,16,0,1,0,50,34,16.018,16.018,0,0,0,34,18Z" fill="#00699b"/>
    </g>
    <g id="Line_1_">
      <path id="Path_9" data-name="Path 9" d="M34,69.542a2,2,0,0,1-2-2V52a2,2,0,0,1,4,0V67.542A2,2,0,0,1,34,69.542Zm23.718-9.824a1.993,1.993,0,0,1-1.414-.586l-10.99-10.99a2,2,0,0,1,2.828-2.828L59.132,56.3a2,2,0,0,1-1.414,3.414Zm-47.436,0A2,2,0,0,1,8.868,56.3l10.99-10.99a2,2,0,0,1,2.828,2.828L11.7,59.132A1.993,1.993,0,0,1,10.282,59.718ZM67.542,36H52a2,2,0,0,1,0-4H67.542a2,2,0,0,1,0,4ZM16,36H.458a2,2,0,1,1,0-4H16a2,2,0,0,1,0,4ZM46.728,23.272a2,2,0,0,1-1.414-3.414L56.3,8.869A2,2,0,0,1,59.132,11.7L48.142,22.686A1.993,1.993,0,0,1,46.728,23.272Zm-25.455,0a1.993,1.993,0,0,1-1.414-.586L8.868,11.7A2,2,0,0,1,11.7,8.869l10.99,10.989a2,2,0,0,1-1.414,3.414ZM34,18a2,2,0,0,1-2-2V.458a2,2,0,0,1,4,0V16A2,2,0,0,1,34,18Z" fill="#00699b"/>
    </g>
  </g>
</svg>