<svg width="1024" height="489" viewBox="0 0 1024 489" fill="none" xmlns="http://www.w3.org/2000/svg">
<rect opacity="0.5" x="1.99213" y="-0.729001" width="73.5525" height="27.2623" rx="10.5" transform="matrix(0.421044 -0.90704 0.907042 0.42104 881.358 350.846)" stroke="#2060F6" stroke-width="3"/>
<rect opacity="0.5" x="-0.125062" y="68.7065" width="73.5525" height="27.2623" rx="10.5" transform="rotate(-65.0996 -0.125062 68.7065)" stroke="#2060F6" stroke-width="3"/>
<rect opacity="0.5" x="1.99212" y="-0.728999" width="37.489" height="13.0059" rx="4.5" transform="matrix(0.421041 -0.907042 0.907041 0.421043 190.162 42.5802)" stroke="#2060F6" stroke-width="3"/>
<rect opacity="0.5" x="1.99212" y="-0.728998" width="37.489" height="13.0059" rx="4.5" transform="matrix(0.421041 -0.907042 0.907041 0.421043 696.272 433.342)" stroke="#2060F6" stroke-width="3"/>
<rect opacity="0.5" x="3.32021" y="-1.215" width="132.355" height="49.2983" rx="9.5" transform="matrix(0.421041 -0.907042 0.907041 0.421042 987.817 431.959)" stroke="#2060F6" stroke-width="5"/>
<rect opacity="0.5" x="931.082" y="167.515" width="122.903" height="45.5618" rx="9.5" transform="rotate(-65.0996 931.082 167.515)" stroke="#2060F6" stroke-width="5"/>
<rect opacity="0.5" x="3.32021" y="-1.215" width="122.903" height="45.5618" rx="9.5" transform="matrix(0.421042 -0.907041 0.907042 0.421041 33.0985 306.998)" stroke="#2060F6" stroke-width="5"/>
<rect opacity="0.5" x="1.99213" y="-0.729" width="37.4868" height="13.005" rx="4.5" transform="matrix(0.421042 -0.907041 0.907042 0.421041 221.459 389.526)" stroke="#2060F6" stroke-width="3"/>
</svg>
