<svg width="1450.800781" height="546.861328" viewBox="0 0 1450.8 546.861" fill="none" xmlns="http://www.w3.org/2000/svg" xmlns:xlink="http://www.w3.org/1999/xlink">
	<desc>
			Created with Pixso.
	</desc>
	<defs/>
	<g opacity="0.500000">
		<rect id="Rectangle" x="1138.820312" y="390.082031" rx="12.000000" width="82.610863" height="30.843208" transform="rotate(-65.0996 1138.820312 390.082031)" stroke="#2060F6" stroke-opacity="1.000000" stroke-width="3.000000"/>
	</g>
	<g opacity="0.500000">
		<rect id="Rectangle" x="152.835938" y="76.921875" rx="12.000000" width="82.610863" height="30.843208" transform="rotate(-65.0996 152.835938 76.921875)" stroke="#2060F6" stroke-opacity="1.000000" stroke-width="3.000000"/>
	</g>
	<g opacity="0.500000">
		<rect id="Rectangle" x="365.835938" y="45.339844" rx="6.000000" width="42.279961" height="14.899822" transform="rotate(-65.0996 365.835938 45.339844)" stroke="#2060F6" stroke-opacity="1.000000" stroke-width="3.000000"/>
	</g>
	<g opacity="0.500000">
		<rect id="Rectangle" x="931.835938" y="482.339844" rx="6.000000" width="42.279961" height="14.899822" transform="rotate(-65.0994 931.835938 482.339844)" stroke="#2060F6" stroke-opacity="1.000000" stroke-width="3.000000"/>
	</g>
	<g opacity="0.500000">
		<rect id="Rectangle" x="1385.429688" y="282.146484" rx="12.000000" width="83.406029" height="31.157551" transform="rotate(-65.0996 1385.429688 282.146484)" stroke="#2060F6" stroke-opacity="1.000000" stroke-width="3.000000"/>
	</g>
	<g opacity="0.500000">
		<rect id="Rectangle" x="1257.851562" y="479.275391" rx="12.000000" width="148.607513" height="55.723267" transform="rotate(-65.0996 1257.851562 479.275391)" stroke="#2060F6" stroke-opacity="1.000000" stroke-width="5.000000"/>
	</g>
	<g opacity="0.500000">
		<rect id="Rectangle" x="3.320312" y="357.998047" rx="10.813920" width="62.358635" height="21.627840" transform="rotate(-65.0996 3.320312 357.998047)" stroke="#2060F6" stroke-opacity="1.000000" stroke-width="5.000000"/>
	</g>
	<g opacity="0.500000">
		<rect id="Rectangle" x="1194.074219" y="187.480469" rx="12.000000" width="138.037247" height="51.544685" transform="rotate(-65.0997 1194.074219 187.480469)" stroke="#2060F6" stroke-opacity="1.000000" stroke-width="5.000000"/>
	</g>
	<g opacity="0.500000">
		<rect id="Rectangle" x="1366.855469" y="85.445312" rx="8.000000" width="50.686665" height="18.223112" transform="rotate(-65.0997 1366.855469 85.445312)" stroke="#2060F6" stroke-opacity="1.000000" stroke-width="3.000000"/>
	</g>
	<g opacity="0.500000">
		<rect id="Rectangle" x="190.164062" y="339.527344" rx="12.000000" width="138.037247" height="51.544685" transform="rotate(-65.0996 190.164062 339.527344)" stroke="#2060F6" stroke-opacity="1.000000" stroke-width="5.000000"/>
	</g>
	<g opacity="0.500000">
		<rect id="Rectangle" x="52.585938" y="530.078125" rx="12.000000" width="88.540741" height="31.978004" transform="rotate(-65.0996 52.585938 530.078125)" stroke="#2060F6" stroke-opacity="1.000000" stroke-width="5.000000"/>
	</g>
	<g opacity="0.500000">
		<rect id="Rectangle" x="400.835938" y="433.337891" rx="6.000000" width="42.277485" height="14.898844" transform="rotate(-65.0997 400.835938 433.337891)" stroke="#2060F6" stroke-opacity="1.000000" stroke-width="3.000000"/>
	</g>
</svg>
