<svg xmlns="http://www.w3.org/2000/svg" viewBox="0 0 14.67 24.01"><defs><style>.cls-1{fill:#385ea9;}</style></defs><g id="Шар_2" data-name="Шар 2"><g id="Шар_1-2" data-name="Шар 1"><path class="cls-1" d="M14.67.67A.67.67,0,0,0,14,0H10.67A6.36,6.36,0,0,0,4,6v3.6H.67a.67.67,0,0,0-.67.66v3.47a.63.63,0,0,0,.2.47.63.63,0,0,0,.47.2H4v8.93a.68.68,0,0,0,.67.67h4a.67.67,0,0,0,.66-.67V14.41h3.5a.7.7,0,0,0,.41-.14.64.64,0,0,0,.24-.36l1-3.46a.61.61,0,0,0,0-.3.7.7,0,0,0-.12-.28.63.63,0,0,0-.24-.19.59.59,0,0,0-.29-.07H9.33V6a1.36,1.36,0,0,1,.44-.86,1.34,1.34,0,0,1,.9-.34H14a.68.68,0,0,0,.67-.67Z"/></g></g></svg>