<svg xmlns="http://www.w3.org/2000/svg" xmlns:xlink="http://www.w3.org/1999/xlink" viewBox="0 0 24 24"><defs><style>.cls-1{fill:url(#Градієнт_без_назви_69);}</style><linearGradient id="Градієнт_без_назви_69" y1="12" x2="24" y2="12" gradientUnits="userSpaceOnUse"><stop offset="0" stop-color="#f7e93c"/><stop offset="0.08" stop-color="#f5ce45"/><stop offset="0.35" stop-color="#ed7862"/><stop offset="0.54" stop-color="#e94274"/><stop offset="0.63" stop-color="#e72d7b"/><stop offset="0.63" stop-color="#e62d7b"/><stop offset="0.77" stop-color="#973b8a"/><stop offset="0.88" stop-color="#5e4594"/><stop offset="0.96" stop-color="#3a4c9b"/><stop offset="1" stop-color="#2d4e9d"/></linearGradient></defs><g id="Шар_2" data-name="Шар 2"><g id="Шар_1-2" data-name="Шар 1"><path class="cls-1" d="M12,5.85A6.15,6.15,0,1,0,18.15,12,6.14,6.14,0,0,0,12,5.85ZM12,16a4,4,0,1,1,4-4A4,4,0,0,1,12,16ZM19.84,5.59a1.44,1.44,0,1,1-1.43-1.43A1.43,1.43,0,0,1,19.84,5.59Zm4.08,1.46A7.16,7.16,0,0,0,22,2,7.2,7.2,0,0,0,17,.08C15,0,9,0,7.05.08A7.16,7.16,0,0,0,2,2a7.12,7.12,0,0,0-1.94,5C0,9,0,15,.08,17A7.16,7.16,0,0,0,2,22a7.2,7.2,0,0,0,5,1.94C9,24,15,24,17,23.92A7.16,7.16,0,0,0,22,22a7.2,7.2,0,0,0,1.94-5C24,15,24,9,23.92,7.05Zm-2.56,12a4.1,4.1,0,0,1-2.28,2.29c-1.58.62-5.33.48-7.08.48s-5.5.14-7.07-.48a4,4,0,0,1-2.28-2.29C2,17.49,2.17,13.75,2.17,12S2,6.5,2.65,4.93A4.1,4.1,0,0,1,4.93,2.64C6.51,2,10.26,2.16,12,2.16s5.5-.14,7.08.48a4.1,4.1,0,0,1,2.28,2.29c.62,1.58.48,5.32.48,7.07S22,17.5,21.36,19.07Z"/></g></g></svg>