<svg xmlns="http://www.w3.org/2000/svg" viewBox="0 0 24.02 21.34"><defs><style>.cls-1{fill:#fff;}</style></defs><g id="Шар_2" data-name="Шар 2"><g id="Шар_1-2" data-name="Шар 1"><path class="cls-1" d="M6.77,21.33a14.66,14.66,0,0,0,5.78-1,14.8,14.8,0,0,0,8.28-8A14.86,14.86,0,0,0,22,6.66a10.71,10.71,0,0,0,2-3.78.78.78,0,0,0,0-.34.64.64,0,0,0-.19-.27.58.58,0,0,0-.3-.13.61.61,0,0,0-.33.06,2.57,2.57,0,0,1-1.52.21,2.54,2.54,0,0,1-1.36-.72A5.29,5.29,0,0,0,18.62.47a5.14,5.14,0,0,0-2-.47,5.18,5.18,0,0,0-3.77,1.46,5.55,5.55,0,0,0-1.45,2.4,5.43,5.43,0,0,0-.08,2.8c-4.47.27-7.54-1.85-10-4.76a.62.62,0,0,0-.28-.17.53.53,0,0,0-.33,0,.54.54,0,0,0-.27.18.56.56,0,0,0-.12.3,12.89,12.89,0,0,0,6.13,13.4,8.9,8.9,0,0,1-6,3,.56.56,0,0,0-.32.17.59.59,0,0,0-.17.33.64.64,0,0,0,0,.36.65.65,0,0,0,.26.26A14.73,14.73,0,0,0,6.77,21.33Z"/></g></g></svg>