<svg width="21" height="21" viewBox="0 0 21 21" fill="none" xmlns="http://www.w3.org/2000/svg">
<path d="M0.5 13.5C0.5 12.9477 0.947715 12.5 1.5 12.5C2.05228 12.5 2.5 12.9477 2.5 13.5C2.5 14.0523 2.05228 14.5 1.5 14.5C0.947715 14.5 0.5 14.0523 0.5 13.5ZM6.49998 13.5001C6.49998 12.9478 6.94769 12.5001 7.49998 12.5001C8.05226 12.5001 8.49998 12.9478 8.49998 13.5001C8.49998 14.0523 8.05226 14.5001 7.49998 14.5001C6.94769 14.5001 6.49998 14.0523 6.49998 13.5001ZM12.5 13.5001C12.5 12.9478 12.9477 12.5001 13.5 12.5001C14.0523 12.5001 14.5 12.9478 14.5 13.5001C14.5 14.0523 14.0523 14.5001 13.5 14.5001C12.9477 14.5001 12.5 14.0523 12.5 13.5001ZM18.5 13.5001C18.5 12.9478 18.9477 12.5001 19.5 12.5001C20.0523 12.5001 20.5 12.9478 20.5 13.5001C20.5 14.0523 20.0523 14.5001 19.5 14.5001C18.9477 14.5001 18.5 14.0523 18.5 13.5001ZM0.5 19.5C0.5 18.9478 0.947715 18.5 1.5 18.5C2.05228 18.5 2.5 18.9478 2.5 19.5C2.5 20.0523 2.05228 20.5 1.5 20.5C0.947715 20.5 0.5 20.0523 0.5 19.5ZM6.49998 19.5C6.49998 18.9478 6.94769 18.5 7.49998 18.5C8.05226 18.5 8.49998 18.9478 8.49998 19.5C8.49998 20.0523 8.05226 20.5 7.49998 20.5C6.94769 20.5 6.49998 20.0523 6.49998 19.5ZM12.5 19.5C12.5 18.9478 12.9477 18.5 13.5 18.5C14.0523 18.5 14.5 18.9478 14.5 19.5C14.5 20.0523 14.0523 20.5 13.5 20.5C12.9477 20.5 12.5 20.0523 12.5 19.5ZM18.5 19.5C18.5 18.9478 18.9477 18.5 19.5 18.5C20.0523 18.5 20.5 18.9478 20.5 19.5C20.5 20.0523 20.0523 20.5 19.5 20.5C18.9477 20.5 18.5 20.0523 18.5 19.5ZM0.5 1.5C0.5 0.947715 0.947715 0.5 1.5 0.5C2.05228 0.5 2.5 0.947715 2.5 1.5C2.5 2.05228 2.05228 2.5 1.5 2.5C0.947715 2.5 0.5 2.05228 0.5 1.5ZM6.49998 1.50005C6.49998 0.947768 6.94769 0.500053 7.49998 0.500053C8.05226 0.500053 8.49998 0.947768 8.49998 1.50005C8.49998 2.05234 8.05226 2.50005 7.49998 2.50005C6.94769 2.50005 6.49998 2.05234 6.49998 1.50005ZM12.5 1.50005C12.5 0.947768 12.9477 0.500053 13.5 0.500053C14.0523 0.500053 14.5 0.947768 14.5 1.50005C14.5 2.05234 14.0523 2.50005 13.5 2.50005C12.9477 2.50005 12.5 2.05234 12.5 1.50005ZM18.5 1.50005C18.5 0.947769 18.9477 0.500053 19.5 0.500053C20.0523 0.500053 20.5 0.947769 20.5 1.50005C20.5 2.05234 20.0523 2.50005 19.5 2.50005C18.9477 2.50005 18.5 2.05234 18.5 1.50005ZM0.5 7.50005C0.5 6.94777 0.947715 6.50005 1.5 6.50005C2.05228 6.50005 2.5 6.94777 2.5 7.50005C2.5 8.05233 2.05228 8.50005 1.5 8.50005C0.947716 8.50005 0.5 8.05233 0.5 7.50005ZM6.49998 7.50005C6.49998 6.94777 6.94769 6.50005 7.49998 6.50005C8.05226 6.50005 8.49998 6.94777 8.49998 7.50005C8.49998 8.05233 8.05226 8.50005 7.49998 8.50005C6.94769 8.50005 6.49998 8.05233 6.49998 7.50005ZM12.5 7.50005C12.5 6.94777 12.9477 6.50005 13.5 6.50005C14.0523 6.50005 14.5 6.94777 14.5 7.50005C14.5 8.05233 14.0523 8.50005 13.5 8.50005C12.9478 8.50005 12.5 8.05233 12.5 7.50005ZM18.5 7.50005C18.5 6.94777 18.9477 6.50005 19.5 6.50005C20.0523 6.50005 20.5 6.94777 20.5 7.50005C20.5 8.05233 20.0523 8.50005 19.5 8.50005C18.9477 8.50005 18.5 8.05233 18.5 7.50005Z" fill="url(#paint0_linear)" fill-opacity="0.25" stroke="white"/>
<defs>
<linearGradient id="paint0_linear" x1="19.5" y1="6" x2="19.5" y2="9" gradientUnits="userSpaceOnUse">
<stop stop-color="white"/>
<stop offset="1" stop-color="white" stop-opacity="0"/>
</linearGradient>
</defs>
</svg>
