<?xml version="1.0" standalone="no"?>
<!DOCTYPE svg PUBLIC "-//W3C//DTD SVG 20010904//EN"
 "http://www.w3.org/TR/2001/REC-SVG-20010904/DTD/svg10.dtd">
<svg version="1.0" xmlns="http://www.w3.org/2000/svg"
 width="138.000000pt" height="138.000000pt" viewBox="0 0 138.000000 138.000000"
 preserveAspectRatio="xMidYMid meet">
<metadata>
Created by potrace 1.14, written by Peter Selinger 2001-2017
</metadata>
<g transform="translate(0.000000,138.000000) scale(0.100000,-0.100000)"
fill="#000000" stroke="none">
<path d="M882 1073 c-23 -9 -40 -56 -31 -89 8 -29 42 -54 74 -54 35 0 70 52
66 97 -3 36 -67 63 -109 46z"/>
<path d="M382 1057 c-10 -11 -49 -93 -132 -272 -92 -200 -162 -348 -189 -404
-17 -36 -31 -66 -31 -68 0 -2 24 -3 53 -3 l53 0 29 63 c16 34 31 64 32 66 4 6
454 7 463 1 5 -3 23 -33 40 -68 l31 -62 49 0 c28 0 50 4 50 9 0 5 -31 76 -70
156 -38 80 -70 148 -70 150 0 1 -24 54 -54 116 -29 63 -76 162 -104 222 l-51
107 -44 0 c-25 0 -49 -6 -55 -13z m173 -372 c26 -55 51 -110 55 -122 l9 -21
-185 -1 c-101 0 -184 2 -184 5 0 6 144 323 167 369 l16 29 38 -79 c21 -44 59
-125 84 -180z"/>
<path d="M1267 857 c-21 -5 -53 -24 -72 -42 l-35 -32 0 33 c0 34 -1 34 -45 34
l-45 0 0 -270 0 -270 45 0 45 0 0 43 c2 244 6 304 25 337 32 53 66 73 132 74
l58 2 0 47 c0 35 -3 47 -15 48 -8 0 -24 2 -35 3 -11 1 -37 -2 -58 -7z"/>
<path d="M871 580 l0 -270 48 0 47 0 0 270 0 270 -48 0 -48 0 1 -270z"/>
</g>
</svg>
