<?xml version="1.0" standalone="no"?>
<!DOCTYPE svg PUBLIC "-//W3C//DTD SVG 20010904//EN"
 "http://www.w3.org/TR/2001/REC-SVG-20010904/DTD/svg10.dtd">
<svg version="1.0" xmlns="http://www.w3.org/2000/svg"
 width="1472.000000pt" height="1472.000000pt" viewBox="0 0 1472.000000 1472.000000"
 preserveAspectRatio="xMidYMid meet">
<metadata>
Created by potrace 1.14, written by Peter Selinger 2001-2017
</metadata>
<g transform="translate(0.000000,1472.000000) scale(0.100000,-0.100000)"
fill="#000000" stroke="none">
<path d="M9807 11523 c-4 -3 -37 -7 -74 -9 -87 -5 -111 -9 -119 -17 -4 -4 -15
-7 -25 -7 -10 0 -30 -5 -46 -12 -15 -6 -31 -12 -35 -13 -5 -2 -11 -4 -15 -5
-5 -1 -11 -2 -15 -1 -5 0 -8 -3 -8 -9 0 -5 -4 -9 -8 -7 -13 4 -131 -73 -169
-109 -19 -19 -39 -34 -44 -34 -5 0 -9 -3 -9 -7 0 -5 -20 -30 -45 -57 -76 -85
-144 -244 -162 -376 -16 -118 2 -329 34 -410 3 -8 5 -18 5 -22 -1 -5 3 -8 8
-8 6 0 10 -8 10 -17 0 -50 131 -221 222 -291 80 -60 195 -118 261 -131 4 0 8
-1 10 -2 1 -1 34 -7 74 -13 77 -13 236 -13 293 -1 19 4 44 9 55 10 11 1 27 4
35 8 8 3 41 15 72 26 61 22 94 38 116 59 7 6 17 12 22 12 14 0 180 157 180
170 0 4 11 20 24 35 22 25 85 143 91 170 1 5 5 17 8 25 32 74 46 310 25 401
-5 24 -11 51 -13 59 -9 43 -48 138 -70 172 -14 20 -25 41 -25 44 0 11 -71 95
-125 148 -66 64 -220 162 -270 172 -5 1 -35 9 -65 18 -31 9 -84 18 -117 20
-34 2 -66 6 -71 10 -5 3 -12 3 -15 -1z"/>
<path d="M4099 11382 c-21 -3 -32 -17 -69 -95 -23 -51 -44 -98 -46 -106 -1 -8
-6 -17 -11 -20 -4 -3 -10 -15 -11 -26 -2 -11 -8 -21 -13 -23 -5 -2 -9 -7 -9
-12 0 -7 -40 -97 -110 -245 -15 -33 -45 -96 -65 -140 -21 -44 -51 -109 -68
-145 -17 -36 -31 -67 -32 -70 -1 -3 -19 -41 -39 -85 -21 -44 -52 -109 -68
-145 -17 -36 -44 -92 -60 -125 -16 -33 -29 -61 -29 -62 0 -2 -17 -40 -38 -85
-21 -46 -55 -117 -74 -158 -19 -41 -49 -105 -66 -142 -17 -36 -31 -71 -31 -77
0 -6 -4 -11 -10 -11 -5 0 -10 -9 -10 -19 0 -11 -7 -26 -15 -35 -9 -8 -16 -19
-17 -23 -2 -20 -34 -93 -149 -330 -27 -57 -49 -105 -49 -108 0 -4 -18 -42 -40
-86 -21 -43 -37 -79 -34 -79 3 0 -3 -12 -14 -27 -11 -16 -21 -32 -22 -38 -1
-5 -12 -32 -25 -60 -70 -153 -86 -188 -127 -275 -25 -52 -57 -120 -71 -150
-14 -30 -44 -95 -67 -145 -23 -49 -56 -119 -72 -154 -16 -35 -45 -98 -65 -140
-21 -42 -38 -83 -39 -91 -2 -8 -8 -16 -13 -18 -6 -2 -11 -10 -11 -18 0 -8 -19
-53 -43 -101 -24 -49 -44 -91 -45 -96 -1 -4 -8 -20 -16 -35 -7 -15 -36 -76
-64 -137 -28 -60 -75 -162 -105 -225 -30 -63 -67 -142 -82 -175 -15 -33 -40
-87 -55 -120 -81 -172 -120 -258 -120 -266 0 -5 -4 -9 -10 -9 -5 0 -10 -7 -10
-15 0 -8 -4 -23 -9 -33 -5 -9 -16 -32 -23 -49 -7 -18 -17 -33 -22 -33 -4 0 -6
-7 -2 -15 3 -8 1 -15 -4 -15 -6 0 -10 -4 -10 -9 0 -6 -25 -63 -56 -128 -30
-65 -56 -122 -57 -128 -1 -5 -5 -12 -8 -15 -10 -8 -89 -182 -89 -196 0 -7 -3
-14 -8 -16 -4 -1 -23 -37 -41 -78 -19 -41 -50 -109 -70 -150 -19 -41 -34 -78
-33 -82 1 -5 -3 -8 -8 -8 -5 0 -9 -3 -8 -7 1 -5 -19 -53 -46 -108 -27 -55 -49
-106 -49 -112 0 -7 -4 -13 -9 -13 -4 0 -7 -3 -6 -7 1 -5 -13 -37 -30 -72 -18
-36 -32 -70 -32 -78 0 -7 -4 -13 -10 -13 -5 0 -10 -9 -10 -20 0 -11 -4 -20 -9
-20 -5 0 -12 -12 -15 -26 -4 -14 -29 -70 -55 -124 -27 -55 -46 -102 -43 -105
3 -3 0 -5 -6 -5 -7 0 -12 -5 -12 -11 0 -6 -18 -49 -40 -95 -22 -47 -40 -89
-40 -94 0 -6 -5 -10 -12 -10 -6 0 -9 -3 -5 -6 3 -3 -5 -27 -18 -52 -21 -43
-112 -238 -194 -415 -17 -38 -31 -73 -31 -78 0 -5 -5 -9 -10 -9 -6 0 -9 -3 -8
-7 1 -5 -9 -30 -21 -58 -49 -104 -95 -203 -133 -285 -22 -47 -53 -114 -70
-150 -16 -36 -44 -94 -61 -130 -18 -35 -32 -67 -32 -70 -2 -19 -18 -50 -26
-50 -5 0 -9 -6 -9 -12 0 -7 -11 -37 -25 -65 -21 -47 -22 -53 -7 -54 9 0 263
-1 564 -1 550 -1 578 0 578 32 0 8 24 61 100 225 34 74 80 173 121 263 17 37
39 84 50 105 10 21 19 44 19 52 0 8 4 15 9 15 5 0 13 10 16 23 4 12 27 64 51
115 24 51 44 95 44 97 0 2 25 57 56 122 57 118 96 204 99 213 2 10 68 145 72
150 3 3 1129 5 2504 5 2400 0 2499 -1 2505 -18 3 -10 29 -68 59 -130 29 -62
64 -137 78 -167 41 -91 82 -179 140 -302 30 -64 53 -119 49 -122 -3 -3 0 -6 6
-6 7 0 12 -4 12 -10 0 -9 28 -71 118 -260 19 -41 36 -77 37 -80 2 -8 30 -68
71 -155 21 -44 38 -82 39 -85 3 -20 39 -80 49 -81 6 0 262 -2 568 -2 554 -2
558 -2 551 18 -5 19 -29 70 -116 255 -19 41 -51 111 -72 155 -20 44 -49 107
-65 140 -15 33 -42 90 -58 126 -45 96 -103 220 -156 332 -25 55 -46 103 -46
108 0 5 -5 9 -12 9 -6 0 -9 3 -5 6 3 4 -4 25 -15 48 -12 22 -23 43 -23 46 -3
10 -34 76 -99 214 -36 76 -66 139 -66 141 0 1 -24 54 -54 116 -29 63 -113 242
-186 399 -161 346 -188 405 -231 495 -18 39 -34 72 -35 75 -1 6 -55 123 -97
210 -17 36 -32 67 -32 70 -1 7 -82 178 -110 233 -14 26 -22 47 -18 47 3 0 -2
9 -13 21 -10 12 -17 22 -16 23 2 0 -13 37 -33 81 -51 112 -58 129 -57 138 1 4
-2 7 -7 7 -5 0 -15 17 -22 38 -6 20 -15 42 -19 47 -4 6 -30 60 -58 120 -28 61
-71 155 -97 210 -63 134 -98 209 -128 275 -13 30 -45 99 -71 152 -25 53 -46
102 -46 107 0 6 -5 11 -12 11 -6 0 -8 3 -5 6 4 4 -2 23 -13 43 -30 56 -100
210 -100 221 0 6 -4 10 -10 10 -5 0 -10 6 -10 13 0 8 -16 46 -35 85 -31 63
-65 138 -70 152 -1 3 -18 39 -37 80 -43 90 -101 215 -135 290 -14 30 -52 111
-84 179 -33 68 -59 125 -59 126 0 2 -29 64 -65 140 -36 75 -65 138 -65 140 0
1 -26 58 -59 126 -32 68 -70 149 -84 179 -32 71 -103 222 -130 280 -11 25 -22
47 -22 50 -1 3 -27 58 -58 124 -31 65 -57 120 -57 122 0 2 -18 40 -39 84 -22
44 -37 80 -34 80 3 0 -1 8 -9 18 -8 9 -27 46 -42 81 -16 35 -48 105 -72 157
-24 51 -44 97 -44 102 0 4 -6 14 -12 21 -7 6 -13 15 -13 19 -1 4 -12 30 -25
57 -13 28 -24 52 -24 55 -1 3 -15 34 -33 70 -17 36 -45 97 -63 135 -18 39 -49
106 -70 150 -20 44 -50 107 -65 140 l-28 60 -128 0 c-71 0 -129 -4 -129 -8 0
-5 -5 -5 -11 -1 -15 9 -309 11 -309 1 0 -5 -5 -5 -11 -2 -15 10 -169 11 -169
2 0 -5 -5 -5 -11 -1 -16 9 -169 11 -169 1 0 -5 -4 -5 -10 -2 -12 7 -74 11
-111 7z m547 -1317 c26 -60 72 -159 131 -282 20 -43 37 -80 38 -83 0 -3 12
-30 26 -60 15 -30 36 -75 47 -100 11 -25 43 -94 71 -154 28 -59 51 -112 51
-117 0 -5 4 -9 8 -9 5 0 9 -6 9 -12 0 -7 23 -60 50 -118 57 -120 89 -189 128
-275 55 -121 97 -212 129 -280 68 -143 100 -212 126 -270 15 -33 45 -98 67
-145 22 -47 47 -101 56 -120 8 -19 35 -78 60 -130 24 -52 55 -117 67 -145 76
-165 129 -279 191 -410 18 -38 33 -72 34 -75 1 -5 11 -26 86 -185 18 -38 33
-72 34 -75 0 -3 16 -36 34 -75 18 -38 59 -126 91 -195 32 -69 73 -159 93 -200
19 -41 46 -100 60 -130 46 -101 108 -235 123 -264 8 -16 14 -35 14 -42 0 -7 4
-14 8 -16 4 -1 20 -32 36 -68 16 -36 48 -107 72 -159 24 -51 44 -95 44 -96 0
-2 -904 -3 -2010 -3 -1596 0 -2010 3 -2010 13 0 6 11 33 25 59 14 26 25 53 25
60 0 8 7 19 15 26 9 7 13 15 11 18 -3 3 1 17 9 31 8 14 19 37 25 51 5 14 14
32 19 40 5 8 19 38 32 65 12 28 35 78 50 112 16 34 29 66 29 72 0 6 5 11 10
11 6 0 10 5 10 11 0 7 18 50 40 96 22 47 40 87 40 89 0 2 21 48 47 101 26 54
48 100 48 103 1 3 13 30 27 60 57 119 101 215 103 220 1 3 18 40 38 84 20 43
37 80 37 82 0 1 22 49 49 106 94 198 142 303 144 313 1 6 5 12 8 15 3 3 34 68
69 145 35 77 86 187 113 245 28 58 51 107 51 110 1 3 11 25 23 50 12 25 32 70
46 100 14 30 40 87 58 125 18 39 33 73 33 77 1 4 7 13 14 20 6 6 12 19 12 28
0 9 7 25 15 36 8 10 15 27 15 37 0 9 5 17 10 17 6 0 10 4 10 9 0 5 14 40 32
78 17 37 32 70 33 73 2 7 36 82 85 185 23 50 51 110 62 135 11 25 33 71 49
104 16 32 29 64 29 71 0 7 5 15 11 17 5 2 11 10 13 18 1 8 15 42 30 75 44 92
144 309 183 395 14 30 48 102 75 160 28 58 51 111 51 118 0 6 4 12 8 12 4 0
13 16 19 35 6 19 14 35 16 35 3 0 16 -25 30 -55z"/>
<path d="M13936 9212 c-2 -2 -33 -5 -67 -7 -66 -4 -108 -9 -194 -25 -114 -21
-140 -27 -140 -30 0 -1 -8 -3 -18 -5 -10 -2 -51 -14 -90 -26 -40 -12 -74 -23
-77 -24 -3 -1 -22 -9 -44 -18 -21 -9 -41 -17 -43 -17 -18 0 -276 -141 -293
-159 -3 -4 -25 -20 -50 -36 -25 -17 -50 -34 -56 -40 -7 -5 -36 -30 -65 -55
-69 -59 -135 -125 -195 -197 -27 -32 -55 -64 -61 -71 -21 -22 -143 -208 -163
-249 -11 -21 -20 -31 -20 -23 -1 8 -2 202 -3 430 l-2 415 -47 0 c-27 0 -48 3
-48 7 0 4 -10 4 -22 0 -13 -4 -36 -6 -53 -5 -36 4 -12 4 -228 1 -97 -2 -177 0
-177 4 0 4 -10 4 -22 0 -13 -4 -36 -6 -53 -5 -16 2 -34 3 -40 3 -5 0 -67 -1
-138 -2 l-127 -1 3 -26 c2 -14 0 -38 -4 -53 -4 -16 -5 -28 -1 -28 8 0 7 -4683
-2 -4705 -3 -8 -2 -15 2 -15 8 0 7 -282 -1 -305 -4 -8 -3 -15 1 -15 8 0 7
-282 -1 -305 -4 -8 -3 -15 1 -15 4 0 6 -66 6 -147 l-2 -148 494 0 494 0 0 25
c1 14 2 691 4 1505 2 814 6 1503 9 1530 3 28 9 84 12 125 4 41 8 84 11 95 2
11 6 40 9 65 2 25 7 59 10 75 3 17 7 44 10 60 3 17 7 41 10 55 3 14 8 38 10
53 3 15 12 56 21 90 8 34 17 73 20 86 3 13 14 49 25 80 22 60 23 62 35 101 13
41 95 203 120 237 13 17 24 36 24 42 0 5 8 15 18 20 9 6 13 11 7 11 -7 0 -7 3
0 8 6 4 28 30 50 57 67 84 247 255 269 255 4 0 14 6 21 13 31 27 60 45 160 96
16 9 33 21 37 26 4 6 8 6 8 1 0 -5 7 -3 15 4 8 7 15 10 15 6 0 -4 10 0 23 8
20 13 155 61 200 72 151 35 258 51 399 58 37 2 71 7 77 11 6 3 11 3 11 -2 0
-4 42 -8 93 -9 82 0 125 -4 247 -18 118 -13 153 -19 268 -42 17 -3 22 0 23 18
1 32 1 1000 0 1015 -1 11 -16 14 -126 27 -22 3 -56 7 -75 10 -19 3 -57 8 -85
11 -27 3 -68 7 -90 10 -46 7 -344 13 -349 7z"/>
<path d="M9416 9083 c-4 -4 -28 -7 -54 -7 l-47 -1 -1 -2877 c-1 -2653 0 -2878
15 -2879 21 -1 941 -1 961 0 13 1 15 327 15 2876 0 1581 -2 2876 -5 2877 -7 2
-63 8 -75 8 -5 0 -90 -1 -188 -2 -97 -2 -177 0 -177 4 0 4 -10 4 -22 0 -13 -4
-36 -6 -53 -5 -16 2 -34 3 -40 3 -5 0 -76 -1 -156 -2 -80 0 -150 2 -156 5 -6
4 -13 3 -17 0z"/>
</g>
</svg>
