<svg width="1040" height="700" viewBox="0 0 1451 547" fill="none" xmlns="http://www.w3.org/2000/svg">
<g id="Shapes">
<g id="Rectangle" opacity="0.5">
<rect x="1138.98" y="390.084" width="82.6109" height="30.8432" rx="15.4216" transform="rotate(-65.0996 1138.98 390.084)" stroke="#F25656" stroke-width="3"/>
<rect x="1138.98" y="390.084" width="82.6109" height="30.8432" rx="15.4216" transform="rotate(-65.0996 1138.98 390.084)" stroke="url(#paint0_linear)" stroke-opacity="0.25" stroke-width="3"/>
</g>
<g id="Rectangle_2" opacity="0.5">
<rect x="152.992" y="76.9233" width="82.6109" height="30.8432" rx="15.4216" transform="rotate(-65.0996 152.992 76.9233)" stroke="#F25656" stroke-width="3"/>
<rect x="152.992" y="76.9233" width="82.6109" height="30.8432" rx="15.4216" transform="rotate(-65.0996 152.992 76.9233)" stroke="url(#paint1_linear)" stroke-opacity="0.25" stroke-width="3"/>
</g>
<g id="Rectangle_3" opacity="0.5">
<rect x="365.992" y="45.3413" width="42.28" height="14.8998" rx="7.44991" transform="rotate(-65.0996 365.992 45.3413)" stroke="#FCC304" stroke-width="3"/>
<rect x="365.992" y="45.3413" width="42.28" height="14.8998" rx="7.44991" transform="rotate(-65.0996 365.992 45.3413)" stroke="url(#paint2_linear)" stroke-opacity="0.25" stroke-width="3"/>
</g>
<g id="Rectangle_4" opacity="0.5">
<rect x="931.992" y="482.341" width="42.28" height="14.8998" rx="7.44991" transform="rotate(-65.0996 931.992 482.341)" stroke="#BC04FC" stroke-width="3"/>
<rect x="931.992" y="482.341" width="42.28" height="14.8998" rx="7.44991" transform="rotate(-65.0996 931.992 482.341)" stroke="url(#paint3_linear)" stroke-opacity="0.25" stroke-width="3"/>
</g>
<g id="Rectangle_5" opacity="0.5">
<rect x="1385.59" y="282.148" width="83.406" height="31.1576" rx="15.5788" transform="rotate(-65.0996 1385.59 282.148)" stroke="#FCC304" stroke-width="3"/>
<rect x="1385.59" y="282.148" width="83.406" height="31.1576" rx="15.5788" transform="rotate(-65.0996 1385.59 282.148)" stroke="url(#paint4_linear)" stroke-opacity="0.25" stroke-width="3"/>
</g>
<g id="Rectangle_6" opacity="0.5">
<rect x="1258.01" y="479.275" width="148.608" height="55.7233" rx="27.8616" transform="rotate(-65.0996 1258.01 479.275)" stroke="#56CCF2" stroke-width="5"/>
<rect x="1258.01" y="479.275" width="148.608" height="55.7233" rx="27.8616" transform="rotate(-65.0996 1258.01 479.275)" stroke="url(#paint5_linear)" stroke-opacity="0.25" stroke-width="5"/>
</g>
<g id="Rectangle_7" opacity="0.5">
<rect x="3.47646" y="357.998" width="62.3586" height="21.6278" rx="10.8139" transform="rotate(-65.0996 3.47646 357.998)" stroke="#56CCF2" stroke-width="5"/>
<rect x="3.47646" y="357.998" width="62.3586" height="21.6278" rx="10.8139" transform="rotate(-65.0996 3.47646 357.998)" stroke="url(#paint6_linear)" stroke-opacity="0.25" stroke-width="5"/>
</g>
<g id="Rectangle_8" opacity="0.5">
<rect x="1194.23" y="187.48" width="138.037" height="51.5447" rx="25.7723" transform="rotate(-65.0996 1194.23 187.48)" stroke="black" stroke-width="5"/>
<rect x="1194.23" y="187.48" width="138.037" height="51.5447" rx="25.7723" transform="rotate(-65.0996 1194.23 187.48)" stroke="#03D542" stroke-width="5"/>
<rect x="1194.23" y="187.48" width="138.037" height="51.5447" rx="25.7723" transform="rotate(-65.0996 1194.23 187.48)" stroke="url(#paint7_linear)" stroke-opacity="0.25" stroke-width="5"/>
</g>
<g id="Rectangle_9" opacity="0.5">
<rect x="1368.34" y="84.9608" width="48.6867" height="16.2231" rx="8.11156" transform="rotate(-65.0996 1368.34 84.9608)" stroke="black" stroke-width="5"/>
<rect x="1368.34" y="84.9608" width="48.6867" height="16.2231" rx="8.11156" transform="rotate(-65.0996 1368.34 84.9608)" stroke="#BC04FC" stroke-width="5"/>
<rect x="1368.34" y="84.9608" width="48.6867" height="16.2231" rx="8.11156" transform="rotate(-65.0996 1368.34 84.9608)" stroke="url(#paint8_linear)" stroke-opacity="0.25" stroke-width="5"/>
</g>
<g id="Rectangle_10" opacity="0.5">
<rect x="190.32" y="339.527" width="138.037" height="51.5447" rx="25.7723" transform="rotate(-65.0996 190.32 339.527)" stroke="black" stroke-width="5"/>
<rect x="190.32" y="339.527" width="138.037" height="51.5447" rx="25.7723" transform="rotate(-65.0996 190.32 339.527)" stroke="#03D542" stroke-width="5"/>
<rect x="190.32" y="339.527" width="138.037" height="51.5447" rx="25.7723" transform="rotate(-65.0996 190.32 339.527)" stroke="url(#paint9_linear)" stroke-opacity="0.25" stroke-width="5"/>
</g>
<g id="Rectangle_11" opacity="0.5">
<rect x="52.7421" y="530.078" width="88.5407" height="31.978" rx="15.989" transform="rotate(-65.0996 52.7421 530.078)" stroke="black" stroke-width="5"/>
<rect x="52.7421" y="530.078" width="88.5407" height="31.978" rx="15.989" transform="rotate(-65.0996 52.7421 530.078)" stroke="#BC04FC" stroke-width="5"/>
<rect x="52.7421" y="530.078" width="88.5407" height="31.978" rx="15.989" transform="rotate(-65.0996 52.7421 530.078)" stroke="url(#paint10_linear)" stroke-opacity="0.25" stroke-width="5"/>
</g>
<g id="Rectangle_12" opacity="0.5">
<rect x="402.32" y="432.853" width="40.2775" height="12.8988" rx="6.44942" transform="rotate(-65.0996 402.32 432.853)" stroke="black" stroke-width="5"/>
<rect x="402.32" y="432.853" width="40.2775" height="12.8988" rx="6.44942" transform="rotate(-65.0996 402.32 432.853)" stroke="#FCC304" stroke-width="5"/>
<rect x="402.32" y="432.853" width="40.2775" height="12.8988" rx="6.44942" transform="rotate(-65.0996 402.32 432.853)" stroke="url(#paint11_linear)" stroke-opacity="0.25" stroke-width="5"/>
</g>
</g>
<defs>
<linearGradient id="paint0_linear" x1="1179.79" y1="390.813" x2="1179.79" y2="424.656" gradientUnits="userSpaceOnUse">
<stop stop-color="white"/>
<stop offset="1" stop-color="white" stop-opacity="0"/>
</linearGradient>
<linearGradient id="paint1_linear" x1="193.805" y1="77.6523" x2="193.805" y2="111.496" gradientUnits="userSpaceOnUse">
<stop stop-color="white"/>
<stop offset="1" stop-color="white" stop-opacity="0"/>
</linearGradient>
<linearGradient id="paint2_linear" x1="386.64" y1="46.0703" x2="386.64" y2="63.9701" gradientUnits="userSpaceOnUse">
<stop stop-color="white"/>
<stop offset="1" stop-color="white" stop-opacity="0"/>
</linearGradient>
<linearGradient id="paint3_linear" x1="952.64" y1="483.07" x2="952.64" y2="500.97" gradientUnits="userSpaceOnUse">
<stop stop-color="white"/>
<stop offset="1" stop-color="white" stop-opacity="0"/>
</linearGradient>
<linearGradient id="paint4_linear" x1="1426.8" y1="282.877" x2="1426.8" y2="317.035" gradientUnits="userSpaceOnUse">
<stop stop-color="white"/>
<stop offset="1" stop-color="white" stop-opacity="0"/>
</linearGradient>
<linearGradient id="paint5_linear" x1="1331.49" y1="480.49" x2="1331.49" y2="541.214" gradientUnits="userSpaceOnUse">
<stop stop-color="white"/>
<stop offset="1" stop-color="white" stop-opacity="0"/>
</linearGradient>
<linearGradient id="paint6_linear" x1="33.8356" y1="359.213" x2="33.8356" y2="385.841" gradientUnits="userSpaceOnUse">
<stop stop-color="white"/>
<stop offset="1" stop-color="white" stop-opacity="0"/>
</linearGradient>
<linearGradient id="paint7_linear" x1="1262.43" y1="188.695" x2="1262.43" y2="245.24" gradientUnits="userSpaceOnUse">
<stop stop-color="white"/>
<stop offset="1" stop-color="white" stop-opacity="0"/>
</linearGradient>
<linearGradient id="paint8_linear" x1="1391.86" y1="86.1758" x2="1391.86" y2="107.399" gradientUnits="userSpaceOnUse">
<stop stop-color="white"/>
<stop offset="1" stop-color="white" stop-opacity="0"/>
</linearGradient>
<linearGradient id="paint9_linear" x1="258.519" y1="340.742" x2="258.519" y2="397.287" gradientUnits="userSpaceOnUse">
<stop stop-color="white"/>
<stop offset="1" stop-color="white" stop-opacity="0"/>
</linearGradient>
<linearGradient id="paint10_linear" x1="96.1922" y1="531.293" x2="96.1922" y2="568.271" gradientUnits="userSpaceOnUse">
<stop stop-color="white"/>
<stop offset="1" stop-color="white" stop-opacity="0"/>
</linearGradient>
<linearGradient id="paint11_linear" x1="421.639" y1="434.068" x2="421.639" y2="451.967" gradientUnits="userSpaceOnUse">
<stop stop-color="white"/>
<stop offset="1" stop-color="white" stop-opacity="0"/>
</linearGradient>
</defs>
</svg>
