<?xml version="1.0" encoding="utf-8"?>
<!-- Generator: Adobe Illustrator 19.0.0, SVG Export Plug-In . SVG Version: 6.00 Build 0)  -->
<svg version="1.1" id="Logo" xmlns="http://www.w3.org/2000/svg" xmlns:xlink="http://www.w3.org/1999/xlink" x="0px" y="0px"
	 viewBox="-229 31 500 500" style="enable-background:new -229 31 500 500;" xml:space="preserve">
<style type="text/css">
	.st0{fill:url(#SVGID_1_);}
	.st1{fill:url(#SVGID_2_);}
	.st2{fill:#BC30A0;}
	.st3{fill:url(#SVGID_3_);}
</style>
<g>
	<linearGradient id="SVGID_1_" gradientUnits="userSpaceOnUse" x1="-42.2693" y1="69.3398" x2="77.2629" y2="469.2211">
		<stop  offset="0" style="stop-color:#4367DC"/>
		<stop  offset="4.288606e-002" style="stop-color:#4C62D6"/>
		<stop  offset="0.1142" style="stop-color:#6654C7"/>
		<stop  offset="0.2045" style="stop-color:#8F3DAE"/>
		<stop  offset="0.2341" style="stop-color:#9E35A5"/>
		<stop  offset="0.4512" style="stop-color:#D42F7F"/>
		<stop  offset="0.8242" style="stop-color:#D73578"/>
	</linearGradient>
	<path class="st0" d="M202.4,205.8c-0.9-19.4-4-32.7-8.5-44.3c-4.7-12-10.9-22.2-21-32.3c-10.1-10.1-20.3-16.4-32.3-21
		c-11.6-4.5-24.9-7.6-44.3-8.5c-19.5-0.9-25.7-1.1-75.2-1.1c-49.6,0-55.8,0.2-75.2,1.1c-19.4,0.9-32.7,4-44.3,8.5
		c-12,4.7-22.2,10.9-32.3,21c-10.1,10.1-16.4,20.3-21,32.3c-4.5,11.6-7.6,24.9-8.5,44.3c-0.9,19.5-1.1,25.7-1.1,75.2
		c0,49.6,0.2,55.8,1.1,75.2c0.9,19.4,4,32.7,8.5,44.3c4.7,12,10.9,22.2,21,32.3c10.1,10.1,20.3,16.4,32.3,21
		c11.6,4.5,24.9,7.6,44.3,8.5c19.5,0.9,25.7,1.1,75.2,1.1c49.6,0,55.8-0.2,75.2-1.1c19.4-0.9,32.7-4,44.3-8.5
		c12-4.7,22.2-10.9,32.3-21c10.1-10.1,16.4-20.3,21-32.3c4.5-11.6,7.6-24.9,8.5-44.3c0.9-19.5,1.1-25.7,1.1-75.2
		S203.3,225.2,202.4,205.8z M169.6,354.7c-0.8,17.8-3.8,27.5-6.3,33.9c-3.3,8.5-7.3,14.6-13.7,21c-6.4,6.4-12.5,10.3-21,13.7
		c-6.4,2.5-16.1,5.5-33.9,6.3c-19.2,0.9-25,1.1-73.7,1.1s-54.5-0.2-73.7-1.1c-17.8-0.8-27.5-3.8-33.9-6.3c-8.5-3.3-14.6-7.3-21-13.7
		c-6.4-6.4-10.3-12.5-13.7-21c-2.5-6.4-5.5-16.1-6.3-33.9c-0.9-19.2-1.1-25-1.1-73.7s0.2-54.5,1.1-73.7c0.8-17.8,3.8-27.5,6.3-33.9
		c3.3-8.5,7.3-14.6,13.7-21c6.4-6.4,12.5-10.3,21-13.7c6.4-2.5,16.1-5.5,33.9-6.3c19.2-0.9,25-1.1,73.7-1.1s54.5,0.2,73.7,1.1
		c17.8,0.8,27.5,3.8,33.9,6.3c8.5,3.3,14.6,7.3,21,13.7c6.4,6.4,10.3,12.5,13.7,21c2.5,6.4,5.5,16.1,6.3,33.9
		c0.9,19.2,1.1,25,1.1,73.7S170.4,335.5,169.6,354.7z"/>
	<linearGradient id="SVGID_2_" gradientUnits="userSpaceOnUse" x1="65.7096" y1="205.8274" x2="-30.117" y2="366.9456">
		<stop  offset="0.3304" style="stop-color:#D42F7F"/>
		<stop  offset="1" style="stop-color:#F7772E"/>
	</linearGradient>
	<path class="st1" d="M21,187.3c-51.8,0-93.7,42-93.7,93.7c0,51.8,42,93.7,93.7,93.7s93.7-42,93.7-93.7
		C114.7,229.2,72.8,187.3,21,187.3z M21,341.8c-33.6,0-60.8-27.2-60.8-60.8c0-33.6,27.2-60.8,60.8-60.8c33.6,0,60.8,27.2,60.8,60.8
		C81.8,314.6,54.6,341.8,21,341.8z"/>
	<circle class="st2" cx="118.4" cy="183.6" r="21.9"/>
	
		<linearGradient id="SVGID_3_" gradientUnits="userSpaceOnUse" x1="-61.7363" y1="83.6674" x2="99.6429" y2="468.5696" gradientTransform="matrix(-1 0 0 1 42 0)">
		<stop  offset="0.2341" style="stop-color:#9E35A5;stop-opacity:0"/>
		<stop  offset="0.4512" style="stop-color:#D42F7F;stop-opacity:0.5"/>
		<stop  offset="0.7524" style="stop-color:#F7772E"/>
		<stop  offset="0.9624" style="stop-color:#FEF780"/>
	</linearGradient>
	<path class="st3" d="M-161.5,281c0,49.6,0.2,55.8,1.1,75.2c0.9,19.4,4,32.7,8.5,44.3c4.7,12,10.9,22.2,21,32.3
		c10.1,10.1,20.3,16.4,32.3,21c11.6,4.5,24.9,7.6,44.3,8.5c19.5,0.9,25.7,1.1,75.2,1.1c49.6,0,55.8-0.2,75.2-1.1
		c19.4-0.9,32.7-4,44.3-8.5c12-4.7,22.2-10.9,32.3-21c10.1-10.1,16.4-20.3,21-32.3c4.5-11.6,7.6-24.9,8.5-44.3
		c0.9-19.5,1.1-25.7,1.1-75.2c0-49.6-0.2-55.8-1.1-75.2c-0.9-19.4-4-32.7-8.5-44.3c-4.7-12-10.9-22.2-21-32.3
		c-10.1-10.1-20.3-16.4-32.3-21c-11.6-4.5-24.9-7.6-44.3-8.5c-19.5-0.9-25.7-1.1-75.2-1.1c-49.6,0-55.8,0.2-75.2,1.1
		c-19.4,0.9-32.7,4-44.3,8.5c-12,4.7-22.2,10.9-32.3,21c-10.1,10.1-16.4,20.3-21,32.3c-4.5,11.6-7.6,24.9-8.5,44.3
		C-161.3,225.2-161.5,231.4-161.5,281z M-128.6,281c0-48.7,0.2-54.5,1.1-73.7c0.8-17.8,3.8-27.5,6.3-33.9c3.3-8.5,7.3-14.6,13.7-21
		c6.4-6.4,12.5-10.3,21-13.7c6.4-2.5,16.1-5.5,33.9-6.3c19.2-0.9,25-1.1,73.7-1.1s54.5,0.2,73.7,1.1c17.8,0.8,27.5,3.8,33.9,6.3
		c8.5,3.3,14.6,7.3,21,13.7c6.4,6.4,10.3,12.5,13.7,21c2.5,6.4,5.5,16.1,6.3,33.9c0.9,19.2,1.1,25,1.1,73.7s-0.2,54.5-1.1,73.7
		c-0.8,17.8-3.8,27.5-6.3,33.9c-3.3,8.5-7.3,14.6-13.7,21c-6.4,6.4-12.5,10.3-21,13.7c-6.4,2.5-16.1,5.5-33.9,6.3
		c-19.2,0.9-25,1.1-73.7,1.1s-54.5-0.2-73.7-1.1c-17.8-0.8-27.5-3.8-33.9-6.3c-8.5-3.3-14.6-7.3-21-13.7c-6.4-6.4-10.3-12.5-13.7-21
		c-2.5-6.4-5.5-16.1-6.3-33.9C-128.4,335.5-128.6,329.7-128.6,281z"/>
</g>
</svg>
