<?xml version="1.0" encoding="utf-8"?>
<!-- Generator: Adobe Illustrator 20.1.0, SVG Export Plug-In . SVG Version: 6.00 Build 0)  -->
<svg version="1.1" id="Слой_1" xmlns="http://www.w3.org/2000/svg" xmlns:xlink="http://www.w3.org/1999/xlink" x="0px" y="0px"
	 viewBox="0 0 25 22" style="enable-background:new 0 0 25 22;" xml:space="preserve">
<style type="text/css">
	.st0{fill:#FFFFFF;}
</style>
<path id="ф" class="st0" d="M7.8,21.3c2,0.1,3.9-0.3,5.8-1c1.8-0.7,3.5-1.8,4.9-3.1c1.4-1.4,2.6-3,3.3-4.8S23,8.6,23,6.7
	c0.9-1.1,1.6-2.4,2-3.8c0-0.1,0-0.2,0-0.3c0-0.1-0.1-0.2-0.2-0.3c-0.1-0.1-0.2-0.1-0.3-0.1c-0.1,0-0.2,0-0.3,0.1
	c-0.5,0.2-1,0.3-1.5,0.2c-0.5-0.1-1-0.3-1.4-0.7c-0.5-0.5-1-0.9-1.7-1.2C19,0.2,18.3,0,17.6,0s-1.4,0.1-2,0.3
	c-0.6,0.3-1.2,0.6-1.7,1.1c-0.7,0.7-1.2,1.5-1.5,2.4c-0.3,0.9-0.3,1.9-0.1,2.8c-4.5,0.3-7.5-1.9-10-4.8C2.2,1.8,2.1,1.8,2,1.7
	c-0.1,0-0.2,0-0.3,0c-0.1,0-0.2,0.1-0.3,0.2C1.4,2,1.3,2.1,1.3,2.2c-0.5,2.6-0.1,5.3,1,7.7c1.1,2.4,2.9,4.4,5.2,5.7
	c-1.5,1.7-3.7,2.8-6,3c-0.1,0-0.2,0.1-0.3,0.2C1.1,18.9,1,19,1,19.2c0,0.1,0,0.3,0.1,0.4c0.1,0.1,0.1,0.2,0.3,0.3
	C3.3,20.8,5.5,21.3,7.8,21.3z"/>
</svg>
