<?xml version="1.0" standalone="no"?>
<!DOCTYPE svg PUBLIC "-//W3C//DTD SVG 20010904//EN"
 "http://www.w3.org/TR/2001/REC-SVG-20010904/DTD/svg10.dtd">
<svg version="1.0" xmlns="http://www.w3.org/2000/svg"
 width="1280.000000pt" height="1280.000000pt" viewBox="0 0 1280.000000 1280.000000"
 preserveAspectRatio="xMidYMid meet">
<metadata>
Created by potrace 1.15, written by Peter Selinger 2001-2017
</metadata>
<g transform="translate(0.000000,1280.000000) scale(0.100000,-0.100000)"
fill="#000000" stroke="none">
<path d="M2744 8247 c-34 -13 -84 -40 -110 -60 -85 -62 -1518 -1507 -1548
-1560 -81 -143 -81 -304 1 -455 32 -57 1481 -1515 1559 -1567 227 -152 539
-66 655 180 56 120 57 253 2 380 -24 53 -67 100 -387 423 l-360 362 1485 0
c1033 0 1503 3 1545 11 295 54 451 380 312 654 -53 103 -190 203 -307 225 -34
6 -592 10 -1545 10 l-1490 0 356 358 c320 320 360 364 387 422 106 226 15 488
-208 598 -70 35 -81 37 -180 39 -91 3 -115 0 -167 -20z"/>
<path d="M9765 8252 c-119 -41 -214 -126 -266 -236 -58 -124 -59 -250 -3 -378
25 -57 61 -97 388 -425 l360 -363 -1490 0 c-957 0 -1511 -4 -1545 -10 -133
-25 -260 -126 -322 -257 -30 -64 -32 -74 -32 -184 0 -113 1 -116 38 -191 62
-126 179 -218 315 -247 38 -8 486 -11 1545 -11 l1491 0 -360 -362 c-327 -329
-363 -369 -388 -426 -58 -132 -55 -259 8 -388 44 -88 121 -163 213 -207 64
-30 74 -32 183 -32 112 0 117 1 195 38 79 38 87 45 837 795 740 740 758 759
793 833 69 147 65 284 -13 428 -29 54 -1451 1486 -1545 1557 -35 26 -86 52
-124 64 -83 25 -208 26 -278 2z"/>
</g>
</svg>
