<svg width="24" height="24" viewBox="0 0 24 24" fill="none" xmlns="http://www.w3.org/2000/svg">
<path fill-rule="evenodd" clip-rule="evenodd" d="M16.7008 4.57731C16.1258 5.72727 15.7413 7.38591 15.7413 9.27259C15.7413 11.1593 16.1258 12.8179 16.7008 13.9679C17.3057 15.1777 17.9563 15.5452 18.3776 15.5452C18.7989 15.5452 19.4496 15.1777 20.0545 13.9679C20.6294 12.8179 21.0139 11.1593 21.0139 9.27259C21.0139 7.38591 20.6294 5.72727 20.0545 4.57731C19.4496 3.36753 18.7989 3 18.3776 3C17.9563 3 17.3057 3.36753 16.7008 4.57731ZM4.13619 7.49812L14.7049 4.12846C14.0915 5.55067 13.7413 7.3496 13.7413 9.27259C13.7413 11.1956 14.0915 12.9945 14.7049 14.4167L4.13619 11.0471L4.11764 11.0414C3.76766 10.9372 3.46516 10.7139 3.26261 10.41C3.06006 10.1062 2.97024 9.74108 3.00871 9.37796C3.01613 9.30791 3.01613 9.23728 3.00871 9.16723C2.97024 8.80411 3.06006 8.43898 3.26261 8.13516C3.46516 7.83133 3.76766 7.60798 4.11764 7.50384L4.13619 7.49812ZM3.53715 5.58992L17.3612 1.18235C17.6781 1.06508 18.017 1 18.3776 1C19.9646 1 21.1321 2.26049 21.8433 3.68288C22.5844 5.16508 23.0139 7.14274 23.0139 9.27259C23.0139 11.4024 22.5844 13.3801 21.8433 14.8623C21.1321 16.2847 19.9646 17.5452 18.3776 17.5452C18.017 17.5452 17.6781 17.4801 17.3612 17.3628L11.9439 15.6356L12.8266 18.3031C13.0919 18.9878 13.0795 19.7496 12.7913 20.4259C12.4985 21.1128 11.9452 21.6555 11.2526 21.9348L11.2512 21.9354C10.5583 22.2136 9.78323 22.2054 9.09629 21.9127C8.40936 21.6199 7.86667 21.0666 7.5874 20.374C7.58238 20.3616 7.57761 20.349 7.57309 20.3364L5.11686 13.4589L3.53715 12.9553C2.74376 12.7166 2.0582 12.209 1.59851 11.5194C1.15647 10.8564 0.949993 10.0652 1.01026 9.27259C0.949993 8.48 1.15647 7.68882 1.59851 7.02576C2.0582 6.33622 2.74376 5.82856 3.53715 5.58992ZM9.5888 14.8847L7.51349 14.2231L9.44846 19.641C9.53122 19.8351 9.68589 19.9899 9.88037 20.0728C10.0796 20.1577 10.3044 20.1601 10.5055 20.0796C10.7061 19.9984 10.8665 19.841 10.9514 19.6418C11.0364 19.4424 11.0388 19.2173 10.958 19.0161C10.9503 18.9969 10.9431 18.9774 10.9366 18.9577L9.5888 14.8847ZM18.9336 7.46342C19.3793 7.96077 19.6263 8.60478 19.6275 9.27261C19.6263 9.94044 19.3793 10.5845 18.9336 11.0818C18.4879 11.5791 17.8747 11.895 17.211 11.9692C17.0005 11.0859 16.8961 10.1806 16.9001 9.27261C16.8961 8.36459 17.0005 7.45933 17.211 6.57605C17.8747 6.6502 18.4879 6.96608 18.9336 7.46342Z" fill="#008AFF"/>
</svg>
