<svg width="32" height="32" viewBox="0 0 32 32" fill="none" xmlns="http://www.w3.org/2000/svg">
<g clip-path="url(#clip0_22904_1519)">
<path d="M10.7724 26.6671C12.744 26.733 14.7088 26.4031 16.5507 25.6968C18.3926 24.9905 20.0743 23.9221 21.4963 22.5548C22.9183 21.1875 24.0517 19.549 24.8297 17.7362C25.6077 15.9234 26.0144 13.973 26.0257 12.0004C26.9293 10.8823 27.6002 9.59482 27.9991 8.21372C28.0289 8.1046 28.0264 7.9892 27.9922 7.88142C27.9579 7.77363 27.8931 7.67806 27.8058 7.6062C27.7184 7.53435 27.6122 7.48928 27.4998 7.47642C27.3874 7.46356 27.2737 7.48346 27.1724 7.53372C26.6997 7.76126 26.1675 7.83475 25.6509 7.74386C25.1342 7.65296 24.6591 7.40225 24.2924 7.02705C23.8243 6.51449 23.2582 6.10109 22.6274 5.81135C21.9966 5.52162 21.3141 5.36143 20.6203 5.3403C19.9265 5.31916 19.2356 5.4375 18.5883 5.6883C17.9411 5.9391 17.3508 6.31727 16.8524 6.80038C16.17 7.46126 15.6702 8.28744 15.4015 9.19862C15.1328 10.1098 15.1044 11.075 15.3191 12.0004C10.8524 12.2671 7.78574 10.1471 5.33241 7.24038C5.25871 7.15692 5.1623 7.09672 5.05495 7.06714C4.9476 7.03757 4.83396 7.03989 4.72791 7.07382C4.62186 7.10776 4.52799 7.17184 4.45775 7.25825C4.38752 7.34465 4.34397 7.44964 4.33241 7.56038C3.86504 10.1529 4.20218 12.8264 5.29857 15.2218C6.39495 17.6172 8.19807 19.6197 10.4657 20.9604C8.94526 22.7042 6.81002 23.7933 4.50575 24.0004C4.38229 24.0209 4.26833 24.0794 4.17981 24.1679C4.09129 24.2563 4.03264 24.3702 4.01207 24.4937C3.9915 24.6171 4.01003 24.7439 4.06508 24.8563C4.12013 24.9686 4.20894 25.061 4.31908 25.1204C6.32377 26.1222 8.53139 26.6513 10.7724 26.6671Z" fill="#2060F6"/>
</g>
<defs>
<clipPath id="clip0_22904_1519">
<rect width="32" height="32" fill="white"/>
</clipPath>
</defs>
</svg>
